 0
SECTION
 2
HEADER
 9
$ACADVER
 1
AC1009
 0
ENDSEC
 0
SECTION
 2
ENTITIES
 0
POLYLINE
 8
TITLE
 66
1
 70
1
 10
0.0
 20
0.0
 30
0.0
 0
VERTEX
 8
TITLE
 10
 -2.5400
 20
  2.5400
 30
0.0
 0
VERTEX
 8
TITLE
 10
591.3120
 20
  2.5400
 30
0.0
 0
VERTEX
 8
TITLE
 10
591.3120
 20
422.4020
 30
0.0
 0
VERTEX
 8
TITLE
 10
 -2.5400
 20
422.4020
 30
0.0
 0
SEQEND
 8
TITLE
 0
POLYLINE
 8
TITLE
 66
1
 70
1
 10
0.0
 20
0.0
 30
0.0
 0
VERTEX
 8
TITLE
 10
  0.0000
 20
  5.0800
 30
0.0
 0
VERTEX
 8
TITLE
 10
588.7720
 20
  5.0800
 30
0.0
 0
VERTEX
 8
TITLE
 10
588.7720
 20
419.8620
 30
0.0
 0
VERTEX
 8
TITLE
 10
  0.0000
 20
419.8620
 30
0.0
 0
SEQEND
 8
TITLE
 0
POLYLINE
 8
TITLE
 66
1
 10
0.0
 20
0.0
 30
0.0
 0
VERTEX
 8
TITLE
 10
121.6660
 20
  5.0800
 30
0.0
 0
VERTEX
 8
TITLE
 10
121.6660
 20
  2.5400
 30
0.0
 0
SEQEND
 8
TITLE
 0
POLYLINE
 8
TITLE
 66
1
 10
0.0
 20
0.0
 30
0.0
 0
VERTEX
 8
TITLE
 10
121.6660
 20
419.8620
 30
0.0
 0
VERTEX
 8
TITLE
 10
121.6660
 20
422.4020
 30
0.0
 0
SEQEND
 8
TITLE
 0
POLYLINE
 8
TITLE
 66
1
 10
0.0
 20
0.0
 30
0.0
 0
VERTEX
 8
TITLE
 10
238.2520
 20
  5.0800
 30
0.0
 0
VERTEX
 8
TITLE
 10
238.2520
 20
  2.5400
 30
0.0
 0
SEQEND
 8
TITLE
 0
POLYLINE
 8
TITLE
 66
1
 10
0.0
 20
0.0
 30
0.0
 0
VERTEX
 8
TITLE
 10
238.2520
 20
419.8620
 30
0.0
 0
VERTEX
 8
TITLE
 10
238.2520
 20
422.4020
 30
0.0
 0
SEQEND
 8
TITLE
 0
POLYLINE
 8
TITLE
 66
1
 10
0.0
 20
0.0
 30
0.0
 0
VERTEX
 8
TITLE
 10
354.8380
 20
  5.0800
 30
0.0
 0
VERTEX
 8
TITLE
 10
354.8380
 20
  2.5400
 30
0.0
 0
SEQEND
 8
TITLE
 0
POLYLINE
 8
TITLE
 66
1
 10
0.0
 20
0.0
 30
0.0
 0
VERTEX
 8
TITLE
 10
354.8380
 20
419.8620
 30
0.0
 0
VERTEX
 8
TITLE
 10
354.8380
 20
422.4020
 30
0.0
 0
SEQEND
 8
TITLE
 0
POLYLINE
 8
TITLE
 66
1
 10
0.0
 20
0.0
 30
0.0
 0
VERTEX
 8
TITLE
 10
471.4240
 20
  5.0800
 30
0.0
 0
VERTEX
 8
TITLE
 10
471.4240
 20
  2.5400
 30
0.0
 0
SEQEND
 8
TITLE
 0
POLYLINE
 8
TITLE
 66
1
 10
0.0
 20
0.0
 30
0.0
 0
VERTEX
 8
TITLE
 10
471.4240
 20
419.8620
 30
0.0
 0
VERTEX
 8
TITLE
 10
471.4240
 20
422.4020
 30
0.0
 0
SEQEND
 8
TITLE
 0
TEXT
 8
TITLE
 10
 63.2460
 20
  3.0480
 30
0.0
 40
  1.2700
 1
5
 0
TEXT
 8
TITLE
 10
 63.2460
 20
420.3700
 30
0.0
 40
  1.2700
 1
5
 0
TEXT
 8
TITLE
 10
179.8320
 20
  3.0480
 30
0.0
 40
  1.2700
 1
4
 0
TEXT
 8
TITLE
 10
179.8320
 20
420.3700
 30
0.0
 40
  1.2700
 1
4
 0
TEXT
 8
TITLE
 10
296.4180
 20
  3.0480
 30
0.0
 40
  1.2700
 1
3
 0
TEXT
 8
TITLE
 10
296.4180
 20
420.3700
 30
0.0
 40
  1.2700
 1
3
 0
TEXT
 8
TITLE
 10
413.0040
 20
  3.0480
 30
0.0
 40
  1.2700
 1
2
 0
TEXT
 8
TITLE
 10
413.0040
 20
420.3700
 30
0.0
 40
  1.2700
 1
2
 0
TEXT
 8
TITLE
 10
529.5900
 20
  3.0480
 30
0.0
 40
  1.2700
 1
1
 0
TEXT
 8
TITLE
 10
529.5900
 20
420.3700
 30
0.0
 40
  1.2700
 1
1
 0
POLYLINE
 8
TITLE
 66
1
 10
0.0
 20
0.0
 30
0.0
 0
VERTEX
 8
TITLE
 10
 -2.5400
 20
312.4200
 30
0.0
 0
VERTEX
 8
TITLE
 10
  0.0000
 20
312.4200
 30
0.0
 0
SEQEND
 8
TITLE
 0
POLYLINE
 8
TITLE
 66
1
 10
0.0
 20
0.0
 30
0.0
 0
VERTEX
 8
TITLE
 10
588.7720
 20
312.4200
 30
0.0
 0
VERTEX
 8
TITLE
 10
591.3120
 20
312.4200
 30
0.0
 0
SEQEND
 8
TITLE
 0
SOLID
 8
TITLE
 10
  0.0000
 20
210.0580
 30
0.0
 11
 -1.2700
 21
210.5660
 31
0.0
 12
 -1.2700
 22
209.5500
 32
0.0
 13
 -1.2700
 23
210.0580
 33
0.0
 0
SOLID
 8
TITLE
 10
588.7720
 20
210.0580
 30
0.0
 11
590.0420
 21
210.5660
 31
0.0
 12
590.0420
 22
209.5500
 32
0.0
 13
590.0420
 23
210.0580
 33
0.0
 0
POLYLINE
 8
TITLE
 66
1
 10
0.0
 20
0.0
 30
0.0
 0
VERTEX
 8
TITLE
 10
 -2.5400
 20
210.0580
 30
0.0
 0
VERTEX
 8
TITLE
 10
  0.0000
 20
210.0580
 30
0.0
 0
SEQEND
 8
TITLE
 0
POLYLINE
 8
TITLE
 66
1
 10
0.0
 20
0.0
 30
0.0
 0
VERTEX
 8
TITLE
 10
588.7720
 20
210.0580
 30
0.0
 0
VERTEX
 8
TITLE
 10
591.3120
 20
210.0580
 30
0.0
 0
SEQEND
 8
TITLE
 0
SOLID
 8
TITLE
 10
  0.0000
 20
210.0580
 30
0.0
 11
 -1.2700
 21
210.5660
 31
0.0
 12
 -1.2700
 22
209.5500
 32
0.0
 13
 -1.2700
 23
210.0580
 33
0.0
 0
SOLID
 8
TITLE
 10
588.7720
 20
210.0580
 30
0.0
 11
590.0420
 21
210.5660
 31
0.0
 12
590.0420
 22
209.5500
 32
0.0
 13
590.0420
 23
210.0580
 33
0.0
 0
POLYLINE
 8
TITLE
 66
1
 10
0.0
 20
0.0
 30
0.0
 0
VERTEX
 8
TITLE
 10
 -2.5400
 20
107.6960
 30
0.0
 0
VERTEX
 8
TITLE
 10
  0.0000
 20
107.6960
 30
0.0
 0
SEQEND
 8
TITLE
 0
POLYLINE
 8
TITLE
 66
1
 10
0.0
 20
0.0
 30
0.0
 0
VERTEX
 8
TITLE
 10
588.7720
 20
107.6960
 30
0.0
 0
VERTEX
 8
TITLE
 10
591.3120
 20
107.6960
 30
0.0
 0
SEQEND
 8
TITLE
 0
SOLID
 8
TITLE
 10
  0.0000
 20
210.0580
 30
0.0
 11
 -1.2700
 21
210.5660
 31
0.0
 12
 -1.2700
 22
209.5500
 32
0.0
 13
 -1.2700
 23
210.0580
 33
0.0
 0
SOLID
 8
TITLE
 10
588.7720
 20
210.0580
 30
0.0
 11
590.0420
 21
210.5660
 31
0.0
 12
590.0420
 22
209.5500
 32
0.0
 13
590.0420
 23
210.0580
 33
0.0
 0
TEXT
 8
TITLE
 10
 -2.0320
 20
363.7280
 30
0.0
 40
  1.2700
 1
D
 0
TEXT
 8
TITLE
 10
589.2800
 20
363.7280
 30
0.0
 40
  1.2700
 1
D
 0
TEXT
 8
TITLE
 10
 -2.0320
 20
261.3660
 30
0.0
 40
  1.2700
 1
C
 0
TEXT
 8
TITLE
 10
589.2800
 20
261.3660
 30
0.0
 40
  1.2700
 1
C
 0
TEXT
 8
TITLE
 10
 -2.0320
 20
159.0040
 30
0.0
 40
  1.2700
 1
B
 0
TEXT
 8
TITLE
 10
589.2800
 20
159.0040
 30
0.0
 40
  1.2700
 1
B
 0
TEXT
 8
TITLE
 10
 -2.0320
 20
 56.6420
 30
0.0
 40
  1.2700
 1
A
 0
TEXT
 8
TITLE
 10
589.2800
 20
 56.6420
 30
0.0
 40
  1.2700
 1
A
 0
TEXT
 8
TITLE
 10
507.4920
 20
 11.3643
 30
0.0
 40
  1.3057
 1
<Doc>
 0
TEXT
 8
TITLE
 10
583.6920
 20
 11.3643
 30
0.0
 40
  1.3057
 1
<RevCode>
 0
TEXT
 8
TITLE
 10
507.4920
 20
 18.9843
 30
0.0
 40
  1.3057
 1
<Title>
 0
TEXT
 8
TITLE
 10
499.8720
 20
 11.3643
 30
0.0
 40
  1.3057
 1
A2
 0
TEXT
 8
TITLE
 10
560.8320
 20
  6.2843
 30
0.0
 40
  1.3057
 1
1
 0
TEXT
 8
TITLE
 10
576.0720
 20
  6.2843
 30
0.0
 40
  1.3057
 1
1
 0
TEXT
 8
TITLE
 10
510.5400
 20
  6.2843
 30
0.0
 40
  1.3057
 1
Thursday, May 22, 2014
 0
TEXT
 8
PARTTEXT
 10
497.3320
 20
 21.5243
 30
0.0
 40
  1.3057
 1
Title
 0
TEXT
 8
PARTTEXT
 10
497.3320
 20
 13.9043
 30
0.0
 40
  1.3057
 1
Size
 0
TEXT
 8
PARTTEXT
 10
507.4920
 20
 13.9043
 30
0.0
 40
  1.3057
 1
Document Number
 0
TEXT
 8
PARTTEXT
 10
581.1520
 20
 13.9043
 30
0.0
 40
  1.3057
 1
Rev
 0
TEXT
 8
PARTTEXT
 10
497.3320
 20
  6.2843
 30
0.0
 40
  1.3057
 1
Date:
 0
TEXT
 8
PARTTEXT
 10
548.1320
 20
  6.2843
 30
0.0
 40
  1.3057
 1
Sheet
 0
POLYLINE
 8
TITLE
 66
1
 70
1
 10
0.0
 20
0.0
 30
0.0
 0
VERTEX
 8
TITLE
 10
497.3320
 20
 27.9400
 30
0.0
 0
VERTEX
 8
TITLE
 10
588.7720
 20
 27.9400
 30
0.0
 0
VERTEX
 8
TITLE
 10
588.7720
 20
 22.8600
 30
0.0
 0
VERTEX
 8
TITLE
 10
497.3320
 20
 22.8600
 30
0.0
 0
SEQEND
 8
TITLE
 0
POLYLINE
 8
TITLE
 66
1
 70
1
 10
0.0
 20
0.0
 30
0.0
 0
VERTEX
 8
TITLE
 10
497.3320
 20
 22.8600
 30
0.0
 0
VERTEX
 8
TITLE
 10
588.7720
 20
 22.8600
 30
0.0
 0
VERTEX
 8
TITLE
 10
588.7720
 20
 15.2400
 30
0.0
 0
VERTEX
 8
TITLE
 10
497.3320
 20
 15.2400
 30
0.0
 0
SEQEND
 8
TITLE
 0
POLYLINE
 8
TITLE
 66
1
 70
1
 10
0.0
 20
0.0
 30
0.0
 0
VERTEX
 8
TITLE
 10
497.3320
 20
 15.2400
 30
0.0
 0
VERTEX
 8
TITLE
 10
504.9520
 20
 15.2400
 30
0.0
 0
VERTEX
 8
TITLE
 10
504.9520
 20
  7.6200
 30
0.0
 0
VERTEX
 8
TITLE
 10
497.3320
 20
  7.6200
 30
0.0
 0
SEQEND
 8
TITLE
 0
POLYLINE
 8
TITLE
 66
1
 70
1
 10
0.0
 20
0.0
 30
0.0
 0
VERTEX
 8
TITLE
 10
504.9520
 20
 15.2400
 30
0.0
 0
VERTEX
 8
TITLE
 10
581.1520
 20
 15.2400
 30
0.0
 0
VERTEX
 8
TITLE
 10
581.1520
 20
  7.6200
 30
0.0
 0
VERTEX
 8
TITLE
 10
504.9520
 20
  7.6200
 30
0.0
 0
SEQEND
 8
TITLE
 0
POLYLINE
 8
TITLE
 66
1
 70
1
 10
0.0
 20
0.0
 30
0.0
 0
VERTEX
 8
TITLE
 10
581.1520
 20
 15.2400
 30
0.0
 0
VERTEX
 8
TITLE
 10
588.7720
 20
 15.2400
 30
0.0
 0
VERTEX
 8
TITLE
 10
588.7720
 20
  7.6200
 30
0.0
 0
VERTEX
 8
TITLE
 10
581.1520
 20
  7.6200
 30
0.0
 0
SEQEND
 8
TITLE
 0
POLYLINE
 8
TITLE
 66
1
 70
1
 10
0.0
 20
0.0
 30
0.0
 0
VERTEX
 8
TITLE
 10
497.3320
 20
  7.6200
 30
0.0
 0
VERTEX
 8
TITLE
 10
548.1320
 20
  7.6200
 30
0.0
 0
VERTEX
 8
TITLE
 10
548.1320
 20
  5.0800
 30
0.0
 0
VERTEX
 8
TITLE
 10
497.3320
 20
  5.0800
 30
0.0
 0
SEQEND
 8
TITLE
 0
POLYLINE
 8
TITLE
 66
1
 70
1
 10
0.0
 20
0.0
 30
0.0
 0
VERTEX
 8
TITLE
 10
548.1320
 20
  7.6200
 30
0.0
 0
VERTEX
 8
TITLE
 10
588.7720
 20
  7.6200
 30
0.0
 0
VERTEX
 8
TITLE
 10
588.7720
 20
  5.0800
 30
0.0
 0
VERTEX
 8
TITLE
 10
548.1320
 20
  5.0800
 30
0.0
 0
SEQEND
 8
TITLE
 0
TEXT
 8
PARTTEXT
 10
568.4520
 20
  6.2843
 30
0.0
 40
  1.3057
 1
of
 0
TEXT
 8
PARTTEXT
 10
162.5600
 20
344.8663
 30
0.0
 40
  1.3057
 1
C3
 0
TEXT
 8
PARTTEXT
 10
167.6400
 20
344.8663
 30
0.0
 40
  1.3057
 1
20P
 0
LINE
 8
PARTS
 10
162.5600
 20
348.7420
 30
0.0
 11
165.1000
 21
348.7420
 31
0.0
 0
LINE
 8
PARTS
 10
170.1800
 20
348.7420
 30
0.0
 11
167.6400
 21
348.7420
 31
0.0
 0
POLYLINE
 8
PARTS
 66
1
 10
0.0
 20
0.0
 30
0.0
 0
VERTEX
 8
PARTS
 10
165.1000
 20
348.7420
 30
0.0
 0
VERTEX
 8
PARTS
 10
165.6080
 20
348.7420
 30
0.0
 0
SEQEND
 8
PARTS
 0
POLYLINE
 8
PARTS
 66
1
 10
0.0
 20
0.0
 30
0.0
 0
VERTEX
 8
PARTS
 10
166.8780
 20
346.4560
 30
0.0
 0
VERTEX
 8
PARTS
 10
166.8780
 20
351.0280
 30
0.0
 0
SEQEND
 8
PARTS
 0
POLYLINE
 8
PARTS
 66
1
 10
0.0
 20
0.0
 30
0.0
 0
VERTEX
 8
PARTS
 10
165.6080
 20
346.4560
 30
0.0
 0
VERTEX
 8
PARTS
 10
165.6080
 20
351.0280
 30
0.0
 0
SEQEND
 8
PARTS
 0
POLYLINE
 8
PARTS
 66
1
 10
0.0
 20
0.0
 30
0.0
 0
VERTEX
 8
PARTS
 10
167.6400
 20
348.7420
 30
0.0
 0
VERTEX
 8
PARTS
 10
166.8780
 20
348.7420
 30
0.0
 0
SEQEND
 8
PARTS
 0
TEXT
 8
PARTTEXT
 10
328.1680
 20
171.6383
 30
0.0
 40
  1.3057
 1
SPEAKER
 0
LINE
 8
PARTS
 10
320.0400
 20
181.1020
 30
0.0
 11
327.6600
 21
181.1020
 31
0.0
 0
LINE
 8
PARTS
 10
320.0400
 20
178.5620
 30
0.0
 11
327.6600
 21
178.5620
 31
0.0
 0
POLYLINE
 8
PARTS
 66
1
 10
0.0
 20
0.0
 30
0.0
 0
VERTEX
 8
PARTS
 10
329.6920
 20
181.6100
 30
0.0
 0
VERTEX
 8
PARTS
 10
333.2480
 20
183.6420
 30
0.0
 0
SEQEND
 8
PARTS
 0
POLYLINE
 8
PARTS
 66
1
 10
0.0
 20
0.0
 30
0.0
 0
VERTEX
 8
PARTS
 10
333.2480
 20
183.6420
 30
0.0
 0
VERTEX
 8
PARTS
 10
333.2480
 20
176.0220
 30
0.0
 0
SEQEND
 8
PARTS
 0
POLYLINE
 8
PARTS
 66
1
 10
0.0
 20
0.0
 30
0.0
 0
VERTEX
 8
PARTS
 10
333.2480
 20
176.0220
 30
0.0
 0
VERTEX
 8
PARTS
 10
329.6920
 20
178.0540
 30
0.0
 0
SEQEND
 8
PARTS
 0
POLYLINE
 8
PARTS
 66
1
 10
0.0
 20
0.0
 30
0.0
 0
VERTEX
 8
PARTS
 10
329.6920
 20
178.0540
 30
0.0
 0
VERTEX
 8
PARTS
 10
329.6920
 20
181.6100
 30
0.0
 0
SEQEND
 8
PARTS
 0
POLYLINE
 8
PARTS
 66
1
 10
0.0
 20
0.0
 30
0.0
 0
VERTEX
 8
PARTS
 10
329.6920
 20
181.6100
 30
0.0
 0
VERTEX
 8
PARTS
 10
327.6600
 20
181.6100
 30
0.0
 0
SEQEND
 8
PARTS
 0
POLYLINE
 8
PARTS
 66
1
 10
0.0
 20
0.0
 30
0.0
 0
VERTEX
 8
PARTS
 10
327.6600
 20
181.6100
 30
0.0
 0
VERTEX
 8
PARTS
 10
327.6600
 20
178.0540
 30
0.0
 0
SEQEND
 8
PARTS
 0
POLYLINE
 8
PARTS
 66
1
 10
0.0
 20
0.0
 30
0.0
 0
VERTEX
 8
PARTS
 10
327.6600
 20
178.0540
 30
0.0
 0
VERTEX
 8
PARTS
 10
329.6920
 20
178.0540
 30
0.0
 0
SEQEND
 8
PARTS
 0
TEXT
 8
PARTTEXT
 10
120.9040
 20
344.8663
 30
0.0
 40
  1.3057
 1
C1
 0
TEXT
 8
PARTTEXT
 10
120.9040
 20
341.8183
 30
0.0
 40
  1.3057
 1
104
 0
LINE
 8
PARTS
 10
116.8400
 20
341.1220
 30
0.0
 11
116.8400
 21
343.6620
 31
0.0
 0
LINE
 8
PARTS
 10
116.8400
 20
348.7420
 30
0.0
 11
116.8400
 21
346.2020
 31
0.0
 0
POLYLINE
 8
PARTS
 66
1
 10
0.0
 20
0.0
 30
0.0
 0
VERTEX
 8
PARTS
 10
116.8400
 20
343.6620
 30
0.0
 0
VERTEX
 8
PARTS
 10
116.8400
 20
344.1700
 30
0.0
 0
SEQEND
 8
PARTS
 0
POLYLINE
 8
PARTS
 66
1
 10
0.0
 20
0.0
 30
0.0
 0
VERTEX
 8
PARTS
 10
119.1260
 20
345.4400
 30
0.0
 0
VERTEX
 8
PARTS
 10
114.5540
 20
345.4400
 30
0.0
 0
SEQEND
 8
PARTS
 0
POLYLINE
 8
PARTS
 66
1
 10
0.0
 20
0.0
 30
0.0
 0
VERTEX
 8
PARTS
 10
119.1260
 20
344.1700
 30
0.0
 0
VERTEX
 8
PARTS
 10
114.5540
 20
344.1700
 30
0.0
 0
SEQEND
 8
PARTS
 0
POLYLINE
 8
PARTS
 66
1
 10
0.0
 20
0.0
 30
0.0
 0
VERTEX
 8
PARTS
 10
116.8400
 20
346.2020
 30
0.0
 0
VERTEX
 8
PARTS
 10
116.8400
 20
345.4400
 30
0.0
 0
SEQEND
 8
PARTS
 0
TEXT
 8
PARTTEXT
 10
 71.1200
 20
186.1163
 30
0.0
 40
  1.3057
 1
J10
 0
LINE
 8
PARTS
 10
 83.8200
 20
178.5620
 30
0.0
 11
 76.2000
 21
178.5620
 31
0.0
 0
TEXT
 8
PARTS
 10
 77.7240
 20
179.3240
 30
0.0
 40
  1.2700
 1
1
 0
LINE
 8
PARTS
 10
 83.8200
 20
181.1020
 30
0.0
 11
 76.2000
 21
181.1020
 31
0.0
 0
TEXT
 8
PARTS
 10
 77.7240
 20
181.8640
 30
0.0
 40
  1.2700
 1
2
 0
POLYLINE
 8
PARTS
 66
1
 70
1
 10
0.0
 20
0.0
 30
0.0
 0
VERTEX
 8
PARTS
 10
 76.2000
 20
176.0220
 30
0.0
 0
VERTEX
 8
PARTS
 10
 71.1200
 20
176.0220
 30
0.0
 0
VERTEX
 8
PARTS
 10
 71.1200
 20
183.6420
 30
0.0
 0
VERTEX
 8
PARTS
 10
 76.2000
 20
183.6420
 30
0.0
 0
SEQEND
 8
PARTS
 0
TEXT
 8
PARTTEXT
 10
287.0200
 20
145.2223
 30
0.0
 40
  1.3057
 1
J14
 0
LINE
 8
PARTS
 10
292.1000
 20
160.7820
 30
0.0
 11
292.1000
 21
153.1620
 31
0.0
 0
TEXT
 8
PARTS
 10
291.3380
 20
154.6860
 30
0.0
 40
  1.2700
 50
 90.0000
 1
1
 0
LINE
 8
PARTS
 10
289.5600
 20
160.7820
 30
0.0
 11
289.5600
 21
153.1620
 31
0.0
 0
TEXT
 8
PARTS
 10
288.7980
 20
154.6860
 30
0.0
 40
  1.2700
 50
 90.0000
 1
2
 0
POLYLINE
 8
PARTS
 66
1
 70
1
 10
0.0
 20
0.0
 30
0.0
 0
VERTEX
 8
PARTS
 10
294.6400
 20
153.1620
 30
0.0
 0
VERTEX
 8
PARTS
 10
294.6400
 20
148.0820
 30
0.0
 0
VERTEX
 8
PARTS
 10
287.0200
 20
148.0820
 30
0.0
 0
VERTEX
 8
PARTS
 10
287.0200
 20
153.1620
 30
0.0
 0
SEQEND
 8
PARTS
 0
TEXT
 8
PARTTEXT
 10
315.2140
 20
168.0823
 30
0.0
 40
  1.3057
 1
Q1
 0
TEXT
 8
PARTTEXT
 10
318.5160
 20
164.0183
 30
0.0
 40
  1.3057
 1
C1815
 0
LINE
 8
PARTS
 10
320.0400
 20
168.4020
 30
0.0
 11
320.0400
 21
165.8620
 31
0.0
 0
LINE
 8
PARTS
 10
314.9600
 20
163.3220
 30
0.0
 11
317.5000
 21
163.3220
 31
0.0
 0
LINE
 8
PARTS
 10
320.0400
 20
155.7020
 30
0.0
 11
320.0400
 21
158.2420
 31
0.0
 0
POLYLINE
 8
PARTS
 66
1
 10
0.0
 20
0.0
 30
0.0
 0
VERTEX
 8
PARTS
 10
320.0400
 20
165.8620
 30
0.0
 0
VERTEX
 8
PARTS
 10
317.5000
 20
164.5920
 30
0.0
 0
SEQEND
 8
PARTS
 0
POLYLINE
 8
PARTS
 66
1
 10
0.0
 20
0.0
 30
0.0
 0
VERTEX
 8
PARTS
 10
317.5000
 20
162.0520
 30
0.0
 0
VERTEX
 8
PARTS
 10
320.0400
 20
160.7820
 30
0.0
 0
SEQEND
 8
PARTS
 0
POLYLINE
 8
PARTS
 66
1
 10
0.0
 20
0.0
 30
0.0
 0
VERTEX
 8
PARTS
 10
319.7860
 20
161.5440
 30
0.0
 0
VERTEX
 8
PARTS
 10
318.0080
 20
161.7980
 30
0.0
 0
VERTEX
 8
PARTS
 10
319.2780
 20
160.5280
 30
0.0
 0
SEQEND
 8
PARTS
 0
POLYLINE
 8
PARTS
 66
1
 10
0.0
 20
0.0
 30
0.0
 0
VERTEX
 8
PARTS
 10
317.5000
 20
165.8620
 30
0.0
 0
VERTEX
 8
PARTS
 10
317.5000
 20
160.7820
 30
0.0
 0
SEQEND
 8
PARTS
 0
TEXT
 8
PARTTEXT
 10
 93.9800
 20
186.1163
 30
0.0
 40
  1.3057
 1
J12
 0
LINE
 8
PARTS
 10
106.6800
 20
178.5620
 30
0.0
 11
 99.0600
 21
178.5620
 31
0.0
 0
TEXT
 8
PARTS
 10
100.5840
 20
179.3240
 30
0.0
 40
  1.2700
 1
1
 0
LINE
 8
PARTS
 10
106.6800
 20
181.1020
 30
0.0
 11
 99.0600
 21
181.1020
 31
0.0
 0
TEXT
 8
PARTS
 10
100.5840
 20
181.8640
 30
0.0
 40
  1.2700
 1
2
 0
POLYLINE
 8
PARTS
 66
1
 70
1
 10
0.0
 20
0.0
 30
0.0
 0
VERTEX
 8
PARTS
 10
 99.0600
 20
176.0220
 30
0.0
 0
VERTEX
 8
PARTS
 10
 93.9800
 20
176.0220
 30
0.0
 0
VERTEX
 8
PARTS
 10
 93.9800
 20
183.6420
 30
0.0
 0
VERTEX
 8
PARTS
 10
 99.0600
 20
183.6420
 30
0.0
 0
SEQEND
 8
PARTS
 0
TEXT
 8
PARTTEXT
 10
 60.9600
 20
186.1163
 30
0.0
 40
  1.3057
 1
J9
 0
LINE
 8
PARTS
 10
 73.6600
 20
178.5620
 30
0.0
 11
 66.0400
 21
178.5620
 31
0.0
 0
TEXT
 8
PARTS
 10
 67.5640
 20
179.3240
 30
0.0
 40
  1.2700
 1
1
 0
LINE
 8
PARTS
 10
 73.6600
 20
181.1020
 30
0.0
 11
 66.0400
 21
181.1020
 31
0.0
 0
TEXT
 8
PARTS
 10
 67.5640
 20
181.8640
 30
0.0
 40
  1.2700
 1
2
 0
POLYLINE
 8
PARTS
 66
1
 70
1
 10
0.0
 20
0.0
 30
0.0
 0
VERTEX
 8
PARTS
 10
 66.0400
 20
176.0220
 30
0.0
 0
VERTEX
 8
PARTS
 10
 60.9600
 20
176.0220
 30
0.0
 0
VERTEX
 8
PARTS
 10
 60.9600
 20
183.6420
 30
0.0
 0
VERTEX
 8
PARTS
 10
 66.0400
 20
183.6420
 30
0.0
 0
SEQEND
 8
PARTS
 0
TEXT
 8
PARTTEXT
 10
142.2400
 20
167.0663
 30
0.0
 40
  1.3057
 1
C5
 0
TEXT
 8
PARTTEXT
 10
139.7000
 20
164.5263
 30
0.0
 40
  1.3057
 1
1000u
 0
LINE
 8
PARTS
 10
139.7000
 20
170.9420
 30
0.0
 11
139.7000
 21
168.4020
 31
0.0
 0
LINE
 8
PARTS
 10
139.7000
 20
163.3220
 30
0.0
 11
139.7000
 21
165.8620
 31
0.0
 0
POLYLINE
 8
PARTS
 66
1
 10
0.0
 20
0.0
 30
0.0
 0
VERTEX
 8
PARTS
 10
142.2400
 20
168.4020
 30
0.0
 0
VERTEX
 8
PARTS
 10
137.1600
 20
168.4020
 30
0.0
 0
SEQEND
 8
PARTS
 0
POLYLINE
 8
PARTS
 66
1
 10
0.0
 20
0.0
 30
0.0
 0
VERTEX
 8
PARTS
 10
139.7000
 20
167.3860
 30
0.0
 0
VERTEX
 8
PARTS
 10
139.7000
 20
165.8620
 30
0.0
 0
SEQEND
 8
PARTS
 0
POLYLINE
 8
PARTS
 66
1
 10
0.0
 20
0.0
 30
0.0
 0
VERTEX
 8
PARTS
 10
139.7000
 20
167.3860
 30
0.0
 42
  0.1654
 0
VERTEX
 8
PARTS
 10
137.1600
 20
166.6240
 30
0.0
 0
SEQEND
 8
PARTS
 0
POLYLINE
 8
PARTS
 66
1
 10
0.0
 20
0.0
 30
0.0
 0
VERTEX
 8
PARTS
 10
142.2400
 20
166.6240
 30
0.0
 42
  0.1654
 0
VERTEX
 8
PARTS
 10
139.7000
 20
167.3860
 30
0.0
 0
SEQEND
 8
PARTS
 0
TEXT
 8
PARTTEXT
 10
106.6800
 20
367.7263
 30
0.0
 40
  1.3057
 1
SW1
 0
LINE
 8
PARTS
 10
114.3000
 20
361.4420
 30
0.0
 11
111.7600
 21
361.4420
 31
0.0
 0
LINE
 8
PARTS
 10
101.6000
 20
361.4420
 30
0.0
 11
104.1400
 21
361.4420
 31
0.0
 0
POLYLINE
 8
PARTS
 66
1
 10
0.0
 20
0.0
 30
0.0
 0
VERTEX
 8
PARTS
 10
111.7600
 20
362.7120
 30
0.0
 0
VERTEX
 8
PARTS
 10
104.1400
 20
362.7120
 30
0.0
 0
SEQEND
 8
PARTS
 0
POLYLINE
 8
PARTS
 66
1
 10
0.0
 20
0.0
 30
0.0
 0
VERTEX
 8
PARTS
 10
104.1400
 20
362.7120
 30
0.0
 0
VERTEX
 8
PARTS
 10
104.1400
 20
363.2200
 30
0.0
 0
SEQEND
 8
PARTS
 0
POLYLINE
 8
PARTS
 66
1
 10
0.0
 20
0.0
 30
0.0
 0
VERTEX
 8
PARTS
 10
104.1400
 20
363.2200
 30
0.0
 0
VERTEX
 8
PARTS
 10
107.1880
 20
363.2200
 30
0.0
 0
SEQEND
 8
PARTS
 0
POLYLINE
 8
PARTS
 66
1
 10
0.0
 20
0.0
 30
0.0
 0
VERTEX
 8
PARTS
 10
107.1880
 20
363.2200
 30
0.0
 0
VERTEX
 8
PARTS
 10
107.1880
 20
363.9820
 30
0.0
 0
SEQEND
 8
PARTS
 0
POLYLINE
 8
PARTS
 66
1
 10
0.0
 20
0.0
 30
0.0
 0
VERTEX
 8
PARTS
 10
107.1880
 20
363.9820
 30
0.0
 0
VERTEX
 8
PARTS
 10
108.7120
 20
363.9820
 30
0.0
 0
SEQEND
 8
PARTS
 0
POLYLINE
 8
PARTS
 66
1
 10
0.0
 20
0.0
 30
0.0
 0
VERTEX
 8
PARTS
 10
108.7120
 20
363.9820
 30
0.0
 0
VERTEX
 8
PARTS
 10
108.7120
 20
363.2200
 30
0.0
 0
SEQEND
 8
PARTS
 0
POLYLINE
 8
PARTS
 66
1
 10
0.0
 20
0.0
 30
0.0
 0
VERTEX
 8
PARTS
 10
108.7120
 20
363.2200
 30
0.0
 0
VERTEX
 8
PARTS
 10
111.7600
 20
363.2200
 30
0.0
 0
SEQEND
 8
PARTS
 0
POLYLINE
 8
PARTS
 66
1
 70
1
 10
0.0
 20
0.0
 30
0.0
 0
VERTEX
 8
PARTS
 10
111.7600
 20
361.4420
 30
0.0
 42
  0.0985
 0
VERTEX
 8
PARTS
 10
111.7020
 20
361.7336
 30
0.0
 42
  0.0985
 0
VERTEX
 8
PARTS
 10
111.5368
 20
361.9808
 30
0.0
 42
  0.0985
 0
VERTEX
 8
PARTS
 10
111.2896
 20
362.1460
 30
0.0
 42
  0.0985
 0
VERTEX
 8
PARTS
 10
110.9980
 20
362.2040
 30
0.0
 42
  0.0985
 0
VERTEX
 8
PARTS
 10
110.7064
 20
362.1460
 30
0.0
 42
  0.0985
 0
VERTEX
 8
PARTS
 10
110.4592
 20
361.9808
 30
0.0
 42
  0.0985
 0
VERTEX
 8
PARTS
 10
110.2940
 20
361.7336
 30
0.0
 42
  0.0985
 0
VERTEX
 8
PARTS
 10
110.2360
 20
361.4420
 30
0.0
 42
  0.0985
 0
VERTEX
 8
PARTS
 10
110.2940
 20
361.1504
 30
0.0
 42
  0.0985
 0
VERTEX
 8
PARTS
 10
110.4592
 20
360.9032
 30
0.0
 42
  0.0985
 0
VERTEX
 8
PARTS
 10
110.7064
 20
360.7380
 30
0.0
 42
  0.0985
 0
VERTEX
 8
PARTS
 10
110.9980
 20
360.6800
 30
0.0
 42
  0.0985
 0
VERTEX
 8
PARTS
 10
111.2896
 20
360.7380
 30
0.0
 42
  0.0985
 0
VERTEX
 8
PARTS
 10
111.5368
 20
360.9032
 30
0.0
 42
  0.0985
 0
VERTEX
 8
PARTS
 10
111.7020
 20
361.1504
 30
0.0
 42
  0.0985
 0
SEQEND
 8
PARTS
 0
POLYLINE
 8
PARTS
 66
1
 70
1
 10
0.0
 20
0.0
 30
0.0
 0
VERTEX
 8
PARTS
 10
105.6640
 20
361.4420
 30
0.0
 42
  0.0985
 0
VERTEX
 8
PARTS
 10
105.6060
 20
361.7336
 30
0.0
 42
  0.0985
 0
VERTEX
 8
PARTS
 10
105.4408
 20
361.9808
 30
0.0
 42
  0.0985
 0
VERTEX
 8
PARTS
 10
105.1936
 20
362.1460
 30
0.0
 42
  0.0985
 0
VERTEX
 8
PARTS
 10
104.9020
 20
362.2040
 30
0.0
 42
  0.0985
 0
VERTEX
 8
PARTS
 10
104.6104
 20
362.1460
 30
0.0
 42
  0.0985
 0
VERTEX
 8
PARTS
 10
104.3632
 20
361.9808
 30
0.0
 42
  0.0985
 0
VERTEX
 8
PARTS
 10
104.1980
 20
361.7336
 30
0.0
 42
  0.0985
 0
VERTEX
 8
PARTS
 10
104.1400
 20
361.4420
 30
0.0
 42
  0.0985
 0
VERTEX
 8
PARTS
 10
104.1980
 20
361.1504
 30
0.0
 42
  0.0985
 0
VERTEX
 8
PARTS
 10
104.3632
 20
360.9032
 30
0.0
 42
  0.0985
 0
VERTEX
 8
PARTS
 10
104.6104
 20
360.7380
 30
0.0
 42
  0.0985
 0
VERTEX
 8
PARTS
 10
104.9020
 20
360.6800
 30
0.0
 42
  0.0985
 0
VERTEX
 8
PARTS
 10
105.1936
 20
360.7380
 30
0.0
 42
  0.0985
 0
VERTEX
 8
PARTS
 10
105.4408
 20
360.9032
 30
0.0
 42
  0.0985
 0
VERTEX
 8
PARTS
 10
105.6060
 20
361.1504
 30
0.0
 42
  0.0985
 0
SEQEND
 8
PARTS
 0
POLYLINE
 8
PARTS
 66
1
 10
0.0
 20
0.0
 30
0.0
 0
VERTEX
 8
PARTS
 10
111.7600
 20
362.7120
 30
0.0
 0
VERTEX
 8
PARTS
 10
111.7600
 20
363.2200
 30
0.0
 0
SEQEND
 8
PARTS
 0
TEXT
 8
PARTTEXT
 10
104.1400
 20
353.7563
 30
0.0
 40
  1.3057
 1
R1
 0
TEXT
 8
PARTTEXT
 10
104.1400
 20
343.3423
 30
0.0
 40
  1.3057
 1
1.5k
 0
LINE
 8
PARTS
 10
101.6000
 20
348.7420
 30
0.0
 11
104.1400
 21
348.7420
 31
0.0
 0
LINE
 8
PARTS
 10
114.3000
 20
348.7420
 30
0.0
 11
111.7600
 21
348.7420
 31
0.0
 0
POLYLINE
 8
PARTS
 66
1
 10
0.0
 20
0.0
 30
0.0
 0
VERTEX
 8
PARTS
 10
104.1400
 20
348.7420
 30
0.0
 0
VERTEX
 8
PARTS
 10
104.9020
 20
349.5040
 30
0.0
 0
SEQEND
 8
PARTS
 0
POLYLINE
 8
PARTS
 66
1
 10
0.0
 20
0.0
 30
0.0
 0
VERTEX
 8
PARTS
 10
104.9020
 20
349.5040
 30
0.0
 0
VERTEX
 8
PARTS
 10
106.4260
 20
347.9800
 30
0.0
 0
SEQEND
 8
PARTS
 0
POLYLINE
 8
PARTS
 66
1
 10
0.0
 20
0.0
 30
0.0
 0
VERTEX
 8
PARTS
 10
106.4260
 20
347.9800
 30
0.0
 0
VERTEX
 8
PARTS
 10
107.9500
 20
349.5040
 30
0.0
 0
SEQEND
 8
PARTS
 0
POLYLINE
 8
PARTS
 66
1
 10
0.0
 20
0.0
 30
0.0
 0
VERTEX
 8
PARTS
 10
107.9500
 20
349.5040
 30
0.0
 0
VERTEX
 8
PARTS
 10
109.4740
 20
347.9800
 30
0.0
 0
SEQEND
 8
PARTS
 0
POLYLINE
 8
PARTS
 66
1
 10
0.0
 20
0.0
 30
0.0
 0
VERTEX
 8
PARTS
 10
109.4740
 20
347.9800
 30
0.0
 0
VERTEX
 8
PARTS
 10
110.9980
 20
349.5040
 30
0.0
 0
SEQEND
 8
PARTS
 0
POLYLINE
 8
PARTS
 66
1
 10
0.0
 20
0.0
 30
0.0
 0
VERTEX
 8
PARTS
 10
110.9980
 20
349.5040
 30
0.0
 0
VERTEX
 8
PARTS
 10
111.7600
 20
348.7420
 30
0.0
 0
SEQEND
 8
PARTS
 0
TEXT
 8
PARTTEXT
 10
220.9800
 20
169.6063
 30
0.0
 40
  1.3057
 1
C6
 0
TEXT
 8
PARTTEXT
 10
220.9800
 20
164.5263
 30
0.0
 40
  1.3057
 1
100u
 0
LINE
 8
PARTS
 10
220.9800
 20
170.9420
 30
0.0
 11
220.9800
 21
168.4020
 31
0.0
 0
LINE
 8
PARTS
 10
220.9800
 20
163.3220
 30
0.0
 11
220.9800
 21
165.8620
 31
0.0
 0
POLYLINE
 8
PARTS
 66
1
 10
0.0
 20
0.0
 30
0.0
 0
VERTEX
 8
PARTS
 10
223.5200
 20
168.4020
 30
0.0
 0
VERTEX
 8
PARTS
 10
218.4400
 20
168.4020
 30
0.0
 0
SEQEND
 8
PARTS
 0
POLYLINE
 8
PARTS
 66
1
 10
0.0
 20
0.0
 30
0.0
 0
VERTEX
 8
PARTS
 10
220.9800
 20
167.3860
 30
0.0
 0
VERTEX
 8
PARTS
 10
220.9800
 20
165.8620
 30
0.0
 0
SEQEND
 8
PARTS
 0
POLYLINE
 8
PARTS
 66
1
 10
0.0
 20
0.0
 30
0.0
 0
VERTEX
 8
PARTS
 10
220.9800
 20
167.3860
 30
0.0
 42
  0.1654
 0
VERTEX
 8
PARTS
 10
218.4400
 20
166.6240
 30
0.0
 0
SEQEND
 8
PARTS
 0
POLYLINE
 8
PARTS
 66
1
 10
0.0
 20
0.0
 30
0.0
 0
VERTEX
 8
PARTS
 10
223.5200
 20
166.6240
 30
0.0
 42
  0.1654
 0
VERTEX
 8
PARTS
 10
220.9800
 20
167.3860
 30
0.0
 0
SEQEND
 8
PARTS
 0
TEXT
 8
PARTTEXT
 10
129.0320
 20
353.7563
 30
0.0
 40
  1.3057
 1
R2
 0
TEXT
 8
PARTTEXT
 10
128.2700
 20
344.8663
 30
0.0
 40
  1.3057
 1
10k
 0
LINE
 8
PARTS
 10
134.6200
 20
348.7420
 30
0.0
 11
132.0800
 21
348.7420
 31
0.0
 0
LINE
 8
PARTS
 10
121.9200
 20
348.7420
 30
0.0
 11
124.4600
 21
348.7420
 31
0.0
 0
POLYLINE
 8
PARTS
 66
1
 10
0.0
 20
0.0
 30
0.0
 0
VERTEX
 8
PARTS
 10
132.0800
 20
348.7420
 30
0.0
 0
VERTEX
 8
PARTS
 10
131.3180
 20
349.5040
 30
0.0
 0
SEQEND
 8
PARTS
 0
POLYLINE
 8
PARTS
 66
1
 10
0.0
 20
0.0
 30
0.0
 0
VERTEX
 8
PARTS
 10
131.3180
 20
349.5040
 30
0.0
 0
VERTEX
 8
PARTS
 10
129.7940
 20
347.9800
 30
0.0
 0
SEQEND
 8
PARTS
 0
POLYLINE
 8
PARTS
 66
1
 10
0.0
 20
0.0
 30
0.0
 0
VERTEX
 8
PARTS
 10
129.7940
 20
347.9800
 30
0.0
 0
VERTEX
 8
PARTS
 10
128.2700
 20
349.5040
 30
0.0
 0
SEQEND
 8
PARTS
 0
POLYLINE
 8
PARTS
 66
1
 10
0.0
 20
0.0
 30
0.0
 0
VERTEX
 8
PARTS
 10
128.2700
 20
349.5040
 30
0.0
 0
VERTEX
 8
PARTS
 10
126.7460
 20
347.9800
 30
0.0
 0
SEQEND
 8
PARTS
 0
POLYLINE
 8
PARTS
 66
1
 10
0.0
 20
0.0
 30
0.0
 0
VERTEX
 8
PARTS
 10
126.7460
 20
347.9800
 30
0.0
 0
VERTEX
 8
PARTS
 10
125.2220
 20
349.5040
 30
0.0
 0
SEQEND
 8
PARTS
 0
POLYLINE
 8
PARTS
 66
1
 10
0.0
 20
0.0
 30
0.0
 0
VERTEX
 8
PARTS
 10
125.2220
 20
349.5040
 30
0.0
 0
VERTEX
 8
PARTS
 10
124.4600
 20
348.7420
 30
0.0
 0
SEQEND
 8
PARTS
 0
TEXT
 8
PARTTEXT
 10
247.6500
 20
182.3063
 30
0.0
 40
  1.3057
 1
J13
 0
TEXT
 8
PARTTEXT
 10
246.3800
 20
172.1463
 30
0.0
 40
  1.3057
 1
24v
 0
LINE
 8
PARTS
 10
236.2200
 20
173.4820
 30
0.0
 11
243.8400
 21
173.4820
 31
0.0
 0
TEXT
 8
PARTS
 10
241.3000
 20
174.2440
 30
0.0
 40
  1.2700
 1
1
 0
LINE
 8
PARTS
 10
236.2200
 20
170.9420
 30
0.0
 11
243.8400
 21
170.9420
 31
0.0
 0
TEXT
 8
PARTS
 10
241.3000
 20
171.7040
 30
0.0
 40
  1.2700
 1
2
 0
POLYLINE
 8
PARTS
 66
1
 70
1
 10
0.0
 20
0.0
 30
0.0
 0
VERTEX
 8
PARTS
 10
251.4600
 20
176.0220
 30
0.0
 0
VERTEX
 8
PARTS
 10
243.8400
 20
176.0220
 30
0.0
 0
VERTEX
 8
PARTS
 10
243.8400
 20
168.4020
 30
0.0
 0
VERTEX
 8
PARTS
 10
251.4600
 20
168.4020
 30
0.0
 0
SEQEND
 8
PARTS
 0
POLYLINE
 8
PARTS
 66
1
 10
0.0
 20
0.0
 30
0.0
 0
VERTEX
 8
PARTS
 10
246.3800
 20
176.0220
 30
0.0
 0
VERTEX
 8
PARTS
 10
246.3800
 20
176.0220
 30
0.0
 0
VERTEX
 8
PARTS
 10
246.3800
 20
176.7840
 30
0.0
 0
VERTEX
 8
PARTS
 10
248.6660
 20
176.7840
 30
0.0
 0
VERTEX
 8
PARTS
 10
248.6660
 20
176.0220
 30
0.0
 0
SEQEND
 8
PARTS
 0
POLYLINE
 8
PARTS
 66
1
 10
0.0
 20
0.0
 30
0.0
 0
VERTEX
 8
PARTS
 10
248.6660
 20
168.4020
 30
0.0
 0
VERTEX
 8
PARTS
 10
248.6660
 20
168.4020
 30
0.0
 0
VERTEX
 8
PARTS
 10
248.6660
 20
167.6400
 30
0.0
 0
VERTEX
 8
PARTS
 10
246.3800
 20
167.6400
 30
0.0
 0
VERTEX
 8
PARTS
 10
246.3800
 20
168.4020
 30
0.0
 0
SEQEND
 8
PARTS
 0
TEXT
 8
PARTTEXT
 10
175.2600
 20
355.0263
 30
0.0
 40
  1.3057
 1
20 MHZ
 0
LINE
 8
PARTS
 10
172.7200
 20
348.7420
 30
0.0
 11
172.7200
 21
351.2820
 31
0.0
 0
LINE
 8
PARTS
 10
172.7200
 20
358.9020
 30
0.0
 11
172.7200
 21
356.3620
 31
0.0
 0
POLYLINE
 8
PARTS
 66
1
 10
0.0
 20
0.0
 30
0.0
 0
VERTEX
 8
PARTS
 10
171.4500
 20
351.2820
 30
0.0
 0
VERTEX
 8
PARTS
 10
173.9900
 20
351.2820
 30
0.0
 0
SEQEND
 8
PARTS
 0
POLYLINE
 8
PARTS
 66
1
 10
0.0
 20
0.0
 30
0.0
 0
VERTEX
 8
PARTS
 10
170.1800
 20
352.2980
 30
0.0
 0
VERTEX
 8
PARTS
 10
175.2600
 20
352.2980
 30
0.0
 0
SEQEND
 8
PARTS
 0
POLYLINE
 8
PARTS
 66
1
 10
0.0
 20
0.0
 30
0.0
 0
VERTEX
 8
PARTS
 10
175.2600
 20
352.2980
 30
0.0
 0
VERTEX
 8
PARTS
 10
175.2600
 20
355.3460
 30
0.0
 0
SEQEND
 8
PARTS
 0
POLYLINE
 8
PARTS
 66
1
 10
0.0
 20
0.0
 30
0.0
 0
VERTEX
 8
PARTS
 10
175.2600
 20
355.3460
 30
0.0
 0
VERTEX
 8
PARTS
 10
170.1800
 20
355.3460
 30
0.0
 0
SEQEND
 8
PARTS
 0
POLYLINE
 8
PARTS
 66
1
 10
0.0
 20
0.0
 30
0.0
 0
VERTEX
 8
PARTS
 10
170.1800
 20
355.3460
 30
0.0
 0
VERTEX
 8
PARTS
 10
170.1800
 20
352.2980
 30
0.0
 0
SEQEND
 8
PARTS
 0
POLYLINE
 8
PARTS
 66
1
 10
0.0
 20
0.0
 30
0.0
 0
VERTEX
 8
PARTS
 10
171.4500
 20
356.3620
 30
0.0
 0
VERTEX
 8
PARTS
 10
173.9900
 20
356.3620
 30
0.0
 0
SEQEND
 8
PARTS
 0
TEXT
 8
PARTTEXT
 10
165.1000
 20
167.0663
 30
0.0
 40
  1.3057
 1
D1
 0
TEXT
 8
PARTTEXT
 10
160.0200
 20
161.9863
 30
0.0
 40
  1.3057
 1
DIODE
 0
LINE
 8
PARTS
 10
162.5600
 20
160.7820
 30
0.0
 11
162.5600
 21
163.3220
 31
0.0
 0
LINE
 8
PARTS
 10
162.5600
 20
173.4820
 30
0.0
 11
162.5600
 21
170.9420
 31
0.0
 0
POLYLINE
 8
PARTS
 66
1
 10
0.0
 20
0.0
 30
0.0
 0
VERTEX
 8
PARTS
 10
164.3380
 20
168.4020
 30
0.0
 0
VERTEX
 8
PARTS
 10
160.7820
 20
168.4020
 30
0.0
 0
SEQEND
 8
PARTS
 0
POLYLINE
 8
PARTS
 66
1
 10
0.0
 20
0.0
 30
0.0
 0
VERTEX
 8
PARTS
 10
162.5600
 20
163.3220
 30
0.0
 0
VERTEX
 8
PARTS
 10
162.5600
 20
165.8620
 30
0.0
 0
SEQEND
 8
PARTS
 0
POLYLINE
 8
PARTS
 66
1
 10
0.0
 20
0.0
 30
0.0
 0
VERTEX
 8
PARTS
 10
162.5600
 20
168.4020
 30
0.0
 0
VERTEX
 8
PARTS
 10
162.5600
 20
170.9420
 30
0.0
 0
SEQEND
 8
PARTS
 0
POLYLINE
 8
PARTS
 66
1
 70
1
 10
0.0
 20
0.0
 30
0.0
 0
VERTEX
 8
PARTS
 10
162.5600
 20
168.4020
 30
0.0
 0
VERTEX
 8
PARTS
 10
162.5600
 20
168.4020
 30
0.0
 0
VERTEX
 8
PARTS
 10
160.7820
 20
165.8620
 30
0.0
 0
VERTEX
 8
PARTS
 10
164.3380
 20
165.8620
 30
0.0
 0
VERTEX
 8
PARTS
 10
162.5600
 20
168.4020
 30
0.0
 0
SEQEND
 8
PARTS
 0
TEXT
 8
PARTTEXT
 10
116.8400
 20
174.6863
 30
0.0
 40
  1.3057
 1
nut nguon
 0
LINE
 8
PARTS
 10
114.3000
 20
183.6420
 30
0.0
 11
116.8400
 21
183.6420
 31
0.0
 0
LINE
 8
PARTS
 10
127.0000
 20
183.6420
 30
0.0
 11
124.4600
 21
183.6420
 31
0.0
 0
LINE
 8
PARTS
 10
114.3000
 20
186.1820
 30
0.0
 11
116.8400
 21
186.1820
 31
0.0
 0
LINE
 8
PARTS
 10
127.0000
 20
186.1820
 30
0.0
 11
124.4600
 21
186.1820
 31
0.0
 0
LINE
 8
PARTS
 10
114.3000
 20
181.1020
 30
0.0
 11
116.8400
 21
181.1020
 31
0.0
 0
LINE
 8
PARTS
 10
127.0000
 20
181.1020
 30
0.0
 11
124.4600
 21
181.1020
 31
0.0
 0
POLYLINE
 8
PARTS
 66
1
 70
1
 10
0.0
 20
0.0
 30
0.0
 0
VERTEX
 8
PARTS
 10
116.8400
 20
188.7220
 30
0.0
 0
VERTEX
 8
PARTS
 10
124.4600
 20
188.7220
 30
0.0
 0
VERTEX
 8
PARTS
 10
124.4600
 20
178.5620
 30
0.0
 0
VERTEX
 8
PARTS
 10
116.8400
 20
178.5620
 30
0.0
 0
SEQEND
 8
PARTS
 0
POLYLINE
 8
PARTS
 66
1
 70
1
 10
0.0
 20
0.0
 30
0.0
 0
VERTEX
 8
PARTS
 10
119.3800
 20
186.6900
 30
0.0
 0
VERTEX
 8
PARTS
 10
121.9200
 20
186.6900
 30
0.0
 0
VERTEX
 8
PARTS
 10
121.9200
 20
180.8480
 30
0.0
 0
VERTEX
 8
PARTS
 10
119.3800
 20
180.8480
 30
0.0
 0
SEQEND
 8
PARTS
 0
POLYLINE
 8
PARTS
 66
1
 10
0.0
 20
0.0
 30
0.0
 0
VERTEX
 8
PARTS
 10
119.3800
 20
185.1660
 30
0.0
 0
VERTEX
 8
PARTS
 10
121.9200
 20
185.1660
 30
0.0
 0
SEQEND
 8
PARTS
 0
POLYLINE
 8
PARTS
 66
1
 10
0.0
 20
0.0
 30
0.0
 0
VERTEX
 8
PARTS
 10
119.3800
 20
182.3720
 30
0.0
 0
VERTEX
 8
PARTS
 10
121.9200
 20
182.3720
 30
0.0
 0
SEQEND
 8
PARTS
 0
TEXT
 8
PARTTEXT
 10
120.1420
 20
183.3583
 30
0.0
 40
  1.0157
 1
0
 0
TEXT
 8
PARTTEXT
 10
120.1420
 20
185.6443
 30
0.0
 40
  1.0157
 1
9
 0
TEXT
 8
PARTTEXT
 10
120.1420
 20
181.3263
 30
0.0
 40
  1.0157
 1
1
 0
TEXT
 8
PARTTEXT
 10
116.5860
 20
167.0663
 30
0.0
 40
  1.3057
 1
C4
 0
TEXT
 8
PARTTEXT
 10
116.5860
 20
164.7803
 30
0.0
 40
  1.3057
 1
104
 0
LINE
 8
PARTS
 10
111.7600
 20
170.9420
 30
0.0
 11
111.7600
 21
168.4020
 31
0.0
 0
LINE
 8
PARTS
 10
111.7600
 20
163.3220
 30
0.0
 11
111.7600
 21
165.8620
 31
0.0
 0
POLYLINE
 8
PARTS
 66
1
 10
0.0
 20
0.0
 30
0.0
 0
VERTEX
 8
PARTS
 10
111.7600
 20
168.4020
 30
0.0
 0
VERTEX
 8
PARTS
 10
111.7600
 20
167.8940
 30
0.0
 0
SEQEND
 8
PARTS
 0
POLYLINE
 8
PARTS
 66
1
 10
0.0
 20
0.0
 30
0.0
 0
VERTEX
 8
PARTS
 10
109.4740
 20
166.6240
 30
0.0
 0
VERTEX
 8
PARTS
 10
114.0460
 20
166.6240
 30
0.0
 0
SEQEND
 8
PARTS
 0
POLYLINE
 8
PARTS
 66
1
 10
0.0
 20
0.0
 30
0.0
 0
VERTEX
 8
PARTS
 10
109.4740
 20
167.8940
 30
0.0
 0
VERTEX
 8
PARTS
 10
114.0460
 20
167.8940
 30
0.0
 0
SEQEND
 8
PARTS
 0
POLYLINE
 8
PARTS
 66
1
 10
0.0
 20
0.0
 30
0.0
 0
VERTEX
 8
PARTS
 10
111.7600
 20
165.8620
 30
0.0
 0
VERTEX
 8
PARTS
 10
111.7600
 20
166.6240
 30
0.0
 0
SEQEND
 8
PARTS
 0
TEXT
 8
PARTTEXT
 10
223.5200
 20
240.7263
 30
0.0
 40
  1.3057
 1
J8
 0
LINE
 8
PARTS
 10
215.9000
 20
234.4420
 30
0.0
 11
223.5200
 21
234.4420
 31
0.0
 0
TEXT
 8
PARTS
 10
220.9800
 20
235.2040
 30
0.0
 40
  1.2700
 1
1
 0
LINE
 8
PARTS
 10
215.9000
 20
231.9020
 30
0.0
 11
223.5200
 21
231.9020
 31
0.0
 0
TEXT
 8
PARTS
 10
220.9800
 20
232.6640
 30
0.0
 40
  1.2700
 1
2
 0
LINE
 8
PARTS
 10
215.9000
 20
229.3620
 30
0.0
 11
223.5200
 21
229.3620
 31
0.0
 0
TEXT
 8
PARTS
 10
220.9800
 20
230.1240
 30
0.0
 40
  1.2700
 1
3
 0
LINE
 8
PARTS
 10
215.9000
 20
226.8220
 30
0.0
 11
223.5200
 21
226.8220
 31
0.0
 0
TEXT
 8
PARTS
 10
220.9800
 20
227.5840
 30
0.0
 40
  1.2700
 1
4
 0
LINE
 8
PARTS
 10
215.9000
 20
224.2820
 30
0.0
 11
223.5200
 21
224.2820
 31
0.0
 0
TEXT
 8
PARTS
 10
220.9800
 20
225.0440
 30
0.0
 40
  1.2700
 1
5
 0
LINE
 8
PARTS
 10
215.9000
 20
221.7420
 30
0.0
 11
223.5200
 21
221.7420
 31
0.0
 0
TEXT
 8
PARTS
 10
220.9800
 20
222.5040
 30
0.0
 40
  1.2700
 1
6
 0
LINE
 8
PARTS
 10
215.9000
 20
219.2020
 30
0.0
 11
223.5200
 21
219.2020
 31
0.0
 0
TEXT
 8
PARTS
 10
220.9800
 20
219.9640
 30
0.0
 40
  1.2700
 1
7
 0
LINE
 8
PARTS
 10
215.9000
 20
216.6620
 30
0.0
 11
223.5200
 21
216.6620
 31
0.0
 0
TEXT
 8
PARTS
 10
220.9800
 20
217.4240
 30
0.0
 40
  1.2700
 1
8
 0
POLYLINE
 8
PARTS
 66
1
 70
1
 10
0.0
 20
0.0
 30
0.0
 0
VERTEX
 8
PARTS
 10
223.5200
 20
236.9820
 30
0.0
 0
VERTEX
 8
PARTS
 10
228.6000
 20
236.9820
 30
0.0
 0
VERTEX
 8
PARTS
 10
228.6000
 20
214.1220
 30
0.0
 0
VERTEX
 8
PARTS
 10
223.5200
 20
214.1220
 30
0.0
 0
SEQEND
 8
PARTS
 0
TEXT
 8
PARTTEXT
 10
226.0600
 20
178.4963
 30
0.0
 40
  1.3057
 1
D2
 0
TEXT
 8
PARTTEXT
 10
226.0600
 20
169.6063
 30
0.0
 40
  1.3057
 1
DIODE
 0
LINE
 8
PARTS
 10
236.2200
 20
173.4820
 30
0.0
 11
233.6800
 21
173.4820
 31
0.0
 0
LINE
 8
PARTS
 10
223.5200
 20
173.4820
 30
0.0
 11
226.0600
 21
173.4820
 31
0.0
 0
POLYLINE
 8
PARTS
 66
1
 10
0.0
 20
0.0
 30
0.0
 0
VERTEX
 8
PARTS
 10
228.6000
 20
175.2600
 30
0.0
 0
VERTEX
 8
PARTS
 10
228.6000
 20
171.7040
 30
0.0
 0
SEQEND
 8
PARTS
 0
POLYLINE
 8
PARTS
 66
1
 10
0.0
 20
0.0
 30
0.0
 0
VERTEX
 8
PARTS
 10
233.6800
 20
173.4820
 30
0.0
 0
VERTEX
 8
PARTS
 10
231.1400
 20
173.4820
 30
0.0
 0
SEQEND
 8
PARTS
 0
POLYLINE
 8
PARTS
 66
1
 10
0.0
 20
0.0
 30
0.0
 0
VERTEX
 8
PARTS
 10
228.6000
 20
173.4820
 30
0.0
 0
VERTEX
 8
PARTS
 10
226.0600
 20
173.4820
 30
0.0
 0
SEQEND
 8
PARTS
 0
POLYLINE
 8
PARTS
 66
1
 70
1
 10
0.0
 20
0.0
 30
0.0
 0
VERTEX
 8
PARTS
 10
228.6000
 20
173.4820
 30
0.0
 0
VERTEX
 8
PARTS
 10
228.6000
 20
173.4820
 30
0.0
 0
VERTEX
 8
PARTS
 10
231.1400
 20
171.7040
 30
0.0
 0
VERTEX
 8
PARTS
 10
231.1400
 20
175.2600
 30
0.0
 0
VERTEX
 8
PARTS
 10
228.6000
 20
173.4820
 30
0.0
 0
SEQEND
 8
PARTS
 0
TEXT
 8
PARTTEXT
 10
 49.7840
 20
161.9863
 30
0.0
 40
  1.3057
 1
R6
 0
TEXT
 8
PARTTEXT
 10
 49.7840
 20
158.9383
 30
0.0
 40
  1.3057
 1
330
 0
LINE
 8
PARTS
 10
 45.7200
 20
153.1620
 30
0.0
 11
 45.7200
 21
155.7020
 31
0.0
 0
LINE
 8
PARTS
 10
 45.7200
 20
165.8620
 30
0.0
 11
 45.7200
 21
163.3220
 31
0.0
 0
POLYLINE
 8
PARTS
 66
1
 10
0.0
 20
0.0
 30
0.0
 0
VERTEX
 8
PARTS
 10
 45.7200
 20
155.7020
 30
0.0
 0
VERTEX
 8
PARTS
 10
 44.9580
 20
156.4640
 30
0.0
 0
SEQEND
 8
PARTS
 0
POLYLINE
 8
PARTS
 66
1
 10
0.0
 20
0.0
 30
0.0
 0
VERTEX
 8
PARTS
 10
 44.9580
 20
156.4640
 30
0.0
 0
VERTEX
 8
PARTS
 10
 46.4820
 20
157.9880
 30
0.0
 0
SEQEND
 8
PARTS
 0
POLYLINE
 8
PARTS
 66
1
 10
0.0
 20
0.0
 30
0.0
 0
VERTEX
 8
PARTS
 10
 46.4820
 20
157.9880
 30
0.0
 0
VERTEX
 8
PARTS
 10
 44.9580
 20
159.5120
 30
0.0
 0
SEQEND
 8
PARTS
 0
POLYLINE
 8
PARTS
 66
1
 10
0.0
 20
0.0
 30
0.0
 0
VERTEX
 8
PARTS
 10
 44.9580
 20
159.5120
 30
0.0
 0
VERTEX
 8
PARTS
 10
 46.4820
 20
161.0360
 30
0.0
 0
SEQEND
 8
PARTS
 0
POLYLINE
 8
PARTS
 66
1
 10
0.0
 20
0.0
 30
0.0
 0
VERTEX
 8
PARTS
 10
 46.4820
 20
161.0360
 30
0.0
 0
VERTEX
 8
PARTS
 10
 44.9580
 20
162.5600
 30
0.0
 0
SEQEND
 8
PARTS
 0
POLYLINE
 8
PARTS
 66
1
 10
0.0
 20
0.0
 30
0.0
 0
VERTEX
 8
PARTS
 10
 44.9580
 20
162.5600
 30
0.0
 0
VERTEX
 8
PARTS
 10
 45.7200
 20
163.3220
 30
0.0
 0
SEQEND
 8
PARTS
 0
TEXT
 8
PARTTEXT
 10
 49.7840
 20
177.2263
 30
0.0
 40
  1.3057
 1
D4
 0
TEXT
 8
PARTTEXT
 10
 49.7840
 20
174.1783
 30
0.0
 40
  1.3057
 1
LED
 0
LINE
 8
PARTS
 10
 45.7200
 20
181.1020
 30
0.0
 11
 45.7200
 21
178.5620
 31
0.0
 0
LINE
 8
PARTS
 10
 45.7200
 20
165.8620
 30
0.0
 11
 45.7200
 21
168.4020
 31
0.0
 0
POLYLINE
 8
PARTS
 66
1
 10
0.0
 20
0.0
 30
0.0
 0
VERTEX
 8
PARTS
 10
 47.4980
 20
173.4820
 30
0.0
 0
VERTEX
 8
PARTS
 10
 43.9420
 20
173.4820
 30
0.0
 0
SEQEND
 8
PARTS
 0
POLYLINE
 8
PARTS
 66
1
 10
0.0
 20
0.0
 30
0.0
 0
VERTEX
 8
PARTS
 10
 45.7200
 20
178.5620
 30
0.0
 0
VERTEX
 8
PARTS
 10
 45.7200
 20
176.0220
 30
0.0
 0
SEQEND
 8
PARTS
 0
POLYLINE
 8
PARTS
 66
1
 10
0.0
 20
0.0
 30
0.0
 0
VERTEX
 8
PARTS
 10
 45.7200
 20
173.4820
 30
0.0
 0
VERTEX
 8
PARTS
 10
 45.7200
 20
168.4020
 30
0.0
 0
SEQEND
 8
PARTS
 0
POLYLINE
 8
PARTS
 66
1
 70
1
 10
0.0
 20
0.0
 30
0.0
 0
VERTEX
 8
PARTS
 10
 45.7200
 20
173.4820
 30
0.0
 0
VERTEX
 8
PARTS
 10
 45.7200
 20
173.4820
 30
0.0
 0
VERTEX
 8
PARTS
 10
 43.9420
 20
176.0220
 30
0.0
 0
VERTEX
 8
PARTS
 10
 47.4980
 20
176.0220
 30
0.0
 0
VERTEX
 8
PARTS
 10
 45.7200
 20
173.4820
 30
0.0
 0
SEQEND
 8
PARTS
 0
POLYLINE
 8
PARTS
 66
1
 70
1
 10
0.0
 20
0.0
 30
0.0
 0
VERTEX
 8
PARTS
 10
 47.7520
 20
170.4340
 30
0.0
 0
VERTEX
 8
PARTS
 10
 47.7520
 20
170.4340
 30
0.0
 0
VERTEX
 8
PARTS
 10
 48.2600
 20
169.4180
 30
0.0
 0
VERTEX
 8
PARTS
 10
 47.2440
 20
169.9260
 30
0.0
 0
VERTEX
 8
PARTS
 10
 47.7520
 20
170.4340
 30
0.0
 0
SEQEND
 8
PARTS
 0
POLYLINE
 8
PARTS
 66
1
 70
1
 10
0.0
 20
0.0
 30
0.0
 0
VERTEX
 8
PARTS
 10
 47.7520
 20
171.9580
 30
0.0
 0
VERTEX
 8
PARTS
 10
 47.7520
 20
171.9580
 30
0.0
 0
VERTEX
 8
PARTS
 10
 48.2600
 20
170.9420
 30
0.0
 0
VERTEX
 8
PARTS
 10
 47.2440
 20
171.4500
 30
0.0
 0
VERTEX
 8
PARTS
 10
 47.7520
 20
171.9580
 30
0.0
 0
SEQEND
 8
PARTS
 0
POLYLINE
 8
PARTS
 66
1
 10
0.0
 20
0.0
 30
0.0
 0
VERTEX
 8
PARTS
 10
 48.0060
 20
171.1960
 30
0.0
 0
VERTEX
 8
PARTS
 10
 46.4820
 20
172.7200
 30
0.0
 0
SEQEND
 8
PARTS
 0
POLYLINE
 8
PARTS
 66
1
 10
0.0
 20
0.0
 30
0.0
 0
VERTEX
 8
PARTS
 10
 48.0060
 20
169.6720
 30
0.0
 0
VERTEX
 8
PARTS
 10
 46.4820
 20
171.1960
 30
0.0
 0
SEQEND
 8
PARTS
 0
TEXT
 8
PARTTEXT
 10
 83.8200
 20
186.1163
 30
0.0
 40
  1.3057
 1
J11
 0
LINE
 8
PARTS
 10
 96.5200
 20
178.5620
 30
0.0
 11
 88.9000
 21
178.5620
 31
0.0
 0
TEXT
 8
PARTS
 10
 90.4240
 20
179.3240
 30
0.0
 40
  1.2700
 1
1
 0
LINE
 8
PARTS
 10
 96.5200
 20
181.1020
 30
0.0
 11
 88.9000
 21
181.1020
 31
0.0
 0
TEXT
 8
PARTS
 10
 90.4240
 20
181.8640
 30
0.0
 40
  1.2700
 1
2
 0
POLYLINE
 8
PARTS
 66
1
 70
1
 10
0.0
 20
0.0
 30
0.0
 0
VERTEX
 8
PARTS
 10
 88.9000
 20
176.0220
 30
0.0
 0
VERTEX
 8
PARTS
 10
 83.8200
 20
176.0220
 30
0.0
 0
VERTEX
 8
PARTS
 10
 83.8200
 20
183.6420
 30
0.0
 0
VERTEX
 8
PARTS
 10
 88.9000
 20
183.6420
 30
0.0
 0
SEQEND
 8
PARTS
 0
TEXT
 8
PARTTEXT
 10
266.7000
 20
286.4463
 30
0.0
 40
  1.3057
 1
J6
 0
LINE
 8
PARTS
 10
259.0800
 20
280.1620
 30
0.0
 11
266.7000
 21
280.1620
 31
0.0
 0
TEXT
 8
PARTS
 10
264.1600
 20
280.9240
 30
0.0
 40
  1.2700
 1
1
 0
LINE
 8
PARTS
 10
259.0800
 20
277.6220
 30
0.0
 11
266.7000
 21
277.6220
 31
0.0
 0
TEXT
 8
PARTS
 10
264.1600
 20
278.3840
 30
0.0
 40
  1.2700
 1
2
 0
LINE
 8
PARTS
 10
259.0800
 20
275.0820
 30
0.0
 11
266.7000
 21
275.0820
 31
0.0
 0
TEXT
 8
PARTS
 10
264.1600
 20
275.8440
 30
0.0
 40
  1.2700
 1
3
 0
LINE
 8
PARTS
 10
259.0800
 20
272.5420
 30
0.0
 11
266.7000
 21
272.5420
 31
0.0
 0
TEXT
 8
PARTS
 10
264.1600
 20
273.3040
 30
0.0
 40
  1.2700
 1
4
 0
LINE
 8
PARTS
 10
259.0800
 20
270.0020
 30
0.0
 11
266.7000
 21
270.0020
 31
0.0
 0
TEXT
 8
PARTS
 10
264.1600
 20
270.7640
 30
0.0
 40
  1.2700
 1
5
 0
LINE
 8
PARTS
 10
259.0800
 20
267.4620
 30
0.0
 11
266.7000
 21
267.4620
 31
0.0
 0
TEXT
 8
PARTS
 10
264.1600
 20
268.2240
 30
0.0
 40
  1.2700
 1
6
 0
POLYLINE
 8
PARTS
 66
1
 70
1
 10
0.0
 20
0.0
 30
0.0
 0
VERTEX
 8
PARTS
 10
266.7000
 20
282.7020
 30
0.0
 0
VERTEX
 8
PARTS
 10
271.7800
 20
282.7020
 30
0.0
 0
VERTEX
 8
PARTS
 10
271.7800
 20
264.9220
 30
0.0
 0
VERTEX
 8
PARTS
 10
266.7000
 20
264.9220
 30
0.0
 0
SEQEND
 8
PARTS
 0
TEXT
 8
PARTTEXT
 10
266.7000
 20
316.9263
 30
0.0
 40
  1.3057
 1
J5
 0
LINE
 8
PARTS
 10
259.0800
 20
310.6420
 30
0.0
 11
266.7000
 21
310.6420
 31
0.0
 0
TEXT
 8
PARTS
 10
264.1600
 20
311.4040
 30
0.0
 40
  1.2700
 1
1
 0
LINE
 8
PARTS
 10
259.0800
 20
308.1020
 30
0.0
 11
266.7000
 21
308.1020
 31
0.0
 0
TEXT
 8
PARTS
 10
264.1600
 20
308.8640
 30
0.0
 40
  1.2700
 1
2
 0
LINE
 8
PARTS
 10
259.0800
 20
305.5620
 30
0.0
 11
266.7000
 21
305.5620
 31
0.0
 0
TEXT
 8
PARTS
 10
264.1600
 20
306.3240
 30
0.0
 40
  1.2700
 1
3
 0
LINE
 8
PARTS
 10
259.0800
 20
303.0220
 30
0.0
 11
266.7000
 21
303.0220
 31
0.0
 0
TEXT
 8
PARTS
 10
264.1600
 20
303.7840
 30
0.0
 40
  1.2700
 1
4
 0
LINE
 8
PARTS
 10
259.0800
 20
300.4820
 30
0.0
 11
266.7000
 21
300.4820
 31
0.0
 0
TEXT
 8
PARTS
 10
264.1600
 20
301.2440
 30
0.0
 40
  1.2700
 1
5
 0
LINE
 8
PARTS
 10
259.0800
 20
297.9420
 30
0.0
 11
266.7000
 21
297.9420
 31
0.0
 0
TEXT
 8
PARTS
 10
264.1600
 20
298.7040
 30
0.0
 40
  1.2700
 1
6
 0
LINE
 8
PARTS
 10
259.0800
 20
295.4020
 30
0.0
 11
266.7000
 21
295.4020
 31
0.0
 0
TEXT
 8
PARTS
 10
264.1600
 20
296.1640
 30
0.0
 40
  1.2700
 1
7
 0
LINE
 8
PARTS
 10
259.0800
 20
292.8620
 30
0.0
 11
266.7000
 21
292.8620
 31
0.0
 0
TEXT
 8
PARTS
 10
264.1600
 20
293.6240
 30
0.0
 40
  1.2700
 1
8
 0
POLYLINE
 8
PARTS
 66
1
 70
1
 10
0.0
 20
0.0
 30
0.0
 0
VERTEX
 8
PARTS
 10
266.7000
 20
313.1820
 30
0.0
 0
VERTEX
 8
PARTS
 10
271.7800
 20
313.1820
 30
0.0
 0
VERTEX
 8
PARTS
 10
271.7800
 20
290.3220
 30
0.0
 0
VERTEX
 8
PARTS
 10
266.7000
 20
290.3220
 30
0.0
 0
SEQEND
 8
PARTS
 0
TEXT
 8
PARTTEXT
 10
231.1400
 20
363.9163
 30
0.0
 40
  1.3057
 1
J1
 0
LINE
 8
PARTS
 10
223.5200
 20
358.9020
 30
0.0
 11
231.1400
 21
358.9020
 31
0.0
 0
TEXT
 8
PARTS
 10
228.6000
 20
359.6640
 30
0.0
 40
  1.2700
 1
1
 0
LINE
 8
PARTS
 10
223.5200
 20
356.3620
 30
0.0
 11
231.1400
 21
356.3620
 31
0.0
 0
TEXT
 8
PARTS
 10
228.6000
 20
357.1240
 30
0.0
 40
  1.2700
 1
2
 0
LINE
 8
PARTS
 10
223.5200
 20
353.8220
 30
0.0
 11
231.1400
 21
353.8220
 31
0.0
 0
TEXT
 8
PARTS
 10
228.6000
 20
354.5840
 30
0.0
 40
  1.2700
 1
3
 0
LINE
 8
PARTS
 10
223.5200
 20
351.2820
 30
0.0
 11
231.1400
 21
351.2820
 31
0.0
 0
TEXT
 8
PARTS
 10
228.6000
 20
352.0440
 30
0.0
 40
  1.2700
 1
4
 0
LINE
 8
PARTS
 10
223.5200
 20
348.7420
 30
0.0
 11
231.1400
 21
348.7420
 31
0.0
 0
TEXT
 8
PARTS
 10
228.6000
 20
349.5040
 30
0.0
 40
  1.2700
 1
5
 0
POLYLINE
 8
PARTS
 66
1
 70
1
 10
0.0
 20
0.0
 30
0.0
 0
VERTEX
 8
PARTS
 10
231.1400
 20
361.4420
 30
0.0
 0
VERTEX
 8
PARTS
 10
236.2200
 20
361.4420
 30
0.0
 0
VERTEX
 8
PARTS
 10
236.2200
 20
346.2020
 30
0.0
 0
VERTEX
 8
PARTS
 10
231.1400
 20
346.2020
 30
0.0
 0
SEQEND
 8
PARTS
 0
TEXT
 8
PARTTEXT
 10
 97.7900
 20
276.2863
 30
0.0
 40
  1.3057
 1
J4
 0
LINE
 8
PARTS
 10
109.2200
 20
270.0020
 30
0.0
 11
101.6000
 21
270.0020
 31
0.0
 0
TEXT
 8
PARTS
 10
103.1240
 20
270.7640
 30
0.0
 40
  1.2700
 1
1
 0
LINE
 8
PARTS
 10
109.2200
 20
267.4620
 30
0.0
 11
101.6000
 21
267.4620
 31
0.0
 0
TEXT
 8
PARTS
 10
103.1240
 20
268.2240
 30
0.0
 40
  1.2700
 1
2
 0
LINE
 8
PARTS
 10
109.2200
 20
264.9220
 30
0.0
 11
101.6000
 21
264.9220
 31
0.0
 0
TEXT
 8
PARTS
 10
103.1240
 20
265.6840
 30
0.0
 40
  1.2700
 1
3
 0
LINE
 8
PARTS
 10
109.2200
 20
262.3820
 30
0.0
 11
101.6000
 21
262.3820
 31
0.0
 0
TEXT
 8
PARTS
 10
103.1240
 20
263.1440
 30
0.0
 40
  1.2700
 1
4
 0
LINE
 8
PARTS
 10
109.2200
 20
259.8420
 30
0.0
 11
101.6000
 21
259.8420
 31
0.0
 0
TEXT
 8
PARTS
 10
103.1240
 20
260.6040
 30
0.0
 40
  1.2700
 1
5
 0
LINE
 8
PARTS
 10
109.2200
 20
257.3020
 30
0.0
 11
101.6000
 21
257.3020
 31
0.0
 0
TEXT
 8
PARTS
 10
103.1240
 20
258.0640
 30
0.0
 40
  1.2700
 1
6
 0
LINE
 8
PARTS
 10
109.2200
 20
254.7620
 30
0.0
 11
101.6000
 21
254.7620
 31
0.0
 0
TEXT
 8
PARTS
 10
103.1240
 20
255.5240
 30
0.0
 40
  1.2700
 1
7
 0
LINE
 8
PARTS
 10
109.2200
 20
252.2220
 30
0.0
 11
101.6000
 21
252.2220
 31
0.0
 0
TEXT
 8
PARTS
 10
103.1240
 20
252.9840
 30
0.0
 40
  1.2700
 1
8
 0
LINE
 8
PARTS
 10
109.2200
 20
249.6820
 30
0.0
 11
101.6000
 21
249.6820
 31
0.0
 0
TEXT
 8
PARTS
 10
103.1240
 20
250.4440
 30
0.0
 40
  1.2700
 1
9
 0
LINE
 8
PARTS
 10
109.2200
 20
247.1420
 30
0.0
 11
101.6000
 21
247.1420
 31
0.0
 0
TEXT
 8
PARTS
 10
103.1240
 20
247.9040
 30
0.0
 40
  1.2700
 1
10
 0
POLYLINE
 8
PARTS
 66
1
 70
1
 10
0.0
 20
0.0
 30
0.0
 0
VERTEX
 8
PARTS
 10
101.6000
 20
272.5420
 30
0.0
 0
VERTEX
 8
PARTS
 10
 93.9800
 20
272.5420
 30
0.0
 0
VERTEX
 8
PARTS
 10
 93.9800
 20
244.6020
 30
0.0
 0
VERTEX
 8
PARTS
 10
101.6000
 20
244.6020
 30
0.0
 0
SEQEND
 8
PARTS
 0
TEXT
 8
PARTTEXT
 10
281.9400
 20
266.1263
 30
0.0
 40
  1.3057
 1
R4
 0
TEXT
 8
PARTTEXT
 10
281.9400
 20
283.9063
 30
0.0
 40
  1.3057
 1
10k
 0
LINE
 8
PARTS
 10
299.7200
 20
270.0020
 30
0.0
 11
292.1000
 21
270.0020
 31
0.0
 0
TEXT
 8
PARTS
 10
293.6240
 20
270.7640
 30
0.0
 40
  1.2700
 1
1
 0
LINE
 8
PARTS
 10
271.7800
 20
270.0020
 30
0.0
 11
279.4000
 21
270.0020
 31
0.0
 0
TEXT
 8
PARTS
 10
276.8600
 20
270.7640
 30
0.0
 40
  1.2700
 1
2
 0
LINE
 8
PARTS
 10
271.7800
 20
272.5420
 30
0.0
 11
279.4000
 21
272.5420
 31
0.0
 0
TEXT
 8
PARTS
 10
276.8600
 20
273.3040
 30
0.0
 40
  1.2700
 1
3
 0
LINE
 8
PARTS
 10
271.7800
 20
275.0820
 30
0.0
 11
279.4000
 21
275.0820
 31
0.0
 0
TEXT
 8
PARTS
 10
276.8600
 20
275.8440
 30
0.0
 40
  1.2700
 1
4
 0
LINE
 8
PARTS
 10
271.7800
 20
277.6220
 30
0.0
 11
279.4000
 21
277.6220
 31
0.0
 0
TEXT
 8
PARTS
 10
276.8600
 20
278.3840
 30
0.0
 40
  1.2700
 1
5
 0
LINE
 8
PARTS
 10
271.7800
 20
280.1620
 30
0.0
 11
279.4000
 21
280.1620
 31
0.0
 0
TEXT
 8
PARTS
 10
276.8600
 20
280.9240
 30
0.0
 40
  1.2700
 1
6
 0
POLYLINE
 8
PARTS
 66
1
 10
0.0
 20
0.0
 30
0.0
 0
VERTEX
 8
PARTS
 10
280.1620
 20
269.2400
 30
0.0
 0
VERTEX
 8
PARTS
 10
279.4000
 20
270.0020
 30
0.0
 0
SEQEND
 8
PARTS
 0
POLYLINE
 8
PARTS
 66
1
 10
0.0
 20
0.0
 30
0.0
 0
VERTEX
 8
PARTS
 10
281.6860
 20
270.7640
 30
0.0
 0
VERTEX
 8
PARTS
 10
280.1620
 20
269.2400
 30
0.0
 0
SEQEND
 8
PARTS
 0
POLYLINE
 8
PARTS
 66
1
 10
0.0
 20
0.0
 30
0.0
 0
VERTEX
 8
PARTS
 10
283.2100
 20
269.2400
 30
0.0
 0
VERTEX
 8
PARTS
 10
281.6860
 20
270.7640
 30
0.0
 0
SEQEND
 8
PARTS
 0
POLYLINE
 8
PARTS
 66
1
 10
0.0
 20
0.0
 30
0.0
 0
VERTEX
 8
PARTS
 10
284.7340
 20
270.7640
 30
0.0
 0
VERTEX
 8
PARTS
 10
283.2100
 20
269.2400
 30
0.0
 0
SEQEND
 8
PARTS
 0
POLYLINE
 8
PARTS
 66
1
 10
0.0
 20
0.0
 30
0.0
 0
VERTEX
 8
PARTS
 10
286.2580
 20
269.2400
 30
0.0
 0
VERTEX
 8
PARTS
 10
284.7340
 20
270.7640
 30
0.0
 0
SEQEND
 8
PARTS
 0
POLYLINE
 8
PARTS
 66
1
 10
0.0
 20
0.0
 30
0.0
 0
VERTEX
 8
PARTS
 10
287.0200
 20
270.0020
 30
0.0
 0
VERTEX
 8
PARTS
 10
286.2580
 20
269.2400
 30
0.0
 0
SEQEND
 8
PARTS
 0
POLYLINE
 8
PARTS
 66
1
 10
0.0
 20
0.0
 30
0.0
 0
VERTEX
 8
PARTS
 10
280.1620
 20
271.7800
 30
0.0
 0
VERTEX
 8
PARTS
 10
279.4000
 20
272.5420
 30
0.0
 0
SEQEND
 8
PARTS
 0
POLYLINE
 8
PARTS
 66
1
 10
0.0
 20
0.0
 30
0.0
 0
VERTEX
 8
PARTS
 10
281.6860
 20
273.3040
 30
0.0
 0
VERTEX
 8
PARTS
 10
280.1620
 20
271.7800
 30
0.0
 0
SEQEND
 8
PARTS
 0
POLYLINE
 8
PARTS
 66
1
 10
0.0
 20
0.0
 30
0.0
 0
VERTEX
 8
PARTS
 10
283.2100
 20
271.7800
 30
0.0
 0
VERTEX
 8
PARTS
 10
281.6860
 20
273.3040
 30
0.0
 0
SEQEND
 8
PARTS
 0
POLYLINE
 8
PARTS
 66
1
 10
0.0
 20
0.0
 30
0.0
 0
VERTEX
 8
PARTS
 10
284.7340
 20
273.3040
 30
0.0
 0
VERTEX
 8
PARTS
 10
283.2100
 20
271.7800
 30
0.0
 0
SEQEND
 8
PARTS
 0
POLYLINE
 8
PARTS
 66
1
 10
0.0
 20
0.0
 30
0.0
 0
VERTEX
 8
PARTS
 10
286.2580
 20
271.7800
 30
0.0
 0
VERTEX
 8
PARTS
 10
284.7340
 20
273.3040
 30
0.0
 0
SEQEND
 8
PARTS
 0
POLYLINE
 8
PARTS
 66
1
 10
0.0
 20
0.0
 30
0.0
 0
VERTEX
 8
PARTS
 10
287.0200
 20
272.5420
 30
0.0
 0
VERTEX
 8
PARTS
 10
286.2580
 20
271.7800
 30
0.0
 0
SEQEND
 8
PARTS
 0
POLYLINE
 8
PARTS
 66
1
 10
0.0
 20
0.0
 30
0.0
 0
VERTEX
 8
PARTS
 10
280.1620
 20
274.3200
 30
0.0
 0
VERTEX
 8
PARTS
 10
279.4000
 20
275.0820
 30
0.0
 0
SEQEND
 8
PARTS
 0
POLYLINE
 8
PARTS
 66
1
 10
0.0
 20
0.0
 30
0.0
 0
VERTEX
 8
PARTS
 10
281.6860
 20
275.8440
 30
0.0
 0
VERTEX
 8
PARTS
 10
280.1620
 20
274.3200
 30
0.0
 0
SEQEND
 8
PARTS
 0
POLYLINE
 8
PARTS
 66
1
 10
0.0
 20
0.0
 30
0.0
 0
VERTEX
 8
PARTS
 10
283.2100
 20
274.3200
 30
0.0
 0
VERTEX
 8
PARTS
 10
281.6860
 20
275.8440
 30
0.0
 0
SEQEND
 8
PARTS
 0
POLYLINE
 8
PARTS
 66
1
 10
0.0
 20
0.0
 30
0.0
 0
VERTEX
 8
PARTS
 10
284.7340
 20
275.8440
 30
0.0
 0
VERTEX
 8
PARTS
 10
283.2100
 20
274.3200
 30
0.0
 0
SEQEND
 8
PARTS
 0
POLYLINE
 8
PARTS
 66
1
 10
0.0
 20
0.0
 30
0.0
 0
VERTEX
 8
PARTS
 10
286.2580
 20
274.3200
 30
0.0
 0
VERTEX
 8
PARTS
 10
284.7340
 20
275.8440
 30
0.0
 0
SEQEND
 8
PARTS
 0
POLYLINE
 8
PARTS
 66
1
 10
0.0
 20
0.0
 30
0.0
 0
VERTEX
 8
PARTS
 10
287.0200
 20
275.0820
 30
0.0
 0
VERTEX
 8
PARTS
 10
286.2580
 20
274.3200
 30
0.0
 0
SEQEND
 8
PARTS
 0
POLYLINE
 8
PARTS
 66
1
 10
0.0
 20
0.0
 30
0.0
 0
VERTEX
 8
PARTS
 10
280.1620
 20
276.8600
 30
0.0
 0
VERTEX
 8
PARTS
 10
279.4000
 20
277.6220
 30
0.0
 0
SEQEND
 8
PARTS
 0
POLYLINE
 8
PARTS
 66
1
 10
0.0
 20
0.0
 30
0.0
 0
VERTEX
 8
PARTS
 10
281.6860
 20
278.3840
 30
0.0
 0
VERTEX
 8
PARTS
 10
280.1620
 20
276.8600
 30
0.0
 0
SEQEND
 8
PARTS
 0
POLYLINE
 8
PARTS
 66
1
 10
0.0
 20
0.0
 30
0.0
 0
VERTEX
 8
PARTS
 10
283.2100
 20
276.8600
 30
0.0
 0
VERTEX
 8
PARTS
 10
281.6860
 20
278.3840
 30
0.0
 0
SEQEND
 8
PARTS
 0
POLYLINE
 8
PARTS
 66
1
 10
0.0
 20
0.0
 30
0.0
 0
VERTEX
 8
PARTS
 10
284.7340
 20
278.3840
 30
0.0
 0
VERTEX
 8
PARTS
 10
283.2100
 20
276.8600
 30
0.0
 0
SEQEND
 8
PARTS
 0
POLYLINE
 8
PARTS
 66
1
 10
0.0
 20
0.0
 30
0.0
 0
VERTEX
 8
PARTS
 10
286.2580
 20
276.8600
 30
0.0
 0
VERTEX
 8
PARTS
 10
284.7340
 20
278.3840
 30
0.0
 0
SEQEND
 8
PARTS
 0
POLYLINE
 8
PARTS
 66
1
 10
0.0
 20
0.0
 30
0.0
 0
VERTEX
 8
PARTS
 10
287.0200
 20
277.6220
 30
0.0
 0
VERTEX
 8
PARTS
 10
286.2580
 20
276.8600
 30
0.0
 0
SEQEND
 8
PARTS
 0
POLYLINE
 8
PARTS
 66
1
 10
0.0
 20
0.0
 30
0.0
 0
VERTEX
 8
PARTS
 10
280.1620
 20
279.4000
 30
0.0
 0
VERTEX
 8
PARTS
 10
279.4000
 20
280.1620
 30
0.0
 0
SEQEND
 8
PARTS
 0
POLYLINE
 8
PARTS
 66
1
 10
0.0
 20
0.0
 30
0.0
 0
VERTEX
 8
PARTS
 10
281.6860
 20
280.9240
 30
0.0
 0
VERTEX
 8
PARTS
 10
280.1620
 20
279.4000
 30
0.0
 0
SEQEND
 8
PARTS
 0
POLYLINE
 8
PARTS
 66
1
 10
0.0
 20
0.0
 30
0.0
 0
VERTEX
 8
PARTS
 10
283.2100
 20
279.4000
 30
0.0
 0
VERTEX
 8
PARTS
 10
281.6860
 20
280.9240
 30
0.0
 0
SEQEND
 8
PARTS
 0
POLYLINE
 8
PARTS
 66
1
 10
0.0
 20
0.0
 30
0.0
 0
VERTEX
 8
PARTS
 10
284.7340
 20
280.9240
 30
0.0
 0
VERTEX
 8
PARTS
 10
283.2100
 20
279.4000
 30
0.0
 0
SEQEND
 8
PARTS
 0
POLYLINE
 8
PARTS
 66
1
 10
0.0
 20
0.0
 30
0.0
 0
VERTEX
 8
PARTS
 10
286.2580
 20
279.4000
 30
0.0
 0
VERTEX
 8
PARTS
 10
284.7340
 20
280.9240
 30
0.0
 0
SEQEND
 8
PARTS
 0
POLYLINE
 8
PARTS
 66
1
 10
0.0
 20
0.0
 30
0.0
 0
VERTEX
 8
PARTS
 10
287.0200
 20
280.1620
 30
0.0
 0
VERTEX
 8
PARTS
 10
286.2580
 20
279.4000
 30
0.0
 0
SEQEND
 8
PARTS
 0
POLYLINE
 8
PARTS
 66
1
 70
1
 10
0.0
 20
0.0
 30
0.0
 0
VERTEX
 8
PARTS
 10
290.0680
 20
270.0020
 30
0.0
 42
  0.0985
 0
VERTEX
 8
PARTS
 10
290.0293
 20
270.1964
 30
0.0
 42
  0.0985
 0
VERTEX
 8
PARTS
 10
289.9192
 20
270.3612
 30
0.0
 42
  0.0985
 0
VERTEX
 8
PARTS
 10
289.7544
 20
270.4713
 30
0.0
 42
  0.0985
 0
VERTEX
 8
PARTS
 10
289.5600
 20
270.5100
 30
0.0
 42
  0.0985
 0
VERTEX
 8
PARTS
 10
289.3656
 20
270.4713
 30
0.0
 42
  0.0985
 0
VERTEX
 8
PARTS
 10
289.2008
 20
270.3612
 30
0.0
 42
  0.0985
 0
VERTEX
 8
PARTS
 10
289.0907
 20
270.1964
 30
0.0
 42
  0.0985
 0
VERTEX
 8
PARTS
 10
289.0520
 20
270.0020
 30
0.0
 42
  0.0985
 0
VERTEX
 8
PARTS
 10
289.0907
 20
269.8076
 30
0.0
 42
  0.0985
 0
VERTEX
 8
PARTS
 10
289.2008
 20
269.6428
 30
0.0
 42
  0.0985
 0
VERTEX
 8
PARTS
 10
289.3656
 20
269.5327
 30
0.0
 42
  0.0985
 0
VERTEX
 8
PARTS
 10
289.5600
 20
269.4940
 30
0.0
 42
  0.0985
 0
VERTEX
 8
PARTS
 10
289.7544
 20
269.5327
 30
0.0
 42
  0.0985
 0
VERTEX
 8
PARTS
 10
289.9192
 20
269.6428
 30
0.0
 42
  0.0985
 0
VERTEX
 8
PARTS
 10
290.0293
 20
269.8076
 30
0.0
 42
  0.0985
 0
SEQEND
 8
PARTS
 0
POLYLINE
 8
PARTS
 66
1
 70
1
 10
0.0
 20
0.0
 30
0.0
 0
VERTEX
 8
PARTS
 10
290.0680
 20
272.7960
 30
0.0
 42
  0.0985
 0
VERTEX
 8
PARTS
 10
290.0293
 20
272.9904
 30
0.0
 42
  0.0985
 0
VERTEX
 8
PARTS
 10
289.9192
 20
273.1552
 30
0.0
 42
  0.0985
 0
VERTEX
 8
PARTS
 10
289.7544
 20
273.2653
 30
0.0
 42
  0.0985
 0
VERTEX
 8
PARTS
 10
289.5600
 20
273.3040
 30
0.0
 42
  0.0985
 0
VERTEX
 8
PARTS
 10
289.3656
 20
273.2653
 30
0.0
 42
  0.0985
 0
VERTEX
 8
PARTS
 10
289.2008
 20
273.1552
 30
0.0
 42
  0.0985
 0
VERTEX
 8
PARTS
 10
289.0907
 20
272.9904
 30
0.0
 42
  0.0985
 0
VERTEX
 8
PARTS
 10
289.0520
 20
272.7960
 30
0.0
 42
  0.0985
 0
VERTEX
 8
PARTS
 10
289.0907
 20
272.6016
 30
0.0
 42
  0.0985
 0
VERTEX
 8
PARTS
 10
289.2008
 20
272.4368
 30
0.0
 42
  0.0985
 0
VERTEX
 8
PARTS
 10
289.3656
 20
272.3267
 30
0.0
 42
  0.0985
 0
VERTEX
 8
PARTS
 10
289.5600
 20
272.2880
 30
0.0
 42
  0.0985
 0
VERTEX
 8
PARTS
 10
289.7544
 20
272.3267
 30
0.0
 42
  0.0985
 0
VERTEX
 8
PARTS
 10
289.9192
 20
272.4368
 30
0.0
 42
  0.0985
 0
VERTEX
 8
PARTS
 10
290.0293
 20
272.6016
 30
0.0
 42
  0.0985
 0
SEQEND
 8
PARTS
 0
POLYLINE
 8
PARTS
 66
1
 70
1
 10
0.0
 20
0.0
 30
0.0
 0
VERTEX
 8
PARTS
 10
290.0680
 20
275.0820
 30
0.0
 42
  0.0985
 0
VERTEX
 8
PARTS
 10
290.0293
 20
275.2764
 30
0.0
 42
  0.0985
 0
VERTEX
 8
PARTS
 10
289.9192
 20
275.4412
 30
0.0
 42
  0.0985
 0
VERTEX
 8
PARTS
 10
289.7544
 20
275.5513
 30
0.0
 42
  0.0985
 0
VERTEX
 8
PARTS
 10
289.5600
 20
275.5900
 30
0.0
 42
  0.0985
 0
VERTEX
 8
PARTS
 10
289.3656
 20
275.5513
 30
0.0
 42
  0.0985
 0
VERTEX
 8
PARTS
 10
289.2008
 20
275.4412
 30
0.0
 42
  0.0985
 0
VERTEX
 8
PARTS
 10
289.0907
 20
275.2764
 30
0.0
 42
  0.0985
 0
VERTEX
 8
PARTS
 10
289.0520
 20
275.0820
 30
0.0
 42
  0.0985
 0
VERTEX
 8
PARTS
 10
289.0907
 20
274.8876
 30
0.0
 42
  0.0985
 0
VERTEX
 8
PARTS
 10
289.2008
 20
274.7228
 30
0.0
 42
  0.0985
 0
VERTEX
 8
PARTS
 10
289.3656
 20
274.6127
 30
0.0
 42
  0.0985
 0
VERTEX
 8
PARTS
 10
289.5600
 20
274.5740
 30
0.0
 42
  0.0985
 0
VERTEX
 8
PARTS
 10
289.7544
 20
274.6127
 30
0.0
 42
  0.0985
 0
VERTEX
 8
PARTS
 10
289.9192
 20
274.7228
 30
0.0
 42
  0.0985
 0
VERTEX
 8
PARTS
 10
290.0293
 20
274.8876
 30
0.0
 42
  0.0985
 0
SEQEND
 8
PARTS
 0
POLYLINE
 8
PARTS
 66
1
 70
1
 10
0.0
 20
0.0
 30
0.0
 0
VERTEX
 8
PARTS
 10
290.0680
 20
277.6220
 30
0.0
 42
  0.0985
 0
VERTEX
 8
PARTS
 10
290.0293
 20
277.8164
 30
0.0
 42
  0.0985
 0
VERTEX
 8
PARTS
 10
289.9192
 20
277.9812
 30
0.0
 42
  0.0985
 0
VERTEX
 8
PARTS
 10
289.7544
 20
278.0913
 30
0.0
 42
  0.0985
 0
VERTEX
 8
PARTS
 10
289.5600
 20
278.1300
 30
0.0
 42
  0.0985
 0
VERTEX
 8
PARTS
 10
289.3656
 20
278.0913
 30
0.0
 42
  0.0985
 0
VERTEX
 8
PARTS
 10
289.2008
 20
277.9812
 30
0.0
 42
  0.0985
 0
VERTEX
 8
PARTS
 10
289.0907
 20
277.8164
 30
0.0
 42
  0.0985
 0
VERTEX
 8
PARTS
 10
289.0520
 20
277.6220
 30
0.0
 42
  0.0985
 0
VERTEX
 8
PARTS
 10
289.0907
 20
277.4276
 30
0.0
 42
  0.0985
 0
VERTEX
 8
PARTS
 10
289.2008
 20
277.2628
 30
0.0
 42
  0.0985
 0
VERTEX
 8
PARTS
 10
289.3656
 20
277.1527
 30
0.0
 42
  0.0985
 0
VERTEX
 8
PARTS
 10
289.5600
 20
277.1140
 30
0.0
 42
  0.0985
 0
VERTEX
 8
PARTS
 10
289.7544
 20
277.1527
 30
0.0
 42
  0.0985
 0
VERTEX
 8
PARTS
 10
289.9192
 20
277.2628
 30
0.0
 42
  0.0985
 0
VERTEX
 8
PARTS
 10
290.0293
 20
277.4276
 30
0.0
 42
  0.0985
 0
SEQEND
 8
PARTS
 0
POLYLINE
 8
PARTS
 66
1
 10
0.0
 20
0.0
 30
0.0
 0
VERTEX
 8
PARTS
 10
289.5600
 20
270.0020
 30
0.0
 0
VERTEX
 8
PARTS
 10
287.0200
 20
270.0020
 30
0.0
 0
SEQEND
 8
PARTS
 0
POLYLINE
 8
PARTS
 66
1
 10
0.0
 20
0.0
 30
0.0
 0
VERTEX
 8
PARTS
 10
289.3060
 20
272.5420
 30
0.0
 0
VERTEX
 8
PARTS
 10
287.0200
 20
272.5420
 30
0.0
 0
SEQEND
 8
PARTS
 0
POLYLINE
 8
PARTS
 66
1
 10
0.0
 20
0.0
 30
0.0
 0
VERTEX
 8
PARTS
 10
289.5600
 20
275.0820
 30
0.0
 0
VERTEX
 8
PARTS
 10
287.0200
 20
275.0820
 30
0.0
 0
SEQEND
 8
PARTS
 0
POLYLINE
 8
PARTS
 66
1
 10
0.0
 20
0.0
 30
0.0
 0
VERTEX
 8
PARTS
 10
289.3060
 20
277.6220
 30
0.0
 0
VERTEX
 8
PARTS
 10
287.0200
 20
277.6220
 30
0.0
 0
SEQEND
 8
PARTS
 0
POLYLINE
 8
PARTS
 66
1
 10
0.0
 20
0.0
 30
0.0
 0
VERTEX
 8
PARTS
 10
289.5600
 20
280.1620
 30
0.0
 0
VERTEX
 8
PARTS
 10
287.0200
 20
280.1620
 30
0.0
 0
SEQEND
 8
PARTS
 0
POLYLINE
 8
PARTS
 66
1
 10
0.0
 20
0.0
 30
0.0
 0
VERTEX
 8
PARTS
 10
289.5600
 20
280.1620
 30
0.0
 0
VERTEX
 8
PARTS
 10
289.5600
 20
270.0020
 30
0.0
 0
SEQEND
 8
PARTS
 0
POLYLINE
 8
PARTS
 66
1
 10
0.0
 20
0.0
 30
0.0
 0
VERTEX
 8
PARTS
 10
292.1000
 20
270.0020
 30
0.0
 0
VERTEX
 8
PARTS
 10
289.8140
 20
270.0020
 30
0.0
 0
SEQEND
 8
PARTS
 0
TEXT
 8
PARTTEXT
 10
153.6700
 20
177.2263
 30
0.0
 40
  1.3057
 1
L1
 0
TEXT
 8
PARTTEXT
 10
149.3520
 20
170.8763
 30
0.0
 40
  1.3057
 1
100uH
 0
LINE
 8
PARTS
 10
160.0200
 20
173.4820
 30
0.0
 11
157.4800
 21
173.4820
 31
0.0
 0
TEXT
 8
PARTS
 10
159.0040
 20
174.2440
 30
0.0
 40
  1.2700
 1
1
 0
LINE
 8
PARTS
 10
144.7800
 20
173.4820
 30
0.0
 11
147.3200
 21
173.4820
 31
0.0
 0
TEXT
 8
PARTS
 10
144.7800
 20
174.2440
 30
0.0
 40
  1.2700
 1
2
 0
POLYLINE
 8
PARTS
 66
1
 10
0.0
 20
0.0
 30
0.0
 0
VERTEX
 8
PARTS
 10
154.9400
 20
173.4820
 30
0.0
 42
  1.0000
 0
VERTEX
 8
PARTS
 10
152.4000
 20
173.4820
 30
0.0
 0
SEQEND
 8
PARTS
 0
POLYLINE
 8
PARTS
 66
1
 10
0.0
 20
0.0
 30
0.0
 0
VERTEX
 8
PARTS
 10
152.4000
 20
173.4820
 30
0.0
 42
  1.0000
 0
VERTEX
 8
PARTS
 10
149.8600
 20
173.4820
 30
0.0
 0
SEQEND
 8
PARTS
 0
POLYLINE
 8
PARTS
 66
1
 10
0.0
 20
0.0
 30
0.0
 0
VERTEX
 8
PARTS
 10
149.8600
 20
173.4820
 30
0.0
 42
  1.0000
 0
VERTEX
 8
PARTS
 10
147.3200
 20
173.4820
 30
0.0
 0
SEQEND
 8
PARTS
 0
POLYLINE
 8
PARTS
 66
1
 10
0.0
 20
0.0
 30
0.0
 0
VERTEX
 8
PARTS
 10
157.4800
 20
173.4820
 30
0.0
 42
  1.0000
 0
VERTEX
 8
PARTS
 10
154.9400
 20
173.4820
 30
0.0
 0
SEQEND
 8
PARTS
 0
TEXT
 8
PARTTEXT
 10
266.7000
 20
258.5063
 30
0.0
 40
  1.3057
 1
J7
 0
LINE
 8
PARTS
 10
259.0800
 20
252.2220
 30
0.0
 11
266.7000
 21
252.2220
 31
0.0
 0
TEXT
 8
PARTS
 10
264.1600
 20
252.9840
 30
0.0
 40
  1.2700
 1
1
 0
LINE
 8
PARTS
 10
259.0800
 20
249.6820
 30
0.0
 11
266.7000
 21
249.6820
 31
0.0
 0
TEXT
 8
PARTS
 10
264.1600
 20
250.4440
 30
0.0
 40
  1.2700
 1
2
 0
LINE
 8
PARTS
 10
259.0800
 20
247.1420
 30
0.0
 11
266.7000
 21
247.1420
 31
0.0
 0
TEXT
 8
PARTS
 10
264.1600
 20
247.9040
 30
0.0
 40
  1.2700
 1
3
 0
LINE
 8
PARTS
 10
259.0800
 20
244.6020
 30
0.0
 11
266.7000
 21
244.6020
 31
0.0
 0
TEXT
 8
PARTS
 10
264.1600
 20
245.3640
 30
0.0
 40
  1.2700
 1
4
 0
LINE
 8
PARTS
 10
259.0800
 20
242.0620
 30
0.0
 11
266.7000
 21
242.0620
 31
0.0
 0
TEXT
 8
PARTS
 10
264.1600
 20
242.8240
 30
0.0
 40
  1.2700
 1
5
 0
POLYLINE
 8
PARTS
 66
1
 70
1
 10
0.0
 20
0.0
 30
0.0
 0
VERTEX
 8
PARTS
 10
266.7000
 20
254.7620
 30
0.0
 0
VERTEX
 8
PARTS
 10
271.7800
 20
254.7620
 30
0.0
 0
VERTEX
 8
PARTS
 10
271.7800
 20
239.5220
 30
0.0
 0
VERTEX
 8
PARTS
 10
266.7000
 20
239.5220
 30
0.0
 0
SEQEND
 8
PARTS
 0
TEXT
 8
PARTTEXT
 10
299.7200
 20
168.3363
 30
0.0
 40
  1.3057
 1
R8
 0
TEXT
 8
PARTTEXT
 10
299.7200
 20
157.9223
 30
0.0
 40
  1.3057
 1
10k
 0
LINE
 8
PARTS
 10
297.1800
 20
163.3220
 30
0.0
 11
299.7200
 21
163.3220
 31
0.0
 0
LINE
 8
PARTS
 10
309.8800
 20
163.3220
 30
0.0
 11
307.3400
 21
163.3220
 31
0.0
 0
POLYLINE
 8
PARTS
 66
1
 10
0.0
 20
0.0
 30
0.0
 0
VERTEX
 8
PARTS
 10
299.7200
 20
163.3220
 30
0.0
 0
VERTEX
 8
PARTS
 10
300.4820
 20
164.0840
 30
0.0
 0
SEQEND
 8
PARTS
 0
POLYLINE
 8
PARTS
 66
1
 10
0.0
 20
0.0
 30
0.0
 0
VERTEX
 8
PARTS
 10
300.4820
 20
164.0840
 30
0.0
 0
VERTEX
 8
PARTS
 10
302.0060
 20
162.5600
 30
0.0
 0
SEQEND
 8
PARTS
 0
POLYLINE
 8
PARTS
 66
1
 10
0.0
 20
0.0
 30
0.0
 0
VERTEX
 8
PARTS
 10
302.0060
 20
162.5600
 30
0.0
 0
VERTEX
 8
PARTS
 10
303.5300
 20
164.0840
 30
0.0
 0
SEQEND
 8
PARTS
 0
POLYLINE
 8
PARTS
 66
1
 10
0.0
 20
0.0
 30
0.0
 0
VERTEX
 8
PARTS
 10
303.5300
 20
164.0840
 30
0.0
 0
VERTEX
 8
PARTS
 10
305.0540
 20
162.5600
 30
0.0
 0
SEQEND
 8
PARTS
 0
POLYLINE
 8
PARTS
 66
1
 10
0.0
 20
0.0
 30
0.0
 0
VERTEX
 8
PARTS
 10
305.0540
 20
162.5600
 30
0.0
 0
VERTEX
 8
PARTS
 10
306.5780
 20
164.0840
 30
0.0
 0
SEQEND
 8
PARTS
 0
POLYLINE
 8
PARTS
 66
1
 10
0.0
 20
0.0
 30
0.0
 0
VERTEX
 8
PARTS
 10
306.5780
 20
164.0840
 30
0.0
 0
VERTEX
 8
PARTS
 10
307.3400
 20
163.3220
 30
0.0
 0
SEQEND
 8
PARTS
 0
TEXT
 8
PARTTEXT
 10
279.4000
 20
365.1863
 30
0.0
 40
  1.3057
 1
J2
 0
LINE
 8
PARTS
 10
271.7800
 20
358.9020
 30
0.0
 11
279.4000
 21
358.9020
 31
0.0
 0
TEXT
 8
PARTS
 10
276.8600
 20
359.6640
 30
0.0
 40
  1.2700
 1
1
 0
LINE
 8
PARTS
 10
271.7800
 20
356.3620
 30
0.0
 11
279.4000
 21
356.3620
 31
0.0
 0
TEXT
 8
PARTS
 10
276.8600
 20
357.1240
 30
0.0
 40
  1.2700
 1
2
 0
LINE
 8
PARTS
 10
271.7800
 20
353.8220
 30
0.0
 11
279.4000
 21
353.8220
 31
0.0
 0
TEXT
 8
PARTS
 10
276.8600
 20
354.5840
 30
0.0
 40
  1.2700
 1
3
 0
LINE
 8
PARTS
 10
271.7800
 20
351.2820
 30
0.0
 11
279.4000
 21
351.2820
 31
0.0
 0
TEXT
 8
PARTS
 10
276.8600
 20
352.0440
 30
0.0
 40
  1.2700
 1
4
 0
LINE
 8
PARTS
 10
271.7800
 20
348.7420
 30
0.0
 11
279.4000
 21
348.7420
 31
0.0
 0
TEXT
 8
PARTS
 10
276.8600
 20
349.5040
 30
0.0
 40
  1.2700
 1
5
 0
LINE
 8
PARTS
 10
271.7800
 20
346.2020
 30
0.0
 11
279.4000
 21
346.2020
 31
0.0
 0
TEXT
 8
PARTS
 10
276.8600
 20
346.9640
 30
0.0
 40
  1.2700
 1
6
 0
POLYLINE
 8
PARTS
 66
1
 70
1
 10
0.0
 20
0.0
 30
0.0
 0
VERTEX
 8
PARTS
 10
279.4000
 20
361.4420
 30
0.0
 0
VERTEX
 8
PARTS
 10
284.4800
 20
361.4420
 30
0.0
 0
VERTEX
 8
PARTS
 10
284.4800
 20
343.6620
 30
0.0
 0
VERTEX
 8
PARTS
 10
279.4000
 20
343.6620
 30
0.0
 0
SEQEND
 8
PARTS
 0
TEXT
 8
PARTTEXT
 10
176.0220
 20
159.1923
 30
0.0
 40
  1.3057
 1
LM2576/TO
 0
LINE
 8
PARTS
 10
195.5800
 20
173.4820
 30
0.0
 11
187.9600
 21
173.4820
 31
0.0
 0
TEXT
 8
PARTS
 10
182.6260
 20
172.8470
 30
0.0
 40
  1.2700
 1
VIN
 0
TEXT
 8
PARTS
 10
189.4840
 20
174.2440
 30
0.0
 40
  1.2700
 1
1
 0
LINE
 8
PARTS
 10
165.1000
 20
173.4820
 30
0.0
 11
172.7200
 21
173.4820
 31
0.0
 0
TEXT
 8
PARTS
 10
175.0060
 20
172.8470
 30
0.0
 40
  1.2700
 1
OUT
 0
TEXT
 8
PARTS
 10
170.1800
 20
174.2440
 30
0.0
 40
  1.2700
 1
2
 0
LINE
 8
PARTS
 10
195.5800
 20
168.4020
 30
0.0
 11
187.9600
 21
168.4020
 31
0.0
 0
TEXT
 8
PARTS
 10
183.6420
 20
167.7670
 30
0.0
 40
  1.2700
 1
FB
 0
TEXT
 8
PARTS
 10
189.4840
 20
169.1640
 30
0.0
 40
  1.2700
 1
4
 0
LINE
 8
PARTS
 10
195.5800
 20
165.8620
 30
0.0
 11
187.9600
 21
165.8620
 31
0.0
 0
TEXT
 8
PARTS
 10
179.5780
 20
165.2270
 30
0.0
 40
  1.2700
 1
%%oON%%o/OFF
 0
TEXT
 8
PARTS
 10
189.4840
 20
166.6240
 30
0.0
 40
  1.2700
 1
5
 0
POLYLINE
 8
PARTS
 66
1
 70
1
 10
0.0
 20
0.0
 30
0.0
 0
VERTEX
 8
PARTS
 10
187.9600
 20
176.0220
 30
0.0
 0
VERTEX
 8
PARTS
 10
172.7200
 20
176.0220
 30
0.0
 0
VERTEX
 8
PARTS
 10
172.7200
 20
163.3220
 30
0.0
 0
VERTEX
 8
PARTS
 10
187.9600
 20
163.3220
 30
0.0
 0
SEQEND
 8
PARTS
 0
TEXT
 8
PARTTEXT
 10
212.3440
 20
154.3663
 30
0.0
 40
  1.3057
 1
R7
 0
TEXT
 8
PARTTEXT
 10
212.3440
 20
151.3183
 30
0.0
 40
  1.3057
 1
2.2k
 0
LINE
 8
PARTS
 10
208.2800
 20
145.5420
 30
0.0
 11
208.2800
 21
148.0820
 31
0.0
 0
LINE
 8
PARTS
 10
208.2800
 20
158.2420
 30
0.0
 11
208.2800
 21
155.7020
 31
0.0
 0
POLYLINE
 8
PARTS
 66
1
 10
0.0
 20
0.0
 30
0.0
 0
VERTEX
 8
PARTS
 10
208.2800
 20
148.0820
 30
0.0
 0
VERTEX
 8
PARTS
 10
207.5180
 20
148.8440
 30
0.0
 0
SEQEND
 8
PARTS
 0
POLYLINE
 8
PARTS
 66
1
 10
0.0
 20
0.0
 30
0.0
 0
VERTEX
 8
PARTS
 10
207.5180
 20
148.8440
 30
0.0
 0
VERTEX
 8
PARTS
 10
209.0420
 20
150.3680
 30
0.0
 0
SEQEND
 8
PARTS
 0
POLYLINE
 8
PARTS
 66
1
 10
0.0
 20
0.0
 30
0.0
 0
VERTEX
 8
PARTS
 10
209.0420
 20
150.3680
 30
0.0
 0
VERTEX
 8
PARTS
 10
207.5180
 20
151.8920
 30
0.0
 0
SEQEND
 8
PARTS
 0
POLYLINE
 8
PARTS
 66
1
 10
0.0
 20
0.0
 30
0.0
 0
VERTEX
 8
PARTS
 10
207.5180
 20
151.8920
 30
0.0
 0
VERTEX
 8
PARTS
 10
209.0420
 20
153.4160
 30
0.0
 0
SEQEND
 8
PARTS
 0
POLYLINE
 8
PARTS
 66
1
 10
0.0
 20
0.0
 30
0.0
 0
VERTEX
 8
PARTS
 10
209.0420
 20
153.4160
 30
0.0
 0
VERTEX
 8
PARTS
 10
207.5180
 20
154.9400
 30
0.0
 0
SEQEND
 8
PARTS
 0
POLYLINE
 8
PARTS
 66
1
 10
0.0
 20
0.0
 30
0.0
 0
VERTEX
 8
PARTS
 10
207.5180
 20
154.9400
 30
0.0
 0
VERTEX
 8
PARTS
 10
208.2800
 20
155.7020
 30
0.0
 0
SEQEND
 8
PARTS
 0
TEXT
 8
PARTTEXT
 10
281.9400
 20
311.8463
 30
0.0
 40
  1.3057
 1
R3
 0
TEXT
 8
PARTTEXT
 10
281.9400
 20
294.0663
 30
0.0
 40
  1.3057
 1
10k
 0
LINE
 8
PARTS
 10
299.7200
 20
308.1020
 30
0.0
 11
292.1000
 21
308.1020
 31
0.0
 0
TEXT
 8
PARTS
 10
293.6240
 20
308.8640
 30
0.0
 40
  1.2700
 1
1
 0
LINE
 8
PARTS
 10
271.7800
 20
308.1020
 30
0.0
 11
279.4000
 21
308.1020
 31
0.0
 0
TEXT
 8
PARTS
 10
276.8600
 20
308.8640
 30
0.0
 40
  1.2700
 1
2
 0
LINE
 8
PARTS
 10
271.7800
 20
305.5620
 30
0.0
 11
279.4000
 21
305.5620
 31
0.0
 0
TEXT
 8
PARTS
 10
276.8600
 20
306.3240
 30
0.0
 40
  1.2700
 1
3
 0
LINE
 8
PARTS
 10
271.7800
 20
303.0220
 30
0.0
 11
279.4000
 21
303.0220
 31
0.0
 0
TEXT
 8
PARTS
 10
276.8600
 20
303.7840
 30
0.0
 40
  1.2700
 1
4
 0
LINE
 8
PARTS
 10
271.7800
 20
300.4820
 30
0.0
 11
279.4000
 21
300.4820
 31
0.0
 0
TEXT
 8
PARTS
 10
276.8600
 20
301.2440
 30
0.0
 40
  1.2700
 1
5
 0
LINE
 8
PARTS
 10
271.7800
 20
297.9420
 30
0.0
 11
279.4000
 21
297.9420
 31
0.0
 0
TEXT
 8
PARTS
 10
276.8600
 20
298.7040
 30
0.0
 40
  1.2700
 1
6
 0
POLYLINE
 8
PARTS
 66
1
 10
0.0
 20
0.0
 30
0.0
 0
VERTEX
 8
PARTS
 10
280.1620
 20
308.8640
 30
0.0
 0
VERTEX
 8
PARTS
 10
279.4000
 20
308.1020
 30
0.0
 0
SEQEND
 8
PARTS
 0
POLYLINE
 8
PARTS
 66
1
 10
0.0
 20
0.0
 30
0.0
 0
VERTEX
 8
PARTS
 10
281.6860
 20
307.3400
 30
0.0
 0
VERTEX
 8
PARTS
 10
280.1620
 20
308.8640
 30
0.0
 0
SEQEND
 8
PARTS
 0
POLYLINE
 8
PARTS
 66
1
 10
0.0
 20
0.0
 30
0.0
 0
VERTEX
 8
PARTS
 10
283.2100
 20
308.8640
 30
0.0
 0
VERTEX
 8
PARTS
 10
281.6860
 20
307.3400
 30
0.0
 0
SEQEND
 8
PARTS
 0
POLYLINE
 8
PARTS
 66
1
 10
0.0
 20
0.0
 30
0.0
 0
VERTEX
 8
PARTS
 10
284.7340
 20
307.3400
 30
0.0
 0
VERTEX
 8
PARTS
 10
283.2100
 20
308.8640
 30
0.0
 0
SEQEND
 8
PARTS
 0
POLYLINE
 8
PARTS
 66
1
 10
0.0
 20
0.0
 30
0.0
 0
VERTEX
 8
PARTS
 10
286.2580
 20
308.8640
 30
0.0
 0
VERTEX
 8
PARTS
 10
284.7340
 20
307.3400
 30
0.0
 0
SEQEND
 8
PARTS
 0
POLYLINE
 8
PARTS
 66
1
 10
0.0
 20
0.0
 30
0.0
 0
VERTEX
 8
PARTS
 10
287.0200
 20
308.1020
 30
0.0
 0
VERTEX
 8
PARTS
 10
286.2580
 20
308.8640
 30
0.0
 0
SEQEND
 8
PARTS
 0
POLYLINE
 8
PARTS
 66
1
 10
0.0
 20
0.0
 30
0.0
 0
VERTEX
 8
PARTS
 10
280.1620
 20
306.3240
 30
0.0
 0
VERTEX
 8
PARTS
 10
279.4000
 20
305.5620
 30
0.0
 0
SEQEND
 8
PARTS
 0
POLYLINE
 8
PARTS
 66
1
 10
0.0
 20
0.0
 30
0.0
 0
VERTEX
 8
PARTS
 10
281.6860
 20
304.8000
 30
0.0
 0
VERTEX
 8
PARTS
 10
280.1620
 20
306.3240
 30
0.0
 0
SEQEND
 8
PARTS
 0
POLYLINE
 8
PARTS
 66
1
 10
0.0
 20
0.0
 30
0.0
 0
VERTEX
 8
PARTS
 10
283.2100
 20
306.3240
 30
0.0
 0
VERTEX
 8
PARTS
 10
281.6860
 20
304.8000
 30
0.0
 0
SEQEND
 8
PARTS
 0
POLYLINE
 8
PARTS
 66
1
 10
0.0
 20
0.0
 30
0.0
 0
VERTEX
 8
PARTS
 10
284.7340
 20
304.8000
 30
0.0
 0
VERTEX
 8
PARTS
 10
283.2100
 20
306.3240
 30
0.0
 0
SEQEND
 8
PARTS
 0
POLYLINE
 8
PARTS
 66
1
 10
0.0
 20
0.0
 30
0.0
 0
VERTEX
 8
PARTS
 10
286.2580
 20
306.3240
 30
0.0
 0
VERTEX
 8
PARTS
 10
284.7340
 20
304.8000
 30
0.0
 0
SEQEND
 8
PARTS
 0
POLYLINE
 8
PARTS
 66
1
 10
0.0
 20
0.0
 30
0.0
 0
VERTEX
 8
PARTS
 10
287.0200
 20
305.5620
 30
0.0
 0
VERTEX
 8
PARTS
 10
286.2580
 20
306.3240
 30
0.0
 0
SEQEND
 8
PARTS
 0
POLYLINE
 8
PARTS
 66
1
 10
0.0
 20
0.0
 30
0.0
 0
VERTEX
 8
PARTS
 10
280.1620
 20
303.7840
 30
0.0
 0
VERTEX
 8
PARTS
 10
279.4000
 20
303.0220
 30
0.0
 0
SEQEND
 8
PARTS
 0
POLYLINE
 8
PARTS
 66
1
 10
0.0
 20
0.0
 30
0.0
 0
VERTEX
 8
PARTS
 10
281.6860
 20
302.2600
 30
0.0
 0
VERTEX
 8
PARTS
 10
280.1620
 20
303.7840
 30
0.0
 0
SEQEND
 8
PARTS
 0
POLYLINE
 8
PARTS
 66
1
 10
0.0
 20
0.0
 30
0.0
 0
VERTEX
 8
PARTS
 10
283.2100
 20
303.7840
 30
0.0
 0
VERTEX
 8
PARTS
 10
281.6860
 20
302.2600
 30
0.0
 0
SEQEND
 8
PARTS
 0
POLYLINE
 8
PARTS
 66
1
 10
0.0
 20
0.0
 30
0.0
 0
VERTEX
 8
PARTS
 10
284.7340
 20
302.2600
 30
0.0
 0
VERTEX
 8
PARTS
 10
283.2100
 20
303.7840
 30
0.0
 0
SEQEND
 8
PARTS
 0
POLYLINE
 8
PARTS
 66
1
 10
0.0
 20
0.0
 30
0.0
 0
VERTEX
 8
PARTS
 10
286.2580
 20
303.7840
 30
0.0
 0
VERTEX
 8
PARTS
 10
284.7340
 20
302.2600
 30
0.0
 0
SEQEND
 8
PARTS
 0
POLYLINE
 8
PARTS
 66
1
 10
0.0
 20
0.0
 30
0.0
 0
VERTEX
 8
PARTS
 10
287.0200
 20
303.0220
 30
0.0
 0
VERTEX
 8
PARTS
 10
286.2580
 20
303.7840
 30
0.0
 0
SEQEND
 8
PARTS
 0
POLYLINE
 8
PARTS
 66
1
 10
0.0
 20
0.0
 30
0.0
 0
VERTEX
 8
PARTS
 10
280.1620
 20
301.2440
 30
0.0
 0
VERTEX
 8
PARTS
 10
279.4000
 20
300.4820
 30
0.0
 0
SEQEND
 8
PARTS
 0
POLYLINE
 8
PARTS
 66
1
 10
0.0
 20
0.0
 30
0.0
 0
VERTEX
 8
PARTS
 10
281.6860
 20
299.7200
 30
0.0
 0
VERTEX
 8
PARTS
 10
280.1620
 20
301.2440
 30
0.0
 0
SEQEND
 8
PARTS
 0
POLYLINE
 8
PARTS
 66
1
 10
0.0
 20
0.0
 30
0.0
 0
VERTEX
 8
PARTS
 10
283.2100
 20
301.2440
 30
0.0
 0
VERTEX
 8
PARTS
 10
281.6860
 20
299.7200
 30
0.0
 0
SEQEND
 8
PARTS
 0
POLYLINE
 8
PARTS
 66
1
 10
0.0
 20
0.0
 30
0.0
 0
VERTEX
 8
PARTS
 10
284.7340
 20
299.7200
 30
0.0
 0
VERTEX
 8
PARTS
 10
283.2100
 20
301.2440
 30
0.0
 0
SEQEND
 8
PARTS
 0
POLYLINE
 8
PARTS
 66
1
 10
0.0
 20
0.0
 30
0.0
 0
VERTEX
 8
PARTS
 10
286.2580
 20
301.2440
 30
0.0
 0
VERTEX
 8
PARTS
 10
284.7340
 20
299.7200
 30
0.0
 0
SEQEND
 8
PARTS
 0
POLYLINE
 8
PARTS
 66
1
 10
0.0
 20
0.0
 30
0.0
 0
VERTEX
 8
PARTS
 10
287.0200
 20
300.4820
 30
0.0
 0
VERTEX
 8
PARTS
 10
286.2580
 20
301.2440
 30
0.0
 0
SEQEND
 8
PARTS
 0
POLYLINE
 8
PARTS
 66
1
 10
0.0
 20
0.0
 30
0.0
 0
VERTEX
 8
PARTS
 10
280.1620
 20
298.7040
 30
0.0
 0
VERTEX
 8
PARTS
 10
279.4000
 20
297.9420
 30
0.0
 0
SEQEND
 8
PARTS
 0
POLYLINE
 8
PARTS
 66
1
 10
0.0
 20
0.0
 30
0.0
 0
VERTEX
 8
PARTS
 10
281.6860
 20
297.1800
 30
0.0
 0
VERTEX
 8
PARTS
 10
280.1620
 20
298.7040
 30
0.0
 0
SEQEND
 8
PARTS
 0
POLYLINE
 8
PARTS
 66
1
 10
0.0
 20
0.0
 30
0.0
 0
VERTEX
 8
PARTS
 10
283.2100
 20
298.7040
 30
0.0
 0
VERTEX
 8
PARTS
 10
281.6860
 20
297.1800
 30
0.0
 0
SEQEND
 8
PARTS
 0
POLYLINE
 8
PARTS
 66
1
 10
0.0
 20
0.0
 30
0.0
 0
VERTEX
 8
PARTS
 10
284.7340
 20
297.1800
 30
0.0
 0
VERTEX
 8
PARTS
 10
283.2100
 20
298.7040
 30
0.0
 0
SEQEND
 8
PARTS
 0
POLYLINE
 8
PARTS
 66
1
 10
0.0
 20
0.0
 30
0.0
 0
VERTEX
 8
PARTS
 10
286.2580
 20
298.7040
 30
0.0
 0
VERTEX
 8
PARTS
 10
284.7340
 20
297.1800
 30
0.0
 0
SEQEND
 8
PARTS
 0
POLYLINE
 8
PARTS
 66
1
 10
0.0
 20
0.0
 30
0.0
 0
VERTEX
 8
PARTS
 10
287.0200
 20
297.9420
 30
0.0
 0
VERTEX
 8
PARTS
 10
286.2580
 20
298.7040
 30
0.0
 0
SEQEND
 8
PARTS
 0
POLYLINE
 8
PARTS
 66
1
 70
1
 10
0.0
 20
0.0
 30
0.0
 0
VERTEX
 8
PARTS
 10
290.0680
 20
308.1020
 30
0.0
 42
  0.0985
 0
VERTEX
 8
PARTS
 10
290.0293
 20
308.2964
 30
0.0
 42
  0.0985
 0
VERTEX
 8
PARTS
 10
289.9192
 20
308.4612
 30
0.0
 42
  0.0985
 0
VERTEX
 8
PARTS
 10
289.7544
 20
308.5713
 30
0.0
 42
  0.0985
 0
VERTEX
 8
PARTS
 10
289.5600
 20
308.6100
 30
0.0
 42
  0.0985
 0
VERTEX
 8
PARTS
 10
289.3656
 20
308.5713
 30
0.0
 42
  0.0985
 0
VERTEX
 8
PARTS
 10
289.2008
 20
308.4612
 30
0.0
 42
  0.0985
 0
VERTEX
 8
PARTS
 10
289.0907
 20
308.2964
 30
0.0
 42
  0.0985
 0
VERTEX
 8
PARTS
 10
289.0520
 20
308.1020
 30
0.0
 42
  0.0985
 0
VERTEX
 8
PARTS
 10
289.0907
 20
307.9076
 30
0.0
 42
  0.0985
 0
VERTEX
 8
PARTS
 10
289.2008
 20
307.7428
 30
0.0
 42
  0.0985
 0
VERTEX
 8
PARTS
 10
289.3656
 20
307.6327
 30
0.0
 42
  0.0985
 0
VERTEX
 8
PARTS
 10
289.5600
 20
307.5940
 30
0.0
 42
  0.0985
 0
VERTEX
 8
PARTS
 10
289.7544
 20
307.6327
 30
0.0
 42
  0.0985
 0
VERTEX
 8
PARTS
 10
289.9192
 20
307.7428
 30
0.0
 42
  0.0985
 0
VERTEX
 8
PARTS
 10
290.0293
 20
307.9076
 30
0.0
 42
  0.0985
 0
SEQEND
 8
PARTS
 0
POLYLINE
 8
PARTS
 66
1
 70
1
 10
0.0
 20
0.0
 30
0.0
 0
VERTEX
 8
PARTS
 10
290.0680
 20
305.3080
 30
0.0
 42
  0.0985
 0
VERTEX
 8
PARTS
 10
290.0293
 20
305.5024
 30
0.0
 42
  0.0985
 0
VERTEX
 8
PARTS
 10
289.9192
 20
305.6672
 30
0.0
 42
  0.0985
 0
VERTEX
 8
PARTS
 10
289.7544
 20
305.7773
 30
0.0
 42
  0.0985
 0
VERTEX
 8
PARTS
 10
289.5600
 20
305.8160
 30
0.0
 42
  0.0985
 0
VERTEX
 8
PARTS
 10
289.3656
 20
305.7773
 30
0.0
 42
  0.0985
 0
VERTEX
 8
PARTS
 10
289.2008
 20
305.6672
 30
0.0
 42
  0.0985
 0
VERTEX
 8
PARTS
 10
289.0907
 20
305.5024
 30
0.0
 42
  0.0985
 0
VERTEX
 8
PARTS
 10
289.0520
 20
305.3080
 30
0.0
 42
  0.0985
 0
VERTEX
 8
PARTS
 10
289.0907
 20
305.1136
 30
0.0
 42
  0.0985
 0
VERTEX
 8
PARTS
 10
289.2008
 20
304.9488
 30
0.0
 42
  0.0985
 0
VERTEX
 8
PARTS
 10
289.3656
 20
304.8387
 30
0.0
 42
  0.0985
 0
VERTEX
 8
PARTS
 10
289.5600
 20
304.8000
 30
0.0
 42
  0.0985
 0
VERTEX
 8
PARTS
 10
289.7544
 20
304.8387
 30
0.0
 42
  0.0985
 0
VERTEX
 8
PARTS
 10
289.9192
 20
304.9488
 30
0.0
 42
  0.0985
 0
VERTEX
 8
PARTS
 10
290.0293
 20
305.1136
 30
0.0
 42
  0.0985
 0
SEQEND
 8
PARTS
 0
POLYLINE
 8
PARTS
 66
1
 70
1
 10
0.0
 20
0.0
 30
0.0
 0
VERTEX
 8
PARTS
 10
290.0680
 20
303.0220
 30
0.0
 42
  0.0985
 0
VERTEX
 8
PARTS
 10
290.0293
 20
303.2164
 30
0.0
 42
  0.0985
 0
VERTEX
 8
PARTS
 10
289.9192
 20
303.3812
 30
0.0
 42
  0.0985
 0
VERTEX
 8
PARTS
 10
289.7544
 20
303.4913
 30
0.0
 42
  0.0985
 0
VERTEX
 8
PARTS
 10
289.5600
 20
303.5300
 30
0.0
 42
  0.0985
 0
VERTEX
 8
PARTS
 10
289.3656
 20
303.4913
 30
0.0
 42
  0.0985
 0
VERTEX
 8
PARTS
 10
289.2008
 20
303.3812
 30
0.0
 42
  0.0985
 0
VERTEX
 8
PARTS
 10
289.0907
 20
303.2164
 30
0.0
 42
  0.0985
 0
VERTEX
 8
PARTS
 10
289.0520
 20
303.0220
 30
0.0
 42
  0.0985
 0
VERTEX
 8
PARTS
 10
289.0907
 20
302.8276
 30
0.0
 42
  0.0985
 0
VERTEX
 8
PARTS
 10
289.2008
 20
302.6628
 30
0.0
 42
  0.0985
 0
VERTEX
 8
PARTS
 10
289.3656
 20
302.5527
 30
0.0
 42
  0.0985
 0
VERTEX
 8
PARTS
 10
289.5600
 20
302.5140
 30
0.0
 42
  0.0985
 0
VERTEX
 8
PARTS
 10
289.7544
 20
302.5527
 30
0.0
 42
  0.0985
 0
VERTEX
 8
PARTS
 10
289.9192
 20
302.6628
 30
0.0
 42
  0.0985
 0
VERTEX
 8
PARTS
 10
290.0293
 20
302.8276
 30
0.0
 42
  0.0985
 0
SEQEND
 8
PARTS
 0
POLYLINE
 8
PARTS
 66
1
 70
1
 10
0.0
 20
0.0
 30
0.0
 0
VERTEX
 8
PARTS
 10
290.0680
 20
300.4820
 30
0.0
 42
  0.0985
 0
VERTEX
 8
PARTS
 10
290.0293
 20
300.6764
 30
0.0
 42
  0.0985
 0
VERTEX
 8
PARTS
 10
289.9192
 20
300.8412
 30
0.0
 42
  0.0985
 0
VERTEX
 8
PARTS
 10
289.7544
 20
300.9513
 30
0.0
 42
  0.0985
 0
VERTEX
 8
PARTS
 10
289.5600
 20
300.9900
 30
0.0
 42
  0.0985
 0
VERTEX
 8
PARTS
 10
289.3656
 20
300.9513
 30
0.0
 42
  0.0985
 0
VERTEX
 8
PARTS
 10
289.2008
 20
300.8412
 30
0.0
 42
  0.0985
 0
VERTEX
 8
PARTS
 10
289.0907
 20
300.6764
 30
0.0
 42
  0.0985
 0
VERTEX
 8
PARTS
 10
289.0520
 20
300.4820
 30
0.0
 42
  0.0985
 0
VERTEX
 8
PARTS
 10
289.0907
 20
300.2876
 30
0.0
 42
  0.0985
 0
VERTEX
 8
PARTS
 10
289.2008
 20
300.1228
 30
0.0
 42
  0.0985
 0
VERTEX
 8
PARTS
 10
289.3656
 20
300.0127
 30
0.0
 42
  0.0985
 0
VERTEX
 8
PARTS
 10
289.5600
 20
299.9740
 30
0.0
 42
  0.0985
 0
VERTEX
 8
PARTS
 10
289.7544
 20
300.0127
 30
0.0
 42
  0.0985
 0
VERTEX
 8
PARTS
 10
289.9192
 20
300.1228
 30
0.0
 42
  0.0985
 0
VERTEX
 8
PARTS
 10
290.0293
 20
300.2876
 30
0.0
 42
  0.0985
 0
SEQEND
 8
PARTS
 0
POLYLINE
 8
PARTS
 66
1
 10
0.0
 20
0.0
 30
0.0
 0
VERTEX
 8
PARTS
 10
289.5600
 20
308.1020
 30
0.0
 0
VERTEX
 8
PARTS
 10
287.0200
 20
308.1020
 30
0.0
 0
SEQEND
 8
PARTS
 0
POLYLINE
 8
PARTS
 66
1
 10
0.0
 20
0.0
 30
0.0
 0
VERTEX
 8
PARTS
 10
289.3060
 20
305.5620
 30
0.0
 0
VERTEX
 8
PARTS
 10
287.0200
 20
305.5620
 30
0.0
 0
SEQEND
 8
PARTS
 0
POLYLINE
 8
PARTS
 66
1
 10
0.0
 20
0.0
 30
0.0
 0
VERTEX
 8
PARTS
 10
289.5600
 20
303.0220
 30
0.0
 0
VERTEX
 8
PARTS
 10
287.0200
 20
303.0220
 30
0.0
 0
SEQEND
 8
PARTS
 0
POLYLINE
 8
PARTS
 66
1
 10
0.0
 20
0.0
 30
0.0
 0
VERTEX
 8
PARTS
 10
289.3060
 20
300.4820
 30
0.0
 0
VERTEX
 8
PARTS
 10
287.0200
 20
300.4820
 30
0.0
 0
SEQEND
 8
PARTS
 0
POLYLINE
 8
PARTS
 66
1
 10
0.0
 20
0.0
 30
0.0
 0
VERTEX
 8
PARTS
 10
289.5600
 20
297.9420
 30
0.0
 0
VERTEX
 8
PARTS
 10
287.0200
 20
297.9420
 30
0.0
 0
SEQEND
 8
PARTS
 0
POLYLINE
 8
PARTS
 66
1
 10
0.0
 20
0.0
 30
0.0
 0
VERTEX
 8
PARTS
 10
289.5600
 20
297.9420
 30
0.0
 0
VERTEX
 8
PARTS
 10
289.5600
 20
308.1020
 30
0.0
 0
SEQEND
 8
PARTS
 0
POLYLINE
 8
PARTS
 66
1
 10
0.0
 20
0.0
 30
0.0
 0
VERTEX
 8
PARTS
 10
292.1000
 20
308.1020
 30
0.0
 0
VERTEX
 8
PARTS
 10
289.8140
 20
308.1020
 30
0.0
 0
SEQEND
 8
PARTS
 0
TEXT
 8
PARTTEXT
 10
281.9400
 20
240.7263
 30
0.0
 40
  1.3057
 1
R5
 0
TEXT
 8
PARTTEXT
 10
281.9400
 20
255.9663
 30
0.0
 40
  1.3057
 1
10k
 0
LINE
 8
PARTS
 10
299.7200
 20
244.6020
 30
0.0
 11
292.1000
 21
244.6020
 31
0.0
 0
TEXT
 8
PARTS
 10
293.6240
 20
245.3640
 30
0.0
 40
  1.2700
 1
1
 0
LINE
 8
PARTS
 10
271.7800
 20
244.6020
 30
0.0
 11
279.4000
 21
244.6020
 31
0.0
 0
TEXT
 8
PARTS
 10
276.8600
 20
245.3640
 30
0.0
 40
  1.2700
 1
2
 0
LINE
 8
PARTS
 10
271.7800
 20
247.1420
 30
0.0
 11
279.4000
 21
247.1420
 31
0.0
 0
TEXT
 8
PARTS
 10
276.8600
 20
247.9040
 30
0.0
 40
  1.2700
 1
3
 0
LINE
 8
PARTS
 10
271.7800
 20
249.6820
 30
0.0
 11
279.4000
 21
249.6820
 31
0.0
 0
TEXT
 8
PARTS
 10
276.8600
 20
250.4440
 30
0.0
 40
  1.2700
 1
4
 0
LINE
 8
PARTS
 10
271.7800
 20
252.2220
 30
0.0
 11
279.4000
 21
252.2220
 31
0.0
 0
TEXT
 8
PARTS
 10
276.8600
 20
252.9840
 30
0.0
 40
  1.2700
 1
5
 0
TEXT
 8
PARTTEXT
 10
288.2900
 20
253.5577
 30
0.0
 40
  1.3057
 50
180.0000
 1
C
 0
POLYLINE
 8
PARTS
 66
1
 10
0.0
 20
0.0
 30
0.0
 0
VERTEX
 8
PARTS
 10
287.0200
 20
252.2220
 30
0.0
 0
VERTEX
 8
PARTS
 10
286.2580
 20
251.4600
 30
0.0
 0
SEQEND
 8
PARTS
 0
POLYLINE
 8
PARTS
 66
1
 10
0.0
 20
0.0
 30
0.0
 0
VERTEX
 8
PARTS
 10
286.2580
 20
251.4600
 30
0.0
 0
VERTEX
 8
PARTS
 10
284.7340
 20
252.9840
 30
0.0
 0
SEQEND
 8
PARTS
 0
POLYLINE
 8
PARTS
 66
1
 10
0.0
 20
0.0
 30
0.0
 0
VERTEX
 8
PARTS
 10
284.7340
 20
252.9840
 30
0.0
 0
VERTEX
 8
PARTS
 10
283.2100
 20
251.4600
 30
0.0
 0
SEQEND
 8
PARTS
 0
POLYLINE
 8
PARTS
 66
1
 10
0.0
 20
0.0
 30
0.0
 0
VERTEX
 8
PARTS
 10
283.2100
 20
251.4600
 30
0.0
 0
VERTEX
 8
PARTS
 10
281.6860
 20
252.9840
 30
0.0
 0
SEQEND
 8
PARTS
 0
POLYLINE
 8
PARTS
 66
1
 10
0.0
 20
0.0
 30
0.0
 0
VERTEX
 8
PARTS
 10
281.6860
 20
252.9840
 30
0.0
 0
VERTEX
 8
PARTS
 10
280.1620
 20
251.4600
 30
0.0
 0
SEQEND
 8
PARTS
 0
POLYLINE
 8
PARTS
 66
1
 10
0.0
 20
0.0
 30
0.0
 0
VERTEX
 8
PARTS
 10
280.1620
 20
251.4600
 30
0.0
 0
VERTEX
 8
PARTS
 10
279.4000
 20
252.2220
 30
0.0
 0
SEQEND
 8
PARTS
 0
POLYLINE
 8
PARTS
 66
1
 10
0.0
 20
0.0
 30
0.0
 0
VERTEX
 8
PARTS
 10
287.0200
 20
249.6820
 30
0.0
 0
VERTEX
 8
PARTS
 10
286.2580
 20
248.9200
 30
0.0
 0
SEQEND
 8
PARTS
 0
POLYLINE
 8
PARTS
 66
1
 10
0.0
 20
0.0
 30
0.0
 0
VERTEX
 8
PARTS
 10
286.2580
 20
248.9200
 30
0.0
 0
VERTEX
 8
PARTS
 10
284.7340
 20
250.4440
 30
0.0
 0
SEQEND
 8
PARTS
 0
POLYLINE
 8
PARTS
 66
1
 10
0.0
 20
0.0
 30
0.0
 0
VERTEX
 8
PARTS
 10
284.7340
 20
250.4440
 30
0.0
 0
VERTEX
 8
PARTS
 10
283.2100
 20
248.9200
 30
0.0
 0
SEQEND
 8
PARTS
 0
POLYLINE
 8
PARTS
 66
1
 10
0.0
 20
0.0
 30
0.0
 0
VERTEX
 8
PARTS
 10
283.2100
 20
248.9200
 30
0.0
 0
VERTEX
 8
PARTS
 10
281.6860
 20
250.4440
 30
0.0
 0
SEQEND
 8
PARTS
 0
POLYLINE
 8
PARTS
 66
1
 10
0.0
 20
0.0
 30
0.0
 0
VERTEX
 8
PARTS
 10
281.6860
 20
250.4440
 30
0.0
 0
VERTEX
 8
PARTS
 10
280.1620
 20
248.9200
 30
0.0
 0
SEQEND
 8
PARTS
 0
POLYLINE
 8
PARTS
 66
1
 10
0.0
 20
0.0
 30
0.0
 0
VERTEX
 8
PARTS
 10
280.1620
 20
248.9200
 30
0.0
 0
VERTEX
 8
PARTS
 10
279.4000
 20
249.6820
 30
0.0
 0
SEQEND
 8
PARTS
 0
POLYLINE
 8
PARTS
 66
1
 10
0.0
 20
0.0
 30
0.0
 0
VERTEX
 8
PARTS
 10
289.5600
 20
247.1420
 30
0.0
 0
VERTEX
 8
PARTS
 10
287.0200
 20
247.1420
 30
0.0
 0
SEQEND
 8
PARTS
 0
POLYLINE
 8
PARTS
 66
1
 10
0.0
 20
0.0
 30
0.0
 0
VERTEX
 8
PARTS
 10
280.1620
 20
243.8400
 30
0.0
 0
VERTEX
 8
PARTS
 10
279.4000
 20
244.6020
 30
0.0
 0
SEQEND
 8
PARTS
 0
POLYLINE
 8
PARTS
 66
1
 10
0.0
 20
0.0
 30
0.0
 0
VERTEX
 8
PARTS
 10
281.6860
 20
245.3640
 30
0.0
 0
VERTEX
 8
PARTS
 10
280.1620
 20
243.8400
 30
0.0
 0
SEQEND
 8
PARTS
 0
POLYLINE
 8
PARTS
 66
1
 10
0.0
 20
0.0
 30
0.0
 0
VERTEX
 8
PARTS
 10
283.2100
 20
243.8400
 30
0.0
 0
VERTEX
 8
PARTS
 10
281.6860
 20
245.3640
 30
0.0
 0
SEQEND
 8
PARTS
 0
POLYLINE
 8
PARTS
 66
1
 10
0.0
 20
0.0
 30
0.0
 0
VERTEX
 8
PARTS
 10
284.7340
 20
245.3640
 30
0.0
 0
VERTEX
 8
PARTS
 10
283.2100
 20
243.8400
 30
0.0
 0
SEQEND
 8
PARTS
 0
POLYLINE
 8
PARTS
 66
1
 10
0.0
 20
0.0
 30
0.0
 0
VERTEX
 8
PARTS
 10
286.2580
 20
243.8400
 30
0.0
 0
VERTEX
 8
PARTS
 10
284.7340
 20
245.3640
 30
0.0
 0
SEQEND
 8
PARTS
 0
POLYLINE
 8
PARTS
 66
1
 10
0.0
 20
0.0
 30
0.0
 0
VERTEX
 8
PARTS
 10
287.0200
 20
244.6020
 30
0.0
 0
VERTEX
 8
PARTS
 10
286.2580
 20
243.8400
 30
0.0
 0
SEQEND
 8
PARTS
 0
POLYLINE
 8
PARTS
 66
1
 10
0.0
 20
0.0
 30
0.0
 0
VERTEX
 8
PARTS
 10
280.1620
 20
246.3800
 30
0.0
 0
VERTEX
 8
PARTS
 10
279.4000
 20
247.1420
 30
0.0
 0
SEQEND
 8
PARTS
 0
POLYLINE
 8
PARTS
 66
1
 10
0.0
 20
0.0
 30
0.0
 0
VERTEX
 8
PARTS
 10
281.6860
 20
247.9040
 30
0.0
 0
VERTEX
 8
PARTS
 10
280.1620
 20
246.3800
 30
0.0
 0
SEQEND
 8
PARTS
 0
POLYLINE
 8
PARTS
 66
1
 10
0.0
 20
0.0
 30
0.0
 0
VERTEX
 8
PARTS
 10
283.2100
 20
246.3800
 30
0.0
 0
VERTEX
 8
PARTS
 10
281.6860
 20
247.9040
 30
0.0
 0
SEQEND
 8
PARTS
 0
POLYLINE
 8
PARTS
 66
1
 10
0.0
 20
0.0
 30
0.0
 0
VERTEX
 8
PARTS
 10
284.7340
 20
247.9040
 30
0.0
 0
VERTEX
 8
PARTS
 10
283.2100
 20
246.3800
 30
0.0
 0
SEQEND
 8
PARTS
 0
POLYLINE
 8
PARTS
 66
1
 10
0.0
 20
0.0
 30
0.0
 0
VERTEX
 8
PARTS
 10
286.2580
 20
246.3800
 30
0.0
 0
VERTEX
 8
PARTS
 10
284.7340
 20
247.9040
 30
0.0
 0
SEQEND
 8
PARTS
 0
POLYLINE
 8
PARTS
 66
1
 10
0.0
 20
0.0
 30
0.0
 0
VERTEX
 8
PARTS
 10
287.0200
 20
247.1420
 30
0.0
 0
VERTEX
 8
PARTS
 10
286.2580
 20
246.3800
 30
0.0
 0
SEQEND
 8
PARTS
 0
POLYLINE
 8
PARTS
 66
1
 10
0.0
 20
0.0
 30
0.0
 0
VERTEX
 8
PARTS
 10
289.5600
 20
244.6020
 30
0.0
 0
VERTEX
 8
PARTS
 10
287.0200
 20
244.6020
 30
0.0
 0
SEQEND
 8
PARTS
 0
POLYLINE
 8
PARTS
 66
1
 10
0.0
 20
0.0
 30
0.0
 0
VERTEX
 8
PARTS
 10
289.5600
 20
249.6820
 30
0.0
 0
VERTEX
 8
PARTS
 10
287.0200
 20
249.6820
 30
0.0
 0
SEQEND
 8
PARTS
 0
POLYLINE
 8
PARTS
 66
1
 10
0.0
 20
0.0
 30
0.0
 0
VERTEX
 8
PARTS
 10
289.5600
 20
252.2220
 30
0.0
 0
VERTEX
 8
PARTS
 10
287.0200
 20
252.2220
 30
0.0
 0
SEQEND
 8
PARTS
 0
POLYLINE
 8
PARTS
 66
1
 10
0.0
 20
0.0
 30
0.0
 0
VERTEX
 8
PARTS
 10
289.5600
 20
252.2220
 30
0.0
 0
VERTEX
 8
PARTS
 10
289.5600
 20
244.6020
 30
0.0
 0
SEQEND
 8
PARTS
 0
POLYLINE
 8
PARTS
 66
1
 70
1
 10
0.0
 20
0.0
 30
0.0
 0
VERTEX
 8
PARTS
 10
290.0680
 20
244.6020
 30
0.0
 42
  0.0985
 0
VERTEX
 8
PARTS
 10
290.0293
 20
244.7964
 30
0.0
 42
  0.0985
 0
VERTEX
 8
PARTS
 10
289.9192
 20
244.9612
 30
0.0
 42
  0.0985
 0
VERTEX
 8
PARTS
 10
289.7544
 20
245.0713
 30
0.0
 42
  0.0985
 0
VERTEX
 8
PARTS
 10
289.5600
 20
245.1100
 30
0.0
 42
  0.0985
 0
VERTEX
 8
PARTS
 10
289.3656
 20
245.0713
 30
0.0
 42
  0.0985
 0
VERTEX
 8
PARTS
 10
289.2008
 20
244.9612
 30
0.0
 42
  0.0985
 0
VERTEX
 8
PARTS
 10
289.0907
 20
244.7964
 30
0.0
 42
  0.0985
 0
VERTEX
 8
PARTS
 10
289.0520
 20
244.6020
 30
0.0
 42
  0.0985
 0
VERTEX
 8
PARTS
 10
289.0907
 20
244.4076
 30
0.0
 42
  0.0985
 0
VERTEX
 8
PARTS
 10
289.2008
 20
244.2428
 30
0.0
 42
  0.0985
 0
VERTEX
 8
PARTS
 10
289.3656
 20
244.1327
 30
0.0
 42
  0.0985
 0
VERTEX
 8
PARTS
 10
289.5600
 20
244.0940
 30
0.0
 42
  0.0985
 0
VERTEX
 8
PARTS
 10
289.7544
 20
244.1327
 30
0.0
 42
  0.0985
 0
VERTEX
 8
PARTS
 10
289.9192
 20
244.2428
 30
0.0
 42
  0.0985
 0
VERTEX
 8
PARTS
 10
290.0293
 20
244.4076
 30
0.0
 42
  0.0985
 0
SEQEND
 8
PARTS
 0
POLYLINE
 8
PARTS
 66
1
 70
1
 10
0.0
 20
0.0
 30
0.0
 0
VERTEX
 8
PARTS
 10
290.0680
 20
247.1420
 30
0.0
 42
  0.0985
 0
VERTEX
 8
PARTS
 10
290.0293
 20
247.3364
 30
0.0
 42
  0.0985
 0
VERTEX
 8
PARTS
 10
289.9192
 20
247.5012
 30
0.0
 42
  0.0985
 0
VERTEX
 8
PARTS
 10
289.7544
 20
247.6113
 30
0.0
 42
  0.0985
 0
VERTEX
 8
PARTS
 10
289.5600
 20
247.6500
 30
0.0
 42
  0.0985
 0
VERTEX
 8
PARTS
 10
289.3656
 20
247.6113
 30
0.0
 42
  0.0985
 0
VERTEX
 8
PARTS
 10
289.2008
 20
247.5012
 30
0.0
 42
  0.0985
 0
VERTEX
 8
PARTS
 10
289.0907
 20
247.3364
 30
0.0
 42
  0.0985
 0
VERTEX
 8
PARTS
 10
289.0520
 20
247.1420
 30
0.0
 42
  0.0985
 0
VERTEX
 8
PARTS
 10
289.0907
 20
246.9476
 30
0.0
 42
  0.0985
 0
VERTEX
 8
PARTS
 10
289.2008
 20
246.7828
 30
0.0
 42
  0.0985
 0
VERTEX
 8
PARTS
 10
289.3656
 20
246.6727
 30
0.0
 42
  0.0985
 0
VERTEX
 8
PARTS
 10
289.5600
 20
246.6340
 30
0.0
 42
  0.0985
 0
VERTEX
 8
PARTS
 10
289.7544
 20
246.6727
 30
0.0
 42
  0.0985
 0
VERTEX
 8
PARTS
 10
289.9192
 20
246.7828
 30
0.0
 42
  0.0985
 0
VERTEX
 8
PARTS
 10
290.0293
 20
246.9476
 30
0.0
 42
  0.0985
 0
SEQEND
 8
PARTS
 0
POLYLINE
 8
PARTS
 66
1
 70
1
 10
0.0
 20
0.0
 30
0.0
 0
VERTEX
 8
PARTS
 10
290.0680
 20
249.6820
 30
0.0
 42
  0.0985
 0
VERTEX
 8
PARTS
 10
290.0293
 20
249.8764
 30
0.0
 42
  0.0985
 0
VERTEX
 8
PARTS
 10
289.9192
 20
250.0412
 30
0.0
 42
  0.0985
 0
VERTEX
 8
PARTS
 10
289.7544
 20
250.1513
 30
0.0
 42
  0.0985
 0
VERTEX
 8
PARTS
 10
289.5600
 20
250.1900
 30
0.0
 42
  0.0985
 0
VERTEX
 8
PARTS
 10
289.3656
 20
250.1513
 30
0.0
 42
  0.0985
 0
VERTEX
 8
PARTS
 10
289.2008
 20
250.0412
 30
0.0
 42
  0.0985
 0
VERTEX
 8
PARTS
 10
289.0907
 20
249.8764
 30
0.0
 42
  0.0985
 0
VERTEX
 8
PARTS
 10
289.0520
 20
249.6820
 30
0.0
 42
  0.0985
 0
VERTEX
 8
PARTS
 10
289.0907
 20
249.4876
 30
0.0
 42
  0.0985
 0
VERTEX
 8
PARTS
 10
289.2008
 20
249.3228
 30
0.0
 42
  0.0985
 0
VERTEX
 8
PARTS
 10
289.3656
 20
249.2127
 30
0.0
 42
  0.0985
 0
VERTEX
 8
PARTS
 10
289.5600
 20
249.1740
 30
0.0
 42
  0.0985
 0
VERTEX
 8
PARTS
 10
289.7544
 20
249.2127
 30
0.0
 42
  0.0985
 0
VERTEX
 8
PARTS
 10
289.9192
 20
249.3228
 30
0.0
 42
  0.0985
 0
VERTEX
 8
PARTS
 10
290.0293
 20
249.4876
 30
0.0
 42
  0.0985
 0
SEQEND
 8
PARTS
 0
POLYLINE
 8
PARTS
 66
1
 10
0.0
 20
0.0
 30
0.0
 0
VERTEX
 8
PARTS
 10
292.1000
 20
244.6020
 30
0.0
 0
VERTEX
 8
PARTS
 10
289.5600
 20
244.6020
 30
0.0
 0
SEQEND
 8
PARTS
 0
LINE
 8
PARTS
 10
226.0600
 20
259.8420
 30
0.0
 11
220.9800
 21
259.8420
 31
0.0
 0
TEXT
 8
PARTS
 10
206.5020
 20
259.2070
 30
0.0
 40
  1.2700
 1
%%oMCLR%%o/VPP/RE3
 0
TEXT
 8
PARTS
 10
222.5040
 20
260.6040
 30
0.0
 40
  1.2700
 1
1
 0
LINE
 8
PARTS
 10
157.4800
 20
290.3220
 30
0.0
 11
162.5600
 21
290.3220
 31
0.0
 0
TEXT
 8
PARTS
 10
164.8460
 20
289.6870
 30
0.0
 40
  1.2700
 1
RA0/AN0
 0
TEXT
 8
PARTS
 10
160.0200
 20
291.0840
 30
0.0
 40
  1.2700
 1
2
 0
LINE
 8
PARTS
 10
157.4800
 20
287.7820
 30
0.0
 11
162.5600
 21
287.7820
 31
0.0
 0
TEXT
 8
PARTS
 10
164.8460
 20
287.1470
 30
0.0
 40
  1.2700
 1
RA1/AN1
 0
TEXT
 8
PARTS
 10
160.0200
 20
288.5440
 30
0.0
 40
  1.2700
 1
3
 0
LINE
 8
PARTS
 10
157.4800
 20
285.2420
 30
0.0
 11
162.5600
 21
285.2420
 31
0.0
 0
TEXT
 8
PARTS
 10
164.8460
 20
284.6070
 30
0.0
 40
  1.2700
 1
RA2/AN2/VREF-/CAP1/INDX
 0
TEXT
 8
PARTS
 10
160.0200
 20
286.0040
 30
0.0
 40
  1.2700
 1
4
 0
LINE
 8
PARTS
 10
157.4800
 20
282.7020
 30
0.0
 11
162.5600
 21
282.7020
 31
0.0
 0
TEXT
 8
PARTS
 10
164.8460
 20
282.0670
 30
0.0
 40
  1.2700
 1
RA3/AN3/VREF+/CAP2/QEA
 0
TEXT
 8
PARTS
 10
160.0200
 20
283.4640
 30
0.0
 40
  1.2700
 1
5
 0
LINE
 8
PARTS
 10
157.4800
 20
280.1620
 30
0.0
 11
162.5600
 21
280.1620
 31
0.0
 0
TEXT
 8
PARTS
 10
164.8460
 20
279.5270
 30
0.0
 40
  1.2700
 1
RA4/AN4/CAP3/QEB
 0
TEXT
 8
PARTS
 10
160.0200
 20
280.9240
 30
0.0
 40
  1.2700
 1
6
 0
LINE
 8
PARTS
 10
157.4800
 20
277.6220
 30
0.0
 11
162.5600
 21
277.6220
 31
0.0
 0
TEXT
 8
PARTS
 10
164.8460
 20
276.9870
 30
0.0
 40
  1.2700
 1
RA5/AN5/LVDIN
 0
TEXT
 8
PARTS
 10
160.0200
 20
278.3840
 30
0.0
 40
  1.2700
 1
7
 0
LINE
 8
PARTS
 10
226.0600
 20
267.4620
 30
0.0
 11
220.9800
 21
267.4620
 31
0.0
 0
TEXT
 8
PARTS
 10
211.5820
 20
266.8270
 30
0.0
 40
  1.2700
 1
RE0/AN6
 0
TEXT
 8
PARTS
 10
222.5040
 20
268.2240
 30
0.0
 40
  1.2700
 1
8
 0
LINE
 8
PARTS
 10
226.0600
 20
264.9220
 30
0.0
 11
220.9800
 21
264.9220
 31
0.0
 0
TEXT
 8
PARTS
 10
211.5820
 20
264.2870
 30
0.0
 40
  1.2700
 1
RE1/AN7
 0
TEXT
 8
PARTS
 10
222.5040
 20
265.6840
 30
0.0
 40
  1.2700
 1
9
 0
LINE
 8
PARTS
 10
226.0600
 20
262.3820
 30
0.0
 11
220.9800
 21
262.3820
 31
0.0
 0
TEXT
 8
PARTS
 10
211.5820
 20
261.7470
 30
0.0
 40
  1.2700
 1
RE2/AN8
 0
TEXT
 8
PARTS
 10
222.5040
 20
263.1440
 30
0.0
 40
  1.2700
 1
10
 0
LINE
 8
PARTS
 10
226.0600
 20
254.7620
 30
0.0
 11
220.9800
 21
254.7620
 31
0.0
 0
TEXT
 8
PARTS
 10
214.6300
 20
254.1270
 30
0.0
 40
  1.2700
 1
AVDD
 0
TEXT
 8
PARTS
 10
222.5040
 20
255.5240
 30
0.0
 40
  1.2700
 1
11
 0
LINE
 8
PARTS
 10
157.4800
 20
254.7620
 30
0.0
 11
162.5600
 21
254.7620
 31
0.0
 0
TEXT
 8
PARTS
 10
164.8460
 20
254.1270
 30
0.0
 40
  1.2700
 1
AVSS
 0
TEXT
 8
PARTS
 10
159.0040
 20
255.5240
 30
0.0
 40
  1.2700
 1
12
 0
LINE
 8
PARTS
 10
157.4800
 20
272.5420
 30
0.0
 11
162.5600
 21
272.5420
 31
0.0
 0
LINE
 8
PARTS
 10
162.5600
 20
274.0660
 30
0.0
 11
164.0840
 21
272.5420
 31
0.0
 0
LINE
 8
PARTS
 10
164.0840
 20
272.5420
 30
0.0
 11
162.5600
 21
271.0180
 31
0.0
 0
TEXT
 8
PARTS
 10
164.8460
 20
271.9070
 30
0.0
 40
  1.2700
 1
OSC1/CLKI/RA7
 0
TEXT
 8
PARTS
 10
159.0040
 20
273.3040
 30
0.0
 40
  1.2700
 1
13
 0
LINE
 8
PARTS
 10
157.4800
 20
275.0820
 30
0.0
 11
162.5600
 21
275.0820
 31
0.0
 0
TEXT
 8
PARTS
 10
164.8460
 20
274.4470
 30
0.0
 40
  1.2700
 1
OSC2/CLKO/RA6
 0
TEXT
 8
PARTS
 10
159.0040
 20
275.8440
 30
0.0
 40
  1.2700
 1
14
 0
LINE
 8
PARTS
 10
226.0600
 20
313.1820
 30
0.0
 11
220.9800
 21
313.1820
 31
0.0
 0
LINE
 8
PARTS
 10
220.9800
 20
314.7060
 30
0.0
 11
219.4560
 21
313.1820
 31
0.0
 0
LINE
 8
PARTS
 10
219.4560
 20
313.1820
 30
0.0
 11
220.9800
 21
311.6580
 31
0.0
 0
TEXT
 8
PARTS
 10
203.4540
 20
312.5470
 30
0.0
 40
  1.2700
 1
RC0/T1OSO/T1CKI
 0
TEXT
 8
PARTS
 10
222.5040
 20
313.9440
 30
0.0
 40
  1.2700
 1
15
 0
LINE
 8
PARTS
 10
226.0600
 20
310.6420
 30
0.0
 11
220.9800
 21
310.6420
 31
0.0
 0
TEXT
 8
PARTS
 10
199.3900
 20
310.0070
 30
0.0
 40
  1.2700
 1
RC1/T1OSI/CCP2/%%oFLTA%%o
 0
TEXT
 8
PARTS
 10
222.5040
 20
311.4040
 30
0.0
 40
  1.2700
 1
16
 0
LINE
 8
PARTS
 10
226.0600
 20
308.1020
 30
0.0
 11
220.9800
 21
308.1020
 31
0.0
 0
TEXT
 8
PARTS
 10
205.4860
 20
307.4670
 30
0.0
 40
  1.2700
 1
RC2/CCP1/%%oFLTB%%o
 0
TEXT
 8
PARTS
 10
222.5040
 20
308.8640
 30
0.0
 40
  1.2700
 1
17
 0
LINE
 8
PARTS
 10
226.0600
 20
305.5620
 30
0.0
 11
220.9800
 21
305.5620
 31
0.0
 0
LINE
 8
PARTS
 10
220.9800
 20
307.0860
 30
0.0
 11
219.4560
 21
305.5620
 31
0.0
 0
LINE
 8
PARTS
 10
219.4560
 20
305.5620
 30
0.0
 11
220.9800
 21
304.0380
 31
0.0
 0
TEXT
 8
PARTS
 10
198.3740
 20
304.9270
 30
0.0
 40
  1.2700
 1
RC3/T0CKI/T5CKI/INT0
 0
TEXT
 8
PARTS
 10
222.5040
 20
306.3240
 30
0.0
 40
  1.2700
 1
18
 0
LINE
 8
PARTS
 10
226.0600
 20
290.3220
 30
0.0
 11
220.9800
 21
290.3220
 31
0.0
 0
LINE
 8
PARTS
 10
220.9800
 20
291.8460
 30
0.0
 11
219.4560
 21
290.3220
 31
0.0
 0
LINE
 8
PARTS
 10
219.4560
 20
290.3220
 30
0.0
 11
220.9800
 21
288.7980
 31
0.0
 0
TEXT
 8
PARTS
 10
203.4540
 20
289.6870
 30
0.0
 40
  1.2700
 1
RD0/T0CKI/T5CKI
 0
TEXT
 8
PARTS
 10
222.5040
 20
291.0840
 30
0.0
 40
  1.2700
 1
19
 0
LINE
 8
PARTS
 10
226.0600
 20
287.7820
 30
0.0
 11
220.9800
 21
287.7820
 31
0.0
 0
TEXT
 8
PARTS
 10
211.5820
 20
287.1470
 30
0.0
 40
  1.2700
 1
RD1/SDO
 0
TEXT
 8
PARTS
 10
222.5040
 20
288.5440
 30
0.0
 40
  1.2700
 1
20
 0
LINE
 8
PARTS
 10
226.0600
 20
285.2420
 30
0.0
 11
220.9800
 21
285.2420
 31
0.0
 0
TEXT
 8
PARTS
 10
207.5180
 20
284.6070
 30
0.0
 40
  1.2700
 1
RD2/SDI/SDA
 0
TEXT
 8
PARTS
 10
222.5040
 20
286.0040
 30
0.0
 40
  1.2700
 1
21
 0
LINE
 8
PARTS
 10
226.0600
 20
282.7020
 30
0.0
 11
220.9800
 21
282.7020
 31
0.0
 0
TEXT
 8
PARTS
 10
207.5180
 20
282.0670
 30
0.0
 40
  1.2700
 1
RD3/SCK/SCL
 0
TEXT
 8
PARTS
 10
222.5040
 20
283.4640
 30
0.0
 40
  1.2700
 1
22
 0
LINE
 8
PARTS
 10
226.0600
 20
303.0220
 30
0.0
 11
220.9800
 21
303.0220
 31
0.0
 0
TEXT
 8
PARTS
 10
202.4380
 20
302.3870
 30
0.0
 40
  1.2700
 1
RC4/INT1/SDI/SDA
 0
TEXT
 8
PARTS
 10
222.5040
 20
303.7840
 30
0.0
 40
  1.2700
 1
23
 0
LINE
 8
PARTS
 10
226.0600
 20
300.4820
 30
0.0
 11
220.9800
 21
300.4820
 31
0.0
 0
LINE
 8
PARTS
 10
220.9800
 20
302.0060
 30
0.0
 11
219.4560
 21
300.4820
 31
0.0
 0
LINE
 8
PARTS
 10
219.4560
 20
300.4820
 30
0.0
 11
220.9800
 21
298.9580
 31
0.0
 0
TEXT
 8
PARTS
 10
202.4380
 20
299.8470
 30
0.0
 40
  1.2700
 1
RC5/INT2/SCK/SCL
 0
TEXT
 8
PARTS
 10
222.5040
 20
301.2440
 30
0.0
 40
  1.2700
 1
24
 0
LINE
 8
PARTS
 10
226.0600
 20
297.9420
 30
0.0
 11
220.9800
 21
297.9420
 31
0.0
 0
LINE
 8
PARTS
 10
220.9800
 20
299.4660
 30
0.0
 11
219.4560
 21
297.9420
 31
0.0
 0
LINE
 8
PARTS
 10
219.4560
 20
297.9420
 30
0.0
 11
220.9800
 21
296.4180
 31
0.0
 0
TEXT
 8
PARTS
 10
206.5020
 20
297.3070
 30
0.0
 40
  1.2700
 1
RC6/TX/CK/%%oSS%%o
 0
TEXT
 8
PARTS
 10
222.5040
 20
298.7040
 30
0.0
 40
  1.2700
 1
25
 0
LINE
 8
PARTS
 10
226.0600
 20
295.4020
 30
0.0
 11
220.9800
 21
295.4020
 31
0.0
 0
TEXT
 8
PARTS
 10
205.4860
 20
294.7670
 30
0.0
 40
  1.2700
 1
RC7/RX/DT/SDO
 0
TEXT
 8
PARTS
 10
222.5040
 20
296.1640
 30
0.0
 40
  1.2700
 1
26
 0
LINE
 8
PARTS
 10
226.0600
 20
280.1620
 30
0.0
 11
220.9800
 21
280.1620
 31
0.0
 0
TEXT
 8
PARTS
 10
210.5660
 20
279.5270
 30
0.0
 40
  1.2700
 1
RD4/%%oFLTA%%o
 0
TEXT
 8
PARTS
 10
222.5040
 20
280.9240
 30
0.0
 40
  1.2700
 1
27
 0
LINE
 8
PARTS
 10
226.0600
 20
277.6220
 30
0.0
 11
220.9800
 21
277.6220
 31
0.0
 0
TEXT
 8
PARTS
 10
210.5660
 20
276.9870
 30
0.0
 40
  1.2700
 1
RD5/PWM4
 0
TEXT
 8
PARTS
 10
222.5040
 20
278.3840
 30
0.0
 40
  1.2700
 1
28
 0
LINE
 8
PARTS
 10
226.0600
 20
275.0820
 30
0.0
 11
220.9800
 21
275.0820
 31
0.0
 0
TEXT
 8
PARTS
 10
210.5660
 20
274.4470
 30
0.0
 40
  1.2700
 1
RD6/PWM6
 0
TEXT
 8
PARTS
 10
222.5040
 20
275.8440
 30
0.0
 40
  1.2700
 1
29
 0
LINE
 8
PARTS
 10
226.0600
 20
272.5420
 30
0.0
 11
220.9800
 21
272.5420
 31
0.0
 0
TEXT
 8
PARTS
 10
210.5660
 20
271.9070
 30
0.0
 40
  1.2700
 1
RD7/PWM7
 0
TEXT
 8
PARTS
 10
222.5040
 20
273.3040
 30
0.0
 40
  1.2700
 1
30
 0
LINE
 8
PARTS
 10
157.4800
 20
252.2220
 30
0.0
 11
162.5600
 21
252.2220
 31
0.0
 0
TEXT
 8
PARTS
 10
164.8460
 20
251.5870
 30
0.0
 40
  1.2700
 1
VSS
 0
TEXT
 8
PARTS
 10
159.0040
 20
252.9840
 30
0.0
 40
  1.2700
 1
31
 0
LINE
 8
PARTS
 10
226.0600
 20
252.2220
 30
0.0
 11
220.9800
 21
252.2220
 31
0.0
 0
TEXT
 8
PARTS
 10
215.6460
 20
251.5870
 30
0.0
 40
  1.2700
 1
VDD
 0
TEXT
 8
PARTS
 10
222.5040
 20
252.9840
 30
0.0
 40
  1.2700
 1
32
 0
LINE
 8
PARTS
 10
157.4800
 20
313.1820
 30
0.0
 11
162.5600
 21
313.1820
 31
0.0
 0
TEXT
 8
PARTS
 10
164.8460
 20
312.5470
 30
0.0
 40
  1.2700
 1
RB0/PWM0
 0
TEXT
 8
PARTS
 10
159.0040
 20
313.9440
 30
0.0
 40
  1.2700
 1
33
 0
LINE
 8
PARTS
 10
157.4800
 20
310.6420
 30
0.0
 11
162.5600
 21
310.6420
 31
0.0
 0
TEXT
 8
PARTS
 10
164.8460
 20
310.0070
 30
0.0
 40
  1.2700
 1
RB1/PWM1
 0
TEXT
 8
PARTS
 10
159.0040
 20
311.4040
 30
0.0
 40
  1.2700
 1
34
 0
LINE
 8
PARTS
 10
157.4800
 20
308.1020
 30
0.0
 11
162.5600
 21
308.1020
 31
0.0
 0
TEXT
 8
PARTS
 10
164.8460
 20
307.4670
 30
0.0
 40
  1.2700
 1
RB2/PWM2
 0
TEXT
 8
PARTS
 10
159.0040
 20
308.8640
 30
0.0
 40
  1.2700
 1
35
 0
LINE
 8
PARTS
 10
157.4800
 20
305.5620
 30
0.0
 11
162.5600
 21
305.5620
 31
0.0
 0
TEXT
 8
PARTS
 10
164.8460
 20
304.9270
 30
0.0
 40
  1.2700
 1
RB3/PWM3
 0
TEXT
 8
PARTS
 10
159.0040
 20
306.3240
 30
0.0
 40
  1.2700
 1
36
 0
LINE
 8
PARTS
 10
157.4800
 20
303.0220
 30
0.0
 11
162.5600
 21
303.0220
 31
0.0
 0
TEXT
 8
PARTS
 10
164.8460
 20
302.3870
 30
0.0
 40
  1.2700
 1
RB4/KBI0/PWM5
 0
TEXT
 8
PARTS
 10
159.0040
 20
303.7840
 30
0.0
 40
  1.2700
 1
37
 0
LINE
 8
PARTS
 10
157.4800
 20
300.4820
 30
0.0
 11
162.5600
 21
300.4820
 31
0.0
 0
TEXT
 8
PARTS
 10
164.8460
 20
299.8470
 30
0.0
 40
  1.2700
 1
RB5/KBI1/PWM4/PGM
 0
TEXT
 8
PARTS
 10
159.0040
 20
301.2440
 30
0.0
 40
  1.2700
 1
38
 0
LINE
 8
PARTS
 10
157.4800
 20
297.9420
 30
0.0
 11
162.5600
 21
297.9420
 31
0.0
 0
LINE
 8
PARTS
 10
162.5600
 20
299.4660
 30
0.0
 11
164.0840
 21
297.9420
 31
0.0
 0
LINE
 8
PARTS
 10
164.0840
 20
297.9420
 30
0.0
 11
162.5600
 21
296.4180
 31
0.0
 0
TEXT
 8
PARTS
 10
164.8460
 20
297.3070
 30
0.0
 40
  1.2700
 1
RB6/KBI2/PGC
 0
TEXT
 8
PARTS
 10
159.0040
 20
298.7040
 30
0.0
 40
  1.2700
 1
39
 0
LINE
 8
PARTS
 10
157.4800
 20
295.4020
 30
0.0
 11
162.5600
 21
295.4020
 31
0.0
 0
TEXT
 8
PARTS
 10
164.8460
 20
294.7670
 30
0.0
 40
  1.2700
 1
RB7/KBI3/PGD
 0
TEXT
 8
PARTS
 10
159.0040
 20
296.1640
 30
0.0
 40
  1.2700
 1
40
 0
POLYLINE
 8
PARTS
 66
1
 70
1
 10
0.0
 20
0.0
 30
0.0
 0
VERTEX
 8
PARTS
 10
162.5600
 20
247.1420
 30
0.0
 0
VERTEX
 8
PARTS
 10
220.9800
 20
247.1420
 30
0.0
 0
VERTEX
 8
PARTS
 10
220.9800
 20
318.2620
 30
0.0
 0
VERTEX
 8
PARTS
 10
162.5600
 20
318.2620
 30
0.0
 0
SEQEND
 8
PARTS
 0
TEXT
 8
PARTTEXT
 10
212.3440
 20
169.6063
 30
0.0
 40
  1.3057
 1
D3
 0
TEXT
 8
PARTTEXT
 10
212.3440
 20
166.5583
 30
0.0
 40
  1.3057
 1
LED
 0
LINE
 8
PARTS
 10
208.2800
 20
173.4820
 30
0.0
 11
208.2800
 21
170.9420
 31
0.0
 0
LINE
 8
PARTS
 10
208.2800
 20
158.2420
 30
0.0
 11
208.2800
 21
160.7820
 31
0.0
 0
POLYLINE
 8
PARTS
 66
1
 10
0.0
 20
0.0
 30
0.0
 0
VERTEX
 8
PARTS
 10
210.0580
 20
165.8620
 30
0.0
 0
VERTEX
 8
PARTS
 10
206.5020
 20
165.8620
 30
0.0
 0
SEQEND
 8
PARTS
 0
POLYLINE
 8
PARTS
 66
1
 10
0.0
 20
0.0
 30
0.0
 0
VERTEX
 8
PARTS
 10
208.2800
 20
170.9420
 30
0.0
 0
VERTEX
 8
PARTS
 10
208.2800
 20
168.4020
 30
0.0
 0
SEQEND
 8
PARTS
 0
POLYLINE
 8
PARTS
 66
1
 10
0.0
 20
0.0
 30
0.0
 0
VERTEX
 8
PARTS
 10
208.2800
 20
165.8620
 30
0.0
 0
VERTEX
 8
PARTS
 10
208.2800
 20
160.7820
 30
0.0
 0
SEQEND
 8
PARTS
 0
POLYLINE
 8
PARTS
 66
1
 70
1
 10
0.0
 20
0.0
 30
0.0
 0
VERTEX
 8
PARTS
 10
208.2800
 20
165.8620
 30
0.0
 0
VERTEX
 8
PARTS
 10
208.2800
 20
165.8620
 30
0.0
 0
VERTEX
 8
PARTS
 10
206.5020
 20
168.4020
 30
0.0
 0
VERTEX
 8
PARTS
 10
210.0580
 20
168.4020
 30
0.0
 0
VERTEX
 8
PARTS
 10
208.2800
 20
165.8620
 30
0.0
 0
SEQEND
 8
PARTS
 0
POLYLINE
 8
PARTS
 66
1
 70
1
 10
0.0
 20
0.0
 30
0.0
 0
VERTEX
 8
PARTS
 10
210.3120
 20
162.8140
 30
0.0
 0
VERTEX
 8
PARTS
 10
210.3120
 20
162.8140
 30
0.0
 0
VERTEX
 8
PARTS
 10
210.8200
 20
161.7980
 30
0.0
 0
VERTEX
 8
PARTS
 10
209.8040
 20
162.3060
 30
0.0
 0
VERTEX
 8
PARTS
 10
210.3120
 20
162.8140
 30
0.0
 0
SEQEND
 8
PARTS
 0
POLYLINE
 8
PARTS
 66
1
 70
1
 10
0.0
 20
0.0
 30
0.0
 0
VERTEX
 8
PARTS
 10
210.3120
 20
164.3380
 30
0.0
 0
VERTEX
 8
PARTS
 10
210.3120
 20
164.3380
 30
0.0
 0
VERTEX
 8
PARTS
 10
210.8200
 20
163.3220
 30
0.0
 0
VERTEX
 8
PARTS
 10
209.8040
 20
163.8300
 30
0.0
 0
VERTEX
 8
PARTS
 10
210.3120
 20
164.3380
 30
0.0
 0
SEQEND
 8
PARTS
 0
POLYLINE
 8
PARTS
 66
1
 10
0.0
 20
0.0
 30
0.0
 0
VERTEX
 8
PARTS
 10
210.5660
 20
163.5760
 30
0.0
 0
VERTEX
 8
PARTS
 10
209.0420
 20
165.1000
 30
0.0
 0
SEQEND
 8
PARTS
 0
POLYLINE
 8
PARTS
 66
1
 10
0.0
 20
0.0
 30
0.0
 0
VERTEX
 8
PARTS
 10
210.5660
 20
162.0520
 30
0.0
 0
VERTEX
 8
PARTS
 10
209.0420
 20
163.5760
 30
0.0
 0
SEQEND
 8
PARTS
 0
TEXT
 8
PARTTEXT
 10
 97.7900
 20
324.5463
 30
0.0
 40
  1.3057
 1
J3
 0
LINE
 8
PARTS
 10
109.2200
 20
318.2620
 30
0.0
 11
101.6000
 21
318.2620
 31
0.0
 0
TEXT
 8
PARTS
 10
103.1240
 20
319.0240
 30
0.0
 40
  1.2700
 1
1
 0
LINE
 8
PARTS
 10
109.2200
 20
315.7220
 30
0.0
 11
101.6000
 21
315.7220
 31
0.0
 0
TEXT
 8
PARTS
 10
103.1240
 20
316.4840
 30
0.0
 40
  1.2700
 1
2
 0
LINE
 8
PARTS
 10
109.2200
 20
313.1820
 30
0.0
 11
101.6000
 21
313.1820
 31
0.0
 0
TEXT
 8
PARTS
 10
103.1240
 20
313.9440
 30
0.0
 40
  1.2700
 1
3
 0
LINE
 8
PARTS
 10
109.2200
 20
310.6420
 30
0.0
 11
101.6000
 21
310.6420
 31
0.0
 0
TEXT
 8
PARTS
 10
103.1240
 20
311.4040
 30
0.0
 40
  1.2700
 1
4
 0
LINE
 8
PARTS
 10
109.2200
 20
308.1020
 30
0.0
 11
101.6000
 21
308.1020
 31
0.0
 0
TEXT
 8
PARTS
 10
103.1240
 20
308.8640
 30
0.0
 40
  1.2700
 1
5
 0
LINE
 8
PARTS
 10
109.2200
 20
305.5620
 30
0.0
 11
101.6000
 21
305.5620
 31
0.0
 0
TEXT
 8
PARTS
 10
103.1240
 20
306.3240
 30
0.0
 40
  1.2700
 1
6
 0
LINE
 8
PARTS
 10
109.2200
 20
303.0220
 30
0.0
 11
101.6000
 21
303.0220
 31
0.0
 0
TEXT
 8
PARTS
 10
103.1240
 20
303.7840
 30
0.0
 40
  1.2700
 1
7
 0
LINE
 8
PARTS
 10
109.2200
 20
300.4820
 30
0.0
 11
101.6000
 21
300.4820
 31
0.0
 0
TEXT
 8
PARTS
 10
103.1240
 20
301.2440
 30
0.0
 40
  1.2700
 1
8
 0
LINE
 8
PARTS
 10
109.2200
 20
297.9420
 30
0.0
 11
101.6000
 21
297.9420
 31
0.0
 0
TEXT
 8
PARTS
 10
103.1240
 20
298.7040
 30
0.0
 40
  1.2700
 1
9
 0
LINE
 8
PARTS
 10
109.2200
 20
295.4020
 30
0.0
 11
101.6000
 21
295.4020
 31
0.0
 0
TEXT
 8
PARTS
 10
103.1240
 20
296.1640
 30
0.0
 40
  1.2700
 1
10
 0
LINE
 8
PARTS
 10
109.2200
 20
292.8620
 30
0.0
 11
101.6000
 21
292.8620
 31
0.0
 0
TEXT
 8
PARTS
 10
103.1240
 20
293.6240
 30
0.0
 40
  1.2700
 1
11
 0
LINE
 8
PARTS
 10
109.2200
 20
290.3220
 30
0.0
 11
101.6000
 21
290.3220
 31
0.0
 0
TEXT
 8
PARTS
 10
103.1240
 20
291.0840
 30
0.0
 40
  1.2700
 1
12
 0
POLYLINE
 8
PARTS
 66
1
 70
1
 10
0.0
 20
0.0
 30
0.0
 0
VERTEX
 8
PARTS
 10
101.6000
 20
320.8020
 30
0.0
 0
VERTEX
 8
PARTS
 10
 93.9800
 20
320.8020
 30
0.0
 0
VERTEX
 8
PARTS
 10
 93.9800
 20
287.7820
 30
0.0
 0
VERTEX
 8
PARTS
 10
101.6000
 20
287.7820
 30
0.0
 0
SEQEND
 8
PARTS
 0
TEXT
 8
PARTTEXT
 10
162.5600
 20
362.6463
 30
0.0
 40
  1.3057
 1
C2
 0
TEXT
 8
PARTTEXT
 10
167.6400
 20
362.6463
 30
0.0
 40
  1.3057
 1
20P
 0
LINE
 8
PARTS
 10
162.5600
 20
358.9020
 30
0.0
 11
165.1000
 21
358.9020
 31
0.0
 0
LINE
 8
PARTS
 10
170.1800
 20
358.9020
 30
0.0
 11
167.6400
 21
358.9020
 31
0.0
 0
POLYLINE
 8
PARTS
 66
1
 10
0.0
 20
0.0
 30
0.0
 0
VERTEX
 8
PARTS
 10
165.1000
 20
358.9020
 30
0.0
 0
VERTEX
 8
PARTS
 10
165.6080
 20
358.9020
 30
0.0
 0
SEQEND
 8
PARTS
 0
POLYLINE
 8
PARTS
 66
1
 10
0.0
 20
0.0
 30
0.0
 0
VERTEX
 8
PARTS
 10
166.8780
 20
356.6160
 30
0.0
 0
VERTEX
 8
PARTS
 10
166.8780
 20
361.1880
 30
0.0
 0
SEQEND
 8
PARTS
 0
POLYLINE
 8
PARTS
 66
1
 10
0.0
 20
0.0
 30
0.0
 0
VERTEX
 8
PARTS
 10
165.6080
 20
356.6160
 30
0.0
 0
VERTEX
 8
PARTS
 10
165.6080
 20
361.1880
 30
0.0
 0
SEQEND
 8
PARTS
 0
POLYLINE
 8
PARTS
 66
1
 10
0.0
 20
0.0
 30
0.0
 0
VERTEX
 8
PARTS
 10
167.6400
 20
358.9020
 30
0.0
 0
VERTEX
 8
PARTS
 10
166.8780
 20
358.9020
 30
0.0
 0
SEQEND
 8
PARTS
 0
POLYLINE
 8
WIRE
 66
1
 10
0.0
 20
0.0
 30
0.0
 0
VERTEX
 8
WIRE
 10
251.4600
 20
292.8620
 30
0.0
 0
VERTEX
 8
WIRE
 10
251.4600
 20
295.4020
 30
0.0
 0
SEQEND
 8
WIRE
 0
POLYLINE
 8
WIRE
 66
1
 10
0.0
 20
0.0
 30
0.0
 0
VERTEX
 8
WIRE
 10
259.0800
 20
295.4020
 30
0.0
 0
VERTEX
 8
WIRE
 10
251.4600
 20
295.4020
 30
0.0
 0
SEQEND
 8
WIRE
 0
POLYLINE
 8
WIRE
 66
1
 10
0.0
 20
0.0
 30
0.0
 0
VERTEX
 8
WIRE
 10
259.0800
 20
287.7820
 30
0.0
 0
VERTEX
 8
WIRE
 10
259.0800
 20
292.8620
 30
0.0
 0
SEQEND
 8
WIRE
 0
POLYLINE
 8
WIRE
 66
1
 10
0.0
 20
0.0
 30
0.0
 0
VERTEX
 8
WIRE
 10
259.0800
 20
287.7820
 30
0.0
 0
VERTEX
 8
WIRE
 10
256.5400
 20
287.7820
 30
0.0
 0
SEQEND
 8
WIRE
 0
POLYLINE
 8
WIRE
 66
1
 10
0.0
 20
0.0
 30
0.0
 0
VERTEX
 8
WIRE
 10
 73.6600
 20
181.1020
 30
0.0
 0
VERTEX
 8
WIRE
 10
 45.7200
 20
181.1020
 30
0.0
 0
SEQEND
 8
WIRE
 0
POLYLINE
 8
WIRE
 66
1
 70
1
 10
0.0
 20
0.0
 30
0.0
 40
  0.5080
 41
  0.5080
 0
VERTEX
 8
WIRE
 10
 73.4060
 20
181.1020
 30
0.0
 42
1.0
 0
VERTEX
 8
WIRE
 10
 73.9140
 20
181.1020
 30
0.0
 42
1.0
 0
SEQEND
 8
WIRE
 0
POLYLINE
 8
WIRE
 66
1
 70
1
 10
0.0
 20
0.0
 30
0.0
 40
  0.5080
 41
  0.5080
 0
VERTEX
 8
WIRE
 10
 45.4660
 20
181.1020
 30
0.0
 42
1.0
 0
VERTEX
 8
WIRE
 10
 45.9740
 20
181.1020
 30
0.0
 42
1.0
 0
SEQEND
 8
WIRE
 0
POLYLINE
 8
WIRE
 66
1
 10
0.0
 20
0.0
 30
0.0
 0
VERTEX
 8
WIRE
 10
127.0000
 20
183.6420
 30
0.0
 0
VERTEX
 8
WIRE
 10
114.3000
 20
183.6420
 30
0.0
 0
SEQEND
 8
WIRE
 0
POLYLINE
 8
WIRE
 66
1
 70
1
 10
0.0
 20
0.0
 30
0.0
 40
  0.5080
 41
  0.5080
 0
VERTEX
 8
WIRE
 10
126.7460
 20
183.6420
 30
0.0
 42
1.0
 0
VERTEX
 8
WIRE
 10
127.2540
 20
183.6420
 30
0.0
 42
1.0
 0
SEQEND
 8
WIRE
 0
POLYLINE
 8
WIRE
 66
1
 10
0.0
 20
0.0
 30
0.0
 0
VERTEX
 8
WIRE
 10
226.0600
 20
259.8420
 30
0.0
 0
VERTEX
 8
WIRE
 10
231.1400
 20
259.8420
 30
0.0
 0
SEQEND
 8
WIRE
 0
TEXT
 8
WIRETEXT
 10
226.0600
 20
260.6040
 30
0.0
 40
  1.3057
 1
reset
 0
POLYLINE
 8
WIRE
 66
1
 10
0.0
 20
0.0
 30
0.0
 0
VERTEX
 8
WIRE
 10
223.5200
 20
173.4820
 30
0.0
 0
VERTEX
 8
WIRE
 10
220.9800
 20
173.4820
 30
0.0
 0
SEQEND
 8
WIRE
 0
POLYLINE
 8
WIRE
 66
1
 70
1
 10
0.0
 20
0.0
 30
0.0
 40
  0.5080
 41
  0.5080
 0
VERTEX
 8
WIRE
 10
220.7260
 20
173.4820
 30
0.0
 42
1.0
 0
VERTEX
 8
WIRE
 10
221.2340
 20
173.4820
 30
0.0
 42
1.0
 0
SEQEND
 8
WIRE
 0
POLYLINE
 8
WIRE
 66
1
 10
0.0
 20
0.0
 30
0.0
 0
VERTEX
 8
WIRE
 10
220.9800
 20
170.9420
 30
0.0
 0
VERTEX
 8
WIRE
 10
220.9800
 20
173.4820
 30
0.0
 0
SEQEND
 8
WIRE
 0
POLYLINE
 8
WIRE
 66
1
 10
0.0
 20
0.0
 30
0.0
 0
VERTEX
 8
WIRE
 10
106.6800
 20
181.1020
 30
0.0
 0
VERTEX
 8
WIRE
 10
 96.5200
 20
181.1020
 30
0.0
 0
SEQEND
 8
WIRE
 0
POLYLINE
 8
WIRE
 66
1
 70
1
 10
0.0
 20
0.0
 30
0.0
 40
  0.5080
 41
  0.5080
 0
VERTEX
 8
WIRE
 10
106.4260
 20
181.1020
 30
0.0
 42
1.0
 0
VERTEX
 8
WIRE
 10
106.9340
 20
181.1020
 30
0.0
 42
1.0
 0
SEQEND
 8
WIRE
 0
POLYLINE
 8
WIRE
 66
1
 70
1
 10
0.0
 20
0.0
 30
0.0
 40
  0.5080
 41
  0.5080
 0
VERTEX
 8
WIRE
 10
 96.2660
 20
181.1020
 30
0.0
 42
1.0
 0
VERTEX
 8
WIRE
 10
 96.7740
 20
181.1020
 30
0.0
 42
1.0
 0
SEQEND
 8
WIRE
 0
POLYLINE
 8
WIRE
 66
1
 10
0.0
 20
0.0
 30
0.0
 0
VERTEX
 8
WIRE
 10
 96.5200
 20
181.1020
 30
0.0
 0
VERTEX
 8
WIRE
 10
 83.8200
 20
181.1020
 30
0.0
 0
SEQEND
 8
WIRE
 0
POLYLINE
 8
WIRE
 66
1
 10
0.0
 20
0.0
 30
0.0
 0
VERTEX
 8
WIRE
 10
 96.5200
 20
178.5620
 30
0.0
 0
VERTEX
 8
WIRE
 10
 83.8200
 20
178.5620
 30
0.0
 0
SEQEND
 8
WIRE
 0
POLYLINE
 8
WIRE
 66
1
 10
0.0
 20
0.0
 30
0.0
 0
VERTEX
 8
WIRE
 10
106.6800
 20
178.5620
 30
0.0
 0
VERTEX
 8
WIRE
 10
 96.5200
 20
178.5620
 30
0.0
 0
SEQEND
 8
WIRE
 0
POLYLINE
 8
WIRE
 66
1
 70
1
 10
0.0
 20
0.0
 30
0.0
 40
  0.5080
 41
  0.5080
 0
VERTEX
 8
WIRE
 10
106.4260
 20
178.5620
 30
0.0
 42
1.0
 0
VERTEX
 8
WIRE
 10
106.9340
 20
178.5620
 30
0.0
 42
1.0
 0
SEQEND
 8
WIRE
 0
POLYLINE
 8
WIRE
 66
1
 70
1
 10
0.0
 20
0.0
 30
0.0
 40
  0.5080
 41
  0.5080
 0
VERTEX
 8
WIRE
 10
 96.2660
 20
178.5620
 30
0.0
 42
1.0
 0
VERTEX
 8
WIRE
 10
 96.7740
 20
178.5620
 30
0.0
 42
1.0
 0
SEQEND
 8
WIRE
 0
POLYLINE
 8
WIRE
 66
1
 10
0.0
 20
0.0
 30
0.0
 0
VERTEX
 8
WIRE
 10
 73.6600
 20
178.5620
 30
0.0
 0
VERTEX
 8
WIRE
 10
 63.5000
 20
178.5620
 30
0.0
 0
SEQEND
 8
WIRE
 0
POLYLINE
 8
WIRE
 66
1
 10
0.0
 20
0.0
 30
0.0
 0
VERTEX
 8
WIRE
 10
195.5800
 20
158.2420
 30
0.0
 0
VERTEX
 8
WIRE
 10
195.5800
 20
165.8620
 30
0.0
 0
SEQEND
 8
WIRE
 0
POLYLINE
 8
WIRE
 66
1
 10
0.0
 20
0.0
 30
0.0
 0
VERTEX
 8
WIRE
 10
220.9800
 20
158.2420
 30
0.0
 0
VERTEX
 8
WIRE
 10
220.9800
 20
163.3220
 30
0.0
 0
SEQEND
 8
WIRE
 0
POLYLINE
 8
WIRE
 66
1
 10
0.0
 20
0.0
 30
0.0
 0
VERTEX
 8
WIRE
 10
111.7600
 20
181.1020
 30
0.0
 0
VERTEX
 8
WIRE
 10
106.6800
 20
181.1020
 30
0.0
 0
SEQEND
 8
WIRE
 0
POLYLINE
 8
WIRE
 66
1
 70
1
 10
0.0
 20
0.0
 30
0.0
 40
  0.5080
 41
  0.5080
 0
VERTEX
 8
WIRE
 10
111.5060
 20
181.1020
 30
0.0
 42
1.0
 0
VERTEX
 8
WIRE
 10
112.0140
 20
181.1020
 30
0.0
 42
1.0
 0
SEQEND
 8
WIRE
 0
POLYLINE
 8
WIRE
 66
1
 10
0.0
 20
0.0
 30
0.0
 0
VERTEX
 8
WIRE
 10
139.7000
 20
158.2420
 30
0.0
 0
VERTEX
 8
WIRE
 10
139.7000
 20
163.3220
 30
0.0
 0
SEQEND
 8
WIRE
 0
POLYLINE
 8
WIRE
 66
1
 10
0.0
 20
0.0
 30
0.0
 0
VERTEX
 8
WIRE
 10
220.9800
 20
173.4820
 30
0.0
 0
VERTEX
 8
WIRE
 10
208.2800
 20
173.4820
 30
0.0
 0
SEQEND
 8
WIRE
 0
POLYLINE
 8
WIRE
 66
1
 70
1
 10
0.0
 20
0.0
 30
0.0
 40
  0.5080
 41
  0.5080
 0
VERTEX
 8
WIRE
 10
208.0260
 20
173.4820
 30
0.0
 42
1.0
 0
VERTEX
 8
WIRE
 10
208.5340
 20
173.4820
 30
0.0
 42
1.0
 0
SEQEND
 8
WIRE
 0
POLYLINE
 8
WIRE
 66
1
 10
0.0
 20
0.0
 30
0.0
 0
VERTEX
 8
WIRE
 10
162.5600
 20
173.4820
 30
0.0
 0
VERTEX
 8
WIRE
 10
160.0200
 20
173.4820
 30
0.0
 0
SEQEND
 8
WIRE
 0
POLYLINE
 8
WIRE
 66
1
 10
0.0
 20
0.0
 30
0.0
 0
VERTEX
 8
WIRE
 10
165.1000
 20
173.4820
 30
0.0
 0
VERTEX
 8
WIRE
 10
162.5600
 20
173.4820
 30
0.0
 0
SEQEND
 8
WIRE
 0
POLYLINE
 8
WIRE
 66
1
 70
1
 10
0.0
 20
0.0
 30
0.0
 40
  0.5080
 41
  0.5080
 0
VERTEX
 8
WIRE
 10
162.3060
 20
173.4820
 30
0.0
 42
1.0
 0
VERTEX
 8
WIRE
 10
162.8140
 20
173.4820
 30
0.0
 42
1.0
 0
SEQEND
 8
WIRE
 0
POLYLINE
 8
WIRE
 66
1
 10
0.0
 20
0.0
 30
0.0
 0
VERTEX
 8
WIRE
 10
144.7800
 20
173.4820
 30
0.0
 0
VERTEX
 8
WIRE
 10
139.7000
 20
173.4820
 30
0.0
 0
SEQEND
 8
WIRE
 0
POLYLINE
 8
WIRE
 66
1
 10
0.0
 20
0.0
 30
0.0
 0
VERTEX
 8
WIRE
 10
139.7000
 20
170.9420
 30
0.0
 0
VERTEX
 8
WIRE
 10
139.7000
 20
173.4820
 30
0.0
 0
SEQEND
 8
WIRE
 0
POLYLINE
 8
WIRE
 66
1
 70
1
 10
0.0
 20
0.0
 30
0.0
 40
  0.5080
 41
  0.5080
 0
VERTEX
 8
WIRE
 10
139.4460
 20
173.4820
 30
0.0
 42
1.0
 0
VERTEX
 8
WIRE
 10
139.9540
 20
173.4820
 30
0.0
 42
1.0
 0
SEQEND
 8
WIRE
 0
POLYLINE
 8
WIRE
 66
1
 10
0.0
 20
0.0
 30
0.0
 0
VERTEX
 8
WIRE
 10
106.6800
 20
173.4820
 30
0.0
 0
VERTEX
 8
WIRE
 10
106.6800
 20
178.5620
 30
0.0
 0
SEQEND
 8
WIRE
 0
POLYLINE
 8
WIRE
 66
1
 10
0.0
 20
0.0
 30
0.0
 0
VERTEX
 8
WIRE
 10
 83.8200
 20
181.1020
 30
0.0
 0
VERTEX
 8
WIRE
 10
 73.6600
 20
181.1020
 30
0.0
 0
SEQEND
 8
WIRE
 0
POLYLINE
 8
WIRE
 66
1
 70
1
 10
0.0
 20
0.0
 30
0.0
 40
  0.5080
 41
  0.5080
 0
VERTEX
 8
WIRE
 10
 83.5660
 20
181.1020
 30
0.0
 42
1.0
 0
VERTEX
 8
WIRE
 10
 84.0740
 20
181.1020
 30
0.0
 42
1.0
 0
SEQEND
 8
WIRE
 0
POLYLINE
 8
WIRE
 66
1
 10
0.0
 20
0.0
 30
0.0
 0
VERTEX
 8
WIRE
 10
 83.8200
 20
178.5620
 30
0.0
 0
VERTEX
 8
WIRE
 10
 73.6600
 20
178.5620
 30
0.0
 0
SEQEND
 8
WIRE
 0
POLYLINE
 8
WIRE
 66
1
 70
1
 10
0.0
 20
0.0
 30
0.0
 40
  0.5080
 41
  0.5080
 0
VERTEX
 8
WIRE
 10
 83.5660
 20
178.5620
 30
0.0
 42
1.0
 0
VERTEX
 8
WIRE
 10
 84.0740
 20
178.5620
 30
0.0
 42
1.0
 0
SEQEND
 8
WIRE
 0
POLYLINE
 8
WIRE
 66
1
 70
1
 10
0.0
 20
0.0
 30
0.0
 40
  0.5080
 41
  0.5080
 0
VERTEX
 8
WIRE
 10
 73.4060
 20
178.5620
 30
0.0
 42
1.0
 0
VERTEX
 8
WIRE
 10
 73.9140
 20
178.5620
 30
0.0
 42
1.0
 0
SEQEND
 8
WIRE
 0
POLYLINE
 8
WIRE
 66
1
 10
0.0
 20
0.0
 30
0.0
 0
VERTEX
 8
WIRE
 10
162.5600
 20
158.2420
 30
0.0
 0
VERTEX
 8
WIRE
 10
162.5600
 20
160.7820
 30
0.0
 0
SEQEND
 8
WIRE
 0
POLYLINE
 8
WIRE
 66
1
 10
0.0
 20
0.0
 30
0.0
 0
VERTEX
 8
WIRE
 10
200.6600
 20
181.1020
 30
0.0
 0
VERTEX
 8
WIRE
 10
139.7000
 20
181.1020
 30
0.0
 0
SEQEND
 8
WIRE
 0
POLYLINE
 8
WIRE
 66
1
 70
1
 10
0.0
 20
0.0
 30
0.0
 40
  0.5080
 41
  0.5080
 0
VERTEX
 8
WIRE
 10
139.4460
 20
181.1020
 30
0.0
 42
1.0
 0
VERTEX
 8
WIRE
 10
139.9540
 20
181.1020
 30
0.0
 42
1.0
 0
SEQEND
 8
WIRE
 0
POLYLINE
 8
WIRE
 66
1
 10
0.0
 20
0.0
 30
0.0
 0
VERTEX
 8
WIRE
 10
200.6600
 20
168.4020
 30
0.0
 0
VERTEX
 8
WIRE
 10
200.6600
 20
181.1020
 30
0.0
 0
SEQEND
 8
WIRE
 0
POLYLINE
 8
WIRE
 66
1
 10
0.0
 20
0.0
 30
0.0
 0
VERTEX
 8
WIRE
 10
200.6600
 20
168.4020
 30
0.0
 0
VERTEX
 8
WIRE
 10
195.5800
 20
168.4020
 30
0.0
 0
SEQEND
 8
WIRE
 0
POLYLINE
 8
WIRE
 66
1
 10
0.0
 20
0.0
 30
0.0
 0
VERTEX
 8
WIRE
 10
111.7600
 20
158.2420
 30
0.0
 0
VERTEX
 8
WIRE
 10
111.7600
 20
163.3220
 30
0.0
 0
SEQEND
 8
WIRE
 0
POLYLINE
 8
WIRE
 66
1
 10
0.0
 20
0.0
 30
0.0
 0
VERTEX
 8
WIRE
 10
236.2200
 20
158.2420
 30
0.0
 0
VERTEX
 8
WIRE
 10
236.2200
 20
170.9420
 30
0.0
 0
SEQEND
 8
WIRE
 0
POLYLINE
 8
WIRE
 66
1
 10
0.0
 20
0.0
 30
0.0
 0
VERTEX
 8
WIRE
 10
111.7600
 20
170.9420
 30
0.0
 0
VERTEX
 8
WIRE
 10
111.7600
 20
181.1020
 30
0.0
 0
SEQEND
 8
WIRE
 0
POLYLINE
 8
WIRE
 66
1
 10
0.0
 20
0.0
 30
0.0
 0
VERTEX
 8
WIRE
 10
208.2800
 20
143.0020
 30
0.0
 0
VERTEX
 8
WIRE
 10
208.2800
 20
145.5420
 30
0.0
 0
SEQEND
 8
WIRE
 0
POLYLINE
 8
WIRE
 66
1
 10
0.0
 20
0.0
 30
0.0
 0
VERTEX
 8
WIRE
 10
208.2800
 20
173.4820
 30
0.0
 0
VERTEX
 8
WIRE
 10
195.5800
 20
173.4820
 30
0.0
 0
SEQEND
 8
WIRE
 0
POLYLINE
 8
WIRE
 66
1
 10
0.0
 20
0.0
 30
0.0
 0
VERTEX
 8
WIRE
 10
 45.7200
 20
150.6220
 30
0.0
 0
VERTEX
 8
WIRE
 10
 45.7200
 20
153.1620
 30
0.0
 0
SEQEND
 8
WIRE
 0
POLYLINE
 8
WIRE
 66
1
 10
0.0
 20
0.0
 30
0.0
 0
VERTEX
 8
WIRE
 10
 45.7200
 20
181.1020
 30
0.0
 0
VERTEX
 8
WIRE
 10
 45.7200
 20
183.6420
 30
0.0
 0
SEQEND
 8
WIRE
 0
POLYLINE
 8
WIRE
 66
1
 10
0.0
 20
0.0
 30
0.0
 0
VERTEX
 8
WIRE
 10
215.9000
 20
211.5820
 30
0.0
 0
VERTEX
 8
WIRE
 10
213.3600
 20
211.5820
 30
0.0
 0
SEQEND
 8
WIRE
 0
POLYLINE
 8
WIRE
 66
1
 10
0.0
 20
0.0
 30
0.0
 0
VERTEX
 8
WIRE
 10
320.0400
 20
168.4020
 30
0.0
 0
VERTEX
 8
WIRE
 10
320.0400
 20
178.5620
 30
0.0
 0
SEQEND
 8
WIRE
 0
POLYLINE
 8
WIRE
 66
1
 10
0.0
 20
0.0
 30
0.0
 0
VERTEX
 8
WIRE
 10
320.0400
 20
181.1020
 30
0.0
 0
VERTEX
 8
WIRE
 10
309.8800
 20
181.1020
 30
0.0
 0
SEQEND
 8
WIRE
 0
POLYLINE
 8
WIRE
 66
1
 10
0.0
 20
0.0
 30
0.0
 0
VERTEX
 8
WIRE
 10
309.8800
 20
178.5620
 30
0.0
 0
VERTEX
 8
WIRE
 10
309.8800
 20
181.1020
 30
0.0
 0
SEQEND
 8
WIRE
 0
POLYLINE
 8
WIRE
 66
1
 10
0.0
 20
0.0
 30
0.0
 0
VERTEX
 8
WIRE
 10
327.6600
 20
155.7020
 30
0.0
 0
VERTEX
 8
WIRE
 10
320.0400
 20
155.7020
 30
0.0
 0
SEQEND
 8
WIRE
 0
POLYLINE
 8
WIRE
 66
1
 10
0.0
 20
0.0
 30
0.0
 0
VERTEX
 8
WIRE
 10
314.9600
 20
163.3220
 30
0.0
 0
VERTEX
 8
WIRE
 10
309.8800
 20
163.3220
 30
0.0
 0
SEQEND
 8
WIRE
 0
POLYLINE
 8
WIRE
 66
1
 10
0.0
 20
0.0
 30
0.0
 0
VERTEX
 8
WIRE
 10
289.5600
 20
163.3220
 30
0.0
 0
VERTEX
 8
WIRE
 10
284.4800
 20
163.3220
 30
0.0
 0
SEQEND
 8
WIRE
 0
TEXT
 8
WIRETEXT
 10
284.4800
 20
164.0840
 30
0.0
 40
  1.3057
 1
LOA
 0
POLYLINE
 8
WIRE
 66
1
 10
0.0
 20
0.0
 30
0.0
 0
VERTEX
 8
WIRE
 10
297.1800
 20
163.3220
 30
0.0
 0
VERTEX
 8
WIRE
 10
292.1000
 20
163.3220
 30
0.0
 0
SEQEND
 8
WIRE
 0
POLYLINE
 8
WIRE
 66
1
 10
0.0
 20
0.0
 30
0.0
 0
VERTEX
 8
WIRE
 10
292.1000
 20
160.7820
 30
0.0
 0
VERTEX
 8
WIRE
 10
292.1000
 20
163.3220
 30
0.0
 0
SEQEND
 8
WIRE
 0
POLYLINE
 8
WIRE
 66
1
 10
0.0
 20
0.0
 30
0.0
 0
VERTEX
 8
WIRE
 10
127.0000
 20
181.1020
 30
0.0
 0
VERTEX
 8
WIRE
 10
114.3000
 20
181.1020
 30
0.0
 0
SEQEND
 8
WIRE
 0
POLYLINE
 8
WIRE
 66
1
 70
1
 10
0.0
 20
0.0
 30
0.0
 40
  0.5080
 41
  0.5080
 0
VERTEX
 8
WIRE
 10
114.0460
 20
181.1020
 30
0.0
 42
1.0
 0
VERTEX
 8
WIRE
 10
114.5540
 20
181.1020
 30
0.0
 42
1.0
 0
SEQEND
 8
WIRE
 0
POLYLINE
 8
WIRE
 66
1
 10
0.0
 20
0.0
 30
0.0
 0
VERTEX
 8
WIRE
 10
157.4800
 20
249.6820
 30
0.0
 0
VERTEX
 8
WIRE
 10
157.4800
 20
252.2220
 30
0.0
 0
SEQEND
 8
WIRE
 0
POLYLINE
 8
WIRE
 66
1
 70
1
 10
0.0
 20
0.0
 30
0.0
 40
  0.5080
 41
  0.5080
 0
VERTEX
 8
WIRE
 10
157.2260
 20
252.2220
 30
0.0
 42
1.0
 0
VERTEX
 8
WIRE
 10
157.7340
 20
252.2220
 30
0.0
 42
1.0
 0
SEQEND
 8
WIRE
 0
POLYLINE
 8
WIRE
 66
1
 10
0.0
 20
0.0
 30
0.0
 0
VERTEX
 8
WIRE
 10
231.1400
 20
290.3220
 30
0.0
 0
VERTEX
 8
WIRE
 10
226.0600
 20
290.3220
 30
0.0
 0
SEQEND
 8
WIRE
 0
TEXT
 8
WIRETEXT
 10
226.0600
 20
291.0840
 30
0.0
 40
  1.3057
 1
SPI1
 0
POLYLINE
 8
WIRE
 66
1
 10
0.0
 20
0.0
 30
0.0
 0
VERTEX
 8
WIRE
 10
157.4800
 20
252.2220
 30
0.0
 0
VERTEX
 8
WIRE
 10
157.4800
 20
254.7620
 30
0.0
 0
SEQEND
 8
WIRE
 0
POLYLINE
 8
WIRE
 66
1
 10
0.0
 20
0.0
 30
0.0
 0
VERTEX
 8
WIRE
 10
139.7000
 20
183.6420
 30
0.0
 0
VERTEX
 8
WIRE
 10
127.0000
 20
183.6420
 30
0.0
 0
SEQEND
 8
WIRE
 0
POLYLINE
 8
WIRE
 66
1
 10
0.0
 20
0.0
 30
0.0
 0
VERTEX
 8
WIRE
 10
226.0600
 20
254.7620
 30
0.0
 0
VERTEX
 8
WIRE
 10
226.0600
 20
252.2220
 30
0.0
 0
SEQEND
 8
WIRE
 0
POLYLINE
 8
WIRE
 66
1
 70
1
 10
0.0
 20
0.0
 30
0.0
 40
  0.5080
 41
  0.5080
 0
VERTEX
 8
WIRE
 10
225.8060
 20
252.2220
 30
0.0
 42
1.0
 0
VERTEX
 8
WIRE
 10
226.3140
 20
252.2220
 30
0.0
 42
1.0
 0
SEQEND
 8
WIRE
 0
POLYLINE
 8
WIRE
 66
1
 10
0.0
 20
0.0
 30
0.0
 0
VERTEX
 8
WIRE
 10
226.0600
 20
249.6820
 30
0.0
 0
VERTEX
 8
WIRE
 10
231.1400
 20
249.6820
 30
0.0
 0
SEQEND
 8
WIRE
 0
POLYLINE
 8
WIRE
 66
1
 10
0.0
 20
0.0
 30
0.0
 0
VERTEX
 8
WIRE
 10
226.0600
 20
252.2220
 30
0.0
 0
VERTEX
 8
WIRE
 10
226.0600
 20
249.6820
 30
0.0
 0
SEQEND
 8
WIRE
 0
POLYLINE
 8
WIRE
 66
1
 10
0.0
 20
0.0
 30
0.0
 0
VERTEX
 8
WIRE
 10
139.7000
 20
181.1020
 30
0.0
 0
VERTEX
 8
WIRE
 10
139.7000
 20
183.6420
 30
0.0
 0
SEQEND
 8
WIRE
 0
POLYLINE
 8
WIRE
 66
1
 10
0.0
 20
0.0
 30
0.0
 0
VERTEX
 8
WIRE
 10
114.3000
 20
181.1020
 30
0.0
 0
VERTEX
 8
WIRE
 10
111.7600
 20
181.1020
 30
0.0
 0
SEQEND
 8
WIRE
 0
POLYLINE
 8
WIRE
 66
1
 10
0.0
 20
0.0
 30
0.0
 0
VERTEX
 8
WIRE
 10
289.5600
 20
160.7820
 30
0.0
 0
VERTEX
 8
WIRE
 10
289.5600
 20
163.3220
 30
0.0
 0
SEQEND
 8
WIRE
 0
POLYLINE
 8
WIRE
 66
1
 10
0.0
 20
0.0
 30
0.0
 0
VERTEX
 8
WIRE
 10
157.4800
 20
290.3220
 30
0.0
 0
VERTEX
 8
WIRE
 10
127.0000
 20
290.3220
 30
0.0
 0
SEQEND
 8
WIRE
 0
POLYLINE
 8
WIRE
 66
1
 10
0.0
 20
0.0
 30
0.0
 0
VERTEX
 8
WIRE
 10
127.0000
 20
262.3820
 30
0.0
 0
VERTEX
 8
WIRE
 10
127.0000
 20
290.3220
 30
0.0
 0
SEQEND
 8
WIRE
 0
POLYLINE
 8
WIRE
 66
1
 10
0.0
 20
0.0
 30
0.0
 0
VERTEX
 8
WIRE
 10
256.5400
 20
310.6420
 30
0.0
 0
VERTEX
 8
WIRE
 10
256.5400
 20
313.1820
 30
0.0
 0
SEQEND
 8
WIRE
 0
POLYLINE
 8
WIRE
 66
1
 10
0.0
 20
0.0
 30
0.0
 0
VERTEX
 8
WIRE
 10
259.0800
 20
310.6420
 30
0.0
 0
VERTEX
 8
WIRE
 10
256.5400
 20
310.6420
 30
0.0
 0
SEQEND
 8
WIRE
 0
POLYLINE
 8
WIRE
 66
1
 10
0.0
 20
0.0
 30
0.0
 0
VERTEX
 8
WIRE
 10
157.4800
 20
287.7820
 30
0.0
 0
VERTEX
 8
WIRE
 10
129.5400
 20
287.7820
 30
0.0
 0
SEQEND
 8
WIRE
 0
POLYLINE
 8
WIRE
 66
1
 10
0.0
 20
0.0
 30
0.0
 0
VERTEX
 8
WIRE
 10
129.5400
 20
259.8420
 30
0.0
 0
VERTEX
 8
WIRE
 10
129.5400
 20
287.7820
 30
0.0
 0
SEQEND
 8
WIRE
 0
POLYLINE
 8
WIRE
 66
1
 10
0.0
 20
0.0
 30
0.0
 0
VERTEX
 8
WIRE
 10
248.9200
 20
310.6420
 30
0.0
 0
VERTEX
 8
WIRE
 10
248.9200
 20
313.1820
 30
0.0
 0
SEQEND
 8
WIRE
 0
POLYLINE
 8
WIRE
 66
1
 10
0.0
 20
0.0
 30
0.0
 0
VERTEX
 8
WIRE
 10
254.0000
 20
313.1820
 30
0.0
 0
VERTEX
 8
WIRE
 10
248.9200
 20
313.1820
 30
0.0
 0
SEQEND
 8
WIRE
 0
POLYLINE
 8
WIRE
 66
1
 10
0.0
 20
0.0
 30
0.0
 0
VERTEX
 8
WIRE
 10
254.0000
 20
308.1020
 30
0.0
 0
VERTEX
 8
WIRE
 10
254.0000
 20
313.1820
 30
0.0
 0
SEQEND
 8
WIRE
 0
POLYLINE
 8
WIRE
 66
1
 10
0.0
 20
0.0
 30
0.0
 0
VERTEX
 8
WIRE
 10
157.4800
 20
285.2420
 30
0.0
 0
VERTEX
 8
WIRE
 10
132.0800
 20
285.2420
 30
0.0
 0
SEQEND
 8
WIRE
 0
POLYLINE
 8
WIRE
 66
1
 10
0.0
 20
0.0
 30
0.0
 0
VERTEX
 8
WIRE
 10
157.4800
 20
313.1820
 30
0.0
 0
VERTEX
 8
WIRE
 10
109.2200
 20
313.1820
 30
0.0
 0
SEQEND
 8
WIRE
 0
POLYLINE
 8
WIRE
 66
1
 10
0.0
 20
0.0
 30
0.0
 0
VERTEX
 8
WIRE
 10
157.4800
 20
310.6420
 30
0.0
 0
VERTEX
 8
WIRE
 10
109.2200
 20
310.6420
 30
0.0
 0
SEQEND
 8
WIRE
 0
POLYLINE
 8
WIRE
 66
1
 10
0.0
 20
0.0
 30
0.0
 0
VERTEX
 8
WIRE
 10
157.4800
 20
308.1020
 30
0.0
 0
VERTEX
 8
WIRE
 10
109.2200
 20
308.1020
 30
0.0
 0
SEQEND
 8
WIRE
 0
POLYLINE
 8
WIRE
 66
1
 10
0.0
 20
0.0
 30
0.0
 0
VERTEX
 8
WIRE
 10
157.4800
 20
305.5620
 30
0.0
 0
VERTEX
 8
WIRE
 10
109.2200
 20
305.5620
 30
0.0
 0
SEQEND
 8
WIRE
 0
POLYLINE
 8
WIRE
 66
1
 10
0.0
 20
0.0
 30
0.0
 0
VERTEX
 8
WIRE
 10
271.7800
 20
308.1020
 30
0.0
 0
VERTEX
 8
WIRE
 10
259.0800
 20
308.1020
 30
0.0
 0
SEQEND
 8
WIRE
 0
POLYLINE
 8
WIRE
 66
1
 70
1
 10
0.0
 20
0.0
 30
0.0
 40
  0.5080
 41
  0.5080
 0
VERTEX
 8
WIRE
 10
258.8260
 20
308.1020
 30
0.0
 42
1.0
 0
VERTEX
 8
WIRE
 10
259.3340
 20
308.1020
 30
0.0
 42
1.0
 0
SEQEND
 8
WIRE
 0
POLYLINE
 8
WIRE
 66
1
 10
0.0
 20
0.0
 30
0.0
 0
VERTEX
 8
WIRE
 10
157.4800
 20
303.0220
 30
0.0
 0
VERTEX
 8
WIRE
 10
109.2200
 20
303.0220
 30
0.0
 0
SEQEND
 8
WIRE
 0
POLYLINE
 8
WIRE
 66
1
 10
0.0
 20
0.0
 30
0.0
 0
VERTEX
 8
WIRE
 10
157.4800
 20
300.4820
 30
0.0
 0
VERTEX
 8
WIRE
 10
109.2200
 20
300.4820
 30
0.0
 0
SEQEND
 8
WIRE
 0
POLYLINE
 8
WIRE
 66
1
 10
0.0
 20
0.0
 30
0.0
 0
VERTEX
 8
WIRE
 10
157.4800
 20
297.9420
 30
0.0
 0
VERTEX
 8
WIRE
 10
109.2200
 20
297.9420
 30
0.0
 0
SEQEND
 8
WIRE
 0
TEXT
 8
WIRETEXT
 10
149.8600
 20
298.7040
 30
0.0
 40
  1.3057
 1
PGC
 0
POLYLINE
 8
WIRE
 66
1
 10
0.0
 20
0.0
 30
0.0
 0
VERTEX
 8
WIRE
 10
157.4800
 20
295.4020
 30
0.0
 0
VERTEX
 8
WIRE
 10
109.2200
 20
295.4020
 30
0.0
 0
SEQEND
 8
WIRE
 0
TEXT
 8
WIRETEXT
 10
149.8600
 20
296.1640
 30
0.0
 40
  1.3057
 1
PGD
 0
POLYLINE
 8
WIRE
 66
1
 10
0.0
 20
0.0
 30
0.0
 0
VERTEX
 8
WIRE
 10
132.0800
 20
257.3020
 30
0.0
 0
VERTEX
 8
WIRE
 10
132.0800
 20
285.2420
 30
0.0
 0
SEQEND
 8
WIRE
 0
POLYLINE
 8
WIRE
 66
1
 10
0.0
 20
0.0
 30
0.0
 0
VERTEX
 8
WIRE
 10
139.7000
 20
173.4820
 30
0.0
 0
VERTEX
 8
WIRE
 10
139.7000
 20
181.1020
 30
0.0
 0
SEQEND
 8
WIRE
 0
POLYLINE
 8
WIRE
 66
1
 10
0.0
 20
0.0
 30
0.0
 0
VERTEX
 8
WIRE
 10
157.4800
 20
282.7020
 30
0.0
 0
VERTEX
 8
WIRE
 10
134.6200
 20
282.7020
 30
0.0
 0
SEQEND
 8
WIRE
 0
POLYLINE
 8
WIRE
 66
1
 10
0.0
 20
0.0
 30
0.0
 0
VERTEX
 8
WIRE
 10
203.2000
 20
214.1220
 30
0.0
 0
VERTEX
 8
WIRE
 10
203.2000
 20
219.2020
 30
0.0
 0
SEQEND
 8
WIRE
 0
POLYLINE
 8
WIRE
 66
1
 10
0.0
 20
0.0
 30
0.0
 0
VERTEX
 8
WIRE
 10
215.9000
 20
219.2020
 30
0.0
 0
VERTEX
 8
WIRE
 10
203.2000
 20
219.2020
 30
0.0
 0
SEQEND
 8
WIRE
 0
POLYLINE
 8
WIRE
 66
1
 10
0.0
 20
0.0
 30
0.0
 0
VERTEX
 8
WIRE
 10
215.9000
 20
211.5820
 30
0.0
 0
VERTEX
 8
WIRE
 10
215.9000
 20
216.6620
 30
0.0
 0
SEQEND
 8
WIRE
 0
POLYLINE
 8
WIRE
 66
1
 10
0.0
 20
0.0
 30
0.0
 0
VERTEX
 8
WIRE
 10
215.9000
 20
234.4420
 30
0.0
 0
VERTEX
 8
WIRE
 10
213.3600
 20
234.4420
 30
0.0
 0
SEQEND
 8
WIRE
 0
POLYLINE
 8
WIRE
 66
1
 10
0.0
 20
0.0
 30
0.0
 0
VERTEX
 8
WIRE
 10
157.4800
 20
280.1620
 30
0.0
 0
VERTEX
 8
WIRE
 10
137.1600
 20
280.1620
 30
0.0
 0
SEQEND
 8
WIRE
 0
POLYLINE
 8
WIRE
 66
1
 10
0.0
 20
0.0
 30
0.0
 0
VERTEX
 8
WIRE
 10
137.1600
 20
252.2220
 30
0.0
 0
VERTEX
 8
WIRE
 10
137.1600
 20
280.1620
 30
0.0
 0
SEQEND
 8
WIRE
 0
POLYLINE
 8
WIRE
 66
1
 10
0.0
 20
0.0
 30
0.0
 0
VERTEX
 8
WIRE
 10
157.4800
 20
277.6220
 30
0.0
 0
VERTEX
 8
WIRE
 10
139.7000
 20
277.6220
 30
0.0
 0
SEQEND
 8
WIRE
 0
POLYLINE
 8
WIRE
 66
1
 10
0.0
 20
0.0
 30
0.0
 0
VERTEX
 8
WIRE
 10
226.0600
 20
280.1620
 30
0.0
 0
VERTEX
 8
WIRE
 10
259.0800
 20
280.1620
 30
0.0
 0
SEQEND
 8
WIRE
 0
POLYLINE
 8
WIRE
 66
1
 70
1
 10
0.0
 20
0.0
 30
0.0
 40
  0.5080
 41
  0.5080
 0
VERTEX
 8
WIRE
 10
258.8260
 20
280.1620
 30
0.0
 42
1.0
 0
VERTEX
 8
WIRE
 10
259.3340
 20
280.1620
 30
0.0
 42
1.0
 0
SEQEND
 8
WIRE
 0
POLYLINE
 8
WIRE
 66
1
 10
0.0
 20
0.0
 30
0.0
 0
VERTEX
 8
WIRE
 10
226.0600
 20
277.6220
 30
0.0
 0
VERTEX
 8
WIRE
 10
259.0800
 20
277.6220
 30
0.0
 0
SEQEND
 8
WIRE
 0
POLYLINE
 8
WIRE
 66
1
 70
1
 10
0.0
 20
0.0
 30
0.0
 40
  0.5080
 41
  0.5080
 0
VERTEX
 8
WIRE
 10
258.8260
 20
277.6220
 30
0.0
 42
1.0
 0
VERTEX
 8
WIRE
 10
259.3340
 20
277.6220
 30
0.0
 42
1.0
 0
SEQEND
 8
WIRE
 0
POLYLINE
 8
WIRE
 66
1
 10
0.0
 20
0.0
 30
0.0
 0
VERTEX
 8
WIRE
 10
226.0600
 20
275.0820
 30
0.0
 0
VERTEX
 8
WIRE
 10
259.0800
 20
275.0820
 30
0.0
 0
SEQEND
 8
WIRE
 0
POLYLINE
 8
WIRE
 66
1
 70
1
 10
0.0
 20
0.0
 30
0.0
 40
  0.5080
 41
  0.5080
 0
VERTEX
 8
WIRE
 10
258.8260
 20
275.0820
 30
0.0
 42
1.0
 0
VERTEX
 8
WIRE
 10
259.3340
 20
275.0820
 30
0.0
 42
1.0
 0
SEQEND
 8
WIRE
 0
POLYLINE
 8
WIRE
 66
1
 10
0.0
 20
0.0
 30
0.0
 0
VERTEX
 8
WIRE
 10
226.0600
 20
272.5420
 30
0.0
 0
VERTEX
 8
WIRE
 10
259.0800
 20
272.5420
 30
0.0
 0
SEQEND
 8
WIRE
 0
POLYLINE
 8
WIRE
 66
1
 70
1
 10
0.0
 20
0.0
 30
0.0
 40
  0.5080
 41
  0.5080
 0
VERTEX
 8
WIRE
 10
258.8260
 20
272.5420
 30
0.0
 42
1.0
 0
VERTEX
 8
WIRE
 10
259.3340
 20
272.5420
 30
0.0
 42
1.0
 0
SEQEND
 8
WIRE
 0
TEXT
 8
WIRETEXT
 10
231.1400
 20
273.3040
 30
0.0
 40
  1.3057
 1
LOA
 0
POLYLINE
 8
WIRE
 66
1
 10
0.0
 20
0.0
 30
0.0
 0
VERTEX
 8
WIRE
 10
231.1400
 20
287.7820
 30
0.0
 0
VERTEX
 8
WIRE
 10
226.0600
 20
287.7820
 30
0.0
 0
SEQEND
 8
WIRE
 0
TEXT
 8
WIRETEXT
 10
226.0600
 20
288.5440
 30
0.0
 40
  1.3057
 1
SDO
 0
POLYLINE
 8
WIRE
 66
1
 10
0.0
 20
0.0
 30
0.0
 0
VERTEX
 8
WIRE
 10
259.0800
 20
262.3820
 30
0.0
 0
VERTEX
 8
WIRE
 10
259.0800
 20
267.4620
 30
0.0
 0
SEQEND
 8
WIRE
 0
POLYLINE
 8
WIRE
 66
1
 10
0.0
 20
0.0
 30
0.0
 0
VERTEX
 8
WIRE
 10
259.0800
 20
262.3820
 30
0.0
 0
VERTEX
 8
WIRE
 10
256.5400
 20
262.3820
 30
0.0
 0
SEQEND
 8
WIRE
 0
POLYLINE
 8
WIRE
 66
1
 10
0.0
 20
0.0
 30
0.0
 0
VERTEX
 8
WIRE
 10
231.1400
 20
285.2420
 30
0.0
 0
VERTEX
 8
WIRE
 10
226.0600
 20
285.2420
 30
0.0
 0
SEQEND
 8
WIRE
 0
TEXT
 8
WIRETEXT
 10
226.0600
 20
286.0040
 30
0.0
 40
  1.3057
 1
SDI
 0
POLYLINE
 8
WIRE
 66
1
 10
0.0
 20
0.0
 30
0.0
 0
VERTEX
 8
WIRE
 10
231.1400
 20
282.7020
 30
0.0
 0
VERTEX
 8
WIRE
 10
226.0600
 20
282.7020
 30
0.0
 0
SEQEND
 8
WIRE
 0
TEXT
 8
WIRETEXT
 10
226.0600
 20
283.4640
 30
0.0
 40
  1.3057
 1
SCK
 0
POLYLINE
 8
WIRE
 66
1
 10
0.0
 20
0.0
 30
0.0
 0
VERTEX
 8
WIRE
 10
271.7800
 20
270.0020
 30
0.0
 0
VERTEX
 8
WIRE
 10
259.0800
 20
270.0020
 30
0.0
 0
SEQEND
 8
WIRE
 0
POLYLINE
 8
WIRE
 66
1
 70
1
 10
0.0
 20
0.0
 30
0.0
 40
  0.5080
 41
  0.5080
 0
VERTEX
 8
WIRE
 10
258.8260
 20
270.0020
 30
0.0
 42
1.0
 0
VERTEX
 8
WIRE
 10
259.3340
 20
270.0020
 30
0.0
 42
1.0
 0
SEQEND
 8
WIRE
 0
POLYLINE
 8
WIRE
 66
1
 10
0.0
 20
0.0
 30
0.0
 0
VERTEX
 8
WIRE
 10
248.9200
 20
267.4620
 30
0.0
 0
VERTEX
 8
WIRE
 10
248.9200
 20
270.0020
 30
0.0
 0
SEQEND
 8
WIRE
 0
POLYLINE
 8
WIRE
 66
1
 10
0.0
 20
0.0
 30
0.0
 0
VERTEX
 8
WIRE
 10
271.7800
 20
351.2820
 30
0.0
 0
VERTEX
 8
WIRE
 10
261.6200
 20
351.2820
 30
0.0
 0
SEQEND
 8
WIRE
 0
TEXT
 8
WIRETEXT
 10
261.6200
 20
352.0440
 30
0.0
 40
  1.3057
 1
SDI
 0
POLYLINE
 8
WIRE
 66
1
 10
0.0
 20
0.0
 30
0.0
 0
VERTEX
 8
WIRE
 10
271.7800
 20
353.8220
 30
0.0
 0
VERTEX
 8
WIRE
 10
261.6200
 20
353.8220
 30
0.0
 0
SEQEND
 8
WIRE
 0
TEXT
 8
WIRETEXT
 10
261.6200
 20
354.5840
 30
0.0
 40
  1.3057
 1
SDO
 0
POLYLINE
 8
WIRE
 66
1
 10
0.0
 20
0.0
 30
0.0
 0
VERTEX
 8
WIRE
 10
271.7800
 20
356.3620
 30
0.0
 0
VERTEX
 8
WIRE
 10
261.6200
 20
356.3620
 30
0.0
 0
SEQEND
 8
WIRE
 0
TEXT
 8
WIRETEXT
 10
261.6200
 20
357.1240
 30
0.0
 40
  1.3057
 1
SCK
 0
POLYLINE
 8
WIRE
 66
1
 10
0.0
 20
0.0
 30
0.0
 0
VERTEX
 8
WIRE
 10
271.7800
 20
346.2020
 30
0.0
 0
VERTEX
 8
WIRE
 10
266.7000
 20
346.2020
 30
0.0
 0
SEQEND
 8
WIRE
 0
POLYLINE
 8
WIRE
 66
1
 10
0.0
 20
0.0
 30
0.0
 0
VERTEX
 8
WIRE
 10
271.7800
 20
358.9020
 30
0.0
 0
VERTEX
 8
WIRE
 10
261.6200
 20
358.9020
 30
0.0
 0
SEQEND
 8
WIRE
 0
TEXT
 8
WIRETEXT
 10
261.6200
 20
359.6640
 30
0.0
 40
  1.3057
 1
SPI1
 0
POLYLINE
 8
WIRE
 66
1
 10
0.0
 20
0.0
 30
0.0
 0
VERTEX
 8
WIRE
 10
266.7000
 20
338.5820
 30
0.0
 0
VERTEX
 8
WIRE
 10
266.7000
 20
346.2020
 30
0.0
 0
SEQEND
 8
WIRE
 0
POLYLINE
 8
WIRE
 66
1
 10
0.0
 20
0.0
 30
0.0
 0
VERTEX
 8
WIRE
 10
271.7800
 20
338.5820
 30
0.0
 0
VERTEX
 8
WIRE
 10
266.7000
 20
338.5820
 30
0.0
 0
SEQEND
 8
WIRE
 0
POLYLINE
 8
WIRE
 66
1
 10
0.0
 20
0.0
 30
0.0
 0
VERTEX
 8
WIRE
 10
226.0600
 20
303.0220
 30
0.0
 0
VERTEX
 8
WIRE
 10
259.0800
 20
303.0220
 30
0.0
 0
SEQEND
 8
WIRE
 0
POLYLINE
 8
WIRE
 66
1
 10
0.0
 20
0.0
 30
0.0
 0
VERTEX
 8
WIRE
 10
226.0600
 20
300.4820
 30
0.0
 0
VERTEX
 8
WIRE
 10
259.0800
 20
300.4820
 30
0.0
 0
SEQEND
 8
WIRE
 0
POLYLINE
 8
WIRE
 66
1
 10
0.0
 20
0.0
 30
0.0
 0
VERTEX
 8
WIRE
 10
226.0600
 20
297.9420
 30
0.0
 0
VERTEX
 8
WIRE
 10
259.0800
 20
297.9420
 30
0.0
 0
SEQEND
 8
WIRE
 0
POLYLINE
 8
WIRE
 66
1
 10
0.0
 20
0.0
 30
0.0
 0
VERTEX
 8
WIRE
 10
271.7800
 20
303.0220
 30
0.0
 0
VERTEX
 8
WIRE
 10
259.0800
 20
303.0220
 30
0.0
 0
SEQEND
 8
WIRE
 0
POLYLINE
 8
WIRE
 66
1
 70
1
 10
0.0
 20
0.0
 30
0.0
 40
  0.5080
 41
  0.5080
 0
VERTEX
 8
WIRE
 10
258.8260
 20
303.0220
 30
0.0
 42
1.0
 0
VERTEX
 8
WIRE
 10
259.3340
 20
303.0220
 30
0.0
 42
1.0
 0
SEQEND
 8
WIRE
 0
POLYLINE
 8
WIRE
 66
1
 10
0.0
 20
0.0
 30
0.0
 0
VERTEX
 8
WIRE
 10
271.7800
 20
297.9420
 30
0.0
 0
VERTEX
 8
WIRE
 10
259.0800
 20
297.9420
 30
0.0
 0
SEQEND
 8
WIRE
 0
POLYLINE
 8
WIRE
 66
1
 70
1
 10
0.0
 20
0.0
 30
0.0
 40
  0.5080
 41
  0.5080
 0
VERTEX
 8
WIRE
 10
258.8260
 20
297.9420
 30
0.0
 42
1.0
 0
VERTEX
 8
WIRE
 10
259.3340
 20
297.9420
 30
0.0
 42
1.0
 0
SEQEND
 8
WIRE
 0
POLYLINE
 8
WIRE
 66
1
 10
0.0
 20
0.0
 30
0.0
 0
VERTEX
 8
WIRE
 10
226.0600
 20
295.4020
 30
0.0
 0
VERTEX
 8
WIRE
 10
241.3000
 20
295.4020
 30
0.0
 0
SEQEND
 8
WIRE
 0
POLYLINE
 8
WIRE
 66
1
 10
0.0
 20
0.0
 30
0.0
 0
VERTEX
 8
WIRE
 10
241.3000
 20
295.4020
 30
0.0
 0
VERTEX
 8
WIRE
 10
241.3000
 20
305.5620
 30
0.0
 0
SEQEND
 8
WIRE
 0
POLYLINE
 8
WIRE
 66
1
 10
0.0
 20
0.0
 30
0.0
 0
VERTEX
 8
WIRE
 10
271.7800
 20
305.5620
 30
0.0
 0
VERTEX
 8
WIRE
 10
259.0800
 20
305.5620
 30
0.0
 0
SEQEND
 8
WIRE
 0
POLYLINE
 8
WIRE
 66
1
 70
1
 10
0.0
 20
0.0
 30
0.0
 40
  0.5080
 41
  0.5080
 0
VERTEX
 8
WIRE
 10
258.8260
 20
305.5620
 30
0.0
 42
1.0
 0
VERTEX
 8
WIRE
 10
259.3340
 20
305.5620
 30
0.0
 42
1.0
 0
SEQEND
 8
WIRE
 0
POLYLINE
 8
WIRE
 66
1
 10
0.0
 20
0.0
 30
0.0
 0
VERTEX
 8
WIRE
 10
139.7000
 20
249.6820
 30
0.0
 0
VERTEX
 8
WIRE
 10
139.7000
 20
277.6220
 30
0.0
 0
SEQEND
 8
WIRE
 0
POLYLINE
 8
WIRE
 66
1
 10
0.0
 20
0.0
 30
0.0
 0
VERTEX
 8
WIRE
 10
271.7800
 20
300.4820
 30
0.0
 0
VERTEX
 8
WIRE
 10
259.0800
 20
300.4820
 30
0.0
 0
SEQEND
 8
WIRE
 0
POLYLINE
 8
WIRE
 66
1
 70
1
 10
0.0
 20
0.0
 30
0.0
 40
  0.5080
 41
  0.5080
 0
VERTEX
 8
WIRE
 10
258.8260
 20
300.4820
 30
0.0
 42
1.0
 0
VERTEX
 8
WIRE
 10
259.3340
 20
300.4820
 30
0.0
 42
1.0
 0
SEQEND
 8
WIRE
 0
POLYLINE
 8
WIRE
 66
1
 10
0.0
 20
0.0
 30
0.0
 0
VERTEX
 8
WIRE
 10
259.0800
 20
308.1020
 30
0.0
 0
VERTEX
 8
WIRE
 10
254.0000
 20
308.1020
 30
0.0
 0
SEQEND
 8
WIRE
 0
POLYLINE
 8
WIRE
 66
1
 10
0.0
 20
0.0
 30
0.0
 0
VERTEX
 8
WIRE
 10
271.7800
 20
272.5420
 30
0.0
 0
VERTEX
 8
WIRE
 10
259.0800
 20
272.5420
 30
0.0
 0
SEQEND
 8
WIRE
 0
POLYLINE
 8
WIRE
 66
1
 10
0.0
 20
0.0
 30
0.0
 0
VERTEX
 8
WIRE
 10
271.7800
 20
277.6220
 30
0.0
 0
VERTEX
 8
WIRE
 10
259.0800
 20
277.6220
 30
0.0
 0
SEQEND
 8
WIRE
 0
POLYLINE
 8
WIRE
 66
1
 10
0.0
 20
0.0
 30
0.0
 0
VERTEX
 8
WIRE
 10
259.0800
 20
270.0020
 30
0.0
 0
VERTEX
 8
WIRE
 10
248.9200
 20
270.0020
 30
0.0
 0
SEQEND
 8
WIRE
 0
POLYLINE
 8
WIRE
 66
1
 10
0.0
 20
0.0
 30
0.0
 0
VERTEX
 8
WIRE
 10
271.7800
 20
275.0820
 30
0.0
 0
VERTEX
 8
WIRE
 10
259.0800
 20
275.0820
 30
0.0
 0
SEQEND
 8
WIRE
 0
POLYLINE
 8
WIRE
 66
1
 10
0.0
 20
0.0
 30
0.0
 0
VERTEX
 8
WIRE
 10
271.7800
 20
280.1620
 30
0.0
 0
VERTEX
 8
WIRE
 10
259.0800
 20
280.1620
 30
0.0
 0
SEQEND
 8
WIRE
 0
POLYLINE
 8
WIRE
 66
1
 10
0.0
 20
0.0
 30
0.0
 0
VERTEX
 8
WIRE
 10
261.6200
 20
346.2020
 30
0.0
 0
VERTEX
 8
WIRE
 10
261.6200
 20
348.7420
 30
0.0
 0
SEQEND
 8
WIRE
 0
POLYLINE
 8
WIRE
 66
1
 10
0.0
 20
0.0
 30
0.0
 0
VERTEX
 8
WIRE
 10
215.9000
 20
231.9020
 30
0.0
 0
VERTEX
 8
WIRE
 10
203.2000
 20
231.9020
 30
0.0
 0
SEQEND
 8
WIRE
 0
POLYLINE
 8
WIRE
 66
1
 10
0.0
 20
0.0
 30
0.0
 0
VERTEX
 8
WIRE
 10
203.2000
 20
229.3620
 30
0.0
 0
VERTEX
 8
WIRE
 10
203.2000
 20
231.9020
 30
0.0
 0
SEQEND
 8
WIRE
 0
POLYLINE
 8
WIRE
 66
1
 10
0.0
 20
0.0
 30
0.0
 0
VERTEX
 8
WIRE
 10
223.5200
 20
358.9020
 30
0.0
 0
VERTEX
 8
WIRE
 10
215.9000
 20
358.9020
 30
0.0
 0
SEQEND
 8
WIRE
 0
TEXT
 8
WIRETEXT
 10
215.9000
 20
359.6640
 30
0.0
 40
  1.3057
 1
reset
 0
POLYLINE
 8
WIRE
 66
1
 10
0.0
 20
0.0
 30
0.0
 0
VERTEX
 8
WIRE
 10
223.5200
 20
351.2820
 30
0.0
 0
VERTEX
 8
WIRE
 10
215.9000
 20
351.2820
 30
0.0
 0
SEQEND
 8
WIRE
 0
TEXT
 8
WIRETEXT
 10
215.9000
 20
352.0440
 30
0.0
 40
  1.3057
 1
PGD
 0
POLYLINE
 8
WIRE
 66
1
 10
0.0
 20
0.0
 30
0.0
 0
VERTEX
 8
WIRE
 10
223.5200
 20
348.7420
 30
0.0
 0
VERTEX
 8
WIRE
 10
215.9000
 20
348.7420
 30
0.0
 0
SEQEND
 8
WIRE
 0
TEXT
 8
WIRETEXT
 10
215.9000
 20
349.5040
 30
0.0
 40
  1.3057
 1
PGC
 0
POLYLINE
 8
WIRE
 66
1
 10
0.0
 20
0.0
 30
0.0
 0
VERTEX
 8
WIRE
 10
210.8200
 20
351.2820
 30
0.0
 0
VERTEX
 8
WIRE
 10
210.8200
 20
353.8220
 30
0.0
 0
SEQEND
 8
WIRE
 0
POLYLINE
 8
WIRE
 66
1
 10
0.0
 20
0.0
 30
0.0
 0
VERTEX
 8
WIRE
 10
223.5200
 20
356.3620
 30
0.0
 0
VERTEX
 8
WIRE
 10
210.8200
 20
356.3620
 30
0.0
 0
SEQEND
 8
WIRE
 0
POLYLINE
 8
WIRE
 66
1
 10
0.0
 20
0.0
 30
0.0
 0
VERTEX
 8
WIRE
 10
223.5200
 20
353.8220
 30
0.0
 0
VERTEX
 8
WIRE
 10
210.8200
 20
353.8220
 30
0.0
 0
SEQEND
 8
WIRE
 0
POLYLINE
 8
WIRE
 66
1
 10
0.0
 20
0.0
 30
0.0
 0
VERTEX
 8
WIRE
 10
271.7800
 20
348.7420
 30
0.0
 0
VERTEX
 8
WIRE
 10
261.6200
 20
348.7420
 30
0.0
 0
SEQEND
 8
WIRE
 0
POLYLINE
 8
WIRE
 66
1
 10
0.0
 20
0.0
 30
0.0
 0
VERTEX
 8
WIRE
 10
182.8800
 20
348.7420
 30
0.0
 0
VERTEX
 8
WIRE
 10
172.7200
 20
348.7420
 30
0.0
 0
SEQEND
 8
WIRE
 0
POLYLINE
 8
WIRE
 66
1
 70
1
 10
0.0
 20
0.0
 30
0.0
 40
  0.5080
 41
  0.5080
 0
VERTEX
 8
WIRE
 10
172.4660
 20
348.7420
 30
0.0
 42
1.0
 0
VERTEX
 8
WIRE
 10
172.9740
 20
348.7420
 30
0.0
 42
1.0
 0
SEQEND
 8
WIRE
 0
TEXT
 8
WIRETEXT
 10
177.8000
 20
349.5040
 30
0.0
 40
  1.3057
 1
OSC2
 0
POLYLINE
 8
WIRE
 66
1
 10
0.0
 20
0.0
 30
0.0
 0
VERTEX
 8
WIRE
 10
162.5600
 20
348.7420
 30
0.0
 0
VERTEX
 8
WIRE
 10
162.5600
 20
353.8220
 30
0.0
 0
SEQEND
 8
WIRE
 0
POLYLINE
 8
WIRE
 66
1
 10
0.0
 20
0.0
 30
0.0
 0
VERTEX
 8
WIRE
 10
160.0200
 20
351.2820
 30
0.0
 0
VERTEX
 8
WIRE
 10
160.0200
 20
353.8220
 30
0.0
 0
SEQEND
 8
WIRE
 0
POLYLINE
 8
WIRE
 66
1
 10
0.0
 20
0.0
 30
0.0
 0
VERTEX
 8
WIRE
 10
162.5600
 20
353.8220
 30
0.0
 0
VERTEX
 8
WIRE
 10
160.0200
 20
353.8220
 30
0.0
 0
SEQEND
 8
WIRE
 0
POLYLINE
 8
WIRE
 66
1
 70
1
 10
0.0
 20
0.0
 30
0.0
 40
  0.5080
 41
  0.5080
 0
VERTEX
 8
WIRE
 10
162.3060
 20
353.8220
 30
0.0
 42
1.0
 0
VERTEX
 8
WIRE
 10
162.8140
 20
353.8220
 30
0.0
 42
1.0
 0
SEQEND
 8
WIRE
 0
POLYLINE
 8
WIRE
 66
1
 10
0.0
 20
0.0
 30
0.0
 0
VERTEX
 8
WIRE
 10
172.7200
 20
358.9020
 30
0.0
 0
VERTEX
 8
WIRE
 10
170.1800
 20
358.9020
 30
0.0
 0
SEQEND
 8
WIRE
 0
POLYLINE
 8
WIRE
 66
1
 10
0.0
 20
0.0
 30
0.0
 0
VERTEX
 8
WIRE
 10
162.5600
 20
353.8220
 30
0.0
 0
VERTEX
 8
WIRE
 10
162.5600
 20
358.9020
 30
0.0
 0
SEQEND
 8
WIRE
 0
POLYLINE
 8
WIRE
 66
1
 10
0.0
 20
0.0
 30
0.0
 0
VERTEX
 8
WIRE
 10
182.8800
 20
358.9020
 30
0.0
 0
VERTEX
 8
WIRE
 10
172.7200
 20
358.9020
 30
0.0
 0
SEQEND
 8
WIRE
 0
POLYLINE
 8
WIRE
 66
1
 70
1
 10
0.0
 20
0.0
 30
0.0
 40
  0.5080
 41
  0.5080
 0
VERTEX
 8
WIRE
 10
172.4660
 20
358.9020
 30
0.0
 42
1.0
 0
VERTEX
 8
WIRE
 10
172.9740
 20
358.9020
 30
0.0
 42
1.0
 0
SEQEND
 8
WIRE
 0
TEXT
 8
WIRETEXT
 10
177.8000
 20
359.6640
 30
0.0
 40
  1.3057
 1
OSC1
 0
POLYLINE
 8
WIRE
 66
1
 10
0.0
 20
0.0
 30
0.0
 0
VERTEX
 8
WIRE
 10
172.7200
 20
348.7420
 30
0.0
 0
VERTEX
 8
WIRE
 10
170.1800
 20
348.7420
 30
0.0
 0
SEQEND
 8
WIRE
 0
POLYLINE
 8
WIRE
 66
1
 10
0.0
 20
0.0
 30
0.0
 0
VERTEX
 8
WIRE
 10
121.9200
 20
348.7420
 30
0.0
 0
VERTEX
 8
WIRE
 10
116.8400
 20
348.7420
 30
0.0
 0
SEQEND
 8
WIRE
 0
POLYLINE
 8
WIRE
 66
1
 70
1
 10
0.0
 20
0.0
 30
0.0
 40
  0.5080
 41
  0.5080
 0
VERTEX
 8
WIRE
 10
116.5860
 20
348.7420
 30
0.0
 42
1.0
 0
VERTEX
 8
WIRE
 10
117.0940
 20
348.7420
 30
0.0
 42
1.0
 0
SEQEND
 8
WIRE
 0
POLYLINE
 8
WIRE
 66
1
 10
0.0
 20
0.0
 30
0.0
 0
VERTEX
 8
WIRE
 10
116.8400
 20
348.7420
 30
0.0
 0
VERTEX
 8
WIRE
 10
114.3000
 20
348.7420
 30
0.0
 0
SEQEND
 8
WIRE
 0
POLYLINE
 8
WIRE
 66
1
 10
0.0
 20
0.0
 30
0.0
 0
VERTEX
 8
WIRE
 10
101.6000
 20
348.7420
 30
0.0
 0
VERTEX
 8
WIRE
 10
101.6000
 20
361.4420
 30
0.0
 0
SEQEND
 8
WIRE
 0
POLYLINE
 8
WIRE
 66
1
 70
1
 10
0.0
 20
0.0
 30
0.0
 40
  0.5080
 41
  0.5080
 0
VERTEX
 8
WIRE
 10
101.3460
 20
361.4420
 30
0.0
 42
1.0
 0
VERTEX
 8
WIRE
 10
101.8540
 20
361.4420
 30
0.0
 42
1.0
 0
SEQEND
 8
WIRE
 0
POLYLINE
 8
WIRE
 66
1
 10
0.0
 20
0.0
 30
0.0
 0
VERTEX
 8
WIRE
 10
114.3000
 20
358.9020
 30
0.0
 0
VERTEX
 8
WIRE
 10
114.3000
 20
361.4420
 30
0.0
 0
SEQEND
 8
WIRE
 0
POLYLINE
 8
WIRE
 66
1
 10
0.0
 20
0.0
 30
0.0
 0
VERTEX
 8
WIRE
 10
139.7000
 20
348.7420
 30
0.0
 0
VERTEX
 8
WIRE
 10
139.7000
 20
351.2820
 30
0.0
 0
SEQEND
 8
WIRE
 0
POLYLINE
 8
WIRE
 66
1
 10
0.0
 20
0.0
 30
0.0
 0
VERTEX
 8
WIRE
 10
139.7000
 20
348.7420
 30
0.0
 0
VERTEX
 8
WIRE
 10
134.6200
 20
348.7420
 30
0.0
 0
SEQEND
 8
WIRE
 0
POLYLINE
 8
WIRE
 66
1
 10
0.0
 20
0.0
 30
0.0
 0
VERTEX
 8
WIRE
 10
101.6000
 20
361.4420
 30
0.0
 0
VERTEX
 8
WIRE
 10
 93.9800
 20
361.4420
 30
0.0
 0
SEQEND
 8
WIRE
 0
TEXT
 8
WIRETEXT
 10
 93.9800
 20
362.2040
 30
0.0
 40
  1.3057
 1
reset
 0
POLYLINE
 8
WIRE
 66
1
 10
0.0
 20
0.0
 30
0.0
 0
VERTEX
 8
WIRE
 10
157.4800
 20
275.0820
 30
0.0
 0
VERTEX
 8
WIRE
 10
149.8600
 20
275.0820
 30
0.0
 0
SEQEND
 8
WIRE
 0
TEXT
 8
WIRETEXT
 10
149.8600
 20
275.8440
 30
0.0
 40
  1.3057
 1
OSC2
 0
POLYLINE
 8
WIRE
 66
1
 10
0.0
 20
0.0
 30
0.0
 0
VERTEX
 8
WIRE
 10
157.4800
 20
272.5420
 30
0.0
 0
VERTEX
 8
WIRE
 10
149.8600
 20
272.5420
 30
0.0
 0
SEQEND
 8
WIRE
 0
TEXT
 8
WIRETEXT
 10
149.8600
 20
273.3040
 30
0.0
 40
  1.3057
 1
OSC1
 0
POLYLINE
 8
WIRE
 66
1
 10
0.0
 20
0.0
 30
0.0
 0
VERTEX
 8
WIRE
 10
121.9200
 20
247.1420
 30
0.0
 0
VERTEX
 8
WIRE
 10
121.9200
 20
249.6820
 30
0.0
 0
SEQEND
 8
WIRE
 0
POLYLINE
 8
WIRE
 66
1
 10
0.0
 20
0.0
 30
0.0
 0
VERTEX
 8
WIRE
 10
121.9200
 20
249.6820
 30
0.0
 0
VERTEX
 8
WIRE
 10
109.2200
 20
249.6820
 30
0.0
 0
SEQEND
 8
WIRE
 0
POLYLINE
 8
WIRE
 66
1
 10
0.0
 20
0.0
 30
0.0
 0
VERTEX
 8
WIRE
 10
109.2200
 20
247.1420
 30
0.0
 0
VERTEX
 8
WIRE
 10
109.2200
 20
242.0620
 30
0.0
 0
SEQEND
 8
WIRE
 0
POLYLINE
 8
WIRE
 66
1
 10
0.0
 20
0.0
 30
0.0
 0
VERTEX
 8
WIRE
 10
114.3000
 20
242.0620
 30
0.0
 0
VERTEX
 8
WIRE
 10
109.2200
 20
242.0620
 30
0.0
 0
SEQEND
 8
WIRE
 0
POLYLINE
 8
WIRE
 66
1
 10
0.0
 20
0.0
 30
0.0
 0
VERTEX
 8
WIRE
 10
114.3000
 20
270.0020
 30
0.0
 0
VERTEX
 8
WIRE
 10
114.3000
 20
272.5420
 30
0.0
 0
SEQEND
 8
WIRE
 0
POLYLINE
 8
WIRE
 66
1
 10
0.0
 20
0.0
 30
0.0
 0
VERTEX
 8
WIRE
 10
114.3000
 20
270.0020
 30
0.0
 0
VERTEX
 8
WIRE
 10
109.2200
 20
270.0020
 30
0.0
 0
SEQEND
 8
WIRE
 0
POLYLINE
 8
WIRE
 66
1
 10
0.0
 20
0.0
 30
0.0
 0
VERTEX
 8
WIRE
 10
121.9200
 20
270.0020
 30
0.0
 0
VERTEX
 8
WIRE
 10
121.9200
 20
272.5420
 30
0.0
 0
SEQEND
 8
WIRE
 0
POLYLINE
 8
WIRE
 66
1
 10
0.0
 20
0.0
 30
0.0
 0
VERTEX
 8
WIRE
 10
121.9200
 20
272.5420
 30
0.0
 0
VERTEX
 8
WIRE
 10
116.8400
 20
272.5420
 30
0.0
 0
SEQEND
 8
WIRE
 0
POLYLINE
 8
WIRE
 66
1
 10
0.0
 20
0.0
 30
0.0
 0
VERTEX
 8
WIRE
 10
116.8400
 20
272.5420
 30
0.0
 0
VERTEX
 8
WIRE
 10
116.8400
 20
267.4620
 30
0.0
 0
SEQEND
 8
WIRE
 0
POLYLINE
 8
WIRE
 66
1
 10
0.0
 20
0.0
 30
0.0
 0
VERTEX
 8
WIRE
 10
116.8400
 20
267.4620
 30
0.0
 0
VERTEX
 8
WIRE
 10
109.2200
 20
267.4620
 30
0.0
 0
SEQEND
 8
WIRE
 0
POLYLINE
 8
WIRE
 66
1
 10
0.0
 20
0.0
 30
0.0
 0
VERTEX
 8
WIRE
 10
127.0000
 20
262.3820
 30
0.0
 0
VERTEX
 8
WIRE
 10
109.2200
 20
262.3820
 30
0.0
 0
SEQEND
 8
WIRE
 0
POLYLINE
 8
WIRE
 66
1
 10
0.0
 20
0.0
 30
0.0
 0
VERTEX
 8
WIRE
 10
129.5400
 20
259.8420
 30
0.0
 0
VERTEX
 8
WIRE
 10
116.8400
 20
259.8420
 30
0.0
 0
SEQEND
 8
WIRE
 0
POLYLINE
 8
WIRE
 66
1
 70
1
 10
0.0
 20
0.0
 30
0.0
 40
  0.5080
 41
  0.5080
 0
VERTEX
 8
WIRE
 10
116.5860
 20
259.8420
 30
0.0
 42
1.0
 0
VERTEX
 8
WIRE
 10
117.0940
 20
259.8420
 30
0.0
 42
1.0
 0
SEQEND
 8
WIRE
 0
POLYLINE
 8
WIRE
 66
1
 10
0.0
 20
0.0
 30
0.0
 0
VERTEX
 8
WIRE
 10
132.0800
 20
257.3020
 30
0.0
 0
VERTEX
 8
WIRE
 10
109.2200
 20
257.3020
 30
0.0
 0
SEQEND
 8
WIRE
 0
POLYLINE
 8
WIRE
 66
1
 10
0.0
 20
0.0
 30
0.0
 0
VERTEX
 8
WIRE
 10
134.6200
 20
254.7620
 30
0.0
 0
VERTEX
 8
WIRE
 10
109.2200
 20
254.7620
 30
0.0
 0
SEQEND
 8
WIRE
 0
POLYLINE
 8
WIRE
 66
1
 10
0.0
 20
0.0
 30
0.0
 0
VERTEX
 8
WIRE
 10
137.1600
 20
252.2220
 30
0.0
 0
VERTEX
 8
WIRE
 10
109.2200
 20
252.2220
 30
0.0
 0
SEQEND
 8
WIRE
 0
POLYLINE
 8
WIRE
 66
1
 10
0.0
 20
0.0
 30
0.0
 0
VERTEX
 8
WIRE
 10
124.4600
 20
264.9220
 30
0.0
 0
VERTEX
 8
WIRE
 10
109.2200
 20
264.9220
 30
0.0
 0
SEQEND
 8
WIRE
 0
POLYLINE
 8
WIRE
 66
1
 10
0.0
 20
0.0
 30
0.0
 0
VERTEX
 8
WIRE
 10
124.4600
 20
249.6820
 30
0.0
 0
VERTEX
 8
WIRE
 10
124.4600
 20
264.9220
 30
0.0
 0
SEQEND
 8
WIRE
 0
POLYLINE
 8
WIRE
 66
1
 10
0.0
 20
0.0
 30
0.0
 0
VERTEX
 8
WIRE
 10
139.7000
 20
249.6820
 30
0.0
 0
VERTEX
 8
WIRE
 10
124.4600
 20
249.6820
 30
0.0
 0
SEQEND
 8
WIRE
 0
POLYLINE
 8
WIRE
 66
1
 10
0.0
 20
0.0
 30
0.0
 0
VERTEX
 8
WIRE
 10
134.6200
 20
254.7620
 30
0.0
 0
VERTEX
 8
WIRE
 10
134.6200
 20
282.7020
 30
0.0
 0
SEQEND
 8
WIRE
 0
POLYLINE
 8
WIRE
 66
1
 10
0.0
 20
0.0
 30
0.0
 0
VERTEX
 8
WIRE
 10
111.7600
 20
320.8020
 30
0.0
 0
VERTEX
 8
WIRE
 10
111.7600
 20
318.2620
 30
0.0
 0
SEQEND
 8
WIRE
 0
POLYLINE
 8
WIRE
 66
1
 10
0.0
 20
0.0
 30
0.0
 0
VERTEX
 8
WIRE
 10
111.7600
 20
318.2620
 30
0.0
 0
VERTEX
 8
WIRE
 10
109.2200
 20
318.2620
 30
0.0
 0
SEQEND
 8
WIRE
 0
POLYLINE
 8
WIRE
 66
1
 10
0.0
 20
0.0
 30
0.0
 0
VERTEX
 8
WIRE
 10
119.3800
 20
320.8020
 30
0.0
 0
VERTEX
 8
WIRE
 10
119.3800
 20
318.2620
 30
0.0
 0
SEQEND
 8
WIRE
 0
POLYLINE
 8
WIRE
 66
1
 10
0.0
 20
0.0
 30
0.0
 0
VERTEX
 8
WIRE
 10
119.3800
 20
320.8020
 30
0.0
 0
VERTEX
 8
WIRE
 10
114.3000
 20
320.8020
 30
0.0
 0
SEQEND
 8
WIRE
 0
POLYLINE
 8
WIRE
 66
1
 10
0.0
 20
0.0
 30
0.0
 0
VERTEX
 8
WIRE
 10
114.3000
 20
315.7220
 30
0.0
 0
VERTEX
 8
WIRE
 10
114.3000
 20
320.8020
 30
0.0
 0
SEQEND
 8
WIRE
 0
POLYLINE
 8
WIRE
 66
1
 10
0.0
 20
0.0
 30
0.0
 0
VERTEX
 8
WIRE
 10
114.3000
 20
315.7220
 30
0.0
 0
VERTEX
 8
WIRE
 10
109.2200
 20
315.7220
 30
0.0
 0
SEQEND
 8
WIRE
 0
POLYLINE
 8
WIRE
 66
1
 10
0.0
 20
0.0
 30
0.0
 0
VERTEX
 8
WIRE
 10
116.8400
 20
287.7820
 30
0.0
 0
VERTEX
 8
WIRE
 10
116.8400
 20
292.8620
 30
0.0
 0
SEQEND
 8
WIRE
 0
POLYLINE
 8
WIRE
 66
1
 10
0.0
 20
0.0
 30
0.0
 0
VERTEX
 8
WIRE
 10
116.8400
 20
292.8620
 30
0.0
 0
VERTEX
 8
WIRE
 10
109.2200
 20
292.8620
 30
0.0
 0
SEQEND
 8
WIRE
 0
POLYLINE
 8
WIRE
 66
1
 10
0.0
 20
0.0
 30
0.0
 0
VERTEX
 8
WIRE
 10
109.2200
 20
285.2420
 30
0.0
 0
VERTEX
 8
WIRE
 10
109.2200
 20
290.3220
 30
0.0
 0
SEQEND
 8
WIRE
 0
POLYLINE
 8
WIRE
 66
1
 10
0.0
 20
0.0
 30
0.0
 0
VERTEX
 8
WIRE
 10
111.7600
 20
285.2420
 30
0.0
 0
VERTEX
 8
WIRE
 10
109.2200
 20
285.2420
 30
0.0
 0
SEQEND
 8
WIRE
 0
POLYLINE
 8
WIRE
 66
1
 10
0.0
 20
0.0
 30
0.0
 0
VERTEX
 8
WIRE
 10
259.0800
 20
244.6020
 30
0.0
 0
VERTEX
 8
WIRE
 10
248.9200
 20
244.6020
 30
0.0
 0
SEQEND
 8
WIRE
 0
POLYLINE
 8
WIRE
 66
1
 10
0.0
 20
0.0
 30
0.0
 0
VERTEX
 8
WIRE
 10
271.7800
 20
252.2220
 30
0.0
 0
VERTEX
 8
WIRE
 10
259.0800
 20
252.2220
 30
0.0
 0
SEQEND
 8
WIRE
 0
POLYLINE
 8
WIRE
 66
1
 70
1
 10
0.0
 20
0.0
 30
0.0
 40
  0.5080
 41
  0.5080
 0
VERTEX
 8
WIRE
 10
258.8260
 20
252.2220
 30
0.0
 42
1.0
 0
VERTEX
 8
WIRE
 10
259.3340
 20
252.2220
 30
0.0
 42
1.0
 0
SEQEND
 8
WIRE
 0
POLYLINE
 8
WIRE
 66
1
 10
0.0
 20
0.0
 30
0.0
 0
VERTEX
 8
WIRE
 10
271.7800
 20
249.6820
 30
0.0
 0
VERTEX
 8
WIRE
 10
259.0800
 20
249.6820
 30
0.0
 0
SEQEND
 8
WIRE
 0
POLYLINE
 8
WIRE
 66
1
 70
1
 10
0.0
 20
0.0
 30
0.0
 40
  0.5080
 41
  0.5080
 0
VERTEX
 8
WIRE
 10
258.8260
 20
249.6820
 30
0.0
 42
1.0
 0
VERTEX
 8
WIRE
 10
259.3340
 20
249.6820
 30
0.0
 42
1.0
 0
SEQEND
 8
WIRE
 0
POLYLINE
 8
WIRE
 66
1
 10
0.0
 20
0.0
 30
0.0
 0
VERTEX
 8
WIRE
 10
271.7800
 20
247.1420
 30
0.0
 0
VERTEX
 8
WIRE
 10
259.0800
 20
247.1420
 30
0.0
 0
SEQEND
 8
WIRE
 0
POLYLINE
 8
WIRE
 66
1
 70
1
 10
0.0
 20
0.0
 30
0.0
 40
  0.5080
 41
  0.5080
 0
VERTEX
 8
WIRE
 10
258.8260
 20
247.1420
 30
0.0
 42
1.0
 0
VERTEX
 8
WIRE
 10
259.3340
 20
247.1420
 30
0.0
 42
1.0
 0
SEQEND
 8
WIRE
 0
POLYLINE
 8
WIRE
 66
1
 10
0.0
 20
0.0
 30
0.0
 0
VERTEX
 8
WIRE
 10
259.0800
 20
236.9820
 30
0.0
 0
VERTEX
 8
WIRE
 10
259.0800
 20
242.0620
 30
0.0
 0
SEQEND
 8
WIRE
 0
POLYLINE
 8
WIRE
 66
1
 10
0.0
 20
0.0
 30
0.0
 0
VERTEX
 8
WIRE
 10
259.0800
 20
236.9820
 30
0.0
 0
VERTEX
 8
WIRE
 10
256.5400
 20
236.9820
 30
0.0
 0
SEQEND
 8
WIRE
 0
POLYLINE
 8
WIRE
 66
1
 10
0.0
 20
0.0
 30
0.0
 0
VERTEX
 8
WIRE
 10
271.7800
 20
244.6020
 30
0.0
 0
VERTEX
 8
WIRE
 10
259.0800
 20
244.6020
 30
0.0
 0
SEQEND
 8
WIRE
 0
POLYLINE
 8
WIRE
 66
1
 70
1
 10
0.0
 20
0.0
 30
0.0
 40
  0.5080
 41
  0.5080
 0
VERTEX
 8
WIRE
 10
258.8260
 20
244.6020
 30
0.0
 42
1.0
 0
VERTEX
 8
WIRE
 10
259.3340
 20
244.6020
 30
0.0
 42
1.0
 0
SEQEND
 8
WIRE
 0
POLYLINE
 8
WIRE
 66
1
 10
0.0
 20
0.0
 30
0.0
 0
VERTEX
 8
WIRE
 10
248.9200
 20
242.0620
 30
0.0
 0
VERTEX
 8
WIRE
 10
248.9200
 20
244.6020
 30
0.0
 0
SEQEND
 8
WIRE
 0
POLYLINE
 8
WIRE
 66
1
 10
0.0
 20
0.0
 30
0.0
 0
VERTEX
 8
WIRE
 10
259.0800
 20
305.5620
 30
0.0
 0
VERTEX
 8
WIRE
 10
241.3000
 20
305.5620
 30
0.0
 0
SEQEND
 8
WIRE
 0
POLYLINE
 8
WIRE
 66
1
 10
0.0
 20
0.0
 30
0.0
 0
VERTEX
 8
WIRE
 10
226.0600
 20
267.4620
 30
0.0
 0
VERTEX
 8
WIRE
 10
231.1400
 20
267.4620
 30
0.0
 0
SEQEND
 8
WIRE
 0
TEXT
 8
WIRETEXT
 10
226.0600
 20
268.2240
 30
0.0
 40
  1.3057
 1
E0
 0
POLYLINE
 8
WIRE
 66
1
 10
0.0
 20
0.0
 30
0.0
 0
VERTEX
 8
WIRE
 10
226.0600
 20
264.9220
 30
0.0
 0
VERTEX
 8
WIRE
 10
231.1400
 20
264.9220
 30
0.0
 0
SEQEND
 8
WIRE
 0
TEXT
 8
WIRETEXT
 10
226.0600
 20
265.6840
 30
0.0
 40
  1.3057
 1
E1
 0
POLYLINE
 8
WIRE
 66
1
 10
0.0
 20
0.0
 30
0.0
 0
VERTEX
 8
WIRE
 10
226.0600
 20
262.3820
 30
0.0
 0
VERTEX
 8
WIRE
 10
231.1400
 20
262.3820
 30
0.0
 0
SEQEND
 8
WIRE
 0
TEXT
 8
WIRETEXT
 10
226.0600
 20
263.1440
 30
0.0
 40
  1.3057
 1
E2
 0
POLYLINE
 8
WIRE
 66
1
 10
0.0
 20
0.0
 30
0.0
 0
VERTEX
 8
WIRE
 10
254.0000
 20
252.2220
 30
0.0
 0
VERTEX
 8
WIRE
 10
259.0800
 20
252.2220
 30
0.0
 0
SEQEND
 8
WIRE
 0
TEXT
 8
WIRETEXT
 10
254.0000
 20
252.9840
 30
0.0
 40
  1.3057
 1
E0
 0
POLYLINE
 8
WIRE
 66
1
 10
0.0
 20
0.0
 30
0.0
 0
VERTEX
 8
WIRE
 10
254.0000
 20
249.6820
 30
0.0
 0
VERTEX
 8
WIRE
 10
259.0800
 20
249.6820
 30
0.0
 0
SEQEND
 8
WIRE
 0
TEXT
 8
WIRETEXT
 10
254.0000
 20
250.4440
 30
0.0
 40
  1.3057
 1
E1
 0
POLYLINE
 8
WIRE
 66
1
 10
0.0
 20
0.0
 30
0.0
 0
VERTEX
 8
WIRE
 10
254.0000
 20
247.1420
 30
0.0
 0
VERTEX
 8
WIRE
 10
259.0800
 20
247.1420
 30
0.0
 0
SEQEND
 8
WIRE
 0
TEXT
 8
WIRETEXT
 10
254.0000
 20
247.9040
 30
0.0
 40
  1.3057
 1
E2
 0
POLYLINE
 8
WIRE
 66
1
 10
0.0
 20
0.0
 30
0.0
 0
VERTEX
 8
WIRE
 10
226.0600
 20
313.1820
 30
0.0
 0
VERTEX
 8
WIRE
 10
231.1400
 20
313.1820
 30
0.0
 0
SEQEND
 8
WIRE
 0
TEXT
 8
WIRETEXT
 10
226.0600
 20
313.9440
 30
0.0
 40
  1.3057
 1
C0
 0
POLYLINE
 8
WIRE
 66
1
 10
0.0
 20
0.0
 30
0.0
 0
VERTEX
 8
WIRE
 10
226.0600
 20
310.6420
 30
0.0
 0
VERTEX
 8
WIRE
 10
231.1400
 20
310.6420
 30
0.0
 0
SEQEND
 8
WIRE
 0
TEXT
 8
WIRETEXT
 10
226.0600
 20
311.4040
 30
0.0
 40
  1.3057
 1
C1
 0
POLYLINE
 8
WIRE
 66
1
 10
0.0
 20
0.0
 30
0.0
 0
VERTEX
 8
WIRE
 10
226.0600
 20
308.1020
 30
0.0
 0
VERTEX
 8
WIRE
 10
231.1400
 20
308.1020
 30
0.0
 0
SEQEND
 8
WIRE
 0
TEXT
 8
WIRETEXT
 10
226.0600
 20
308.8640
 30
0.0
 40
  1.3057
 1
C2
 0
POLYLINE
 8
WIRE
 66
1
 10
0.0
 20
0.0
 30
0.0
 0
VERTEX
 8
WIRE
 10
226.0600
 20
305.5620
 30
0.0
 0
VERTEX
 8
WIRE
 10
231.1400
 20
305.5620
 30
0.0
 0
SEQEND
 8
WIRE
 0
TEXT
 8
WIRETEXT
 10
226.0600
 20
306.3240
 30
0.0
 40
  1.3057
 1
C3
 0
POLYLINE
 8
WIRE
 66
1
 10
0.0
 20
0.0
 30
0.0
 0
VERTEX
 8
WIRE
 10
215.9000
 20
229.3620
 30
0.0
 0
VERTEX
 8
WIRE
 10
210.8200
 20
229.3620
 30
0.0
 0
SEQEND
 8
WIRE
 0
TEXT
 8
WIRETEXT
 10
213.3600
 20
230.1240
 30
0.0
 40
  1.3057
 1
C0
 0
POLYLINE
 8
WIRE
 66
1
 10
0.0
 20
0.0
 30
0.0
 0
VERTEX
 8
WIRE
 10
215.9000
 20
226.8220
 30
0.0
 0
VERTEX
 8
WIRE
 10
210.8200
 20
226.8220
 30
0.0
 0
SEQEND
 8
WIRE
 0
TEXT
 8
WIRETEXT
 10
213.3600
 20
227.5840
 30
0.0
 40
  1.3057
 1
C1
 0
POLYLINE
 8
WIRE
 66
1
 10
0.0
 20
0.0
 30
0.0
 0
VERTEX
 8
WIRE
 10
215.9000
 20
224.2820
 30
0.0
 0
VERTEX
 8
WIRE
 10
210.8200
 20
224.2820
 30
0.0
 0
SEQEND
 8
WIRE
 0
TEXT
 8
WIRETEXT
 10
213.3600
 20
225.0440
 30
0.0
 40
  1.3057
 1
C2
 0
POLYLINE
 8
WIRE
 66
1
 10
0.0
 20
0.0
 30
0.0
 0
VERTEX
 8
WIRE
 10
215.9000
 20
221.7420
 30
0.0
 0
VERTEX
 8
WIRE
 10
210.8200
 20
221.7420
 30
0.0
 0
SEQEND
 8
WIRE
 0
TEXT
 8
WIRETEXT
 10
213.3600
 20
222.5040
 30
0.0
 40
  1.3057
 1
C3
 0
POLYLINE
 8
WIRE
 66
1
 10
0.0
 20
0.0
 30
0.0
 0
VERTEX
 8
WIRE
 10
116.8400
 20
259.8420
 30
0.0
 0
VERTEX
 8
WIRE
 10
109.2200
 20
259.8420
 30
0.0
 0
SEQEND
 8
WIRE
 0
POLYLINE
 8
PARTS
 66
1
 10
0.0
 20
0.0
 30
0.0
 0
VERTEX
 8
PARTS
 10
248.9200
 20
292.8620
 30
0.0
 0
VERTEX
 8
PARTS
 10
254.0000
 20
292.8620
 30
0.0
 0
SEQEND
 8
PARTS
 0
POLYLINE
 8
PARTS
 66
1
 10
0.0
 20
0.0
 30
0.0
 0
VERTEX
 8
PARTS
 10
249.6820
 20
292.1000
 30
0.0
 0
VERTEX
 8
PARTS
 10
253.2380
 20
292.1000
 30
0.0
 0
SEQEND
 8
PARTS
 0
POLYLINE
 8
PARTS
 66
1
 10
0.0
 20
0.0
 30
0.0
 0
VERTEX
 8
PARTS
 10
252.4760
 20
291.3380
 30
0.0
 0
VERTEX
 8
PARTS
 10
250.4440
 20
291.3380
 30
0.0
 0
SEQEND
 8
PARTS
 0
POLYLINE
 8
PARTS
 66
1
 10
0.0
 20
0.0
 30
0.0
 0
VERTEX
 8
PARTS
 10
251.2060
 20
290.5760
 30
0.0
 0
VERTEX
 8
PARTS
 10
251.7140
 20
290.5760
 30
0.0
 0
SEQEND
 8
PARTS
 0
TEXT
 8
PARTTEXT
 10
254.0000
 20
291.5263
 30
0.0
 40
  1.3057
 1
5V
 0
POLYLINE
 8
PARTS
 66
1
 10
0.0
 20
0.0
 30
0.0
 0
VERTEX
 8
PARTS
 10
256.5400
 20
288.7980
 30
0.0
 0
VERTEX
 8
PARTS
 10
256.5400
 20
287.7820
 30
0.0
 0
SEQEND
 8
PARTS
 0
POLYLINE
 8
PARTS
 66
1
 70
1
 10
0.0
 20
0.0
 30
0.0
 0
VERTEX
 8
PARTS
 10
257.3020
 20
289.5600
 30
0.0
 42
  0.0985
 0
VERTEX
 8
PARTS
 10
257.2440
 20
289.8516
 30
0.0
 42
  0.0985
 0
VERTEX
 8
PARTS
 10
257.0788
 20
290.0988
 30
0.0
 42
  0.0985
 0
VERTEX
 8
PARTS
 10
256.8316
 20
290.2640
 30
0.0
 42
  0.0985
 0
VERTEX
 8
PARTS
 10
256.5400
 20
290.3220
 30
0.0
 42
  0.0985
 0
VERTEX
 8
PARTS
 10
256.2484
 20
290.2640
 30
0.0
 42
  0.0985
 0
VERTEX
 8
PARTS
 10
256.0012
 20
290.0988
 30
0.0
 42
  0.0985
 0
VERTEX
 8
PARTS
 10
255.8360
 20
289.8516
 30
0.0
 42
  0.0985
 0
VERTEX
 8
PARTS
 10
255.7780
 20
289.5600
 30
0.0
 42
  0.0985
 0
VERTEX
 8
PARTS
 10
255.8360
 20
289.2684
 30
0.0
 42
  0.0985
 0
VERTEX
 8
PARTS
 10
256.0012
 20
289.0212
 30
0.0
 42
  0.0985
 0
VERTEX
 8
PARTS
 10
256.2484
 20
288.8560
 30
0.0
 42
  0.0985
 0
VERTEX
 8
PARTS
 10
256.5400
 20
288.7980
 30
0.0
 42
  0.0985
 0
VERTEX
 8
PARTS
 10
256.8316
 20
288.8560
 30
0.0
 42
  0.0985
 0
VERTEX
 8
PARTS
 10
257.0788
 20
289.0212
 30
0.0
 42
  0.0985
 0
VERTEX
 8
PARTS
 10
257.2440
 20
289.2684
 30
0.0
 42
  0.0985
 0
SEQEND
 8
PARTS
 0
POLYLINE
 8
PARTS
 66
1
 10
0.0
 20
0.0
 30
0.0
 0
VERTEX
 8
PARTS
 10
223.5200
 20
158.2420
 30
0.0
 0
VERTEX
 8
PARTS
 10
218.4400
 20
158.2420
 30
0.0
 0
SEQEND
 8
PARTS
 0
POLYLINE
 8
PARTS
 66
1
 10
0.0
 20
0.0
 30
0.0
 0
VERTEX
 8
PARTS
 10
222.7580
 20
157.4800
 30
0.0
 0
VERTEX
 8
PARTS
 10
219.2020
 20
157.4800
 30
0.0
 0
SEQEND
 8
PARTS
 0
POLYLINE
 8
PARTS
 66
1
 10
0.0
 20
0.0
 30
0.0
 0
VERTEX
 8
PARTS
 10
219.9640
 20
156.7180
 30
0.0
 0
VERTEX
 8
PARTS
 10
221.9960
 20
156.7180
 30
0.0
 0
SEQEND
 8
PARTS
 0
POLYLINE
 8
PARTS
 66
1
 10
0.0
 20
0.0
 30
0.0
 0
VERTEX
 8
PARTS
 10
221.2340
 20
155.9560
 30
0.0
 0
VERTEX
 8
PARTS
 10
220.7260
 20
155.9560
 30
0.0
 0
SEQEND
 8
PARTS
 0
POLYLINE
 8
PARTS
 66
1
 10
0.0
 20
0.0
 30
0.0
 0
VERTEX
 8
PARTS
 10
142.2400
 20
158.2420
 30
0.0
 0
VERTEX
 8
PARTS
 10
137.1600
 20
158.2420
 30
0.0
 0
SEQEND
 8
PARTS
 0
POLYLINE
 8
PARTS
 66
1
 10
0.0
 20
0.0
 30
0.0
 0
VERTEX
 8
PARTS
 10
141.4780
 20
157.4800
 30
0.0
 0
VERTEX
 8
PARTS
 10
137.9220
 20
157.4800
 30
0.0
 0
SEQEND
 8
PARTS
 0
POLYLINE
 8
PARTS
 66
1
 10
0.0
 20
0.0
 30
0.0
 0
VERTEX
 8
PARTS
 10
138.6840
 20
156.7180
 30
0.0
 0
VERTEX
 8
PARTS
 10
140.7160
 20
156.7180
 30
0.0
 0
SEQEND
 8
PARTS
 0
POLYLINE
 8
PARTS
 66
1
 10
0.0
 20
0.0
 30
0.0
 0
VERTEX
 8
PARTS
 10
139.9540
 20
155.9560
 30
0.0
 0
VERTEX
 8
PARTS
 10
139.4460
 20
155.9560
 30
0.0
 0
SEQEND
 8
PARTS
 0
POLYLINE
 8
PARTS
 66
1
 10
0.0
 20
0.0
 30
0.0
 0
VERTEX
 8
PARTS
 10
198.1200
 20
158.2420
 30
0.0
 0
VERTEX
 8
PARTS
 10
193.0400
 20
158.2420
 30
0.0
 0
SEQEND
 8
PARTS
 0
POLYLINE
 8
PARTS
 66
1
 10
0.0
 20
0.0
 30
0.0
 0
VERTEX
 8
PARTS
 10
197.3580
 20
157.4800
 30
0.0
 0
VERTEX
 8
PARTS
 10
193.8020
 20
157.4800
 30
0.0
 0
SEQEND
 8
PARTS
 0
POLYLINE
 8
PARTS
 66
1
 10
0.0
 20
0.0
 30
0.0
 0
VERTEX
 8
PARTS
 10
194.5640
 20
156.7180
 30
0.0
 0
VERTEX
 8
PARTS
 10
196.5960
 20
156.7180
 30
0.0
 0
SEQEND
 8
PARTS
 0
POLYLINE
 8
PARTS
 66
1
 10
0.0
 20
0.0
 30
0.0
 0
VERTEX
 8
PARTS
 10
195.8340
 20
155.9560
 30
0.0
 0
VERTEX
 8
PARTS
 10
195.3260
 20
155.9560
 30
0.0
 0
SEQEND
 8
PARTS
 0
POLYLINE
 8
PARTS
 66
1
 10
0.0
 20
0.0
 30
0.0
 0
VERTEX
 8
PARTS
 10
109.2200
 20
173.4820
 30
0.0
 0
VERTEX
 8
PARTS
 10
104.1400
 20
173.4820
 30
0.0
 0
SEQEND
 8
PARTS
 0
POLYLINE
 8
PARTS
 66
1
 10
0.0
 20
0.0
 30
0.0
 0
VERTEX
 8
PARTS
 10
108.4580
 20
172.7200
 30
0.0
 0
VERTEX
 8
PARTS
 10
104.9020
 20
172.7200
 30
0.0
 0
SEQEND
 8
PARTS
 0
POLYLINE
 8
PARTS
 66
1
 10
0.0
 20
0.0
 30
0.0
 0
VERTEX
 8
PARTS
 10
105.6640
 20
171.9580
 30
0.0
 0
VERTEX
 8
PARTS
 10
107.6960
 20
171.9580
 30
0.0
 0
SEQEND
 8
PARTS
 0
POLYLINE
 8
PARTS
 66
1
 10
0.0
 20
0.0
 30
0.0
 0
VERTEX
 8
PARTS
 10
106.9340
 20
171.1960
 30
0.0
 0
VERTEX
 8
PARTS
 10
106.4260
 20
171.1960
 30
0.0
 0
SEQEND
 8
PARTS
 0
POLYLINE
 8
PARTS
 66
1
 10
0.0
 20
0.0
 30
0.0
 0
VERTEX
 8
PARTS
 10
165.1000
 20
158.2420
 30
0.0
 0
VERTEX
 8
PARTS
 10
160.0200
 20
158.2420
 30
0.0
 0
SEQEND
 8
PARTS
 0
POLYLINE
 8
PARTS
 66
1
 10
0.0
 20
0.0
 30
0.0
 0
VERTEX
 8
PARTS
 10
164.3380
 20
157.4800
 30
0.0
 0
VERTEX
 8
PARTS
 10
160.7820
 20
157.4800
 30
0.0
 0
SEQEND
 8
PARTS
 0
POLYLINE
 8
PARTS
 66
1
 10
0.0
 20
0.0
 30
0.0
 0
VERTEX
 8
PARTS
 10
161.5440
 20
156.7180
 30
0.0
 0
VERTEX
 8
PARTS
 10
163.5760
 20
156.7180
 30
0.0
 0
SEQEND
 8
PARTS
 0
POLYLINE
 8
PARTS
 66
1
 10
0.0
 20
0.0
 30
0.0
 0
VERTEX
 8
PARTS
 10
162.8140
 20
155.9560
 30
0.0
 0
VERTEX
 8
PARTS
 10
162.3060
 20
155.9560
 30
0.0
 0
SEQEND
 8
PARTS
 0
POLYLINE
 8
PARTS
 66
1
 10
0.0
 20
0.0
 30
0.0
 0
VERTEX
 8
PARTS
 10
114.3000
 20
158.2420
 30
0.0
 0
VERTEX
 8
PARTS
 10
109.2200
 20
158.2420
 30
0.0
 0
SEQEND
 8
PARTS
 0
POLYLINE
 8
PARTS
 66
1
 10
0.0
 20
0.0
 30
0.0
 0
VERTEX
 8
PARTS
 10
113.5380
 20
157.4800
 30
0.0
 0
VERTEX
 8
PARTS
 10
109.9820
 20
157.4800
 30
0.0
 0
SEQEND
 8
PARTS
 0
POLYLINE
 8
PARTS
 66
1
 10
0.0
 20
0.0
 30
0.0
 0
VERTEX
 8
PARTS
 10
110.7440
 20
156.7180
 30
0.0
 0
VERTEX
 8
PARTS
 10
112.7760
 20
156.7180
 30
0.0
 0
SEQEND
 8
PARTS
 0
POLYLINE
 8
PARTS
 66
1
 10
0.0
 20
0.0
 30
0.0
 0
VERTEX
 8
PARTS
 10
112.0140
 20
155.9560
 30
0.0
 0
VERTEX
 8
PARTS
 10
111.5060
 20
155.9560
 30
0.0
 0
SEQEND
 8
PARTS
 0
POLYLINE
 8
PARTS
 66
1
 10
0.0
 20
0.0
 30
0.0
 0
VERTEX
 8
PARTS
 10
238.7600
 20
158.2420
 30
0.0
 0
VERTEX
 8
PARTS
 10
233.6800
 20
158.2420
 30
0.0
 0
SEQEND
 8
PARTS
 0
POLYLINE
 8
PARTS
 66
1
 10
0.0
 20
0.0
 30
0.0
 0
VERTEX
 8
PARTS
 10
237.9980
 20
157.4800
 30
0.0
 0
VERTEX
 8
PARTS
 10
234.4420
 20
157.4800
 30
0.0
 0
SEQEND
 8
PARTS
 0
POLYLINE
 8
PARTS
 66
1
 10
0.0
 20
0.0
 30
0.0
 0
VERTEX
 8
PARTS
 10
235.2040
 20
156.7180
 30
0.0
 0
VERTEX
 8
PARTS
 10
237.2360
 20
156.7180
 30
0.0
 0
SEQEND
 8
PARTS
 0
POLYLINE
 8
PARTS
 66
1
 10
0.0
 20
0.0
 30
0.0
 0
VERTEX
 8
PARTS
 10
236.4740
 20
155.9560
 30
0.0
 0
VERTEX
 8
PARTS
 10
235.9660
 20
155.9560
 30
0.0
 0
SEQEND
 8
PARTS
 0
POLYLINE
 8
PARTS
 66
1
 10
0.0
 20
0.0
 30
0.0
 0
VERTEX
 8
PARTS
 10
205.7400
 20
143.0020
 30
0.0
 0
VERTEX
 8
PARTS
 10
210.8200
 20
143.0020
 30
0.0
 0
SEQEND
 8
PARTS
 0
POLYLINE
 8
PARTS
 66
1
 10
0.0
 20
0.0
 30
0.0
 0
VERTEX
 8
PARTS
 10
206.5020
 20
142.2400
 30
0.0
 0
VERTEX
 8
PARTS
 10
210.0580
 20
142.2400
 30
0.0
 0
SEQEND
 8
PARTS
 0
POLYLINE
 8
PARTS
 66
1
 10
0.0
 20
0.0
 30
0.0
 0
VERTEX
 8
PARTS
 10
209.2960
 20
141.4780
 30
0.0
 0
VERTEX
 8
PARTS
 10
207.2640
 20
141.4780
 30
0.0
 0
SEQEND
 8
PARTS
 0
POLYLINE
 8
PARTS
 66
1
 10
0.0
 20
0.0
 30
0.0
 0
VERTEX
 8
PARTS
 10
208.0260
 20
140.7160
 30
0.0
 0
VERTEX
 8
PARTS
 10
208.5340
 20
140.7160
 30
0.0
 0
SEQEND
 8
PARTS
 0
POLYLINE
 8
PARTS
 66
1
 10
0.0
 20
0.0
 30
0.0
 0
VERTEX
 8
PARTS
 10
 43.1800
 20
150.6220
 30
0.0
 0
VERTEX
 8
PARTS
 10
 48.2600
 20
150.6220
 30
0.0
 0
SEQEND
 8
PARTS
 0
POLYLINE
 8
PARTS
 66
1
 10
0.0
 20
0.0
 30
0.0
 0
VERTEX
 8
PARTS
 10
 43.9420
 20
149.8600
 30
0.0
 0
VERTEX
 8
PARTS
 10
 47.4980
 20
149.8600
 30
0.0
 0
SEQEND
 8
PARTS
 0
POLYLINE
 8
PARTS
 66
1
 10
0.0
 20
0.0
 30
0.0
 0
VERTEX
 8
PARTS
 10
 46.7360
 20
149.0980
 30
0.0
 0
VERTEX
 8
PARTS
 10
 44.7040
 20
149.0980
 30
0.0
 0
SEQEND
 8
PARTS
 0
POLYLINE
 8
PARTS
 66
1
 10
0.0
 20
0.0
 30
0.0
 0
VERTEX
 8
PARTS
 10
 45.4660
 20
148.3360
 30
0.0
 0
VERTEX
 8
PARTS
 10
 45.9740
 20
148.3360
 30
0.0
 0
SEQEND
 8
PARTS
 0
TEXT
 8
PARTTEXT
 10
 43.1800
 20
187.3863
 30
0.0
 40
  1.3057
 1
5V
 0
POLYLINE
 8
PARTS
 66
1
 10
0.0
 20
0.0
 30
0.0
 0
VERTEX
 8
PARTS
 10
 45.7200
 20
184.6580
 30
0.0
 0
VERTEX
 8
PARTS
 10
 45.7200
 20
183.6420
 30
0.0
 0
SEQEND
 8
PARTS
 0
POLYLINE
 8
PARTS
 66
1
 70
1
 10
0.0
 20
0.0
 30
0.0
 0
VERTEX
 8
PARTS
 10
 46.4820
 20
185.4200
 30
0.0
 42
  0.0985
 0
VERTEX
 8
PARTS
 10
 46.4240
 20
185.7116
 30
0.0
 42
  0.0985
 0
VERTEX
 8
PARTS
 10
 46.2588
 20
185.9588
 30
0.0
 42
  0.0985
 0
VERTEX
 8
PARTS
 10
 46.0116
 20
186.1240
 30
0.0
 42
  0.0985
 0
VERTEX
 8
PARTS
 10
 45.7200
 20
186.1820
 30
0.0
 42
  0.0985
 0
VERTEX
 8
PARTS
 10
 45.4284
 20
186.1240
 30
0.0
 42
  0.0985
 0
VERTEX
 8
PARTS
 10
 45.1812
 20
185.9588
 30
0.0
 42
  0.0985
 0
VERTEX
 8
PARTS
 10
 45.0160
 20
185.7116
 30
0.0
 42
  0.0985
 0
VERTEX
 8
PARTS
 10
 44.9580
 20
185.4200
 30
0.0
 42
  0.0985
 0
VERTEX
 8
PARTS
 10
 45.0160
 20
185.1284
 30
0.0
 42
  0.0985
 0
VERTEX
 8
PARTS
 10
 45.1812
 20
184.8812
 30
0.0
 42
  0.0985
 0
VERTEX
 8
PARTS
 10
 45.4284
 20
184.7160
 30
0.0
 42
  0.0985
 0
VERTEX
 8
PARTS
 10
 45.7200
 20
184.6580
 30
0.0
 42
  0.0985
 0
VERTEX
 8
PARTS
 10
 46.0116
 20
184.7160
 30
0.0
 42
  0.0985
 0
VERTEX
 8
PARTS
 10
 46.2588
 20
184.8812
 30
0.0
 42
  0.0985
 0
VERTEX
 8
PARTS
 10
 46.4240
 20
185.1284
 30
0.0
 42
  0.0985
 0
SEQEND
 8
PARTS
 0
POLYLINE
 8
PARTS
 66
1
 10
0.0
 20
0.0
 30
0.0
 0
VERTEX
 8
PARTS
 10
307.3400
 20
178.5620
 30
0.0
 0
VERTEX
 8
PARTS
 10
312.4200
 20
178.5620
 30
0.0
 0
SEQEND
 8
PARTS
 0
POLYLINE
 8
PARTS
 66
1
 10
0.0
 20
0.0
 30
0.0
 0
VERTEX
 8
PARTS
 10
308.1020
 20
177.8000
 30
0.0
 0
VERTEX
 8
PARTS
 10
311.6580
 20
177.8000
 30
0.0
 0
SEQEND
 8
PARTS
 0
POLYLINE
 8
PARTS
 66
1
 10
0.0
 20
0.0
 30
0.0
 0
VERTEX
 8
PARTS
 10
310.8960
 20
177.0380
 30
0.0
 0
VERTEX
 8
PARTS
 10
308.8640
 20
177.0380
 30
0.0
 0
SEQEND
 8
PARTS
 0
POLYLINE
 8
PARTS
 66
1
 10
0.0
 20
0.0
 30
0.0
 0
VERTEX
 8
PARTS
 10
309.6260
 20
176.2760
 30
0.0
 0
VERTEX
 8
PARTS
 10
310.1340
 20
176.2760
 30
0.0
 0
SEQEND
 8
PARTS
 0
TEXT
 8
PARTTEXT
 10
330.2000
 20
155.8903
 30
0.0
 40
  1.3057
 1
5V
 0
POLYLINE
 8
PARTS
 66
1
 10
0.0
 20
0.0
 30
0.0
 0
VERTEX
 8
PARTS
 10
328.6760
 20
155.7020
 30
0.0
 0
VERTEX
 8
PARTS
 10
327.6600
 20
155.7020
 30
0.0
 0
SEQEND
 8
PARTS
 0
POLYLINE
 8
PARTS
 66
1
 70
1
 10
0.0
 20
0.0
 30
0.0
 0
VERTEX
 8
PARTS
 10
330.2000
 20
155.7020
 30
0.0
 42
  0.0985
 0
VERTEX
 8
PARTS
 10
330.1420
 20
155.9936
 30
0.0
 42
  0.0985
 0
VERTEX
 8
PARTS
 10
329.9768
 20
156.2408
 30
0.0
 42
  0.0985
 0
VERTEX
 8
PARTS
 10
329.7296
 20
156.4060
 30
0.0
 42
  0.0985
 0
VERTEX
 8
PARTS
 10
329.4380
 20
156.4640
 30
0.0
 42
  0.0985
 0
VERTEX
 8
PARTS
 10
329.1464
 20
156.4060
 30
0.0
 42
  0.0985
 0
VERTEX
 8
PARTS
 10
328.8992
 20
156.2408
 30
0.0
 42
  0.0985
 0
VERTEX
 8
PARTS
 10
328.7340
 20
155.9936
 30
0.0
 42
  0.0985
 0
VERTEX
 8
PARTS
 10
328.6760
 20
155.7020
 30
0.0
 42
  0.0985
 0
VERTEX
 8
PARTS
 10
328.7340
 20
155.4104
 30
0.0
 42
  0.0985
 0
VERTEX
 8
PARTS
 10
328.8992
 20
155.1632
 30
0.0
 42
  0.0985
 0
VERTEX
 8
PARTS
 10
329.1464
 20
154.9980
 30
0.0
 42
  0.0985
 0
VERTEX
 8
PARTS
 10
329.4380
 20
154.9400
 30
0.0
 42
  0.0985
 0
VERTEX
 8
PARTS
 10
329.7296
 20
154.9980
 30
0.0
 42
  0.0985
 0
VERTEX
 8
PARTS
 10
329.9768
 20
155.1632
 30
0.0
 42
  0.0985
 0
VERTEX
 8
PARTS
 10
330.1420
 20
155.4104
 30
0.0
 42
  0.0985
 0
SEQEND
 8
PARTS
 0
POLYLINE
 8
PARTS
 66
1
 10
0.0
 20
0.0
 30
0.0
 0
VERTEX
 8
PARTS
 10
154.9400
 20
249.6820
 30
0.0
 0
VERTEX
 8
PARTS
 10
160.0200
 20
249.6820
 30
0.0
 0
SEQEND
 8
PARTS
 0
POLYLINE
 8
PARTS
 66
1
 10
0.0
 20
0.0
 30
0.0
 0
VERTEX
 8
PARTS
 10
155.7020
 20
248.9200
 30
0.0
 0
VERTEX
 8
PARTS
 10
159.2580
 20
248.9200
 30
0.0
 0
SEQEND
 8
PARTS
 0
POLYLINE
 8
PARTS
 66
1
 10
0.0
 20
0.0
 30
0.0
 0
VERTEX
 8
PARTS
 10
158.4960
 20
248.1580
 30
0.0
 0
VERTEX
 8
PARTS
 10
156.4640
 20
248.1580
 30
0.0
 0
SEQEND
 8
PARTS
 0
POLYLINE
 8
PARTS
 66
1
 10
0.0
 20
0.0
 30
0.0
 0
VERTEX
 8
PARTS
 10
157.2260
 20
247.3960
 30
0.0
 0
VERTEX
 8
PARTS
 10
157.7340
 20
247.3960
 30
0.0
 0
SEQEND
 8
PARTS
 0
TEXT
 8
PARTTEXT
 10
230.8860
 20
253.4263
 30
0.0
 40
  1.3057
 1
5V
 0
POLYLINE
 8
PARTS
 66
1
 10
0.0
 20
0.0
 30
0.0
 0
VERTEX
 8
PARTS
 10
231.1400
 20
250.6980
 30
0.0
 0
VERTEX
 8
PARTS
 10
231.1400
 20
249.6820
 30
0.0
 0
SEQEND
 8
PARTS
 0
POLYLINE
 8
PARTS
 66
1
 70
1
 10
0.0
 20
0.0
 30
0.0
 0
VERTEX
 8
PARTS
 10
231.9020
 20
251.4600
 30
0.0
 42
  0.0985
 0
VERTEX
 8
PARTS
 10
231.8440
 20
251.7516
 30
0.0
 42
  0.0985
 0
VERTEX
 8
PARTS
 10
231.6788
 20
251.9988
 30
0.0
 42
  0.0985
 0
VERTEX
 8
PARTS
 10
231.4316
 20
252.1640
 30
0.0
 42
  0.0985
 0
VERTEX
 8
PARTS
 10
231.1400
 20
252.2220
 30
0.0
 42
  0.0985
 0
VERTEX
 8
PARTS
 10
230.8484
 20
252.1640
 30
0.0
 42
  0.0985
 0
VERTEX
 8
PARTS
 10
230.6012
 20
251.9988
 30
0.0
 42
  0.0985
 0
VERTEX
 8
PARTS
 10
230.4360
 20
251.7516
 30
0.0
 42
  0.0985
 0
VERTEX
 8
PARTS
 10
230.3780
 20
251.4600
 30
0.0
 42
  0.0985
 0
VERTEX
 8
PARTS
 10
230.4360
 20
251.1684
 30
0.0
 42
  0.0985
 0
VERTEX
 8
PARTS
 10
230.6012
 20
250.9212
 30
0.0
 42
  0.0985
 0
VERTEX
 8
PARTS
 10
230.8484
 20
250.7560
 30
0.0
 42
  0.0985
 0
VERTEX
 8
PARTS
 10
231.1400
 20
250.6980
 30
0.0
 42
  0.0985
 0
VERTEX
 8
PARTS
 10
231.4316
 20
250.7560
 30
0.0
 42
  0.0985
 0
VERTEX
 8
PARTS
 10
231.6788
 20
250.9212
 30
0.0
 42
  0.0985
 0
VERTEX
 8
PARTS
 10
231.8440
 20
251.1684
 30
0.0
 42
  0.0985
 0
SEQEND
 8
PARTS
 0
POLYLINE
 8
PARTS
 66
1
 10
0.0
 20
0.0
 30
0.0
 0
VERTEX
 8
PARTS
 10
246.3800
 20
310.6420
 30
0.0
 0
VERTEX
 8
PARTS
 10
251.4600
 20
310.6420
 30
0.0
 0
SEQEND
 8
PARTS
 0
POLYLINE
 8
PARTS
 66
1
 10
0.0
 20
0.0
 30
0.0
 0
VERTEX
 8
PARTS
 10
247.1420
 20
309.8800
 30
0.0
 0
VERTEX
 8
PARTS
 10
250.6980
 20
309.8800
 30
0.0
 0
SEQEND
 8
PARTS
 0
POLYLINE
 8
PARTS
 66
1
 10
0.0
 20
0.0
 30
0.0
 0
VERTEX
 8
PARTS
 10
249.9360
 20
309.1180
 30
0.0
 0
VERTEX
 8
PARTS
 10
247.9040
 20
309.1180
 30
0.0
 0
SEQEND
 8
PARTS
 0
POLYLINE
 8
PARTS
 66
1
 10
0.0
 20
0.0
 30
0.0
 0
VERTEX
 8
PARTS
 10
248.6660
 20
308.3560
 30
0.0
 0
VERTEX
 8
PARTS
 10
249.1740
 20
308.3560
 30
0.0
 0
SEQEND
 8
PARTS
 0
TEXT
 8
PARTTEXT
 10
254.0000
 20
316.9263
 30
0.0
 40
  1.3057
 1
5V
 0
POLYLINE
 8
PARTS
 66
1
 10
0.0
 20
0.0
 30
0.0
 0
VERTEX
 8
PARTS
 10
256.5400
 20
314.1980
 30
0.0
 0
VERTEX
 8
PARTS
 10
256.5400
 20
313.1820
 30
0.0
 0
SEQEND
 8
PARTS
 0
POLYLINE
 8
PARTS
 66
1
 70
1
 10
0.0
 20
0.0
 30
0.0
 0
VERTEX
 8
PARTS
 10
257.3020
 20
314.9600
 30
0.0
 42
  0.0985
 0
VERTEX
 8
PARTS
 10
257.2440
 20
315.2516
 30
0.0
 42
  0.0985
 0
VERTEX
 8
PARTS
 10
257.0788
 20
315.4988
 30
0.0
 42
  0.0985
 0
VERTEX
 8
PARTS
 10
256.8316
 20
315.6640
 30
0.0
 42
  0.0985
 0
VERTEX
 8
PARTS
 10
256.5400
 20
315.7220
 30
0.0
 42
  0.0985
 0
VERTEX
 8
PARTS
 10
256.2484
 20
315.6640
 30
0.0
 42
  0.0985
 0
VERTEX
 8
PARTS
 10
256.0012
 20
315.4988
 30
0.0
 42
  0.0985
 0
VERTEX
 8
PARTS
 10
255.8360
 20
315.2516
 30
0.0
 42
  0.0985
 0
VERTEX
 8
PARTS
 10
255.7780
 20
314.9600
 30
0.0
 42
  0.0985
 0
VERTEX
 8
PARTS
 10
255.8360
 20
314.6684
 30
0.0
 42
  0.0985
 0
VERTEX
 8
PARTS
 10
256.0012
 20
314.4212
 30
0.0
 42
  0.0985
 0
VERTEX
 8
PARTS
 10
256.2484
 20
314.2560
 30
0.0
 42
  0.0985
 0
VERTEX
 8
PARTS
 10
256.5400
 20
314.1980
 30
0.0
 42
  0.0985
 0
VERTEX
 8
PARTS
 10
256.8316
 20
314.2560
 30
0.0
 42
  0.0985
 0
VERTEX
 8
PARTS
 10
257.0788
 20
314.4212
 30
0.0
 42
  0.0985
 0
VERTEX
 8
PARTS
 10
257.2440
 20
314.6684
 30
0.0
 42
  0.0985
 0
SEQEND
 8
PARTS
 0
POLYLINE
 8
PARTS
 66
1
 10
0.0
 20
0.0
 30
0.0
 0
VERTEX
 8
PARTS
 10
200.6600
 20
214.1220
 30
0.0
 0
VERTEX
 8
PARTS
 10
205.7400
 20
214.1220
 30
0.0
 0
SEQEND
 8
PARTS
 0
POLYLINE
 8
PARTS
 66
1
 10
0.0
 20
0.0
 30
0.0
 0
VERTEX
 8
PARTS
 10
201.4220
 20
213.3600
 30
0.0
 0
VERTEX
 8
PARTS
 10
204.9780
 20
213.3600
 30
0.0
 0
SEQEND
 8
PARTS
 0
POLYLINE
 8
PARTS
 66
1
 10
0.0
 20
0.0
 30
0.0
 0
VERTEX
 8
PARTS
 10
204.2160
 20
212.5980
 30
0.0
 0
VERTEX
 8
PARTS
 10
202.1840
 20
212.5980
 30
0.0
 0
SEQEND
 8
PARTS
 0
POLYLINE
 8
PARTS
 66
1
 10
0.0
 20
0.0
 30
0.0
 0
VERTEX
 8
PARTS
 10
202.9460
 20
211.8360
 30
0.0
 0
VERTEX
 8
PARTS
 10
203.4540
 20
211.8360
 30
0.0
 0
SEQEND
 8
PARTS
 0
TEXT
 8
PARTTEXT
 10
210.8200
 20
215.3263
 30
0.0
 40
  1.3057
 1
5V
 0
POLYLINE
 8
PARTS
 66
1
 10
0.0
 20
0.0
 30
0.0
 0
VERTEX
 8
PARTS
 10
213.3600
 20
212.5980
 30
0.0
 0
VERTEX
 8
PARTS
 10
213.3600
 20
211.5820
 30
0.0
 0
SEQEND
 8
PARTS
 0
POLYLINE
 8
PARTS
 66
1
 70
1
 10
0.0
 20
0.0
 30
0.0
 0
VERTEX
 8
PARTS
 10
214.1220
 20
213.3600
 30
0.0
 42
  0.0985
 0
VERTEX
 8
PARTS
 10
214.0640
 20
213.6516
 30
0.0
 42
  0.0985
 0
VERTEX
 8
PARTS
 10
213.8988
 20
213.8988
 30
0.0
 42
  0.0985
 0
VERTEX
 8
PARTS
 10
213.6516
 20
214.0640
 30
0.0
 42
  0.0985
 0
VERTEX
 8
PARTS
 10
213.3600
 20
214.1220
 30
0.0
 42
  0.0985
 0
VERTEX
 8
PARTS
 10
213.0684
 20
214.0640
 30
0.0
 42
  0.0985
 0
VERTEX
 8
PARTS
 10
212.8212
 20
213.8988
 30
0.0
 42
  0.0985
 0
VERTEX
 8
PARTS
 10
212.6560
 20
213.6516
 30
0.0
 42
  0.0985
 0
VERTEX
 8
PARTS
 10
212.5980
 20
213.3600
 30
0.0
 42
  0.0985
 0
VERTEX
 8
PARTS
 10
212.6560
 20
213.0684
 30
0.0
 42
  0.0985
 0
VERTEX
 8
PARTS
 10
212.8212
 20
212.8212
 30
0.0
 42
  0.0985
 0
VERTEX
 8
PARTS
 10
213.0684
 20
212.6560
 30
0.0
 42
  0.0985
 0
VERTEX
 8
PARTS
 10
213.3600
 20
212.5980
 30
0.0
 42
  0.0985
 0
VERTEX
 8
PARTS
 10
213.6516
 20
212.6560
 30
0.0
 42
  0.0985
 0
VERTEX
 8
PARTS
 10
213.8988
 20
212.8212
 30
0.0
 42
  0.0985
 0
VERTEX
 8
PARTS
 10
214.0640
 20
213.0684
 30
0.0
 42
  0.0985
 0
SEQEND
 8
PARTS
 0
POLYLINE
 8
PARTS
 66
1
 10
0.0
 20
0.0
 30
0.0
 0
VERTEX
 8
PARTS
 10
200.6600
 20
229.3620
 30
0.0
 0
VERTEX
 8
PARTS
 10
205.7400
 20
229.3620
 30
0.0
 0
SEQEND
 8
PARTS
 0
POLYLINE
 8
PARTS
 66
1
 10
0.0
 20
0.0
 30
0.0
 0
VERTEX
 8
PARTS
 10
201.4220
 20
228.6000
 30
0.0
 0
VERTEX
 8
PARTS
 10
204.9780
 20
228.6000
 30
0.0
 0
SEQEND
 8
PARTS
 0
POLYLINE
 8
PARTS
 66
1
 10
0.0
 20
0.0
 30
0.0
 0
VERTEX
 8
PARTS
 10
204.2160
 20
227.8380
 30
0.0
 0
VERTEX
 8
PARTS
 10
202.1840
 20
227.8380
 30
0.0
 0
SEQEND
 8
PARTS
 0
POLYLINE
 8
PARTS
 66
1
 10
0.0
 20
0.0
 30
0.0
 0
VERTEX
 8
PARTS
 10
202.9460
 20
227.0760
 30
0.0
 0
VERTEX
 8
PARTS
 10
203.4540
 20
227.0760
 30
0.0
 0
SEQEND
 8
PARTS
 0
TEXT
 8
PARTTEXT
 10
210.8200
 20
238.1863
 30
0.0
 40
  1.3057
 1
5V
 0
POLYLINE
 8
PARTS
 66
1
 10
0.0
 20
0.0
 30
0.0
 0
VERTEX
 8
PARTS
 10
213.3600
 20
235.4580
 30
0.0
 0
VERTEX
 8
PARTS
 10
213.3600
 20
234.4420
 30
0.0
 0
SEQEND
 8
PARTS
 0
POLYLINE
 8
PARTS
 66
1
 70
1
 10
0.0
 20
0.0
 30
0.0
 0
VERTEX
 8
PARTS
 10
214.1220
 20
236.2200
 30
0.0
 42
  0.0985
 0
VERTEX
 8
PARTS
 10
214.0640
 20
236.5116
 30
0.0
 42
  0.0985
 0
VERTEX
 8
PARTS
 10
213.8988
 20
236.7588
 30
0.0
 42
  0.0985
 0
VERTEX
 8
PARTS
 10
213.6516
 20
236.9240
 30
0.0
 42
  0.0985
 0
VERTEX
 8
PARTS
 10
213.3600
 20
236.9820
 30
0.0
 42
  0.0985
 0
VERTEX
 8
PARTS
 10
213.0684
 20
236.9240
 30
0.0
 42
  0.0985
 0
VERTEX
 8
PARTS
 10
212.8212
 20
236.7588
 30
0.0
 42
  0.0985
 0
VERTEX
 8
PARTS
 10
212.6560
 20
236.5116
 30
0.0
 42
  0.0985
 0
VERTEX
 8
PARTS
 10
212.5980
 20
236.2200
 30
0.0
 42
  0.0985
 0
VERTEX
 8
PARTS
 10
212.6560
 20
235.9284
 30
0.0
 42
  0.0985
 0
VERTEX
 8
PARTS
 10
212.8212
 20
235.6812
 30
0.0
 42
  0.0985
 0
VERTEX
 8
PARTS
 10
213.0684
 20
235.5160
 30
0.0
 42
  0.0985
 0
VERTEX
 8
PARTS
 10
213.3600
 20
235.4580
 30
0.0
 42
  0.0985
 0
VERTEX
 8
PARTS
 10
213.6516
 20
235.5160
 30
0.0
 42
  0.0985
 0
VERTEX
 8
PARTS
 10
213.8988
 20
235.6812
 30
0.0
 42
  0.0985
 0
VERTEX
 8
PARTS
 10
214.0640
 20
235.9284
 30
0.0
 42
  0.0985
 0
SEQEND
 8
PARTS
 0
POLYLINE
 8
PARTS
 66
1
 10
0.0
 20
0.0
 30
0.0
 0
VERTEX
 8
PARTS
 10
246.3800
 20
267.4620
 30
0.0
 0
VERTEX
 8
PARTS
 10
251.4600
 20
267.4620
 30
0.0
 0
SEQEND
 8
PARTS
 0
POLYLINE
 8
PARTS
 66
1
 10
0.0
 20
0.0
 30
0.0
 0
VERTEX
 8
PARTS
 10
247.1420
 20
266.7000
 30
0.0
 0
VERTEX
 8
PARTS
 10
250.6980
 20
266.7000
 30
0.0
 0
SEQEND
 8
PARTS
 0
POLYLINE
 8
PARTS
 66
1
 10
0.0
 20
0.0
 30
0.0
 0
VERTEX
 8
PARTS
 10
249.9360
 20
265.9380
 30
0.0
 0
VERTEX
 8
PARTS
 10
247.9040
 20
265.9380
 30
0.0
 0
SEQEND
 8
PARTS
 0
POLYLINE
 8
PARTS
 66
1
 10
0.0
 20
0.0
 30
0.0
 0
VERTEX
 8
PARTS
 10
248.6660
 20
265.1760
 30
0.0
 0
VERTEX
 8
PARTS
 10
249.1740
 20
265.1760
 30
0.0
 0
SEQEND
 8
PARTS
 0
TEXT
 8
PARTTEXT
 10
254.0000
 20
266.1263
 30
0.0
 40
  1.3057
 1
5V
 0
POLYLINE
 8
PARTS
 66
1
 10
0.0
 20
0.0
 30
0.0
 0
VERTEX
 8
PARTS
 10
256.5400
 20
263.3980
 30
0.0
 0
VERTEX
 8
PARTS
 10
256.5400
 20
262.3820
 30
0.0
 0
SEQEND
 8
PARTS
 0
POLYLINE
 8
PARTS
 66
1
 70
1
 10
0.0
 20
0.0
 30
0.0
 0
VERTEX
 8
PARTS
 10
257.3020
 20
264.1600
 30
0.0
 42
  0.0985
 0
VERTEX
 8
PARTS
 10
257.2440
 20
264.4516
 30
0.0
 42
  0.0985
 0
VERTEX
 8
PARTS
 10
257.0788
 20
264.6988
 30
0.0
 42
  0.0985
 0
VERTEX
 8
PARTS
 10
256.8316
 20
264.8640
 30
0.0
 42
  0.0985
 0
VERTEX
 8
PARTS
 10
256.5400
 20
264.9220
 30
0.0
 42
  0.0985
 0
VERTEX
 8
PARTS
 10
256.2484
 20
264.8640
 30
0.0
 42
  0.0985
 0
VERTEX
 8
PARTS
 10
256.0012
 20
264.6988
 30
0.0
 42
  0.0985
 0
VERTEX
 8
PARTS
 10
255.8360
 20
264.4516
 30
0.0
 42
  0.0985
 0
VERTEX
 8
PARTS
 10
255.7780
 20
264.1600
 30
0.0
 42
  0.0985
 0
VERTEX
 8
PARTS
 10
255.8360
 20
263.8684
 30
0.0
 42
  0.0985
 0
VERTEX
 8
PARTS
 10
256.0012
 20
263.6212
 30
0.0
 42
  0.0985
 0
VERTEX
 8
PARTS
 10
256.2484
 20
263.4560
 30
0.0
 42
  0.0985
 0
VERTEX
 8
PARTS
 10
256.5400
 20
263.3980
 30
0.0
 42
  0.0985
 0
VERTEX
 8
PARTS
 10
256.8316
 20
263.4560
 30
0.0
 42
  0.0985
 0
VERTEX
 8
PARTS
 10
257.0788
 20
263.6212
 30
0.0
 42
  0.0985
 0
VERTEX
 8
PARTS
 10
257.2440
 20
263.8684
 30
0.0
 42
  0.0985
 0
SEQEND
 8
PARTS
 0
POLYLINE
 8
PARTS
 66
1
 10
0.0
 20
0.0
 30
0.0
 0
VERTEX
 8
PARTS
 10
259.0800
 20
346.2020
 30
0.0
 0
VERTEX
 8
PARTS
 10
264.1600
 20
346.2020
 30
0.0
 0
SEQEND
 8
PARTS
 0
POLYLINE
 8
PARTS
 66
1
 10
0.0
 20
0.0
 30
0.0
 0
VERTEX
 8
PARTS
 10
259.8420
 20
345.4400
 30
0.0
 0
VERTEX
 8
PARTS
 10
263.3980
 20
345.4400
 30
0.0
 0
SEQEND
 8
PARTS
 0
POLYLINE
 8
PARTS
 66
1
 10
0.0
 20
0.0
 30
0.0
 0
VERTEX
 8
PARTS
 10
262.6360
 20
344.6780
 30
0.0
 0
VERTEX
 8
PARTS
 10
260.6040
 20
344.6780
 30
0.0
 0
SEQEND
 8
PARTS
 0
POLYLINE
 8
PARTS
 66
1
 10
0.0
 20
0.0
 30
0.0
 0
VERTEX
 8
PARTS
 10
261.3660
 20
343.9160
 30
0.0
 0
VERTEX
 8
PARTS
 10
261.8740
 20
343.9160
 30
0.0
 0
SEQEND
 8
PARTS
 0
TEXT
 8
PARTTEXT
 10
269.2400
 20
342.3263
 30
0.0
 40
  1.3057
 1
5V
 0
POLYLINE
 8
PARTS
 66
1
 10
0.0
 20
0.0
 30
0.0
 0
VERTEX
 8
PARTS
 10
271.7800
 20
339.5980
 30
0.0
 0
VERTEX
 8
PARTS
 10
271.7800
 20
338.5820
 30
0.0
 0
SEQEND
 8
PARTS
 0
POLYLINE
 8
PARTS
 66
1
 70
1
 10
0.0
 20
0.0
 30
0.0
 0
VERTEX
 8
PARTS
 10
272.5420
 20
340.3600
 30
0.0
 42
  0.0985
 0
VERTEX
 8
PARTS
 10
272.4840
 20
340.6516
 30
0.0
 42
  0.0985
 0
VERTEX
 8
PARTS
 10
272.3188
 20
340.8988
 30
0.0
 42
  0.0985
 0
VERTEX
 8
PARTS
 10
272.0716
 20
341.0640
 30
0.0
 42
  0.0985
 0
VERTEX
 8
PARTS
 10
271.7800
 20
341.1220
 30
0.0
 42
  0.0985
 0
VERTEX
 8
PARTS
 10
271.4884
 20
341.0640
 30
0.0
 42
  0.0985
 0
VERTEX
 8
PARTS
 10
271.2412
 20
340.8988
 30
0.0
 42
  0.0985
 0
VERTEX
 8
PARTS
 10
271.0760
 20
340.6516
 30
0.0
 42
  0.0985
 0
VERTEX
 8
PARTS
 10
271.0180
 20
340.3600
 30
0.0
 42
  0.0985
 0
VERTEX
 8
PARTS
 10
271.0760
 20
340.0684
 30
0.0
 42
  0.0985
 0
VERTEX
 8
PARTS
 10
271.2412
 20
339.8212
 30
0.0
 42
  0.0985
 0
VERTEX
 8
PARTS
 10
271.4884
 20
339.6560
 30
0.0
 42
  0.0985
 0
VERTEX
 8
PARTS
 10
271.7800
 20
339.5980
 30
0.0
 42
  0.0985
 0
VERTEX
 8
PARTS
 10
272.0716
 20
339.6560
 30
0.0
 42
  0.0985
 0
VERTEX
 8
PARTS
 10
272.3188
 20
339.8212
 30
0.0
 42
  0.0985
 0
VERTEX
 8
PARTS
 10
272.4840
 20
340.0684
 30
0.0
 42
  0.0985
 0
SEQEND
 8
PARTS
 0
TEXT
 8
PARTTEXT
 10
297.1800
 20
273.7463
 30
0.0
 40
  1.3057
 1
5V
 0
POLYLINE
 8
PARTS
 66
1
 10
0.0
 20
0.0
 30
0.0
 0
VERTEX
 8
PARTS
 10
299.7200
 20
271.0180
 30
0.0
 0
VERTEX
 8
PARTS
 10
299.7200
 20
270.0020
 30
0.0
 0
SEQEND
 8
PARTS
 0
POLYLINE
 8
PARTS
 66
1
 70
1
 10
0.0
 20
0.0
 30
0.0
 0
VERTEX
 8
PARTS
 10
300.4820
 20
271.7800
 30
0.0
 42
  0.0985
 0
VERTEX
 8
PARTS
 10
300.4240
 20
272.0716
 30
0.0
 42
  0.0985
 0
VERTEX
 8
PARTS
 10
300.2588
 20
272.3188
 30
0.0
 42
  0.0985
 0
VERTEX
 8
PARTS
 10
300.0116
 20
272.4840
 30
0.0
 42
  0.0985
 0
VERTEX
 8
PARTS
 10
299.7200
 20
272.5420
 30
0.0
 42
  0.0985
 0
VERTEX
 8
PARTS
 10
299.4284
 20
272.4840
 30
0.0
 42
  0.0985
 0
VERTEX
 8
PARTS
 10
299.1812
 20
272.3188
 30
0.0
 42
  0.0985
 0
VERTEX
 8
PARTS
 10
299.0160
 20
272.0716
 30
0.0
 42
  0.0985
 0
VERTEX
 8
PARTS
 10
298.9580
 20
271.7800
 30
0.0
 42
  0.0985
 0
VERTEX
 8
PARTS
 10
299.0160
 20
271.4884
 30
0.0
 42
  0.0985
 0
VERTEX
 8
PARTS
 10
299.1812
 20
271.2412
 30
0.0
 42
  0.0985
 0
VERTEX
 8
PARTS
 10
299.4284
 20
271.0760
 30
0.0
 42
  0.0985
 0
VERTEX
 8
PARTS
 10
299.7200
 20
271.0180
 30
0.0
 42
  0.0985
 0
VERTEX
 8
PARTS
 10
300.0116
 20
271.0760
 30
0.0
 42
  0.0985
 0
VERTEX
 8
PARTS
 10
300.2588
 20
271.2412
 30
0.0
 42
  0.0985
 0
VERTEX
 8
PARTS
 10
300.4240
 20
271.4884
 30
0.0
 42
  0.0985
 0
SEQEND
 8
PARTS
 0
TEXT
 8
PARTTEXT
 10
297.1800
 20
311.8463
 30
0.0
 40
  1.3057
 1
5V
 0
POLYLINE
 8
PARTS
 66
1
 10
0.0
 20
0.0
 30
0.0
 0
VERTEX
 8
PARTS
 10
299.7200
 20
309.1180
 30
0.0
 0
VERTEX
 8
PARTS
 10
299.7200
 20
308.1020
 30
0.0
 0
SEQEND
 8
PARTS
 0
POLYLINE
 8
PARTS
 66
1
 70
1
 10
0.0
 20
0.0
 30
0.0
 0
VERTEX
 8
PARTS
 10
300.4820
 20
309.8800
 30
0.0
 42
  0.0985
 0
VERTEX
 8
PARTS
 10
300.4240
 20
310.1716
 30
0.0
 42
  0.0985
 0
VERTEX
 8
PARTS
 10
300.2588
 20
310.4188
 30
0.0
 42
  0.0985
 0
VERTEX
 8
PARTS
 10
300.0116
 20
310.5840
 30
0.0
 42
  0.0985
 0
VERTEX
 8
PARTS
 10
299.7200
 20
310.6420
 30
0.0
 42
  0.0985
 0
VERTEX
 8
PARTS
 10
299.4284
 20
310.5840
 30
0.0
 42
  0.0985
 0
VERTEX
 8
PARTS
 10
299.1812
 20
310.4188
 30
0.0
 42
  0.0985
 0
VERTEX
 8
PARTS
 10
299.0160
 20
310.1716
 30
0.0
 42
  0.0985
 0
VERTEX
 8
PARTS
 10
298.9580
 20
309.8800
 30
0.0
 42
  0.0985
 0
VERTEX
 8
PARTS
 10
299.0160
 20
309.5884
 30
0.0
 42
  0.0985
 0
VERTEX
 8
PARTS
 10
299.1812
 20
309.3412
 30
0.0
 42
  0.0985
 0
VERTEX
 8
PARTS
 10
299.4284
 20
309.1760
 30
0.0
 42
  0.0985
 0
VERTEX
 8
PARTS
 10
299.7200
 20
309.1180
 30
0.0
 42
  0.0985
 0
VERTEX
 8
PARTS
 10
300.0116
 20
309.1760
 30
0.0
 42
  0.0985
 0
VERTEX
 8
PARTS
 10
300.2588
 20
309.3412
 30
0.0
 42
  0.0985
 0
VERTEX
 8
PARTS
 10
300.4240
 20
309.5884
 30
0.0
 42
  0.0985
 0
SEQEND
 8
PARTS
 0
TEXT
 8
PARTTEXT
 10
208.2800
 20
360.1063
 30
0.0
 40
  1.3057
 1
5V
 0
POLYLINE
 8
PARTS
 66
1
 10
0.0
 20
0.0
 30
0.0
 0
VERTEX
 8
PARTS
 10
210.8200
 20
357.3780
 30
0.0
 0
VERTEX
 8
PARTS
 10
210.8200
 20
356.3620
 30
0.0
 0
SEQEND
 8
PARTS
 0
POLYLINE
 8
PARTS
 66
1
 70
1
 10
0.0
 20
0.0
 30
0.0
 0
VERTEX
 8
PARTS
 10
211.5820
 20
358.1400
 30
0.0
 42
  0.0985
 0
VERTEX
 8
PARTS
 10
211.5240
 20
358.4316
 30
0.0
 42
  0.0985
 0
VERTEX
 8
PARTS
 10
211.3588
 20
358.6788
 30
0.0
 42
  0.0985
 0
VERTEX
 8
PARTS
 10
211.1116
 20
358.8440
 30
0.0
 42
  0.0985
 0
VERTEX
 8
PARTS
 10
210.8200
 20
358.9020
 30
0.0
 42
  0.0985
 0
VERTEX
 8
PARTS
 10
210.5284
 20
358.8440
 30
0.0
 42
  0.0985
 0
VERTEX
 8
PARTS
 10
210.2812
 20
358.6788
 30
0.0
 42
  0.0985
 0
VERTEX
 8
PARTS
 10
210.1160
 20
358.4316
 30
0.0
 42
  0.0985
 0
VERTEX
 8
PARTS
 10
210.0580
 20
358.1400
 30
0.0
 42
  0.0985
 0
VERTEX
 8
PARTS
 10
210.1160
 20
357.8484
 30
0.0
 42
  0.0985
 0
VERTEX
 8
PARTS
 10
210.2812
 20
357.6012
 30
0.0
 42
  0.0985
 0
VERTEX
 8
PARTS
 10
210.5284
 20
357.4360
 30
0.0
 42
  0.0985
 0
VERTEX
 8
PARTS
 10
210.8200
 20
357.3780
 30
0.0
 42
  0.0985
 0
VERTEX
 8
PARTS
 10
211.1116
 20
357.4360
 30
0.0
 42
  0.0985
 0
VERTEX
 8
PARTS
 10
211.3588
 20
357.6012
 30
0.0
 42
  0.0985
 0
VERTEX
 8
PARTS
 10
211.5240
 20
357.8484
 30
0.0
 42
  0.0985
 0
SEQEND
 8
PARTS
 0
POLYLINE
 8
PARTS
 66
1
 10
0.0
 20
0.0
 30
0.0
 0
VERTEX
 8
PARTS
 10
208.2800
 20
351.2820
 30
0.0
 0
VERTEX
 8
PARTS
 10
213.3600
 20
351.2820
 30
0.0
 0
SEQEND
 8
PARTS
 0
POLYLINE
 8
PARTS
 66
1
 10
0.0
 20
0.0
 30
0.0
 0
VERTEX
 8
PARTS
 10
209.0420
 20
350.5200
 30
0.0
 0
VERTEX
 8
PARTS
 10
212.5980
 20
350.5200
 30
0.0
 0
SEQEND
 8
PARTS
 0
POLYLINE
 8
PARTS
 66
1
 10
0.0
 20
0.0
 30
0.0
 0
VERTEX
 8
PARTS
 10
211.8360
 20
349.7580
 30
0.0
 0
VERTEX
 8
PARTS
 10
209.8040
 20
349.7580
 30
0.0
 0
SEQEND
 8
PARTS
 0
POLYLINE
 8
PARTS
 66
1
 10
0.0
 20
0.0
 30
0.0
 0
VERTEX
 8
PARTS
 10
210.5660
 20
348.9960
 30
0.0
 0
VERTEX
 8
PARTS
 10
211.0740
 20
348.9960
 30
0.0
 0
SEQEND
 8
PARTS
 0
POLYLINE
 8
PARTS
 66
1
 10
0.0
 20
0.0
 30
0.0
 0
VERTEX
 8
PARTS
 10
157.4800
 20
351.2820
 30
0.0
 0
VERTEX
 8
PARTS
 10
162.5600
 20
351.2820
 30
0.0
 0
SEQEND
 8
PARTS
 0
POLYLINE
 8
PARTS
 66
1
 10
0.0
 20
0.0
 30
0.0
 0
VERTEX
 8
PARTS
 10
158.2420
 20
350.5200
 30
0.0
 0
VERTEX
 8
PARTS
 10
161.7980
 20
350.5200
 30
0.0
 0
SEQEND
 8
PARTS
 0
POLYLINE
 8
PARTS
 66
1
 10
0.0
 20
0.0
 30
0.0
 0
VERTEX
 8
PARTS
 10
161.0360
 20
349.7580
 30
0.0
 0
VERTEX
 8
PARTS
 10
159.0040
 20
349.7580
 30
0.0
 0
SEQEND
 8
PARTS
 0
POLYLINE
 8
PARTS
 66
1
 10
0.0
 20
0.0
 30
0.0
 0
VERTEX
 8
PARTS
 10
159.7660
 20
348.9960
 30
0.0
 0
VERTEX
 8
PARTS
 10
160.2740
 20
348.9960
 30
0.0
 0
SEQEND
 8
PARTS
 0
POLYLINE
 8
PARTS
 66
1
 10
0.0
 20
0.0
 30
0.0
 0
VERTEX
 8
PARTS
 10
119.3800
 20
341.1220
 30
0.0
 0
VERTEX
 8
PARTS
 10
114.3000
 20
341.1220
 30
0.0
 0
SEQEND
 8
PARTS
 0
POLYLINE
 8
PARTS
 66
1
 10
0.0
 20
0.0
 30
0.0
 0
VERTEX
 8
PARTS
 10
118.6180
 20
340.3600
 30
0.0
 0
VERTEX
 8
PARTS
 10
115.0620
 20
340.3600
 30
0.0
 0
SEQEND
 8
PARTS
 0
POLYLINE
 8
PARTS
 66
1
 10
0.0
 20
0.0
 30
0.0
 0
VERTEX
 8
PARTS
 10
115.8240
 20
339.5980
 30
0.0
 0
VERTEX
 8
PARTS
 10
117.8560
 20
339.5980
 30
0.0
 0
SEQEND
 8
PARTS
 0
POLYLINE
 8
PARTS
 66
1
 10
0.0
 20
0.0
 30
0.0
 0
VERTEX
 8
PARTS
 10
117.0940
 20
338.8360
 30
0.0
 0
VERTEX
 8
PARTS
 10
116.5860
 20
338.8360
 30
0.0
 0
SEQEND
 8
PARTS
 0
POLYLINE
 8
PARTS
 66
1
 10
0.0
 20
0.0
 30
0.0
 0
VERTEX
 8
PARTS
 10
116.8400
 20
358.9020
 30
0.0
 0
VERTEX
 8
PARTS
 10
111.7600
 20
358.9020
 30
0.0
 0
SEQEND
 8
PARTS
 0
POLYLINE
 8
PARTS
 66
1
 10
0.0
 20
0.0
 30
0.0
 0
VERTEX
 8
PARTS
 10
116.0780
 20
358.1400
 30
0.0
 0
VERTEX
 8
PARTS
 10
112.5220
 20
358.1400
 30
0.0
 0
SEQEND
 8
PARTS
 0
POLYLINE
 8
PARTS
 66
1
 10
0.0
 20
0.0
 30
0.0
 0
VERTEX
 8
PARTS
 10
113.2840
 20
357.3780
 30
0.0
 0
VERTEX
 8
PARTS
 10
115.3160
 20
357.3780
 30
0.0
 0
SEQEND
 8
PARTS
 0
POLYLINE
 8
PARTS
 66
1
 10
0.0
 20
0.0
 30
0.0
 0
VERTEX
 8
PARTS
 10
114.5540
 20
356.6160
 30
0.0
 0
VERTEX
 8
PARTS
 10
114.0460
 20
356.6160
 30
0.0
 0
SEQEND
 8
PARTS
 0
TEXT
 8
PARTTEXT
 10
139.4460
 20
355.0263
 30
0.0
 40
  1.3057
 1
5V
 0
POLYLINE
 8
PARTS
 66
1
 10
0.0
 20
0.0
 30
0.0
 0
VERTEX
 8
PARTS
 10
139.7000
 20
352.2980
 30
0.0
 0
VERTEX
 8
PARTS
 10
139.7000
 20
351.2820
 30
0.0
 0
SEQEND
 8
PARTS
 0
POLYLINE
 8
PARTS
 66
1
 70
1
 10
0.0
 20
0.0
 30
0.0
 0
VERTEX
 8
PARTS
 10
140.4620
 20
353.0600
 30
0.0
 42
  0.0985
 0
VERTEX
 8
PARTS
 10
140.4040
 20
353.3516
 30
0.0
 42
  0.0985
 0
VERTEX
 8
PARTS
 10
140.2388
 20
353.5988
 30
0.0
 42
  0.0985
 0
VERTEX
 8
PARTS
 10
139.9916
 20
353.7640
 30
0.0
 42
  0.0985
 0
VERTEX
 8
PARTS
 10
139.7000
 20
353.8220
 30
0.0
 42
  0.0985
 0
VERTEX
 8
PARTS
 10
139.4084
 20
353.7640
 30
0.0
 42
  0.0985
 0
VERTEX
 8
PARTS
 10
139.1612
 20
353.5988
 30
0.0
 42
  0.0985
 0
VERTEX
 8
PARTS
 10
138.9960
 20
353.3516
 30
0.0
 42
  0.0985
 0
VERTEX
 8
PARTS
 10
138.9380
 20
353.0600
 30
0.0
 42
  0.0985
 0
VERTEX
 8
PARTS
 10
138.9960
 20
352.7684
 30
0.0
 42
  0.0985
 0
VERTEX
 8
PARTS
 10
139.1612
 20
352.5212
 30
0.0
 42
  0.0985
 0
VERTEX
 8
PARTS
 10
139.4084
 20
352.3560
 30
0.0
 42
  0.0985
 0
VERTEX
 8
PARTS
 10
139.7000
 20
352.2980
 30
0.0
 42
  0.0985
 0
VERTEX
 8
PARTS
 10
139.9916
 20
352.3560
 30
0.0
 42
  0.0985
 0
VERTEX
 8
PARTS
 10
140.2388
 20
352.5212
 30
0.0
 42
  0.0985
 0
VERTEX
 8
PARTS
 10
140.4040
 20
352.7684
 30
0.0
 42
  0.0985
 0
SEQEND
 8
PARTS
 0
POLYLINE
 8
PARTS
 66
1
 10
0.0
 20
0.0
 30
0.0
 0
VERTEX
 8
PARTS
 10
124.4600
 20
247.1420
 30
0.0
 0
VERTEX
 8
PARTS
 10
119.3800
 20
247.1420
 30
0.0
 0
SEQEND
 8
PARTS
 0
POLYLINE
 8
PARTS
 66
1
 10
0.0
 20
0.0
 30
0.0
 0
VERTEX
 8
PARTS
 10
123.6980
 20
246.3800
 30
0.0
 0
VERTEX
 8
PARTS
 10
120.1420
 20
246.3800
 30
0.0
 0
SEQEND
 8
PARTS
 0
POLYLINE
 8
PARTS
 66
1
 10
0.0
 20
0.0
 30
0.0
 0
VERTEX
 8
PARTS
 10
120.9040
 20
245.6180
 30
0.0
 0
VERTEX
 8
PARTS
 10
122.9360
 20
245.6180
 30
0.0
 0
SEQEND
 8
PARTS
 0
POLYLINE
 8
PARTS
 66
1
 10
0.0
 20
0.0
 30
0.0
 0
VERTEX
 8
PARTS
 10
122.1740
 20
244.8560
 30
0.0
 0
VERTEX
 8
PARTS
 10
121.6660
 20
244.8560
 30
0.0
 0
SEQEND
 8
PARTS
 0
TEXT
 8
PARTTEXT
 10
114.0460
 20
245.8063
 30
0.0
 40
  1.3057
 1
5V
 0
POLYLINE
 8
PARTS
 66
1
 10
0.0
 20
0.0
 30
0.0
 0
VERTEX
 8
PARTS
 10
114.3000
 20
243.0780
 30
0.0
 0
VERTEX
 8
PARTS
 10
114.3000
 20
242.0620
 30
0.0
 0
SEQEND
 8
PARTS
 0
POLYLINE
 8
PARTS
 66
1
 70
1
 10
0.0
 20
0.0
 30
0.0
 0
VERTEX
 8
PARTS
 10
115.0620
 20
243.8400
 30
0.0
 42
  0.0985
 0
VERTEX
 8
PARTS
 10
115.0040
 20
244.1316
 30
0.0
 42
  0.0985
 0
VERTEX
 8
PARTS
 10
114.8388
 20
244.3788
 30
0.0
 42
  0.0985
 0
VERTEX
 8
PARTS
 10
114.5916
 20
244.5440
 30
0.0
 42
  0.0985
 0
VERTEX
 8
PARTS
 10
114.3000
 20
244.6020
 30
0.0
 42
  0.0985
 0
VERTEX
 8
PARTS
 10
114.0084
 20
244.5440
 30
0.0
 42
  0.0985
 0
VERTEX
 8
PARTS
 10
113.7612
 20
244.3788
 30
0.0
 42
  0.0985
 0
VERTEX
 8
PARTS
 10
113.5960
 20
244.1316
 30
0.0
 42
  0.0985
 0
VERTEX
 8
PARTS
 10
113.5380
 20
243.8400
 30
0.0
 42
  0.0985
 0
VERTEX
 8
PARTS
 10
113.5960
 20
243.5484
 30
0.0
 42
  0.0985
 0
VERTEX
 8
PARTS
 10
113.7612
 20
243.3012
 30
0.0
 42
  0.0985
 0
VERTEX
 8
PARTS
 10
114.0084
 20
243.1360
 30
0.0
 42
  0.0985
 0
VERTEX
 8
PARTS
 10
114.3000
 20
243.0780
 30
0.0
 42
  0.0985
 0
VERTEX
 8
PARTS
 10
114.5916
 20
243.1360
 30
0.0
 42
  0.0985
 0
VERTEX
 8
PARTS
 10
114.8388
 20
243.3012
 30
0.0
 42
  0.0985
 0
VERTEX
 8
PARTS
 10
115.0040
 20
243.5484
 30
0.0
 42
  0.0985
 0
SEQEND
 8
PARTS
 0
POLYLINE
 8
PARTS
 66
1
 10
0.0
 20
0.0
 30
0.0
 0
VERTEX
 8
PARTS
 10
124.4600
 20
270.0020
 30
0.0
 0
VERTEX
 8
PARTS
 10
119.3800
 20
270.0020
 30
0.0
 0
SEQEND
 8
PARTS
 0
POLYLINE
 8
PARTS
 66
1
 10
0.0
 20
0.0
 30
0.0
 0
VERTEX
 8
PARTS
 10
123.6980
 20
269.2400
 30
0.0
 0
VERTEX
 8
PARTS
 10
120.1420
 20
269.2400
 30
0.0
 0
SEQEND
 8
PARTS
 0
POLYLINE
 8
PARTS
 66
1
 10
0.0
 20
0.0
 30
0.0
 0
VERTEX
 8
PARTS
 10
120.9040
 20
268.4780
 30
0.0
 0
VERTEX
 8
PARTS
 10
122.9360
 20
268.4780
 30
0.0
 0
SEQEND
 8
PARTS
 0
POLYLINE
 8
PARTS
 66
1
 10
0.0
 20
0.0
 30
0.0
 0
VERTEX
 8
PARTS
 10
122.1740
 20
267.7160
 30
0.0
 0
VERTEX
 8
PARTS
 10
121.6660
 20
267.7160
 30
0.0
 0
SEQEND
 8
PARTS
 0
TEXT
 8
PARTTEXT
 10
114.0460
 20
276.2863
 30
0.0
 40
  1.3057
 1
5V
 0
POLYLINE
 8
PARTS
 66
1
 10
0.0
 20
0.0
 30
0.0
 0
VERTEX
 8
PARTS
 10
114.3000
 20
273.5580
 30
0.0
 0
VERTEX
 8
PARTS
 10
114.3000
 20
272.5420
 30
0.0
 0
SEQEND
 8
PARTS
 0
POLYLINE
 8
PARTS
 66
1
 70
1
 10
0.0
 20
0.0
 30
0.0
 0
VERTEX
 8
PARTS
 10
115.0620
 20
274.3200
 30
0.0
 42
  0.0985
 0
VERTEX
 8
PARTS
 10
115.0040
 20
274.6116
 30
0.0
 42
  0.0985
 0
VERTEX
 8
PARTS
 10
114.8388
 20
274.8588
 30
0.0
 42
  0.0985
 0
VERTEX
 8
PARTS
 10
114.5916
 20
275.0240
 30
0.0
 42
  0.0985
 0
VERTEX
 8
PARTS
 10
114.3000
 20
275.0820
 30
0.0
 42
  0.0985
 0
VERTEX
 8
PARTS
 10
114.0084
 20
275.0240
 30
0.0
 42
  0.0985
 0
VERTEX
 8
PARTS
 10
113.7612
 20
274.8588
 30
0.0
 42
  0.0985
 0
VERTEX
 8
PARTS
 10
113.5960
 20
274.6116
 30
0.0
 42
  0.0985
 0
VERTEX
 8
PARTS
 10
113.5380
 20
274.3200
 30
0.0
 42
  0.0985
 0
VERTEX
 8
PARTS
 10
113.5960
 20
274.0284
 30
0.0
 42
  0.0985
 0
VERTEX
 8
PARTS
 10
113.7612
 20
273.7812
 30
0.0
 42
  0.0985
 0
VERTEX
 8
PARTS
 10
114.0084
 20
273.6160
 30
0.0
 42
  0.0985
 0
VERTEX
 8
PARTS
 10
114.3000
 20
273.5580
 30
0.0
 42
  0.0985
 0
VERTEX
 8
PARTS
 10
114.5916
 20
273.6160
 30
0.0
 42
  0.0985
 0
VERTEX
 8
PARTS
 10
114.8388
 20
273.7812
 30
0.0
 42
  0.0985
 0
VERTEX
 8
PARTS
 10
115.0040
 20
274.0284
 30
0.0
 42
  0.0985
 0
SEQEND
 8
PARTS
 0
POLYLINE
 8
PARTS
 66
1
 10
0.0
 20
0.0
 30
0.0
 0
VERTEX
 8
PARTS
 10
121.9200
 20
318.2620
 30
0.0
 0
VERTEX
 8
PARTS
 10
116.8400
 20
318.2620
 30
0.0
 0
SEQEND
 8
PARTS
 0
POLYLINE
 8
PARTS
 66
1
 10
0.0
 20
0.0
 30
0.0
 0
VERTEX
 8
PARTS
 10
121.1580
 20
317.5000
 30
0.0
 0
VERTEX
 8
PARTS
 10
117.6020
 20
317.5000
 30
0.0
 0
SEQEND
 8
PARTS
 0
POLYLINE
 8
PARTS
 66
1
 10
0.0
 20
0.0
 30
0.0
 0
VERTEX
 8
PARTS
 10
118.3640
 20
316.7380
 30
0.0
 0
VERTEX
 8
PARTS
 10
120.3960
 20
316.7380
 30
0.0
 0
SEQEND
 8
PARTS
 0
POLYLINE
 8
PARTS
 66
1
 10
0.0
 20
0.0
 30
0.0
 0
VERTEX
 8
PARTS
 10
119.6340
 20
315.9760
 30
0.0
 0
VERTEX
 8
PARTS
 10
119.1260
 20
315.9760
 30
0.0
 0
SEQEND
 8
PARTS
 0
TEXT
 8
PARTTEXT
 10
111.5060
 20
324.5463
 30
0.0
 40
  1.3057
 1
5V
 0
POLYLINE
 8
PARTS
 66
1
 10
0.0
 20
0.0
 30
0.0
 0
VERTEX
 8
PARTS
 10
111.7600
 20
321.8180
 30
0.0
 0
VERTEX
 8
PARTS
 10
111.7600
 20
320.8020
 30
0.0
 0
SEQEND
 8
PARTS
 0
POLYLINE
 8
PARTS
 66
1
 70
1
 10
0.0
 20
0.0
 30
0.0
 0
VERTEX
 8
PARTS
 10
112.5220
 20
322.5800
 30
0.0
 42
  0.0985
 0
VERTEX
 8
PARTS
 10
112.4640
 20
322.8716
 30
0.0
 42
  0.0985
 0
VERTEX
 8
PARTS
 10
112.2988
 20
323.1188
 30
0.0
 42
  0.0985
 0
VERTEX
 8
PARTS
 10
112.0516
 20
323.2840
 30
0.0
 42
  0.0985
 0
VERTEX
 8
PARTS
 10
111.7600
 20
323.3420
 30
0.0
 42
  0.0985
 0
VERTEX
 8
PARTS
 10
111.4684
 20
323.2840
 30
0.0
 42
  0.0985
 0
VERTEX
 8
PARTS
 10
111.2212
 20
323.1188
 30
0.0
 42
  0.0985
 0
VERTEX
 8
PARTS
 10
111.0560
 20
322.8716
 30
0.0
 42
  0.0985
 0
VERTEX
 8
PARTS
 10
110.9980
 20
322.5800
 30
0.0
 42
  0.0985
 0
VERTEX
 8
PARTS
 10
111.0560
 20
322.2884
 30
0.0
 42
  0.0985
 0
VERTEX
 8
PARTS
 10
111.2212
 20
322.0412
 30
0.0
 42
  0.0985
 0
VERTEX
 8
PARTS
 10
111.4684
 20
321.8760
 30
0.0
 42
  0.0985
 0
VERTEX
 8
PARTS
 10
111.7600
 20
321.8180
 30
0.0
 42
  0.0985
 0
VERTEX
 8
PARTS
 10
112.0516
 20
321.8760
 30
0.0
 42
  0.0985
 0
VERTEX
 8
PARTS
 10
112.2988
 20
322.0412
 30
0.0
 42
  0.0985
 0
VERTEX
 8
PARTS
 10
112.4640
 20
322.2884
 30
0.0
 42
  0.0985
 0
SEQEND
 8
PARTS
 0
POLYLINE
 8
PARTS
 66
1
 10
0.0
 20
0.0
 30
0.0
 0
VERTEX
 8
PARTS
 10
119.3800
 20
287.7820
 30
0.0
 0
VERTEX
 8
PARTS
 10
114.3000
 20
287.7820
 30
0.0
 0
SEQEND
 8
PARTS
 0
POLYLINE
 8
PARTS
 66
1
 10
0.0
 20
0.0
 30
0.0
 0
VERTEX
 8
PARTS
 10
118.6180
 20
287.0200
 30
0.0
 0
VERTEX
 8
PARTS
 10
115.0620
 20
287.0200
 30
0.0
 0
SEQEND
 8
PARTS
 0
POLYLINE
 8
PARTS
 66
1
 10
0.0
 20
0.0
 30
0.0
 0
VERTEX
 8
PARTS
 10
115.8240
 20
286.2580
 30
0.0
 0
VERTEX
 8
PARTS
 10
117.8560
 20
286.2580
 30
0.0
 0
SEQEND
 8
PARTS
 0
POLYLINE
 8
PARTS
 66
1
 10
0.0
 20
0.0
 30
0.0
 0
VERTEX
 8
PARTS
 10
117.0940
 20
285.4960
 30
0.0
 0
VERTEX
 8
PARTS
 10
116.5860
 20
285.4960
 30
0.0
 0
SEQEND
 8
PARTS
 0
TEXT
 8
PARTTEXT
 10
111.5060
 20
288.9863
 30
0.0
 40
  1.3057
 1
5V
 0
POLYLINE
 8
PARTS
 66
1
 10
0.0
 20
0.0
 30
0.0
 0
VERTEX
 8
PARTS
 10
111.7600
 20
286.2580
 30
0.0
 0
VERTEX
 8
PARTS
 10
111.7600
 20
285.2420
 30
0.0
 0
SEQEND
 8
PARTS
 0
POLYLINE
 8
PARTS
 66
1
 70
1
 10
0.0
 20
0.0
 30
0.0
 0
VERTEX
 8
PARTS
 10
112.5220
 20
287.0200
 30
0.0
 42
  0.0985
 0
VERTEX
 8
PARTS
 10
112.4640
 20
287.3116
 30
0.0
 42
  0.0985
 0
VERTEX
 8
PARTS
 10
112.2988
 20
287.5588
 30
0.0
 42
  0.0985
 0
VERTEX
 8
PARTS
 10
112.0516
 20
287.7240
 30
0.0
 42
  0.0985
 0
VERTEX
 8
PARTS
 10
111.7600
 20
287.7820
 30
0.0
 42
  0.0985
 0
VERTEX
 8
PARTS
 10
111.4684
 20
287.7240
 30
0.0
 42
  0.0985
 0
VERTEX
 8
PARTS
 10
111.2212
 20
287.5588
 30
0.0
 42
  0.0985
 0
VERTEX
 8
PARTS
 10
111.0560
 20
287.3116
 30
0.0
 42
  0.0985
 0
VERTEX
 8
PARTS
 10
110.9980
 20
287.0200
 30
0.0
 42
  0.0985
 0
VERTEX
 8
PARTS
 10
111.0560
 20
286.7284
 30
0.0
 42
  0.0985
 0
VERTEX
 8
PARTS
 10
111.2212
 20
286.4812
 30
0.0
 42
  0.0985
 0
VERTEX
 8
PARTS
 10
111.4684
 20
286.3160
 30
0.0
 42
  0.0985
 0
VERTEX
 8
PARTS
 10
111.7600
 20
286.2580
 30
0.0
 42
  0.0985
 0
VERTEX
 8
PARTS
 10
112.0516
 20
286.3160
 30
0.0
 42
  0.0985
 0
VERTEX
 8
PARTS
 10
112.2988
 20
286.4812
 30
0.0
 42
  0.0985
 0
VERTEX
 8
PARTS
 10
112.4640
 20
286.7284
 30
0.0
 42
  0.0985
 0
SEQEND
 8
PARTS
 0
TEXT
 8
PARTTEXT
 10
297.1800
 20
248.3463
 30
0.0
 40
  1.3057
 1
5V
 0
POLYLINE
 8
PARTS
 66
1
 10
0.0
 20
0.0
 30
0.0
 0
VERTEX
 8
PARTS
 10
299.7200
 20
245.6180
 30
0.0
 0
VERTEX
 8
PARTS
 10
299.7200
 20
244.6020
 30
0.0
 0
SEQEND
 8
PARTS
 0
POLYLINE
 8
PARTS
 66
1
 70
1
 10
0.0
 20
0.0
 30
0.0
 0
VERTEX
 8
PARTS
 10
300.4820
 20
246.3800
 30
0.0
 42
  0.0985
 0
VERTEX
 8
PARTS
 10
300.4240
 20
246.6716
 30
0.0
 42
  0.0985
 0
VERTEX
 8
PARTS
 10
300.2588
 20
246.9188
 30
0.0
 42
  0.0985
 0
VERTEX
 8
PARTS
 10
300.0116
 20
247.0840
 30
0.0
 42
  0.0985
 0
VERTEX
 8
PARTS
 10
299.7200
 20
247.1420
 30
0.0
 42
  0.0985
 0
VERTEX
 8
PARTS
 10
299.4284
 20
247.0840
 30
0.0
 42
  0.0985
 0
VERTEX
 8
PARTS
 10
299.1812
 20
246.9188
 30
0.0
 42
  0.0985
 0
VERTEX
 8
PARTS
 10
299.0160
 20
246.6716
 30
0.0
 42
  0.0985
 0
VERTEX
 8
PARTS
 10
298.9580
 20
246.3800
 30
0.0
 42
  0.0985
 0
VERTEX
 8
PARTS
 10
299.0160
 20
246.0884
 30
0.0
 42
  0.0985
 0
VERTEX
 8
PARTS
 10
299.1812
 20
245.8412
 30
0.0
 42
  0.0985
 0
VERTEX
 8
PARTS
 10
299.4284
 20
245.6760
 30
0.0
 42
  0.0985
 0
VERTEX
 8
PARTS
 10
299.7200
 20
245.6180
 30
0.0
 42
  0.0985
 0
VERTEX
 8
PARTS
 10
300.0116
 20
245.6760
 30
0.0
 42
  0.0985
 0
VERTEX
 8
PARTS
 10
300.2588
 20
245.8412
 30
0.0
 42
  0.0985
 0
VERTEX
 8
PARTS
 10
300.4240
 20
246.0884
 30
0.0
 42
  0.0985
 0
SEQEND
 8
PARTS
 0
POLYLINE
 8
PARTS
 66
1
 10
0.0
 20
0.0
 30
0.0
 0
VERTEX
 8
PARTS
 10
246.3800
 20
242.0620
 30
0.0
 0
VERTEX
 8
PARTS
 10
251.4600
 20
242.0620
 30
0.0
 0
SEQEND
 8
PARTS
 0
POLYLINE
 8
PARTS
 66
1
 10
0.0
 20
0.0
 30
0.0
 0
VERTEX
 8
PARTS
 10
247.1420
 20
241.3000
 30
0.0
 0
VERTEX
 8
PARTS
 10
250.6980
 20
241.3000
 30
0.0
 0
SEQEND
 8
PARTS
 0
POLYLINE
 8
PARTS
 66
1
 10
0.0
 20
0.0
 30
0.0
 0
VERTEX
 8
PARTS
 10
249.9360
 20
240.5380
 30
0.0
 0
VERTEX
 8
PARTS
 10
247.9040
 20
240.5380
 30
0.0
 0
SEQEND
 8
PARTS
 0
POLYLINE
 8
PARTS
 66
1
 10
0.0
 20
0.0
 30
0.0
 0
VERTEX
 8
PARTS
 10
248.6660
 20
239.7760
 30
0.0
 0
VERTEX
 8
PARTS
 10
249.1740
 20
239.7760
 30
0.0
 0
SEQEND
 8
PARTS
 0
TEXT
 8
PARTTEXT
 10
254.0000
 20
240.7263
 30
0.0
 40
  1.3057
 1
5V
 0
POLYLINE
 8
PARTS
 66
1
 10
0.0
 20
0.0
 30
0.0
 0
VERTEX
 8
PARTS
 10
256.5400
 20
237.9980
 30
0.0
 0
VERTEX
 8
PARTS
 10
256.5400
 20
236.9820
 30
0.0
 0
SEQEND
 8
PARTS
 0
POLYLINE
 8
PARTS
 66
1
 70
1
 10
0.0
 20
0.0
 30
0.0
 0
VERTEX
 8
PARTS
 10
257.3020
 20
238.7600
 30
0.0
 42
  0.0985
 0
VERTEX
 8
PARTS
 10
257.2440
 20
239.0516
 30
0.0
 42
  0.0985
 0
VERTEX
 8
PARTS
 10
257.0788
 20
239.2988
 30
0.0
 42
  0.0985
 0
VERTEX
 8
PARTS
 10
256.8316
 20
239.4640
 30
0.0
 42
  0.0985
 0
VERTEX
 8
PARTS
 10
256.5400
 20
239.5220
 30
0.0
 42
  0.0985
 0
VERTEX
 8
PARTS
 10
256.2484
 20
239.4640
 30
0.0
 42
  0.0985
 0
VERTEX
 8
PARTS
 10
256.0012
 20
239.2988
 30
0.0
 42
  0.0985
 0
VERTEX
 8
PARTS
 10
255.8360
 20
239.0516
 30
0.0
 42
  0.0985
 0
VERTEX
 8
PARTS
 10
255.7780
 20
238.7600
 30
0.0
 42
  0.0985
 0
VERTEX
 8
PARTS
 10
255.8360
 20
238.4684
 30
0.0
 42
  0.0985
 0
VERTEX
 8
PARTS
 10
256.0012
 20
238.2212
 30
0.0
 42
  0.0985
 0
VERTEX
 8
PARTS
 10
256.2484
 20
238.0560
 30
0.0
 42
  0.0985
 0
VERTEX
 8
PARTS
 10
256.5400
 20
237.9980
 30
0.0
 42
  0.0985
 0
VERTEX
 8
PARTS
 10
256.8316
 20
238.0560
 30
0.0
 42
  0.0985
 0
VERTEX
 8
PARTS
 10
257.0788
 20
238.2212
 30
0.0
 42
  0.0985
 0
VERTEX
 8
PARTS
 10
257.2440
 20
238.4684
 30
0.0
 42
  0.0985
 0
SEQEND
 8
PARTS
 0
ENDSEC
 0
EOF
