 0
SECTION
 2
HEADER
 9
$ACADVER
 1
AC1009
 0
ENDSEC
 0
SECTION
 2
ENTITIES
 0
POLYLINE
 8
TITLE
 66
1
 70
1
 10
0.0
 20
0.0
 30
0.0
 0
VERTEX
 8
TITLE
 10
 -2.5400
 20
  2.5400
 30
0.0
 0
VERTEX
 8
TITLE
 10
591.3120
 20
  2.5400
 30
0.0
 0
VERTEX
 8
TITLE
 10
591.3120
 20
422.4020
 30
0.0
 0
VERTEX
 8
TITLE
 10
 -2.5400
 20
422.4020
 30
0.0
 0
SEQEND
 8
TITLE
 0
POLYLINE
 8
TITLE
 66
1
 70
1
 10
0.0
 20
0.0
 30
0.0
 0
VERTEX
 8
TITLE
 10
  0.0000
 20
  5.0800
 30
0.0
 0
VERTEX
 8
TITLE
 10
588.7720
 20
  5.0800
 30
0.0
 0
VERTEX
 8
TITLE
 10
588.7720
 20
419.8620
 30
0.0
 0
VERTEX
 8
TITLE
 10
  0.0000
 20
419.8620
 30
0.0
 0
SEQEND
 8
TITLE
 0
POLYLINE
 8
TITLE
 66
1
 10
0.0
 20
0.0
 30
0.0
 0
VERTEX
 8
TITLE
 10
121.6660
 20
  5.0800
 30
0.0
 0
VERTEX
 8
TITLE
 10
121.6660
 20
  2.5400
 30
0.0
 0
SEQEND
 8
TITLE
 0
POLYLINE
 8
TITLE
 66
1
 10
0.0
 20
0.0
 30
0.0
 0
VERTEX
 8
TITLE
 10
121.6660
 20
419.8620
 30
0.0
 0
VERTEX
 8
TITLE
 10
121.6660
 20
422.4020
 30
0.0
 0
SEQEND
 8
TITLE
 0
POLYLINE
 8
TITLE
 66
1
 10
0.0
 20
0.0
 30
0.0
 0
VERTEX
 8
TITLE
 10
238.2520
 20
  5.0800
 30
0.0
 0
VERTEX
 8
TITLE
 10
238.2520
 20
  2.5400
 30
0.0
 0
SEQEND
 8
TITLE
 0
POLYLINE
 8
TITLE
 66
1
 10
0.0
 20
0.0
 30
0.0
 0
VERTEX
 8
TITLE
 10
238.2520
 20
419.8620
 30
0.0
 0
VERTEX
 8
TITLE
 10
238.2520
 20
422.4020
 30
0.0
 0
SEQEND
 8
TITLE
 0
POLYLINE
 8
TITLE
 66
1
 10
0.0
 20
0.0
 30
0.0
 0
VERTEX
 8
TITLE
 10
354.8380
 20
  5.0800
 30
0.0
 0
VERTEX
 8
TITLE
 10
354.8380
 20
  2.5400
 30
0.0
 0
SEQEND
 8
TITLE
 0
POLYLINE
 8
TITLE
 66
1
 10
0.0
 20
0.0
 30
0.0
 0
VERTEX
 8
TITLE
 10
354.8380
 20
419.8620
 30
0.0
 0
VERTEX
 8
TITLE
 10
354.8380
 20
422.4020
 30
0.0
 0
SEQEND
 8
TITLE
 0
POLYLINE
 8
TITLE
 66
1
 10
0.0
 20
0.0
 30
0.0
 0
VERTEX
 8
TITLE
 10
471.4240
 20
  5.0800
 30
0.0
 0
VERTEX
 8
TITLE
 10
471.4240
 20
  2.5400
 30
0.0
 0
SEQEND
 8
TITLE
 0
POLYLINE
 8
TITLE
 66
1
 10
0.0
 20
0.0
 30
0.0
 0
VERTEX
 8
TITLE
 10
471.4240
 20
419.8620
 30
0.0
 0
VERTEX
 8
TITLE
 10
471.4240
 20
422.4020
 30
0.0
 0
SEQEND
 8
TITLE
 0
TEXT
 8
TITLE
 10
 63.2460
 20
  3.0480
 30
0.0
 40
  1.2700
 1
5
 0
TEXT
 8
TITLE
 10
 63.2460
 20
420.3700
 30
0.0
 40
  1.2700
 1
5
 0
TEXT
 8
TITLE
 10
179.8320
 20
  3.0480
 30
0.0
 40
  1.2700
 1
4
 0
TEXT
 8
TITLE
 10
179.8320
 20
420.3700
 30
0.0
 40
  1.2700
 1
4
 0
TEXT
 8
TITLE
 10
296.4180
 20
  3.0480
 30
0.0
 40
  1.2700
 1
3
 0
TEXT
 8
TITLE
 10
296.4180
 20
420.3700
 30
0.0
 40
  1.2700
 1
3
 0
TEXT
 8
TITLE
 10
413.0040
 20
  3.0480
 30
0.0
 40
  1.2700
 1
2
 0
TEXT
 8
TITLE
 10
413.0040
 20
420.3700
 30
0.0
 40
  1.2700
 1
2
 0
TEXT
 8
TITLE
 10
529.5900
 20
  3.0480
 30
0.0
 40
  1.2700
 1
1
 0
TEXT
 8
TITLE
 10
529.5900
 20
420.3700
 30
0.0
 40
  1.2700
 1
1
 0
POLYLINE
 8
TITLE
 66
1
 10
0.0
 20
0.0
 30
0.0
 0
VERTEX
 8
TITLE
 10
 -2.5400
 20
312.4200
 30
0.0
 0
VERTEX
 8
TITLE
 10
  0.0000
 20
312.4200
 30
0.0
 0
SEQEND
 8
TITLE
 0
POLYLINE
 8
TITLE
 66
1
 10
0.0
 20
0.0
 30
0.0
 0
VERTEX
 8
TITLE
 10
588.7720
 20
312.4200
 30
0.0
 0
VERTEX
 8
TITLE
 10
591.3120
 20
312.4200
 30
0.0
 0
SEQEND
 8
TITLE
 0
SOLID
 8
TITLE
 10
  0.0000
 20
210.0580
 30
0.0
 11
 -1.2700
 21
210.5660
 31
0.0
 12
 -1.2700
 22
209.5500
 32
0.0
 13
 -1.2700
 23
210.0580
 33
0.0
 0
SOLID
 8
TITLE
 10
588.7720
 20
210.0580
 30
0.0
 11
590.0420
 21
210.5660
 31
0.0
 12
590.0420
 22
209.5500
 32
0.0
 13
590.0420
 23
210.0580
 33
0.0
 0
POLYLINE
 8
TITLE
 66
1
 10
0.0
 20
0.0
 30
0.0
 0
VERTEX
 8
TITLE
 10
 -2.5400
 20
210.0580
 30
0.0
 0
VERTEX
 8
TITLE
 10
  0.0000
 20
210.0580
 30
0.0
 0
SEQEND
 8
TITLE
 0
POLYLINE
 8
TITLE
 66
1
 10
0.0
 20
0.0
 30
0.0
 0
VERTEX
 8
TITLE
 10
588.7720
 20
210.0580
 30
0.0
 0
VERTEX
 8
TITLE
 10
591.3120
 20
210.0580
 30
0.0
 0
SEQEND
 8
TITLE
 0
SOLID
 8
TITLE
 10
  0.0000
 20
210.0580
 30
0.0
 11
 -1.2700
 21
210.5660
 31
0.0
 12
 -1.2700
 22
209.5500
 32
0.0
 13
 -1.2700
 23
210.0580
 33
0.0
 0
SOLID
 8
TITLE
 10
588.7720
 20
210.0580
 30
0.0
 11
590.0420
 21
210.5660
 31
0.0
 12
590.0420
 22
209.5500
 32
0.0
 13
590.0420
 23
210.0580
 33
0.0
 0
POLYLINE
 8
TITLE
 66
1
 10
0.0
 20
0.0
 30
0.0
 0
VERTEX
 8
TITLE
 10
 -2.5400
 20
107.6960
 30
0.0
 0
VERTEX
 8
TITLE
 10
  0.0000
 20
107.6960
 30
0.0
 0
SEQEND
 8
TITLE
 0
POLYLINE
 8
TITLE
 66
1
 10
0.0
 20
0.0
 30
0.0
 0
VERTEX
 8
TITLE
 10
588.7720
 20
107.6960
 30
0.0
 0
VERTEX
 8
TITLE
 10
591.3120
 20
107.6960
 30
0.0
 0
SEQEND
 8
TITLE
 0
SOLID
 8
TITLE
 10
  0.0000
 20
210.0580
 30
0.0
 11
 -1.2700
 21
210.5660
 31
0.0
 12
 -1.2700
 22
209.5500
 32
0.0
 13
 -1.2700
 23
210.0580
 33
0.0
 0
SOLID
 8
TITLE
 10
588.7720
 20
210.0580
 30
0.0
 11
590.0420
 21
210.5660
 31
0.0
 12
590.0420
 22
209.5500
 32
0.0
 13
590.0420
 23
210.0580
 33
0.0
 0
TEXT
 8
TITLE
 10
 -2.0320
 20
363.7280
 30
0.0
 40
  1.2700
 1
D
 0
TEXT
 8
TITLE
 10
589.2800
 20
363.7280
 30
0.0
 40
  1.2700
 1
D
 0
TEXT
 8
TITLE
 10
 -2.0320
 20
261.3660
 30
0.0
 40
  1.2700
 1
C
 0
TEXT
 8
TITLE
 10
589.2800
 20
261.3660
 30
0.0
 40
  1.2700
 1
C
 0
TEXT
 8
TITLE
 10
 -2.0320
 20
159.0040
 30
0.0
 40
  1.2700
 1
B
 0
TEXT
 8
TITLE
 10
589.2800
 20
159.0040
 30
0.0
 40
  1.2700
 1
B
 0
TEXT
 8
TITLE
 10
 -2.0320
 20
 56.6420
 30
0.0
 40
  1.2700
 1
A
 0
TEXT
 8
TITLE
 10
589.2800
 20
 56.6420
 30
0.0
 40
  1.2700
 1
A
 0
TEXT
 8
TITLE
 10
507.4920
 20
 11.3643
 30
0.0
 40
  1.3057
 1
<Doc>
 0
TEXT
 8
TITLE
 10
583.6920
 20
 11.3643
 30
0.0
 40
  1.3057
 1
<RevCode>
 0
TEXT
 8
TITLE
 10
507.4920
 20
 18.9843
 30
0.0
 40
  1.3057
 1
<Title>
 0
TEXT
 8
TITLE
 10
499.8720
 20
 11.3643
 30
0.0
 40
  1.3057
 1
A2
 0
TEXT
 8
TITLE
 10
560.8320
 20
  6.2843
 30
0.0
 40
  1.3057
 1
1
 0
TEXT
 8
TITLE
 10
576.0720
 20
  6.2843
 30
0.0
 40
  1.3057
 1
1
 0
TEXT
 8
TITLE
 10
510.5400
 20
  6.2843
 30
0.0
 40
  1.3057
 1
Saturday, March 01, 2014
 0
TEXT
 8
PARTTEXT
 10
497.3320
 20
 21.5243
 30
0.0
 40
  1.3057
 1
Title
 0
TEXT
 8
PARTTEXT
 10
497.3320
 20
 13.9043
 30
0.0
 40
  1.3057
 1
Size
 0
TEXT
 8
PARTTEXT
 10
507.4920
 20
 13.9043
 30
0.0
 40
  1.3057
 1
Document Number
 0
TEXT
 8
PARTTEXT
 10
581.1520
 20
 13.9043
 30
0.0
 40
  1.3057
 1
Rev
 0
TEXT
 8
PARTTEXT
 10
497.3320
 20
  6.2843
 30
0.0
 40
  1.3057
 1
Date:
 0
TEXT
 8
PARTTEXT
 10
548.1320
 20
  6.2843
 30
0.0
 40
  1.3057
 1
Sheet
 0
POLYLINE
 8
TITLE
 66
1
 70
1
 10
0.0
 20
0.0
 30
0.0
 0
VERTEX
 8
TITLE
 10
497.3320
 20
 27.9400
 30
0.0
 0
VERTEX
 8
TITLE
 10
588.7720
 20
 27.9400
 30
0.0
 0
VERTEX
 8
TITLE
 10
588.7720
 20
 22.8600
 30
0.0
 0
VERTEX
 8
TITLE
 10
497.3320
 20
 22.8600
 30
0.0
 0
SEQEND
 8
TITLE
 0
POLYLINE
 8
TITLE
 66
1
 70
1
 10
0.0
 20
0.0
 30
0.0
 0
VERTEX
 8
TITLE
 10
497.3320
 20
 22.8600
 30
0.0
 0
VERTEX
 8
TITLE
 10
588.7720
 20
 22.8600
 30
0.0
 0
VERTEX
 8
TITLE
 10
588.7720
 20
 15.2400
 30
0.0
 0
VERTEX
 8
TITLE
 10
497.3320
 20
 15.2400
 30
0.0
 0
SEQEND
 8
TITLE
 0
POLYLINE
 8
TITLE
 66
1
 70
1
 10
0.0
 20
0.0
 30
0.0
 0
VERTEX
 8
TITLE
 10
497.3320
 20
 15.2400
 30
0.0
 0
VERTEX
 8
TITLE
 10
504.9520
 20
 15.2400
 30
0.0
 0
VERTEX
 8
TITLE
 10
504.9520
 20
  7.6200
 30
0.0
 0
VERTEX
 8
TITLE
 10
497.3320
 20
  7.6200
 30
0.0
 0
SEQEND
 8
TITLE
 0
POLYLINE
 8
TITLE
 66
1
 70
1
 10
0.0
 20
0.0
 30
0.0
 0
VERTEX
 8
TITLE
 10
504.9520
 20
 15.2400
 30
0.0
 0
VERTEX
 8
TITLE
 10
581.1520
 20
 15.2400
 30
0.0
 0
VERTEX
 8
TITLE
 10
581.1520
 20
  7.6200
 30
0.0
 0
VERTEX
 8
TITLE
 10
504.9520
 20
  7.6200
 30
0.0
 0
SEQEND
 8
TITLE
 0
POLYLINE
 8
TITLE
 66
1
 70
1
 10
0.0
 20
0.0
 30
0.0
 0
VERTEX
 8
TITLE
 10
581.1520
 20
 15.2400
 30
0.0
 0
VERTEX
 8
TITLE
 10
588.7720
 20
 15.2400
 30
0.0
 0
VERTEX
 8
TITLE
 10
588.7720
 20
  7.6200
 30
0.0
 0
VERTEX
 8
TITLE
 10
581.1520
 20
  7.6200
 30
0.0
 0
SEQEND
 8
TITLE
 0
POLYLINE
 8
TITLE
 66
1
 70
1
 10
0.0
 20
0.0
 30
0.0
 0
VERTEX
 8
TITLE
 10
497.3320
 20
  7.6200
 30
0.0
 0
VERTEX
 8
TITLE
 10
548.1320
 20
  7.6200
 30
0.0
 0
VERTEX
 8
TITLE
 10
548.1320
 20
  5.0800
 30
0.0
 0
VERTEX
 8
TITLE
 10
497.3320
 20
  5.0800
 30
0.0
 0
SEQEND
 8
TITLE
 0
POLYLINE
 8
TITLE
 66
1
 70
1
 10
0.0
 20
0.0
 30
0.0
 0
VERTEX
 8
TITLE
 10
548.1320
 20
  7.6200
 30
0.0
 0
VERTEX
 8
TITLE
 10
588.7720
 20
  7.6200
 30
0.0
 0
VERTEX
 8
TITLE
 10
588.7720
 20
  5.0800
 30
0.0
 0
VERTEX
 8
TITLE
 10
548.1320
 20
  5.0800
 30
0.0
 0
SEQEND
 8
TITLE
 0
TEXT
 8
PARTTEXT
 10
568.4520
 20
  6.2843
 30
0.0
 40
  1.3057
 1
of
 0
TEXT
 8
PARTTEXT
 10
138.6840
 20
367.7263
 30
0.0
 40
  1.3057
 1
D12
 0
TEXT
 8
PARTTEXT
 10
138.6840
 20
364.6783
 30
0.0
 40
  1.3057
 1
LED
 0
LINE
 8
PARTS
 10
134.6200
 20
356.3620
 30
0.0
 11
134.6200
 21
358.9020
 31
0.0
 0
LINE
 8
PARTS
 10
134.6200
 20
371.6020
 30
0.0
 11
134.6200
 21
369.0620
 31
0.0
 0
POLYLINE
 8
PARTS
 66
1
 10
0.0
 20
0.0
 30
0.0
 0
VERTEX
 8
PARTS
 10
132.8420
 20
363.9820
 30
0.0
 0
VERTEX
 8
PARTS
 10
136.3980
 20
363.9820
 30
0.0
 0
SEQEND
 8
PARTS
 0
POLYLINE
 8
PARTS
 66
1
 10
0.0
 20
0.0
 30
0.0
 0
VERTEX
 8
PARTS
 10
134.6200
 20
358.9020
 30
0.0
 0
VERTEX
 8
PARTS
 10
134.6200
 20
361.4420
 30
0.0
 0
SEQEND
 8
PARTS
 0
POLYLINE
 8
PARTS
 66
1
 10
0.0
 20
0.0
 30
0.0
 0
VERTEX
 8
PARTS
 10
134.6200
 20
363.9820
 30
0.0
 0
VERTEX
 8
PARTS
 10
134.6200
 20
369.0620
 30
0.0
 0
SEQEND
 8
PARTS
 0
POLYLINE
 8
PARTS
 66
1
 70
1
 10
0.0
 20
0.0
 30
0.0
 0
VERTEX
 8
PARTS
 10
134.6200
 20
363.9820
 30
0.0
 0
VERTEX
 8
PARTS
 10
134.6200
 20
363.9820
 30
0.0
 0
VERTEX
 8
PARTS
 10
136.3980
 20
361.4420
 30
0.0
 0
VERTEX
 8
PARTS
 10
132.8420
 20
361.4420
 30
0.0
 0
VERTEX
 8
PARTS
 10
134.6200
 20
363.9820
 30
0.0
 0
SEQEND
 8
PARTS
 0
POLYLINE
 8
PARTS
 66
1
 70
1
 10
0.0
 20
0.0
 30
0.0
 0
VERTEX
 8
PARTS
 10
132.5880
 20
367.0300
 30
0.0
 0
VERTEX
 8
PARTS
 10
132.5880
 20
367.0300
 30
0.0
 0
VERTEX
 8
PARTS
 10
132.0800
 20
368.0460
 30
0.0
 0
VERTEX
 8
PARTS
 10
133.0960
 20
367.5380
 30
0.0
 0
VERTEX
 8
PARTS
 10
132.5880
 20
367.0300
 30
0.0
 0
SEQEND
 8
PARTS
 0
POLYLINE
 8
PARTS
 66
1
 70
1
 10
0.0
 20
0.0
 30
0.0
 0
VERTEX
 8
PARTS
 10
132.5880
 20
365.5060
 30
0.0
 0
VERTEX
 8
PARTS
 10
132.5880
 20
365.5060
 30
0.0
 0
VERTEX
 8
PARTS
 10
132.0800
 20
366.5220
 30
0.0
 0
VERTEX
 8
PARTS
 10
133.0960
 20
366.0140
 30
0.0
 0
VERTEX
 8
PARTS
 10
132.5880
 20
365.5060
 30
0.0
 0
SEQEND
 8
PARTS
 0
POLYLINE
 8
PARTS
 66
1
 10
0.0
 20
0.0
 30
0.0
 0
VERTEX
 8
PARTS
 10
132.3340
 20
366.2680
 30
0.0
 0
VERTEX
 8
PARTS
 10
133.8580
 20
364.7440
 30
0.0
 0
SEQEND
 8
PARTS
 0
POLYLINE
 8
PARTS
 66
1
 10
0.0
 20
0.0
 30
0.0
 0
VERTEX
 8
PARTS
 10
132.3340
 20
367.7920
 30
0.0
 0
VERTEX
 8
PARTS
 10
133.8580
 20
366.2680
 30
0.0
 0
SEQEND
 8
PARTS
 0
TEXT
 8
PARTTEXT
 10
243.8400
 20
320.7363
 30
0.0
 40
  1.3057
 1
R123
 0
TEXT
 8
PARTTEXT
 10
246.3800
 20
316.9263
 30
0.0
 40
  1.3057
 1
2.2k
 0
LINE
 8
PARTS
 10
241.3000
 20
315.7220
 30
0.0
 11
243.8400
 21
315.7220
 31
0.0
 0
LINE
 8
PARTS
 10
254.0000
 20
315.7220
 30
0.0
 11
251.4600
 21
315.7220
 31
0.0
 0
POLYLINE
 8
PARTS
 66
1
 10
0.0
 20
0.0
 30
0.0
 0
VERTEX
 8
PARTS
 10
243.8400
 20
315.7220
 30
0.0
 0
VERTEX
 8
PARTS
 10
244.6020
 20
316.4840
 30
0.0
 0
SEQEND
 8
PARTS
 0
POLYLINE
 8
PARTS
 66
1
 10
0.0
 20
0.0
 30
0.0
 0
VERTEX
 8
PARTS
 10
244.6020
 20
316.4840
 30
0.0
 0
VERTEX
 8
PARTS
 10
246.1260
 20
314.9600
 30
0.0
 0
SEQEND
 8
PARTS
 0
POLYLINE
 8
PARTS
 66
1
 10
0.0
 20
0.0
 30
0.0
 0
VERTEX
 8
PARTS
 10
246.1260
 20
314.9600
 30
0.0
 0
VERTEX
 8
PARTS
 10
247.6500
 20
316.4840
 30
0.0
 0
SEQEND
 8
PARTS
 0
POLYLINE
 8
PARTS
 66
1
 10
0.0
 20
0.0
 30
0.0
 0
VERTEX
 8
PARTS
 10
247.6500
 20
316.4840
 30
0.0
 0
VERTEX
 8
PARTS
 10
249.1740
 20
314.9600
 30
0.0
 0
SEQEND
 8
PARTS
 0
POLYLINE
 8
PARTS
 66
1
 10
0.0
 20
0.0
 30
0.0
 0
VERTEX
 8
PARTS
 10
249.1740
 20
314.9600
 30
0.0
 0
VERTEX
 8
PARTS
 10
250.6980
 20
316.4840
 30
0.0
 0
SEQEND
 8
PARTS
 0
POLYLINE
 8
PARTS
 66
1
 10
0.0
 20
0.0
 30
0.0
 0
VERTEX
 8
PARTS
 10
250.6980
 20
316.4840
 30
0.0
 0
VERTEX
 8
PARTS
 10
251.4600
 20
315.7220
 30
0.0
 0
SEQEND
 8
PARTS
 0
TEXT
 8
PARTTEXT
 10
123.4440
 20
238.1863
 30
0.0
 40
  1.3057
 1
R15
 0
TEXT
 8
PARTTEXT
 10
123.4440
 20
235.1383
 30
0.0
 40
  1.3057
 1
330
 0
LINE
 8
PARTS
 10
119.3800
 20
229.3620
 30
0.0
 11
119.3800
 21
231.9020
 31
0.0
 0
LINE
 8
PARTS
 10
119.3800
 20
242.0620
 30
0.0
 11
119.3800
 21
239.5220
 31
0.0
 0
POLYLINE
 8
PARTS
 66
1
 10
0.0
 20
0.0
 30
0.0
 0
VERTEX
 8
PARTS
 10
119.3800
 20
231.9020
 30
0.0
 0
VERTEX
 8
PARTS
 10
118.6180
 20
232.6640
 30
0.0
 0
SEQEND
 8
PARTS
 0
POLYLINE
 8
PARTS
 66
1
 10
0.0
 20
0.0
 30
0.0
 0
VERTEX
 8
PARTS
 10
118.6180
 20
232.6640
 30
0.0
 0
VERTEX
 8
PARTS
 10
120.1420
 20
234.1880
 30
0.0
 0
SEQEND
 8
PARTS
 0
POLYLINE
 8
PARTS
 66
1
 10
0.0
 20
0.0
 30
0.0
 0
VERTEX
 8
PARTS
 10
120.1420
 20
234.1880
 30
0.0
 0
VERTEX
 8
PARTS
 10
118.6180
 20
235.7120
 30
0.0
 0
SEQEND
 8
PARTS
 0
POLYLINE
 8
PARTS
 66
1
 10
0.0
 20
0.0
 30
0.0
 0
VERTEX
 8
PARTS
 10
118.6180
 20
235.7120
 30
0.0
 0
VERTEX
 8
PARTS
 10
120.1420
 20
237.2360
 30
0.0
 0
SEQEND
 8
PARTS
 0
POLYLINE
 8
PARTS
 66
1
 10
0.0
 20
0.0
 30
0.0
 0
VERTEX
 8
PARTS
 10
120.1420
 20
237.2360
 30
0.0
 0
VERTEX
 8
PARTS
 10
118.6180
 20
238.7600
 30
0.0
 0
SEQEND
 8
PARTS
 0
POLYLINE
 8
PARTS
 66
1
 10
0.0
 20
0.0
 30
0.0
 0
VERTEX
 8
PARTS
 10
118.6180
 20
238.7600
 30
0.0
 0
VERTEX
 8
PARTS
 10
119.3800
 20
239.5220
 30
0.0
 0
SEQEND
 8
PARTS
 0
TEXT
 8
PARTTEXT
 10
125.9840
 20
367.7263
 30
0.0
 40
  1.3057
 1
D10
 0
TEXT
 8
PARTTEXT
 10
125.9840
 20
364.6783
 30
0.0
 40
  1.3057
 1
LED
 0
LINE
 8
PARTS
 10
121.9200
 20
356.3620
 30
0.0
 11
121.9200
 21
358.9020
 31
0.0
 0
LINE
 8
PARTS
 10
121.9200
 20
371.6020
 30
0.0
 11
121.9200
 21
369.0620
 31
0.0
 0
POLYLINE
 8
PARTS
 66
1
 10
0.0
 20
0.0
 30
0.0
 0
VERTEX
 8
PARTS
 10
120.1420
 20
363.9820
 30
0.0
 0
VERTEX
 8
PARTS
 10
123.6980
 20
363.9820
 30
0.0
 0
SEQEND
 8
PARTS
 0
POLYLINE
 8
PARTS
 66
1
 10
0.0
 20
0.0
 30
0.0
 0
VERTEX
 8
PARTS
 10
121.9200
 20
358.9020
 30
0.0
 0
VERTEX
 8
PARTS
 10
121.9200
 20
361.4420
 30
0.0
 0
SEQEND
 8
PARTS
 0
POLYLINE
 8
PARTS
 66
1
 10
0.0
 20
0.0
 30
0.0
 0
VERTEX
 8
PARTS
 10
121.9200
 20
363.9820
 30
0.0
 0
VERTEX
 8
PARTS
 10
121.9200
 20
369.0620
 30
0.0
 0
SEQEND
 8
PARTS
 0
POLYLINE
 8
PARTS
 66
1
 70
1
 10
0.0
 20
0.0
 30
0.0
 0
VERTEX
 8
PARTS
 10
121.9200
 20
363.9820
 30
0.0
 0
VERTEX
 8
PARTS
 10
121.9200
 20
363.9820
 30
0.0
 0
VERTEX
 8
PARTS
 10
123.6980
 20
361.4420
 30
0.0
 0
VERTEX
 8
PARTS
 10
120.1420
 20
361.4420
 30
0.0
 0
VERTEX
 8
PARTS
 10
121.9200
 20
363.9820
 30
0.0
 0
SEQEND
 8
PARTS
 0
POLYLINE
 8
PARTS
 66
1
 70
1
 10
0.0
 20
0.0
 30
0.0
 0
VERTEX
 8
PARTS
 10
119.8880
 20
367.0300
 30
0.0
 0
VERTEX
 8
PARTS
 10
119.8880
 20
367.0300
 30
0.0
 0
VERTEX
 8
PARTS
 10
119.3800
 20
368.0460
 30
0.0
 0
VERTEX
 8
PARTS
 10
120.3960
 20
367.5380
 30
0.0
 0
VERTEX
 8
PARTS
 10
119.8880
 20
367.0300
 30
0.0
 0
SEQEND
 8
PARTS
 0
POLYLINE
 8
PARTS
 66
1
 70
1
 10
0.0
 20
0.0
 30
0.0
 0
VERTEX
 8
PARTS
 10
119.8880
 20
365.5060
 30
0.0
 0
VERTEX
 8
PARTS
 10
119.8880
 20
365.5060
 30
0.0
 0
VERTEX
 8
PARTS
 10
119.3800
 20
366.5220
 30
0.0
 0
VERTEX
 8
PARTS
 10
120.3960
 20
366.0140
 30
0.0
 0
VERTEX
 8
PARTS
 10
119.8880
 20
365.5060
 30
0.0
 0
SEQEND
 8
PARTS
 0
POLYLINE
 8
PARTS
 66
1
 10
0.0
 20
0.0
 30
0.0
 0
VERTEX
 8
PARTS
 10
119.6340
 20
366.2680
 30
0.0
 0
VERTEX
 8
PARTS
 10
121.1580
 20
364.7440
 30
0.0
 0
SEQEND
 8
PARTS
 0
POLYLINE
 8
PARTS
 66
1
 10
0.0
 20
0.0
 30
0.0
 0
VERTEX
 8
PARTS
 10
119.6340
 20
367.7920
 30
0.0
 0
VERTEX
 8
PARTS
 10
121.1580
 20
366.2680
 30
0.0
 0
SEQEND
 8
PARTS
 0
TEXT
 8
PARTTEXT
 10
172.7200
 20
360.1063
 30
0.0
 40
  1.3057
 1
U1
 0
TEXT
 8
PARTTEXT
 10
172.7200
 20
327.0863
 30
0.0
 40
  1.3057
 1
LMD18201/TO
 0
LINE
 8
PARTS
 10
165.1000
 20
353.8220
 30
0.0
 11
172.7200
 21
353.8220
 31
0.0
 0
TEXT
 8
PARTS
 10
175.0060
 20
353.1870
 30
0.0
 40
  1.2700
 1
BTP1
 0
TEXT
 8
PARTS
 10
170.1800
 20
354.5840
 30
0.0
 40
  1.2700
 1
1
 0
LINE
 8
PARTS
 10
208.2800
 20
353.8220
 30
0.0
 11
200.6600
 21
353.8220
 31
0.0
 0
TEXT
 8
PARTS
 10
194.3100
 20
353.1870
 30
0.0
 40
  1.2700
 1
OUT1
 0
TEXT
 8
PARTS
 10
202.1840
 20
354.5840
 30
0.0
 40
  1.2700
 1
2
 0
LINE
 8
PARTS
 10
165.1000
 20
333.5020
 30
0.0
 11
172.7200
 21
333.5020
 31
0.0
 0
TEXT
 8
PARTS
 10
175.0060
 20
332.8670
 30
0.0
 40
  1.2700
 1
VCC
 0
TEXT
 8
PARTS
 10
170.1800
 20
334.2640
 30
0.0
 40
  1.2700
 1
6
 0
LINE
 8
PARTS
 10
165.1000
 20
348.7420
 30
0.0
 11
172.7200
 21
348.7420
 31
0.0
 0
TEXT
 8
PARTS
 10
175.0060
 20
348.1070
 30
0.0
 40
  1.2700
 1
PGND/SENSE
 0
TEXT
 8
PARTS
 10
170.1800
 20
349.5040
 30
0.0
 40
  1.2700
 1
7
 0
LINE
 8
PARTS
 10
208.2800
 20
346.2020
 30
0.0
 11
200.6600
 21
346.2020
 31
0.0
 0
TEXT
 8
PARTS
 10
193.2940
 20
345.5670
 30
0.0
 40
  1.2700
 1
TFOUT
 0
TEXT
 8
PARTS
 10
202.1840
 20
346.9640
 30
0.0
 40
  1.2700
 1
9
 0
LINE
 8
PARTS
 10
208.2800
 20
351.2820
 30
0.0
 11
200.6600
 21
351.2820
 31
0.0
 0
TEXT
 8
PARTS
 10
194.3100
 20
350.6470
 30
0.0
 40
  1.2700
 1
OUT2
 0
TEXT
 8
PARTS
 10
202.1840
 20
352.0440
 30
0.0
 40
  1.2700
 1
10
 0
LINE
 8
PARTS
 10
165.1000
 20
351.2820
 30
0.0
 11
172.7200
 21
351.2820
 31
0.0
 0
TEXT
 8
PARTS
 10
175.0060
 20
350.6470
 30
0.0
 40
  1.2700
 1
BTP2
 0
TEXT
 8
PARTS
 10
169.1640
 20
352.0440
 30
0.0
 40
  1.2700
 1
11
 0
LINE
 8
PARTS
 10
165.1000
 20
341.1220
 30
0.0
 11
172.7200
 21
341.1220
 31
0.0
 0
TEXT
 8
PARTS
 10
175.0060
 20
340.4870
 30
0.0
 40
  1.2700
 1
DIN
 0
TEXT
 8
PARTS
 10
170.1800
 20
341.8840
 30
0.0
 40
  1.2700
 1
3
 0
LINE
 8
PARTS
 10
165.1000
 20
343.6620
 30
0.0
 11
172.7200
 21
343.6620
 31
0.0
 0
TEXT
 8
PARTS
 10
175.0060
 20
343.0270
 30
0.0
 40
  1.2700
 1
BIN
 0
TEXT
 8
PARTS
 10
170.1800
 20
344.4240
 30
0.0
 40
  1.2700
 1
4
 0
LINE
 8
PARTS
 10
165.1000
 20
338.5820
 30
0.0
 11
172.7200
 21
338.5820
 31
0.0
 0
TEXT
 8
PARTS
 10
175.0060
 20
337.9470
 30
0.0
 40
  1.2700
 1
PWMIN
 0
TEXT
 8
PARTS
 10
170.1800
 20
339.3440
 30
0.0
 40
  1.2700
 1
5
 0
POLYLINE
 8
PARTS
 66
1
 70
1
 10
0.0
 20
0.0
 30
0.0
 0
VERTEX
 8
PARTS
 10
172.7200
 20
356.3620
 30
0.0
 0
VERTEX
 8
PARTS
 10
200.6600
 20
356.3620
 30
0.0
 0
VERTEX
 8
PARTS
 10
200.6600
 20
330.9620
 30
0.0
 0
VERTEX
 8
PARTS
 10
172.7200
 20
330.9620
 30
0.0
 0
SEQEND
 8
PARTS
 0
TEXT
 8
PARTTEXT
 10
248.9200
 20
291.5263
 30
0.0
 40
  1.3057
 1
J4
 0
TEXT
 8
PARTTEXT
 10
239.5220
 20
271.2063
 30
0.0
 40
  1.3057
 1
24v
 0
LINE
 8
PARTS
 10
236.2200
 20
282.7020
 30
0.0
 11
243.8400
 21
282.7020
 31
0.0
 0
TEXT
 8
PARTS
 10
241.3000
 20
283.4640
 30
0.0
 40
  1.2700
 1
1
 0
LINE
 8
PARTS
 10
236.2200
 20
280.1620
 30
0.0
 11
243.8400
 21
280.1620
 31
0.0
 0
TEXT
 8
PARTS
 10
241.3000
 20
280.9240
 30
0.0
 40
  1.2700
 1
2
 0
POLYLINE
 8
PARTS
 66
1
 70
1
 10
0.0
 20
0.0
 30
0.0
 0
VERTEX
 8
PARTS
 10
251.4600
 20
285.2420
 30
0.0
 0
VERTEX
 8
PARTS
 10
243.8400
 20
285.2420
 30
0.0
 0
VERTEX
 8
PARTS
 10
243.8400
 20
277.6220
 30
0.0
 0
VERTEX
 8
PARTS
 10
251.4600
 20
277.6220
 30
0.0
 0
SEQEND
 8
PARTS
 0
POLYLINE
 8
PARTS
 66
1
 10
0.0
 20
0.0
 30
0.0
 0
VERTEX
 8
PARTS
 10
246.3800
 20
285.2420
 30
0.0
 0
VERTEX
 8
PARTS
 10
246.3800
 20
285.2420
 30
0.0
 0
VERTEX
 8
PARTS
 10
246.3800
 20
286.0040
 30
0.0
 0
VERTEX
 8
PARTS
 10
248.6660
 20
286.0040
 30
0.0
 0
VERTEX
 8
PARTS
 10
248.6660
 20
285.2420
 30
0.0
 0
SEQEND
 8
PARTS
 0
POLYLINE
 8
PARTS
 66
1
 10
0.0
 20
0.0
 30
0.0
 0
VERTEX
 8
PARTS
 10
248.6660
 20
277.6220
 30
0.0
 0
VERTEX
 8
PARTS
 10
248.6660
 20
277.6220
 30
0.0
 0
VERTEX
 8
PARTS
 10
248.6660
 20
276.8600
 30
0.0
 0
VERTEX
 8
PARTS
 10
246.3800
 20
276.8600
 30
0.0
 0
VERTEX
 8
PARTS
 10
246.3800
 20
277.6220
 30
0.0
 0
SEQEND
 8
PARTS
 0
TEXT
 8
PARTTEXT
 10
138.6840
 20
352.4863
 30
0.0
 40
  1.3057
 1
R14
 0
TEXT
 8
PARTTEXT
 10
138.6840
 20
349.4383
 30
0.0
 40
  1.3057
 1
330
 0
LINE
 8
PARTS
 10
134.6200
 20
343.6620
 30
0.0
 11
134.6200
 21
346.2020
 31
0.0
 0
LINE
 8
PARTS
 10
134.6200
 20
356.3620
 30
0.0
 11
134.6200
 21
353.8220
 31
0.0
 0
POLYLINE
 8
PARTS
 66
1
 10
0.0
 20
0.0
 30
0.0
 0
VERTEX
 8
PARTS
 10
134.6200
 20
346.2020
 30
0.0
 0
VERTEX
 8
PARTS
 10
133.8580
 20
346.9640
 30
0.0
 0
SEQEND
 8
PARTS
 0
POLYLINE
 8
PARTS
 66
1
 10
0.0
 20
0.0
 30
0.0
 0
VERTEX
 8
PARTS
 10
133.8580
 20
346.9640
 30
0.0
 0
VERTEX
 8
PARTS
 10
135.3820
 20
348.4880
 30
0.0
 0
SEQEND
 8
PARTS
 0
POLYLINE
 8
PARTS
 66
1
 10
0.0
 20
0.0
 30
0.0
 0
VERTEX
 8
PARTS
 10
135.3820
 20
348.4880
 30
0.0
 0
VERTEX
 8
PARTS
 10
133.8580
 20
350.0120
 30
0.0
 0
SEQEND
 8
PARTS
 0
POLYLINE
 8
PARTS
 66
1
 10
0.0
 20
0.0
 30
0.0
 0
VERTEX
 8
PARTS
 10
133.8580
 20
350.0120
 30
0.0
 0
VERTEX
 8
PARTS
 10
135.3820
 20
351.5360
 30
0.0
 0
SEQEND
 8
PARTS
 0
POLYLINE
 8
PARTS
 66
1
 10
0.0
 20
0.0
 30
0.0
 0
VERTEX
 8
PARTS
 10
135.3820
 20
351.5360
 30
0.0
 0
VERTEX
 8
PARTS
 10
133.8580
 20
353.0600
 30
0.0
 0
SEQEND
 8
PARTS
 0
POLYLINE
 8
PARTS
 66
1
 10
0.0
 20
0.0
 30
0.0
 0
VERTEX
 8
PARTS
 10
133.8580
 20
353.0600
 30
0.0
 0
VERTEX
 8
PARTS
 10
134.6200
 20
353.8220
 30
0.0
 0
SEQEND
 8
PARTS
 0
TEXT
 8
PARTTEXT
 10
110.7440
 20
253.4263
 30
0.0
 40
  1.3057
 1
D14
 0
TEXT
 8
PARTTEXT
 10
110.7440
 20
250.3783
 30
0.0
 40
  1.3057
 1
LED
 0
LINE
 8
PARTS
 10
106.6800
 20
242.0620
 30
0.0
 11
106.6800
 21
244.6020
 31
0.0
 0
LINE
 8
PARTS
 10
106.6800
 20
257.3020
 30
0.0
 11
106.6800
 21
254.7620
 31
0.0
 0
POLYLINE
 8
PARTS
 66
1
 10
0.0
 20
0.0
 30
0.0
 0
VERTEX
 8
PARTS
 10
104.9020
 20
249.6820
 30
0.0
 0
VERTEX
 8
PARTS
 10
108.4580
 20
249.6820
 30
0.0
 0
SEQEND
 8
PARTS
 0
POLYLINE
 8
PARTS
 66
1
 10
0.0
 20
0.0
 30
0.0
 0
VERTEX
 8
PARTS
 10
106.6800
 20
244.6020
 30
0.0
 0
VERTEX
 8
PARTS
 10
106.6800
 20
247.1420
 30
0.0
 0
SEQEND
 8
PARTS
 0
POLYLINE
 8
PARTS
 66
1
 10
0.0
 20
0.0
 30
0.0
 0
VERTEX
 8
PARTS
 10
106.6800
 20
249.6820
 30
0.0
 0
VERTEX
 8
PARTS
 10
106.6800
 20
254.7620
 30
0.0
 0
SEQEND
 8
PARTS
 0
POLYLINE
 8
PARTS
 66
1
 70
1
 10
0.0
 20
0.0
 30
0.0
 0
VERTEX
 8
PARTS
 10
106.6800
 20
249.6820
 30
0.0
 0
VERTEX
 8
PARTS
 10
106.6800
 20
249.6820
 30
0.0
 0
VERTEX
 8
PARTS
 10
108.4580
 20
247.1420
 30
0.0
 0
VERTEX
 8
PARTS
 10
104.9020
 20
247.1420
 30
0.0
 0
VERTEX
 8
PARTS
 10
106.6800
 20
249.6820
 30
0.0
 0
SEQEND
 8
PARTS
 0
POLYLINE
 8
PARTS
 66
1
 70
1
 10
0.0
 20
0.0
 30
0.0
 0
VERTEX
 8
PARTS
 10
104.6480
 20
252.7300
 30
0.0
 0
VERTEX
 8
PARTS
 10
104.6480
 20
252.7300
 30
0.0
 0
VERTEX
 8
PARTS
 10
104.1400
 20
253.7460
 30
0.0
 0
VERTEX
 8
PARTS
 10
105.1560
 20
253.2380
 30
0.0
 0
VERTEX
 8
PARTS
 10
104.6480
 20
252.7300
 30
0.0
 0
SEQEND
 8
PARTS
 0
POLYLINE
 8
PARTS
 66
1
 70
1
 10
0.0
 20
0.0
 30
0.0
 0
VERTEX
 8
PARTS
 10
104.6480
 20
251.2060
 30
0.0
 0
VERTEX
 8
PARTS
 10
104.6480
 20
251.2060
 30
0.0
 0
VERTEX
 8
PARTS
 10
104.1400
 20
252.2220
 30
0.0
 0
VERTEX
 8
PARTS
 10
105.1560
 20
251.7140
 30
0.0
 0
VERTEX
 8
PARTS
 10
104.6480
 20
251.2060
 30
0.0
 0
SEQEND
 8
PARTS
 0
POLYLINE
 8
PARTS
 66
1
 10
0.0
 20
0.0
 30
0.0
 0
VERTEX
 8
PARTS
 10
104.3940
 20
251.9680
 30
0.0
 0
VERTEX
 8
PARTS
 10
105.9180
 20
250.4440
 30
0.0
 0
SEQEND
 8
PARTS
 0
POLYLINE
 8
PARTS
 66
1
 10
0.0
 20
0.0
 30
0.0
 0
VERTEX
 8
PARTS
 10
104.3940
 20
253.4920
 30
0.0
 0
VERTEX
 8
PARTS
 10
105.9180
 20
251.9680
 30
0.0
 0
SEQEND
 8
PARTS
 0
TEXT
 8
PARTTEXT
 10
125.9840
 20
352.4863
 30
0.0
 40
  1.3057
 1
R12
 0
TEXT
 8
PARTTEXT
 10
125.9840
 20
349.4383
 30
0.0
 40
  1.3057
 1
330
 0
LINE
 8
PARTS
 10
121.9200
 20
343.6620
 30
0.0
 11
121.9200
 21
346.2020
 31
0.0
 0
LINE
 8
PARTS
 10
121.9200
 20
356.3620
 30
0.0
 11
121.9200
 21
353.8220
 31
0.0
 0
POLYLINE
 8
PARTS
 66
1
 10
0.0
 20
0.0
 30
0.0
 0
VERTEX
 8
PARTS
 10
121.9200
 20
346.2020
 30
0.0
 0
VERTEX
 8
PARTS
 10
121.1580
 20
346.9640
 30
0.0
 0
SEQEND
 8
PARTS
 0
POLYLINE
 8
PARTS
 66
1
 10
0.0
 20
0.0
 30
0.0
 0
VERTEX
 8
PARTS
 10
121.1580
 20
346.9640
 30
0.0
 0
VERTEX
 8
PARTS
 10
122.6820
 20
348.4880
 30
0.0
 0
SEQEND
 8
PARTS
 0
POLYLINE
 8
PARTS
 66
1
 10
0.0
 20
0.0
 30
0.0
 0
VERTEX
 8
PARTS
 10
122.6820
 20
348.4880
 30
0.0
 0
VERTEX
 8
PARTS
 10
121.1580
 20
350.0120
 30
0.0
 0
SEQEND
 8
PARTS
 0
POLYLINE
 8
PARTS
 66
1
 10
0.0
 20
0.0
 30
0.0
 0
VERTEX
 8
PARTS
 10
121.1580
 20
350.0120
 30
0.0
 0
VERTEX
 8
PARTS
 10
122.6820
 20
351.5360
 30
0.0
 0
SEQEND
 8
PARTS
 0
POLYLINE
 8
PARTS
 66
1
 10
0.0
 20
0.0
 30
0.0
 0
VERTEX
 8
PARTS
 10
122.6820
 20
351.5360
 30
0.0
 0
VERTEX
 8
PARTS
 10
121.1580
 20
353.0600
 30
0.0
 0
SEQEND
 8
PARTS
 0
POLYLINE
 8
PARTS
 66
1
 10
0.0
 20
0.0
 30
0.0
 0
VERTEX
 8
PARTS
 10
121.1580
 20
353.0600
 30
0.0
 0
VERTEX
 8
PARTS
 10
121.9200
 20
353.8220
 30
0.0
 0
SEQEND
 8
PARTS
 0
TEXT
 8
PARTTEXT
 10
114.3000
 20
309.3063
 30
0.0
 40
  1.3057
 1
J3
 0
TEXT
 8
PARTTEXT
 10
110.2360
 20
278.8263
 30
0.0
 40
  1.3057
 1
CON8
 0
LINE
 8
PARTS
 10
124.4600
 20
303.0220
 30
0.0
 11
116.8400
 21
303.0220
 31
0.0
 0
TEXT
 8
PARTS
 10
118.3640
 20
303.7840
 30
0.0
 40
  1.2700
 1
1
 0
LINE
 8
PARTS
 10
124.4600
 20
300.4820
 30
0.0
 11
116.8400
 21
300.4820
 31
0.0
 0
TEXT
 8
PARTS
 10
118.3640
 20
301.2440
 30
0.0
 40
  1.2700
 1
2
 0
LINE
 8
PARTS
 10
124.4600
 20
297.9420
 30
0.0
 11
116.8400
 21
297.9420
 31
0.0
 0
TEXT
 8
PARTS
 10
118.3640
 20
298.7040
 30
0.0
 40
  1.2700
 1
3
 0
LINE
 8
PARTS
 10
124.4600
 20
295.4020
 30
0.0
 11
116.8400
 21
295.4020
 31
0.0
 0
TEXT
 8
PARTS
 10
118.3640
 20
296.1640
 30
0.0
 40
  1.2700
 1
4
 0
LINE
 8
PARTS
 10
124.4600
 20
292.8620
 30
0.0
 11
116.8400
 21
292.8620
 31
0.0
 0
TEXT
 8
PARTS
 10
118.3640
 20
293.6240
 30
0.0
 40
  1.2700
 1
5
 0
LINE
 8
PARTS
 10
124.4600
 20
290.3220
 30
0.0
 11
116.8400
 21
290.3220
 31
0.0
 0
TEXT
 8
PARTS
 10
118.3640
 20
291.0840
 30
0.0
 40
  1.2700
 1
6
 0
LINE
 8
PARTS
 10
124.4600
 20
287.7820
 30
0.0
 11
116.8400
 21
287.7820
 31
0.0
 0
TEXT
 8
PARTS
 10
118.3640
 20
288.5440
 30
0.0
 40
  1.2700
 1
7
 0
LINE
 8
PARTS
 10
124.4600
 20
285.2420
 30
0.0
 11
116.8400
 21
285.2420
 31
0.0
 0
TEXT
 8
PARTS
 10
118.3640
 20
286.0040
 30
0.0
 40
  1.2700
 1
8
 0
POLYLINE
 8
PARTS
 66
1
 70
1
 10
0.0
 20
0.0
 30
0.0
 0
VERTEX
 8
PARTS
 10
116.8400
 20
305.5620
 30
0.0
 0
VERTEX
 8
PARTS
 10
111.7600
 20
305.5620
 30
0.0
 0
VERTEX
 8
PARTS
 10
111.7600
 20
282.7020
 30
0.0
 0
VERTEX
 8
PARTS
 10
116.8400
 20
282.7020
 30
0.0
 0
SEQEND
 8
PARTS
 0
TEXT
 8
PARTTEXT
 10
170.1800
 20
245.8063
 30
0.0
 40
  1.3057
 1
U2
 0
TEXT
 8
PARTTEXT
 10
170.1800
 20
212.7863
 30
0.0
 40
  1.3057
 1
LMD18201/TO
 0
LINE
 8
PARTS
 10
162.5600
 20
239.5220
 30
0.0
 11
170.1800
 21
239.5220
 31
0.0
 0
TEXT
 8
PARTS
 10
172.4660
 20
238.8870
 30
0.0
 40
  1.2700
 1
BTP1
 0
TEXT
 8
PARTS
 10
167.6400
 20
240.2840
 30
0.0
 40
  1.2700
 1
1
 0
LINE
 8
PARTS
 10
205.7400
 20
239.5220
 30
0.0
 11
198.1200
 21
239.5220
 31
0.0
 0
TEXT
 8
PARTS
 10
191.7700
 20
238.8870
 30
0.0
 40
  1.2700
 1
OUT1
 0
TEXT
 8
PARTS
 10
199.6440
 20
240.2840
 30
0.0
 40
  1.2700
 1
2
 0
LINE
 8
PARTS
 10
162.5600
 20
219.2020
 30
0.0
 11
170.1800
 21
219.2020
 31
0.0
 0
TEXT
 8
PARTS
 10
172.4660
 20
218.5670
 30
0.0
 40
  1.2700
 1
VCC
 0
TEXT
 8
PARTS
 10
167.6400
 20
219.9640
 30
0.0
 40
  1.2700
 1
6
 0
LINE
 8
PARTS
 10
162.5600
 20
234.4420
 30
0.0
 11
170.1800
 21
234.4420
 31
0.0
 0
TEXT
 8
PARTS
 10
172.4660
 20
233.8070
 30
0.0
 40
  1.2700
 1
PGND/SENSE
 0
TEXT
 8
PARTS
 10
167.6400
 20
235.2040
 30
0.0
 40
  1.2700
 1
7
 0
LINE
 8
PARTS
 10
205.7400
 20
231.9020
 30
0.0
 11
198.1200
 21
231.9020
 31
0.0
 0
TEXT
 8
PARTS
 10
190.7540
 20
231.2670
 30
0.0
 40
  1.2700
 1
TFOUT
 0
TEXT
 8
PARTS
 10
199.6440
 20
232.6640
 30
0.0
 40
  1.2700
 1
9
 0
LINE
 8
PARTS
 10
205.7400
 20
236.9820
 30
0.0
 11
198.1200
 21
236.9820
 31
0.0
 0
TEXT
 8
PARTS
 10
191.7700
 20
236.3470
 30
0.0
 40
  1.2700
 1
OUT2
 0
TEXT
 8
PARTS
 10
199.6440
 20
237.7440
 30
0.0
 40
  1.2700
 1
10
 0
LINE
 8
PARTS
 10
162.5600
 20
236.9820
 30
0.0
 11
170.1800
 21
236.9820
 31
0.0
 0
TEXT
 8
PARTS
 10
172.4660
 20
236.3470
 30
0.0
 40
  1.2700
 1
BTP2
 0
TEXT
 8
PARTS
 10
166.6240
 20
237.7440
 30
0.0
 40
  1.2700
 1
11
 0
LINE
 8
PARTS
 10
162.5600
 20
226.8220
 30
0.0
 11
170.1800
 21
226.8220
 31
0.0
 0
TEXT
 8
PARTS
 10
172.4660
 20
226.1870
 30
0.0
 40
  1.2700
 1
DIN
 0
TEXT
 8
PARTS
 10
167.6400
 20
227.5840
 30
0.0
 40
  1.2700
 1
3
 0
LINE
 8
PARTS
 10
162.5600
 20
229.3620
 30
0.0
 11
170.1800
 21
229.3620
 31
0.0
 0
TEXT
 8
PARTS
 10
172.4660
 20
228.7270
 30
0.0
 40
  1.2700
 1
BIN
 0
TEXT
 8
PARTS
 10
167.6400
 20
230.1240
 30
0.0
 40
  1.2700
 1
4
 0
LINE
 8
PARTS
 10
162.5600
 20
224.2820
 30
0.0
 11
170.1800
 21
224.2820
 31
0.0
 0
TEXT
 8
PARTS
 10
172.4660
 20
223.6470
 30
0.0
 40
  1.2700
 1
PWMIN
 0
TEXT
 8
PARTS
 10
167.6400
 20
225.0440
 30
0.0
 40
  1.2700
 1
5
 0
POLYLINE
 8
PARTS
 66
1
 70
1
 10
0.0
 20
0.0
 30
0.0
 0
VERTEX
 8
PARTS
 10
170.1800
 20
242.0620
 30
0.0
 0
VERTEX
 8
PARTS
 10
198.1200
 20
242.0620
 30
0.0
 0
VERTEX
 8
PARTS
 10
198.1200
 20
216.6620
 30
0.0
 0
VERTEX
 8
PARTS
 10
170.1800
 20
216.6620
 30
0.0
 0
SEQEND
 8
PARTS
 0
TEXT
 8
PARTTEXT
 10
246.3800
 20
362.6463
 30
0.0
 40
  1.3057
 1
J1
 0
TEXT
 8
PARTTEXT
 10
236.9820
 20
342.3263
 30
0.0
 40
  1.3057
 1
DC1
 0
LINE
 8
PARTS
 10
233.6800
 20
353.8220
 30
0.0
 11
241.3000
 21
353.8220
 31
0.0
 0
TEXT
 8
PARTS
 10
238.7600
 20
354.5840
 30
0.0
 40
  1.2700
 1
1
 0
LINE
 8
PARTS
 10
233.6800
 20
351.2820
 30
0.0
 11
241.3000
 21
351.2820
 31
0.0
 0
TEXT
 8
PARTS
 10
238.7600
 20
352.0440
 30
0.0
 40
  1.2700
 1
2
 0
POLYLINE
 8
PARTS
 66
1
 70
1
 10
0.0
 20
0.0
 30
0.0
 0
VERTEX
 8
PARTS
 10
248.9200
 20
356.3620
 30
0.0
 0
VERTEX
 8
PARTS
 10
241.3000
 20
356.3620
 30
0.0
 0
VERTEX
 8
PARTS
 10
241.3000
 20
348.7420
 30
0.0
 0
VERTEX
 8
PARTS
 10
248.9200
 20
348.7420
 30
0.0
 0
SEQEND
 8
PARTS
 0
POLYLINE
 8
PARTS
 66
1
 10
0.0
 20
0.0
 30
0.0
 0
VERTEX
 8
PARTS
 10
243.8400
 20
356.3620
 30
0.0
 0
VERTEX
 8
PARTS
 10
243.8400
 20
356.3620
 30
0.0
 0
VERTEX
 8
PARTS
 10
243.8400
 20
357.1240
 30
0.0
 0
VERTEX
 8
PARTS
 10
246.1260
 20
357.1240
 30
0.0
 0
VERTEX
 8
PARTS
 10
246.1260
 20
356.3620
 30
0.0
 0
SEQEND
 8
PARTS
 0
POLYLINE
 8
PARTS
 66
1
 10
0.0
 20
0.0
 30
0.0
 0
VERTEX
 8
PARTS
 10
246.1260
 20
348.7420
 30
0.0
 0
VERTEX
 8
PARTS
 10
246.1260
 20
348.7420
 30
0.0
 0
VERTEX
 8
PARTS
 10
246.1260
 20
347.9800
 30
0.0
 0
VERTEX
 8
PARTS
 10
243.8400
 20
347.9800
 30
0.0
 0
VERTEX
 8
PARTS
 10
243.8400
 20
348.7420
 30
0.0
 0
SEQEND
 8
PARTS
 0
TEXT
 8
PARTTEXT
 10
113.2840
 20
367.7263
 30
0.0
 40
  1.3057
 1
D11
 0
TEXT
 8
PARTTEXT
 10
113.2840
 20
364.6783
 30
0.0
 40
  1.3057
 1
LED
 0
LINE
 8
PARTS
 10
109.2200
 20
356.3620
 30
0.0
 11
109.2200
 21
358.9020
 31
0.0
 0
LINE
 8
PARTS
 10
109.2200
 20
371.6020
 30
0.0
 11
109.2200
 21
369.0620
 31
0.0
 0
POLYLINE
 8
PARTS
 66
1
 10
0.0
 20
0.0
 30
0.0
 0
VERTEX
 8
PARTS
 10
107.4420
 20
363.9820
 30
0.0
 0
VERTEX
 8
PARTS
 10
110.9980
 20
363.9820
 30
0.0
 0
SEQEND
 8
PARTS
 0
POLYLINE
 8
PARTS
 66
1
 10
0.0
 20
0.0
 30
0.0
 0
VERTEX
 8
PARTS
 10
109.2200
 20
358.9020
 30
0.0
 0
VERTEX
 8
PARTS
 10
109.2200
 20
361.4420
 30
0.0
 0
SEQEND
 8
PARTS
 0
POLYLINE
 8
PARTS
 66
1
 10
0.0
 20
0.0
 30
0.0
 0
VERTEX
 8
PARTS
 10
109.2200
 20
363.9820
 30
0.0
 0
VERTEX
 8
PARTS
 10
109.2200
 20
369.0620
 30
0.0
 0
SEQEND
 8
PARTS
 0
POLYLINE
 8
PARTS
 66
1
 70
1
 10
0.0
 20
0.0
 30
0.0
 0
VERTEX
 8
PARTS
 10
109.2200
 20
363.9820
 30
0.0
 0
VERTEX
 8
PARTS
 10
109.2200
 20
363.9820
 30
0.0
 0
VERTEX
 8
PARTS
 10
110.9980
 20
361.4420
 30
0.0
 0
VERTEX
 8
PARTS
 10
107.4420
 20
361.4420
 30
0.0
 0
VERTEX
 8
PARTS
 10
109.2200
 20
363.9820
 30
0.0
 0
SEQEND
 8
PARTS
 0
POLYLINE
 8
PARTS
 66
1
 70
1
 10
0.0
 20
0.0
 30
0.0
 0
VERTEX
 8
PARTS
 10
107.1880
 20
367.0300
 30
0.0
 0
VERTEX
 8
PARTS
 10
107.1880
 20
367.0300
 30
0.0
 0
VERTEX
 8
PARTS
 10
106.6800
 20
368.0460
 30
0.0
 0
VERTEX
 8
PARTS
 10
107.6960
 20
367.5380
 30
0.0
 0
VERTEX
 8
PARTS
 10
107.1880
 20
367.0300
 30
0.0
 0
SEQEND
 8
PARTS
 0
POLYLINE
 8
PARTS
 66
1
 70
1
 10
0.0
 20
0.0
 30
0.0
 0
VERTEX
 8
PARTS
 10
107.1880
 20
365.5060
 30
0.0
 0
VERTEX
 8
PARTS
 10
107.1880
 20
365.5060
 30
0.0
 0
VERTEX
 8
PARTS
 10
106.6800
 20
366.5220
 30
0.0
 0
VERTEX
 8
PARTS
 10
107.6960
 20
366.0140
 30
0.0
 0
VERTEX
 8
PARTS
 10
107.1880
 20
365.5060
 30
0.0
 0
SEQEND
 8
PARTS
 0
POLYLINE
 8
PARTS
 66
1
 10
0.0
 20
0.0
 30
0.0
 0
VERTEX
 8
PARTS
 10
106.9340
 20
366.2680
 30
0.0
 0
VERTEX
 8
PARTS
 10
108.4580
 20
364.7440
 30
0.0
 0
SEQEND
 8
PARTS
 0
POLYLINE
 8
PARTS
 66
1
 10
0.0
 20
0.0
 30
0.0
 0
VERTEX
 8
PARTS
 10
106.9340
 20
367.7920
 30
0.0
 0
VERTEX
 8
PARTS
 10
108.4580
 20
366.2680
 30
0.0
 0
SEQEND
 8
PARTS
 0
TEXT
 8
PARTTEXT
 10
241.3000
 20
313.1163
 30
0.0
 40
  1.3057
 1
C13
 0
TEXT
 8
PARTTEXT
 10
241.3000
 20
302.7023
 30
0.0
 40
  1.3057
 1
104
 0
LINE
 8
PARTS
 10
238.7600
 20
308.1020
 30
0.0
 11
241.3000
 21
308.1020
 31
0.0
 0
LINE
 8
PARTS
 10
246.3800
 20
308.1020
 30
0.0
 11
243.8400
 21
308.1020
 31
0.0
 0
POLYLINE
 8
PARTS
 66
1
 10
0.0
 20
0.0
 30
0.0
 0
VERTEX
 8
PARTS
 10
241.3000
 20
308.1020
 30
0.0
 0
VERTEX
 8
PARTS
 10
241.8080
 20
308.1020
 30
0.0
 0
SEQEND
 8
PARTS
 0
POLYLINE
 8
PARTS
 66
1
 10
0.0
 20
0.0
 30
0.0
 0
VERTEX
 8
PARTS
 10
243.0780
 20
305.8160
 30
0.0
 0
VERTEX
 8
PARTS
 10
243.0780
 20
310.3880
 30
0.0
 0
SEQEND
 8
PARTS
 0
POLYLINE
 8
PARTS
 66
1
 10
0.0
 20
0.0
 30
0.0
 0
VERTEX
 8
PARTS
 10
241.8080
 20
305.8160
 30
0.0
 0
VERTEX
 8
PARTS
 10
241.8080
 20
310.3880
 30
0.0
 0
SEQEND
 8
PARTS
 0
POLYLINE
 8
PARTS
 66
1
 10
0.0
 20
0.0
 30
0.0
 0
VERTEX
 8
PARTS
 10
243.8400
 20
308.1020
 30
0.0
 0
VERTEX
 8
PARTS
 10
243.0780
 20
308.1020
 30
0.0
 0
SEQEND
 8
PARTS
 0
TEXT
 8
PARTTEXT
 10
110.7440
 20
238.1863
 30
0.0
 40
  1.3057
 1
R16
 0
TEXT
 8
PARTTEXT
 10
110.7440
 20
235.1383
 30
0.0
 40
  1.3057
 1
330
 0
LINE
 8
PARTS
 10
106.6800
 20
229.3620
 30
0.0
 11
106.6800
 21
231.9020
 31
0.0
 0
LINE
 8
PARTS
 10
106.6800
 20
242.0620
 30
0.0
 11
106.6800
 21
239.5220
 31
0.0
 0
POLYLINE
 8
PARTS
 66
1
 10
0.0
 20
0.0
 30
0.0
 0
VERTEX
 8
PARTS
 10
106.6800
 20
231.9020
 30
0.0
 0
VERTEX
 8
PARTS
 10
105.9180
 20
232.6640
 30
0.0
 0
SEQEND
 8
PARTS
 0
POLYLINE
 8
PARTS
 66
1
 10
0.0
 20
0.0
 30
0.0
 0
VERTEX
 8
PARTS
 10
105.9180
 20
232.6640
 30
0.0
 0
VERTEX
 8
PARTS
 10
107.4420
 20
234.1880
 30
0.0
 0
SEQEND
 8
PARTS
 0
POLYLINE
 8
PARTS
 66
1
 10
0.0
 20
0.0
 30
0.0
 0
VERTEX
 8
PARTS
 10
107.4420
 20
234.1880
 30
0.0
 0
VERTEX
 8
PARTS
 10
105.9180
 20
235.7120
 30
0.0
 0
SEQEND
 8
PARTS
 0
POLYLINE
 8
PARTS
 66
1
 10
0.0
 20
0.0
 30
0.0
 0
VERTEX
 8
PARTS
 10
105.9180
 20
235.7120
 30
0.0
 0
VERTEX
 8
PARTS
 10
107.4420
 20
237.2360
 30
0.0
 0
SEQEND
 8
PARTS
 0
POLYLINE
 8
PARTS
 66
1
 10
0.0
 20
0.0
 30
0.0
 0
VERTEX
 8
PARTS
 10
107.4420
 20
237.2360
 30
0.0
 0
VERTEX
 8
PARTS
 10
105.9180
 20
238.7600
 30
0.0
 0
SEQEND
 8
PARTS
 0
POLYLINE
 8
PARTS
 66
1
 10
0.0
 20
0.0
 30
0.0
 0
VERTEX
 8
PARTS
 10
105.9180
 20
238.7600
 30
0.0
 0
VERTEX
 8
PARTS
 10
106.6800
 20
239.5220
 30
0.0
 0
SEQEND
 8
PARTS
 0
TEXT
 8
PARTTEXT
 10
198.1200
 20
376.6163
 30
0.0
 40
  1.3057
 1
C1
 0
TEXT
 8
PARTTEXT
 10
198.1200
 20
366.2023
 30
0.0
 40
  1.3057
 1
103
 0
LINE
 8
PARTS
 10
195.5800
 20
371.6020
 30
0.0
 11
198.1200
 21
371.6020
 31
0.0
 0
LINE
 8
PARTS
 10
203.2000
 20
371.6020
 30
0.0
 11
200.6600
 21
371.6020
 31
0.0
 0
POLYLINE
 8
PARTS
 66
1
 10
0.0
 20
0.0
 30
0.0
 0
VERTEX
 8
PARTS
 10
198.1200
 20
371.6020
 30
0.0
 0
VERTEX
 8
PARTS
 10
198.6280
 20
371.6020
 30
0.0
 0
SEQEND
 8
PARTS
 0
POLYLINE
 8
PARTS
 66
1
 10
0.0
 20
0.0
 30
0.0
 0
VERTEX
 8
PARTS
 10
199.8980
 20
369.3160
 30
0.0
 0
VERTEX
 8
PARTS
 10
199.8980
 20
373.8880
 30
0.0
 0
SEQEND
 8
PARTS
 0
POLYLINE
 8
PARTS
 66
1
 10
0.0
 20
0.0
 30
0.0
 0
VERTEX
 8
PARTS
 10
198.6280
 20
369.3160
 30
0.0
 0
VERTEX
 8
PARTS
 10
198.6280
 20
373.8880
 30
0.0
 0
SEQEND
 8
PARTS
 0
POLYLINE
 8
PARTS
 66
1
 10
0.0
 20
0.0
 30
0.0
 0
VERTEX
 8
PARTS
 10
200.6600
 20
371.6020
 30
0.0
 0
VERTEX
 8
PARTS
 10
199.8980
 20
371.6020
 30
0.0
 0
SEQEND
 8
PARTS
 0
TEXT
 8
PARTTEXT
 10
243.8400
 20
248.3463
 30
0.0
 40
  1.3057
 1
J2
 0
TEXT
 8
PARTTEXT
 10
234.4420
 20
228.0263
 30
0.0
 40
  1.3057
 1
DC2
 0
LINE
 8
PARTS
 10
231.1400
 20
239.5220
 30
0.0
 11
238.7600
 21
239.5220
 31
0.0
 0
TEXT
 8
PARTS
 10
236.2200
 20
240.2840
 30
0.0
 40
  1.2700
 1
1
 0
LINE
 8
PARTS
 10
231.1400
 20
236.9820
 30
0.0
 11
238.7600
 21
236.9820
 31
0.0
 0
TEXT
 8
PARTS
 10
236.2200
 20
237.7440
 30
0.0
 40
  1.2700
 1
2
 0
POLYLINE
 8
PARTS
 66
1
 70
1
 10
0.0
 20
0.0
 30
0.0
 0
VERTEX
 8
PARTS
 10
246.3800
 20
242.0620
 30
0.0
 0
VERTEX
 8
PARTS
 10
238.7600
 20
242.0620
 30
0.0
 0
VERTEX
 8
PARTS
 10
238.7600
 20
234.4420
 30
0.0
 0
VERTEX
 8
PARTS
 10
246.3800
 20
234.4420
 30
0.0
 0
SEQEND
 8
PARTS
 0
POLYLINE
 8
PARTS
 66
1
 10
0.0
 20
0.0
 30
0.0
 0
VERTEX
 8
PARTS
 10
241.3000
 20
242.0620
 30
0.0
 0
VERTEX
 8
PARTS
 10
241.3000
 20
242.0620
 30
0.0
 0
VERTEX
 8
PARTS
 10
241.3000
 20
242.8240
 30
0.0
 0
VERTEX
 8
PARTS
 10
243.5860
 20
242.8240
 30
0.0
 0
VERTEX
 8
PARTS
 10
243.5860
 20
242.0620
 30
0.0
 0
SEQEND
 8
PARTS
 0
POLYLINE
 8
PARTS
 66
1
 10
0.0
 20
0.0
 30
0.0
 0
VERTEX
 8
PARTS
 10
243.5860
 20
234.4420
 30
0.0
 0
VERTEX
 8
PARTS
 10
243.5860
 20
234.4420
 30
0.0
 0
VERTEX
 8
PARTS
 10
243.5860
 20
233.6800
 30
0.0
 0
VERTEX
 8
PARTS
 10
241.3000
 20
233.6800
 30
0.0
 0
VERTEX
 8
PARTS
 10
241.3000
 20
234.4420
 30
0.0
 0
SEQEND
 8
PARTS
 0
TEXT
 8
PARTTEXT
 10
113.2840
 20
352.4863
 30
0.0
 40
  1.3057
 1
R13
 0
TEXT
 8
PARTTEXT
 10
113.2840
 20
349.4383
 30
0.0
 40
  1.3057
 1
330
 0
LINE
 8
PARTS
 10
109.2200
 20
343.6620
 30
0.0
 11
109.2200
 21
346.2020
 31
0.0
 0
LINE
 8
PARTS
 10
109.2200
 20
356.3620
 30
0.0
 11
109.2200
 21
353.8220
 31
0.0
 0
POLYLINE
 8
PARTS
 66
1
 10
0.0
 20
0.0
 30
0.0
 0
VERTEX
 8
PARTS
 10
109.2200
 20
346.2020
 30
0.0
 0
VERTEX
 8
PARTS
 10
108.4580
 20
346.9640
 30
0.0
 0
SEQEND
 8
PARTS
 0
POLYLINE
 8
PARTS
 66
1
 10
0.0
 20
0.0
 30
0.0
 0
VERTEX
 8
PARTS
 10
108.4580
 20
346.9640
 30
0.0
 0
VERTEX
 8
PARTS
 10
109.9820
 20
348.4880
 30
0.0
 0
SEQEND
 8
PARTS
 0
POLYLINE
 8
PARTS
 66
1
 10
0.0
 20
0.0
 30
0.0
 0
VERTEX
 8
PARTS
 10
109.9820
 20
348.4880
 30
0.0
 0
VERTEX
 8
PARTS
 10
108.4580
 20
350.0120
 30
0.0
 0
SEQEND
 8
PARTS
 0
POLYLINE
 8
PARTS
 66
1
 10
0.0
 20
0.0
 30
0.0
 0
VERTEX
 8
PARTS
 10
108.4580
 20
350.0120
 30
0.0
 0
VERTEX
 8
PARTS
 10
109.9820
 20
351.5360
 30
0.0
 0
SEQEND
 8
PARTS
 0
POLYLINE
 8
PARTS
 66
1
 10
0.0
 20
0.0
 30
0.0
 0
VERTEX
 8
PARTS
 10
109.9820
 20
351.5360
 30
0.0
 0
VERTEX
 8
PARTS
 10
108.4580
 20
353.0600
 30
0.0
 0
SEQEND
 8
PARTS
 0
POLYLINE
 8
PARTS
 66
1
 10
0.0
 20
0.0
 30
0.0
 0
VERTEX
 8
PARTS
 10
108.4580
 20
353.0600
 30
0.0
 0
VERTEX
 8
PARTS
 10
109.2200
 20
353.8220
 30
0.0
 0
SEQEND
 8
PARTS
 0
TEXT
 8
PARTTEXT
 10
213.3600
 20
368.9963
 30
0.0
 40
  1.3057
 1
C2
 0
TEXT
 8
PARTTEXT
 10
213.3600
 20
358.5823
 30
0.0
 40
  1.3057
 1
103
 0
LINE
 8
PARTS
 10
210.8200
 20
363.9820
 30
0.0
 11
213.3600
 21
363.9820
 31
0.0
 0
LINE
 8
PARTS
 10
218.4400
 20
363.9820
 30
0.0
 11
215.9000
 21
363.9820
 31
0.0
 0
POLYLINE
 8
PARTS
 66
1
 10
0.0
 20
0.0
 30
0.0
 0
VERTEX
 8
PARTS
 10
213.3600
 20
363.9820
 30
0.0
 0
VERTEX
 8
PARTS
 10
213.8680
 20
363.9820
 30
0.0
 0
SEQEND
 8
PARTS
 0
POLYLINE
 8
PARTS
 66
1
 10
0.0
 20
0.0
 30
0.0
 0
VERTEX
 8
PARTS
 10
215.1380
 20
361.6960
 30
0.0
 0
VERTEX
 8
PARTS
 10
215.1380
 20
366.2680
 30
0.0
 0
SEQEND
 8
PARTS
 0
POLYLINE
 8
PARTS
 66
1
 10
0.0
 20
0.0
 30
0.0
 0
VERTEX
 8
PARTS
 10
213.8680
 20
361.6960
 30
0.0
 0
VERTEX
 8
PARTS
 10
213.8680
 20
366.2680
 30
0.0
 0
SEQEND
 8
PARTS
 0
POLYLINE
 8
PARTS
 66
1
 10
0.0
 20
0.0
 30
0.0
 0
VERTEX
 8
PARTS
 10
215.9000
 20
363.9820
 30
0.0
 0
VERTEX
 8
PARTS
 10
215.1380
 20
363.9820
 30
0.0
 0
SEQEND
 8
PARTS
 0
TEXT
 8
PARTTEXT
 10
136.1440
 20
253.4263
 30
0.0
 40
  1.3057
 1
D15
 0
TEXT
 8
PARTTEXT
 10
136.1440
 20
250.3783
 30
0.0
 40
  1.3057
 1
LED
 0
LINE
 8
PARTS
 10
132.0800
 20
242.0620
 30
0.0
 11
132.0800
 21
244.6020
 31
0.0
 0
LINE
 8
PARTS
 10
132.0800
 20
257.3020
 30
0.0
 11
132.0800
 21
254.7620
 31
0.0
 0
POLYLINE
 8
PARTS
 66
1
 10
0.0
 20
0.0
 30
0.0
 0
VERTEX
 8
PARTS
 10
130.3020
 20
249.6820
 30
0.0
 0
VERTEX
 8
PARTS
 10
133.8580
 20
249.6820
 30
0.0
 0
SEQEND
 8
PARTS
 0
POLYLINE
 8
PARTS
 66
1
 10
0.0
 20
0.0
 30
0.0
 0
VERTEX
 8
PARTS
 10
132.0800
 20
244.6020
 30
0.0
 0
VERTEX
 8
PARTS
 10
132.0800
 20
247.1420
 30
0.0
 0
SEQEND
 8
PARTS
 0
POLYLINE
 8
PARTS
 66
1
 10
0.0
 20
0.0
 30
0.0
 0
VERTEX
 8
PARTS
 10
132.0800
 20
249.6820
 30
0.0
 0
VERTEX
 8
PARTS
 10
132.0800
 20
254.7620
 30
0.0
 0
SEQEND
 8
PARTS
 0
POLYLINE
 8
PARTS
 66
1
 70
1
 10
0.0
 20
0.0
 30
0.0
 0
VERTEX
 8
PARTS
 10
132.0800
 20
249.6820
 30
0.0
 0
VERTEX
 8
PARTS
 10
132.0800
 20
249.6820
 30
0.0
 0
VERTEX
 8
PARTS
 10
133.8580
 20
247.1420
 30
0.0
 0
VERTEX
 8
PARTS
 10
130.3020
 20
247.1420
 30
0.0
 0
VERTEX
 8
PARTS
 10
132.0800
 20
249.6820
 30
0.0
 0
SEQEND
 8
PARTS
 0
POLYLINE
 8
PARTS
 66
1
 70
1
 10
0.0
 20
0.0
 30
0.0
 0
VERTEX
 8
PARTS
 10
130.0480
 20
252.7300
 30
0.0
 0
VERTEX
 8
PARTS
 10
130.0480
 20
252.7300
 30
0.0
 0
VERTEX
 8
PARTS
 10
129.5400
 20
253.7460
 30
0.0
 0
VERTEX
 8
PARTS
 10
130.5560
 20
253.2380
 30
0.0
 0
VERTEX
 8
PARTS
 10
130.0480
 20
252.7300
 30
0.0
 0
SEQEND
 8
PARTS
 0
POLYLINE
 8
PARTS
 66
1
 70
1
 10
0.0
 20
0.0
 30
0.0
 0
VERTEX
 8
PARTS
 10
130.0480
 20
251.2060
 30
0.0
 0
VERTEX
 8
PARTS
 10
130.0480
 20
251.2060
 30
0.0
 0
VERTEX
 8
PARTS
 10
129.5400
 20
252.2220
 30
0.0
 0
VERTEX
 8
PARTS
 10
130.5560
 20
251.7140
 30
0.0
 0
VERTEX
 8
PARTS
 10
130.0480
 20
251.2060
 30
0.0
 0
SEQEND
 8
PARTS
 0
POLYLINE
 8
PARTS
 66
1
 10
0.0
 20
0.0
 30
0.0
 0
VERTEX
 8
PARTS
 10
129.7940
 20
251.9680
 30
0.0
 0
VERTEX
 8
PARTS
 10
131.3180
 20
250.4440
 30
0.0
 0
SEQEND
 8
PARTS
 0
POLYLINE
 8
PARTS
 66
1
 10
0.0
 20
0.0
 30
0.0
 0
VERTEX
 8
PARTS
 10
129.7940
 20
253.4920
 30
0.0
 0
VERTEX
 8
PARTS
 10
131.3180
 20
251.9680
 30
0.0
 0
SEQEND
 8
PARTS
 0
TEXT
 8
PARTTEXT
 10
195.5800
 20
262.3163
 30
0.0
 40
  1.3057
 1
C3
 0
TEXT
 8
PARTTEXT
 10
195.5800
 20
251.9023
 30
0.0
 40
  1.3057
 1
103
 0
LINE
 8
PARTS
 10
193.0400
 20
257.3020
 30
0.0
 11
195.5800
 21
257.3020
 31
0.0
 0
LINE
 8
PARTS
 10
200.6600
 20
257.3020
 30
0.0
 11
198.1200
 21
257.3020
 31
0.0
 0
POLYLINE
 8
PARTS
 66
1
 10
0.0
 20
0.0
 30
0.0
 0
VERTEX
 8
PARTS
 10
195.5800
 20
257.3020
 30
0.0
 0
VERTEX
 8
PARTS
 10
196.0880
 20
257.3020
 30
0.0
 0
SEQEND
 8
PARTS
 0
POLYLINE
 8
PARTS
 66
1
 10
0.0
 20
0.0
 30
0.0
 0
VERTEX
 8
PARTS
 10
197.3580
 20
255.0160
 30
0.0
 0
VERTEX
 8
PARTS
 10
197.3580
 20
259.5880
 30
0.0
 0
SEQEND
 8
PARTS
 0
POLYLINE
 8
PARTS
 66
1
 10
0.0
 20
0.0
 30
0.0
 0
VERTEX
 8
PARTS
 10
196.0880
 20
255.0160
 30
0.0
 0
VERTEX
 8
PARTS
 10
196.0880
 20
259.5880
 30
0.0
 0
SEQEND
 8
PARTS
 0
POLYLINE
 8
PARTS
 66
1
 10
0.0
 20
0.0
 30
0.0
 0
VERTEX
 8
PARTS
 10
198.1200
 20
257.3020
 30
0.0
 0
VERTEX
 8
PARTS
 10
197.3580
 20
257.3020
 30
0.0
 0
SEQEND
 8
PARTS
 0
TEXT
 8
PARTTEXT
 10
233.6800
 20
305.4963
 30
0.0
 40
  1.3057
 1
C14
 0
TEXT
 8
PARTTEXT
 10
233.6800
 20
295.0823
 30
0.0
 40
  1.3057
 1
100u
 0
LINE
 8
PARTS
 10
238.7600
 20
300.4820
 30
0.0
 11
236.2200
 21
300.4820
 31
0.0
 0
LINE
 8
PARTS
 10
231.1400
 20
300.4820
 30
0.0
 11
233.6800
 21
300.4820
 31
0.0
 0
POLYLINE
 8
PARTS
 66
1
 10
0.0
 20
0.0
 30
0.0
 0
VERTEX
 8
PARTS
 10
236.2200
 20
303.0220
 30
0.0
 0
VERTEX
 8
PARTS
 10
236.2200
 20
297.9420
 30
0.0
 0
SEQEND
 8
PARTS
 0
POLYLINE
 8
PARTS
 66
1
 10
0.0
 20
0.0
 30
0.0
 0
VERTEX
 8
PARTS
 10
235.2040
 20
300.4820
 30
0.0
 0
VERTEX
 8
PARTS
 10
233.6800
 20
300.4820
 30
0.0
 0
SEQEND
 8
PARTS
 0
POLYLINE
 8
PARTS
 66
1
 10
0.0
 20
0.0
 30
0.0
 0
VERTEX
 8
PARTS
 10
234.4420
 20
297.9420
 30
0.0
 42
  0.1654
 0
VERTEX
 8
PARTS
 10
235.2040
 20
300.4820
 30
0.0
 0
SEQEND
 8
PARTS
 0
POLYLINE
 8
PARTS
 66
1
 10
0.0
 20
0.0
 30
0.0
 0
VERTEX
 8
PARTS
 10
235.2040
 20
300.4820
 30
0.0
 42
  0.1654
 0
VERTEX
 8
PARTS
 10
234.4420
 20
303.0220
 30
0.0
 0
SEQEND
 8
PARTS
 0
TEXT
 8
PARTTEXT
 10
136.1440
 20
238.1863
 30
0.0
 40
  1.3057
 1
R17
 0
TEXT
 8
PARTTEXT
 10
136.1440
 20
235.1383
 30
0.0
 40
  1.3057
 1
330
 0
LINE
 8
PARTS
 10
132.0800
 20
229.3620
 30
0.0
 11
132.0800
 21
231.9020
 31
0.0
 0
LINE
 8
PARTS
 10
132.0800
 20
242.0620
 30
0.0
 11
132.0800
 21
239.5220
 31
0.0
 0
POLYLINE
 8
PARTS
 66
1
 10
0.0
 20
0.0
 30
0.0
 0
VERTEX
 8
PARTS
 10
132.0800
 20
231.9020
 30
0.0
 0
VERTEX
 8
PARTS
 10
131.3180
 20
232.6640
 30
0.0
 0
SEQEND
 8
PARTS
 0
POLYLINE
 8
PARTS
 66
1
 10
0.0
 20
0.0
 30
0.0
 0
VERTEX
 8
PARTS
 10
131.3180
 20
232.6640
 30
0.0
 0
VERTEX
 8
PARTS
 10
132.8420
 20
234.1880
 30
0.0
 0
SEQEND
 8
PARTS
 0
POLYLINE
 8
PARTS
 66
1
 10
0.0
 20
0.0
 30
0.0
 0
VERTEX
 8
PARTS
 10
132.8420
 20
234.1880
 30
0.0
 0
VERTEX
 8
PARTS
 10
131.3180
 20
235.7120
 30
0.0
 0
SEQEND
 8
PARTS
 0
POLYLINE
 8
PARTS
 66
1
 10
0.0
 20
0.0
 30
0.0
 0
VERTEX
 8
PARTS
 10
131.3180
 20
235.7120
 30
0.0
 0
VERTEX
 8
PARTS
 10
132.8420
 20
237.2360
 30
0.0
 0
SEQEND
 8
PARTS
 0
POLYLINE
 8
PARTS
 66
1
 10
0.0
 20
0.0
 30
0.0
 0
VERTEX
 8
PARTS
 10
132.8420
 20
237.2360
 30
0.0
 0
VERTEX
 8
PARTS
 10
131.3180
 20
238.7600
 30
0.0
 0
SEQEND
 8
PARTS
 0
POLYLINE
 8
PARTS
 66
1
 10
0.0
 20
0.0
 30
0.0
 0
VERTEX
 8
PARTS
 10
131.3180
 20
238.7600
 30
0.0
 0
VERTEX
 8
PARTS
 10
132.0800
 20
239.5220
 30
0.0
 0
SEQEND
 8
PARTS
 0
TEXT
 8
PARTTEXT
 10
226.0600
 20
320.7363
 30
0.0
 40
  1.3057
 1
D21
 0
TEXT
 8
PARTTEXT
 10
231.1400
 20
319.4663
 30
0.0
 40
  1.3057
 1
LED
 0
LINE
 8
PARTS
 10
238.7600
 20
315.7220
 30
0.0
 11
236.2200
 21
315.7220
 31
0.0
 0
LINE
 8
PARTS
 10
223.5200
 20
315.7220
 30
0.0
 11
226.0600
 21
315.7220
 31
0.0
 0
POLYLINE
 8
PARTS
 66
1
 10
0.0
 20
0.0
 30
0.0
 0
VERTEX
 8
PARTS
 10
231.1400
 20
313.9440
 30
0.0
 0
VERTEX
 8
PARTS
 10
231.1400
 20
317.5000
 30
0.0
 0
SEQEND
 8
PARTS
 0
POLYLINE
 8
PARTS
 66
1
 10
0.0
 20
0.0
 30
0.0
 0
VERTEX
 8
PARTS
 10
236.2200
 20
315.7220
 30
0.0
 0
VERTEX
 8
PARTS
 10
233.6800
 20
315.7220
 30
0.0
 0
SEQEND
 8
PARTS
 0
POLYLINE
 8
PARTS
 66
1
 10
0.0
 20
0.0
 30
0.0
 0
VERTEX
 8
PARTS
 10
231.1400
 20
315.7220
 30
0.0
 0
VERTEX
 8
PARTS
 10
226.0600
 20
315.7220
 30
0.0
 0
SEQEND
 8
PARTS
 0
POLYLINE
 8
PARTS
 66
1
 70
1
 10
0.0
 20
0.0
 30
0.0
 0
VERTEX
 8
PARTS
 10
231.1400
 20
315.7220
 30
0.0
 0
VERTEX
 8
PARTS
 10
231.1400
 20
315.7220
 30
0.0
 0
VERTEX
 8
PARTS
 10
233.6800
 20
317.5000
 30
0.0
 0
VERTEX
 8
PARTS
 10
233.6800
 20
313.9440
 30
0.0
 0
VERTEX
 8
PARTS
 10
231.1400
 20
315.7220
 30
0.0
 0
SEQEND
 8
PARTS
 0
POLYLINE
 8
PARTS
 66
1
 70
1
 10
0.0
 20
0.0
 30
0.0
 0
VERTEX
 8
PARTS
 10
228.0920
 20
313.6900
 30
0.0
 0
VERTEX
 8
PARTS
 10
228.0920
 20
313.6900
 30
0.0
 0
VERTEX
 8
PARTS
 10
227.0760
 20
313.1820
 30
0.0
 0
VERTEX
 8
PARTS
 10
227.5840
 20
314.1980
 30
0.0
 0
VERTEX
 8
PARTS
 10
228.0920
 20
313.6900
 30
0.0
 0
SEQEND
 8
PARTS
 0
POLYLINE
 8
PARTS
 66
1
 70
1
 10
0.0
 20
0.0
 30
0.0
 0
VERTEX
 8
PARTS
 10
229.6160
 20
313.6900
 30
0.0
 0
VERTEX
 8
PARTS
 10
229.6160
 20
313.6900
 30
0.0
 0
VERTEX
 8
PARTS
 10
228.6000
 20
313.1820
 30
0.0
 0
VERTEX
 8
PARTS
 10
229.1080
 20
314.1980
 30
0.0
 0
VERTEX
 8
PARTS
 10
229.6160
 20
313.6900
 30
0.0
 0
SEQEND
 8
PARTS
 0
POLYLINE
 8
PARTS
 66
1
 10
0.0
 20
0.0
 30
0.0
 0
VERTEX
 8
PARTS
 10
228.8540
 20
313.4360
 30
0.0
 0
VERTEX
 8
PARTS
 10
230.3780
 20
314.9600
 30
0.0
 0
SEQEND
 8
PARTS
 0
POLYLINE
 8
PARTS
 66
1
 10
0.0
 20
0.0
 30
0.0
 0
VERTEX
 8
PARTS
 10
227.3300
 20
313.4360
 30
0.0
 0
VERTEX
 8
PARTS
 10
228.8540
 20
314.9600
 30
0.0
 0
SEQEND
 8
PARTS
 0
TEXT
 8
PARTTEXT
 10
123.4440
 20
253.4263
 30
0.0
 40
  1.3057
 1
D13
 0
TEXT
 8
PARTTEXT
 10
123.4440
 20
250.3783
 30
0.0
 40
  1.3057
 1
LED
 0
LINE
 8
PARTS
 10
119.3800
 20
242.0620
 30
0.0
 11
119.3800
 21
244.6020
 31
0.0
 0
LINE
 8
PARTS
 10
119.3800
 20
257.3020
 30
0.0
 11
119.3800
 21
254.7620
 31
0.0
 0
POLYLINE
 8
PARTS
 66
1
 10
0.0
 20
0.0
 30
0.0
 0
VERTEX
 8
PARTS
 10
117.6020
 20
249.6820
 30
0.0
 0
VERTEX
 8
PARTS
 10
121.1580
 20
249.6820
 30
0.0
 0
SEQEND
 8
PARTS
 0
POLYLINE
 8
PARTS
 66
1
 10
0.0
 20
0.0
 30
0.0
 0
VERTEX
 8
PARTS
 10
119.3800
 20
244.6020
 30
0.0
 0
VERTEX
 8
PARTS
 10
119.3800
 20
247.1420
 30
0.0
 0
SEQEND
 8
PARTS
 0
POLYLINE
 8
PARTS
 66
1
 10
0.0
 20
0.0
 30
0.0
 0
VERTEX
 8
PARTS
 10
119.3800
 20
249.6820
 30
0.0
 0
VERTEX
 8
PARTS
 10
119.3800
 20
254.7620
 30
0.0
 0
SEQEND
 8
PARTS
 0
POLYLINE
 8
PARTS
 66
1
 70
1
 10
0.0
 20
0.0
 30
0.0
 0
VERTEX
 8
PARTS
 10
119.3800
 20
249.6820
 30
0.0
 0
VERTEX
 8
PARTS
 10
119.3800
 20
249.6820
 30
0.0
 0
VERTEX
 8
PARTS
 10
121.1580
 20
247.1420
 30
0.0
 0
VERTEX
 8
PARTS
 10
117.6020
 20
247.1420
 30
0.0
 0
VERTEX
 8
PARTS
 10
119.3800
 20
249.6820
 30
0.0
 0
SEQEND
 8
PARTS
 0
POLYLINE
 8
PARTS
 66
1
 70
1
 10
0.0
 20
0.0
 30
0.0
 0
VERTEX
 8
PARTS
 10
117.3480
 20
252.7300
 30
0.0
 0
VERTEX
 8
PARTS
 10
117.3480
 20
252.7300
 30
0.0
 0
VERTEX
 8
PARTS
 10
116.8400
 20
253.7460
 30
0.0
 0
VERTEX
 8
PARTS
 10
117.8560
 20
253.2380
 30
0.0
 0
VERTEX
 8
PARTS
 10
117.3480
 20
252.7300
 30
0.0
 0
SEQEND
 8
PARTS
 0
POLYLINE
 8
PARTS
 66
1
 70
1
 10
0.0
 20
0.0
 30
0.0
 0
VERTEX
 8
PARTS
 10
117.3480
 20
251.2060
 30
0.0
 0
VERTEX
 8
PARTS
 10
117.3480
 20
251.2060
 30
0.0
 0
VERTEX
 8
PARTS
 10
116.8400
 20
252.2220
 30
0.0
 0
VERTEX
 8
PARTS
 10
117.8560
 20
251.7140
 30
0.0
 0
VERTEX
 8
PARTS
 10
117.3480
 20
251.2060
 30
0.0
 0
SEQEND
 8
PARTS
 0
POLYLINE
 8
PARTS
 66
1
 10
0.0
 20
0.0
 30
0.0
 0
VERTEX
 8
PARTS
 10
117.0940
 20
251.9680
 30
0.0
 0
VERTEX
 8
PARTS
 10
118.6180
 20
250.4440
 30
0.0
 0
SEQEND
 8
PARTS
 0
POLYLINE
 8
PARTS
 66
1
 10
0.0
 20
0.0
 30
0.0
 0
VERTEX
 8
PARTS
 10
117.0940
 20
253.4920
 30
0.0
 0
VERTEX
 8
PARTS
 10
118.6180
 20
251.9680
 30
0.0
 0
SEQEND
 8
PARTS
 0
TEXT
 8
PARTTEXT
 10
210.8200
 20
254.6963
 30
0.0
 40
  1.3057
 1
C4
 0
TEXT
 8
PARTTEXT
 10
210.8200
 20
244.2823
 30
0.0
 40
  1.3057
 1
103
 0
LINE
 8
PARTS
 10
208.2800
 20
249.6820
 30
0.0
 11
210.8200
 21
249.6820
 31
0.0
 0
LINE
 8
PARTS
 10
215.9000
 20
249.6820
 30
0.0
 11
213.3600
 21
249.6820
 31
0.0
 0
POLYLINE
 8
PARTS
 66
1
 10
0.0
 20
0.0
 30
0.0
 0
VERTEX
 8
PARTS
 10
210.8200
 20
249.6820
 30
0.0
 0
VERTEX
 8
PARTS
 10
211.3280
 20
249.6820
 30
0.0
 0
SEQEND
 8
PARTS
 0
POLYLINE
 8
PARTS
 66
1
 10
0.0
 20
0.0
 30
0.0
 0
VERTEX
 8
PARTS
 10
212.5980
 20
247.3960
 30
0.0
 0
VERTEX
 8
PARTS
 10
212.5980
 20
251.9680
 30
0.0
 0
SEQEND
 8
PARTS
 0
POLYLINE
 8
PARTS
 66
1
 10
0.0
 20
0.0
 30
0.0
 0
VERTEX
 8
PARTS
 10
211.3280
 20
247.3960
 30
0.0
 0
VERTEX
 8
PARTS
 10
211.3280
 20
251.9680
 30
0.0
 0
SEQEND
 8
PARTS
 0
POLYLINE
 8
PARTS
 66
1
 10
0.0
 20
0.0
 30
0.0
 0
VERTEX
 8
PARTS
 10
213.3600
 20
249.6820
 30
0.0
 0
VERTEX
 8
PARTS
 10
212.5980
 20
249.6820
 30
0.0
 0
SEQEND
 8
PARTS
 0
POLYLINE
 8
WIRE
 66
1
 10
0.0
 20
0.0
 30
0.0
 0
VERTEX
 8
WIRE
 10
231.1400
 20
351.2820
 30
0.0
 0
VERTEX
 8
WIRE
 10
208.2800
 20
351.2820
 30
0.0
 0
SEQEND
 8
WIRE
 0
POLYLINE
 8
WIRE
 66
1
 10
0.0
 20
0.0
 30
0.0
 0
VERTEX
 8
WIRE
 10
121.9200
 20
341.1220
 30
0.0
 0
VERTEX
 8
WIRE
 10
121.9200
 20
343.6620
 30
0.0
 0
SEQEND
 8
WIRE
 0
POLYLINE
 8
WIRE
 66
1
 10
0.0
 20
0.0
 30
0.0
 0
VERTEX
 8
WIRE
 10
109.2200
 20
338.5820
 30
0.0
 0
VERTEX
 8
WIRE
 10
109.2200
 20
343.6620
 30
0.0
 0
SEQEND
 8
WIRE
 0
POLYLINE
 8
WIRE
 66
1
 10
0.0
 20
0.0
 30
0.0
 0
VERTEX
 8
WIRE
 10
121.9200
 20
371.6020
 30
0.0
 0
VERTEX
 8
WIRE
 10
109.2200
 20
371.6020
 30
0.0
 0
SEQEND
 8
WIRE
 0
POLYLINE
 8
WIRE
 66
1
 70
1
 10
0.0
 20
0.0
 30
0.0
 40
  0.5080
 41
  0.5080
 0
VERTEX
 8
WIRE
 10
121.6660
 20
371.6020
 30
0.0
 42
1.0
 0
VERTEX
 8
WIRE
 10
122.1740
 20
371.6020
 30
0.0
 42
1.0
 0
SEQEND
 8
WIRE
 0
POLYLINE
 8
WIRE
 66
1
 10
0.0
 20
0.0
 30
0.0
 0
VERTEX
 8
WIRE
 10
134.6200
 20
371.6020
 30
0.0
 0
VERTEX
 8
WIRE
 10
121.9200
 20
371.6020
 30
0.0
 0
SEQEND
 8
WIRE
 0
POLYLINE
 8
WIRE
 66
1
 10
0.0
 20
0.0
 30
0.0
 0
VERTEX
 8
WIRE
 10
165.1000
 20
343.6620
 30
0.0
 0
VERTEX
 8
WIRE
 10
134.6200
 20
343.6620
 30
0.0
 0
SEQEND
 8
WIRE
 0
TEXT
 8
WIRETEXT
 10
139.7000
 20
344.4240
 30
0.0
 40
  1.3057
 1
BR1
 0
POLYLINE
 8
WIRE
 66
1
 10
0.0
 20
0.0
 30
0.0
 0
VERTEX
 8
WIRE
 10
165.1000
 20
338.5820
 30
0.0
 0
VERTEX
 8
WIRE
 10
109.2200
 20
338.5820
 30
0.0
 0
SEQEND
 8
WIRE
 0
TEXT
 8
WIRETEXT
 10
111.7600
 20
339.3440
 30
0.0
 40
  1.3057
 1
PWM1
 0
POLYLINE
 8
WIRE
 66
1
 10
0.0
 20
0.0
 30
0.0
 0
VERTEX
 8
WIRE
 10
165.1000
 20
341.1220
 30
0.0
 0
VERTEX
 8
WIRE
 10
121.9200
 20
341.1220
 30
0.0
 0
SEQEND
 8
WIRE
 0
TEXT
 8
WIRETEXT
 10
124.4600
 20
341.8840
 30
0.0
 40
  1.3057
 1
DIR1
 0
POLYLINE
 8
WIRE
 66
1
 10
0.0
 20
0.0
 30
0.0
 0
VERTEX
 8
WIRE
 10
233.6800
 20
353.8220
 30
0.0
 0
VERTEX
 8
WIRE
 10
223.5200
 20
353.8220
 30
0.0
 0
SEQEND
 8
WIRE
 0
POLYLINE
 8
WIRE
 66
1
 70
1
 10
0.0
 20
0.0
 30
0.0
 40
  0.5080
 41
  0.5080
 0
VERTEX
 8
WIRE
 10
223.2660
 20
353.8220
 30
0.0
 42
1.0
 0
VERTEX
 8
WIRE
 10
223.7740
 20
353.8220
 30
0.0
 42
1.0
 0
SEQEND
 8
WIRE
 0
POLYLINE
 8
WIRE
 66
1
 10
0.0
 20
0.0
 30
0.0
 0
VERTEX
 8
WIRE
 10
233.6800
 20
351.2820
 30
0.0
 0
VERTEX
 8
WIRE
 10
231.1400
 20
351.2820
 30
0.0
 0
SEQEND
 8
WIRE
 0
POLYLINE
 8
WIRE
 66
1
 70
1
 10
0.0
 20
0.0
 30
0.0
 40
  0.5080
 41
  0.5080
 0
VERTEX
 8
WIRE
 10
230.8860
 20
351.2820
 30
0.0
 42
1.0
 0
VERTEX
 8
WIRE
 10
231.3940
 20
351.2820
 30
0.0
 42
1.0
 0
SEQEND
 8
WIRE
 0
POLYLINE
 8
WIRE
 66
1
 10
0.0
 20
0.0
 30
0.0
 0
VERTEX
 8
WIRE
 10
223.5200
 20
363.9820
 30
0.0
 0
VERTEX
 8
WIRE
 10
218.4400
 20
363.9820
 30
0.0
 0
SEQEND
 8
WIRE
 0
POLYLINE
 8
WIRE
 66
1
 10
0.0
 20
0.0
 30
0.0
 0
VERTEX
 8
WIRE
 10
223.5200
 20
353.8220
 30
0.0
 0
VERTEX
 8
WIRE
 10
223.5200
 20
363.9820
 30
0.0
 0
SEQEND
 8
WIRE
 0
POLYLINE
 8
WIRE
 66
1
 10
0.0
 20
0.0
 30
0.0
 0
VERTEX
 8
WIRE
 10
223.5200
 20
353.8220
 30
0.0
 0
VERTEX
 8
WIRE
 10
208.2800
 20
353.8220
 30
0.0
 0
SEQEND
 8
WIRE
 0
POLYLINE
 8
WIRE
 66
1
 10
0.0
 20
0.0
 30
0.0
 0
VERTEX
 8
WIRE
 10
210.8200
 20
363.9820
 30
0.0
 0
VERTEX
 8
WIRE
 10
165.1000
 20
363.9820
 30
0.0
 0
SEQEND
 8
WIRE
 0
POLYLINE
 8
WIRE
 66
1
 10
0.0
 20
0.0
 30
0.0
 0
VERTEX
 8
WIRE
 10
165.1000
 20
353.8220
 30
0.0
 0
VERTEX
 8
WIRE
 10
165.1000
 20
363.9820
 30
0.0
 0
SEQEND
 8
WIRE
 0
POLYLINE
 8
WIRE
 66
1
 10
0.0
 20
0.0
 30
0.0
 0
VERTEX
 8
WIRE
 10
231.1400
 20
371.6020
 30
0.0
 0
VERTEX
 8
WIRE
 10
203.2000
 20
371.6020
 30
0.0
 0
SEQEND
 8
WIRE
 0
POLYLINE
 8
WIRE
 66
1
 10
0.0
 20
0.0
 30
0.0
 0
VERTEX
 8
WIRE
 10
231.1400
 20
351.2820
 30
0.0
 0
VERTEX
 8
WIRE
 10
231.1400
 20
371.6020
 30
0.0
 0
SEQEND
 8
WIRE
 0
POLYLINE
 8
WIRE
 66
1
 10
0.0
 20
0.0
 30
0.0
 0
VERTEX
 8
WIRE
 10
195.5800
 20
371.6020
 30
0.0
 0
VERTEX
 8
WIRE
 10
160.0200
 20
371.6020
 30
0.0
 0
SEQEND
 8
WIRE
 0
POLYLINE
 8
WIRE
 66
1
 10
0.0
 20
0.0
 30
0.0
 0
VERTEX
 8
WIRE
 10
160.0200
 20
351.2820
 30
0.0
 0
VERTEX
 8
WIRE
 10
160.0200
 20
371.6020
 30
0.0
 0
SEQEND
 8
WIRE
 0
POLYLINE
 8
WIRE
 66
1
 10
0.0
 20
0.0
 30
0.0
 0
VERTEX
 8
WIRE
 10
165.1000
 20
351.2820
 30
0.0
 0
VERTEX
 8
WIRE
 10
160.0200
 20
351.2820
 30
0.0
 0
SEQEND
 8
WIRE
 0
POLYLINE
 8
WIRE
 66
1
 10
0.0
 20
0.0
 30
0.0
 0
VERTEX
 8
WIRE
 10
165.1000
 20
348.7420
 30
0.0
 0
VERTEX
 8
WIRE
 10
157.4800
 20
348.7420
 30
0.0
 0
SEQEND
 8
WIRE
 0
POLYLINE
 8
WIRE
 66
1
 10
0.0
 20
0.0
 30
0.0
 0
VERTEX
 8
WIRE
 10
157.4800
 20
346.2020
 30
0.0
 0
VERTEX
 8
WIRE
 10
157.4800
 20
348.7420
 30
0.0
 0
SEQEND
 8
WIRE
 0
POLYLINE
 8
WIRE
 66
1
 10
0.0
 20
0.0
 30
0.0
 0
VERTEX
 8
WIRE
 10
165.1000
 20
330.9620
 30
0.0
 0
VERTEX
 8
WIRE
 10
165.1000
 20
333.5020
 30
0.0
 0
SEQEND
 8
WIRE
 0
POLYLINE
 8
WIRE
 66
1
 10
0.0
 20
0.0
 30
0.0
 0
VERTEX
 8
WIRE
 10
165.1000
 20
330.9620
 30
0.0
 0
VERTEX
 8
WIRE
 10
157.4800
 20
330.9620
 30
0.0
 0
SEQEND
 8
WIRE
 0
POLYLINE
 8
WIRE
 66
1
 10
0.0
 20
0.0
 30
0.0
 0
VERTEX
 8
WIRE
 10
149.8600
 20
369.0620
 30
0.0
 0
VERTEX
 8
WIRE
 10
149.8600
 20
371.6020
 30
0.0
 0
SEQEND
 8
WIRE
 0
POLYLINE
 8
WIRE
 66
1
 10
0.0
 20
0.0
 30
0.0
 0
VERTEX
 8
WIRE
 10
149.8600
 20
371.6020
 30
0.0
 0
VERTEX
 8
WIRE
 10
134.6200
 20
371.6020
 30
0.0
 0
SEQEND
 8
WIRE
 0
POLYLINE
 8
WIRE
 66
1
 70
1
 10
0.0
 20
0.0
 30
0.0
 40
  0.5080
 41
  0.5080
 0
VERTEX
 8
WIRE
 10
134.3660
 20
371.6020
 30
0.0
 42
1.0
 0
VERTEX
 8
WIRE
 10
134.8740
 20
371.6020
 30
0.0
 42
1.0
 0
SEQEND
 8
WIRE
 0
POLYLINE
 8
WIRE
 66
1
 10
0.0
 20
0.0
 30
0.0
 0
VERTEX
 8
WIRE
 10
241.3000
 20
315.7220
 30
0.0
 0
VERTEX
 8
WIRE
 10
238.7600
 20
315.7220
 30
0.0
 0
SEQEND
 8
WIRE
 0
POLYLINE
 8
WIRE
 66
1
 10
0.0
 20
0.0
 30
0.0
 0
VERTEX
 8
WIRE
 10
254.0000
 20
315.7220
 30
0.0
 0
VERTEX
 8
WIRE
 10
254.0000
 20
320.8020
 30
0.0
 0
SEQEND
 8
WIRE
 0
POLYLINE
 8
WIRE
 66
1
 10
0.0
 20
0.0
 30
0.0
 0
VERTEX
 8
WIRE
 10
223.5200
 20
297.9420
 30
0.0
 0
VERTEX
 8
WIRE
 10
223.5200
 20
300.4820
 30
0.0
 0
SEQEND
 8
WIRE
 0
POLYLINE
 8
WIRE
 66
1
 10
0.0
 20
0.0
 30
0.0
 0
VERTEX
 8
WIRE
 10
238.7600
 20
308.1020
 30
0.0
 0
VERTEX
 8
WIRE
 10
223.5200
 20
308.1020
 30
0.0
 0
SEQEND
 8
WIRE
 0
POLYLINE
 8
WIRE
 66
1
 10
0.0
 20
0.0
 30
0.0
 0
VERTEX
 8
WIRE
 10
223.5200
 20
308.1020
 30
0.0
 0
VERTEX
 8
WIRE
 10
223.5200
 20
315.7220
 30
0.0
 0
SEQEND
 8
WIRE
 0
POLYLINE
 8
WIRE
 66
1
 10
0.0
 20
0.0
 30
0.0
 0
VERTEX
 8
WIRE
 10
254.0000
 20
308.1020
 30
0.0
 0
VERTEX
 8
WIRE
 10
246.3800
 20
308.1020
 30
0.0
 0
SEQEND
 8
WIRE
 0
POLYLINE
 8
WIRE
 66
1
 70
1
 10
0.0
 20
0.0
 30
0.0
 40
  0.5080
 41
  0.5080
 0
VERTEX
 8
WIRE
 10
253.7460
 20
308.1020
 30
0.0
 42
1.0
 0
VERTEX
 8
WIRE
 10
254.2540
 20
308.1020
 30
0.0
 42
1.0
 0
SEQEND
 8
WIRE
 0
POLYLINE
 8
WIRE
 66
1
 10
0.0
 20
0.0
 30
0.0
 0
VERTEX
 8
WIRE
 10
254.0000
 20
308.1020
 30
0.0
 0
VERTEX
 8
WIRE
 10
254.0000
 20
315.7220
 30
0.0
 0
SEQEND
 8
WIRE
 0
POLYLINE
 8
WIRE
 66
1
 70
1
 10
0.0
 20
0.0
 30
0.0
 40
  0.5080
 41
  0.5080
 0
VERTEX
 8
WIRE
 10
253.7460
 20
315.7220
 30
0.0
 42
1.0
 0
VERTEX
 8
WIRE
 10
254.2540
 20
315.7220
 30
0.0
 42
1.0
 0
SEQEND
 8
WIRE
 0
POLYLINE
 8
WIRE
 66
1
 10
0.0
 20
0.0
 30
0.0
 0
VERTEX
 8
WIRE
 10
231.1400
 20
300.4820
 30
0.0
 0
VERTEX
 8
WIRE
 10
223.5200
 20
300.4820
 30
0.0
 0
SEQEND
 8
WIRE
 0
POLYLINE
 8
WIRE
 66
1
 70
1
 10
0.0
 20
0.0
 30
0.0
 40
  0.5080
 41
  0.5080
 0
VERTEX
 8
WIRE
 10
223.2660
 20
300.4820
 30
0.0
 42
1.0
 0
VERTEX
 8
WIRE
 10
223.7740
 20
300.4820
 30
0.0
 42
1.0
 0
SEQEND
 8
WIRE
 0
POLYLINE
 8
WIRE
 66
1
 10
0.0
 20
0.0
 30
0.0
 0
VERTEX
 8
WIRE
 10
223.5200
 20
300.4820
 30
0.0
 0
VERTEX
 8
WIRE
 10
223.5200
 20
308.1020
 30
0.0
 0
SEQEND
 8
WIRE
 0
POLYLINE
 8
WIRE
 66
1
 70
1
 10
0.0
 20
0.0
 30
0.0
 40
  0.5080
 41
  0.5080
 0
VERTEX
 8
WIRE
 10
223.2660
 20
308.1020
 30
0.0
 42
1.0
 0
VERTEX
 8
WIRE
 10
223.7740
 20
308.1020
 30
0.0
 42
1.0
 0
SEQEND
 8
WIRE
 0
POLYLINE
 8
WIRE
 66
1
 10
0.0
 20
0.0
 30
0.0
 0
VERTEX
 8
WIRE
 10
254.0000
 20
300.4820
 30
0.0
 0
VERTEX
 8
WIRE
 10
238.7600
 20
300.4820
 30
0.0
 0
SEQEND
 8
WIRE
 0
POLYLINE
 8
WIRE
 66
1
 10
0.0
 20
0.0
 30
0.0
 0
VERTEX
 8
WIRE
 10
254.0000
 20
300.4820
 30
0.0
 0
VERTEX
 8
WIRE
 10
254.0000
 20
308.1020
 30
0.0
 0
SEQEND
 8
WIRE
 0
POLYLINE
 8
WIRE
 66
1
 10
0.0
 20
0.0
 30
0.0
 0
VERTEX
 8
WIRE
 10
147.3200
 20
254.7620
 30
0.0
 0
VERTEX
 8
WIRE
 10
147.3200
 20
257.3020
 30
0.0
 0
SEQEND
 8
WIRE
 0
POLYLINE
 8
WIRE
 66
1
 10
0.0
 20
0.0
 30
0.0
 0
VERTEX
 8
WIRE
 10
147.3200
 20
257.3020
 30
0.0
 0
VERTEX
 8
WIRE
 10
132.0800
 20
257.3020
 30
0.0
 0
SEQEND
 8
WIRE
 0
POLYLINE
 8
WIRE
 66
1
 70
1
 10
0.0
 20
0.0
 30
0.0
 40
  0.5080
 41
  0.5080
 0
VERTEX
 8
WIRE
 10
131.8260
 20
257.3020
 30
0.0
 42
1.0
 0
VERTEX
 8
WIRE
 10
132.3340
 20
257.3020
 30
0.0
 42
1.0
 0
SEQEND
 8
WIRE
 0
POLYLINE
 8
WIRE
 66
1
 10
0.0
 20
0.0
 30
0.0
 0
VERTEX
 8
WIRE
 10
228.6000
 20
236.9820
 30
0.0
 0
VERTEX
 8
WIRE
 10
205.7400
 20
236.9820
 30
0.0
 0
SEQEND
 8
WIRE
 0
POLYLINE
 8
WIRE
 66
1
 10
0.0
 20
0.0
 30
0.0
 0
VERTEX
 8
WIRE
 10
119.3800
 20
226.8220
 30
0.0
 0
VERTEX
 8
WIRE
 10
119.3800
 20
229.3620
 30
0.0
 0
SEQEND
 8
WIRE
 0
POLYLINE
 8
WIRE
 66
1
 10
0.0
 20
0.0
 30
0.0
 0
VERTEX
 8
WIRE
 10
106.6800
 20
224.2820
 30
0.0
 0
VERTEX
 8
WIRE
 10
106.6800
 20
229.3620
 30
0.0
 0
SEQEND
 8
WIRE
 0
POLYLINE
 8
WIRE
 66
1
 10
0.0
 20
0.0
 30
0.0
 0
VERTEX
 8
WIRE
 10
119.3800
 20
257.3020
 30
0.0
 0
VERTEX
 8
WIRE
 10
106.6800
 20
257.3020
 30
0.0
 0
SEQEND
 8
WIRE
 0
POLYLINE
 8
WIRE
 66
1
 70
1
 10
0.0
 20
0.0
 30
0.0
 40
  0.5080
 41
  0.5080
 0
VERTEX
 8
WIRE
 10
119.1260
 20
257.3020
 30
0.0
 42
1.0
 0
VERTEX
 8
WIRE
 10
119.6340
 20
257.3020
 30
0.0
 42
1.0
 0
SEQEND
 8
WIRE
 0
POLYLINE
 8
WIRE
 66
1
 10
0.0
 20
0.0
 30
0.0
 0
VERTEX
 8
WIRE
 10
132.0800
 20
257.3020
 30
0.0
 0
VERTEX
 8
WIRE
 10
119.3800
 20
257.3020
 30
0.0
 0
SEQEND
 8
WIRE
 0
POLYLINE
 8
WIRE
 66
1
 10
0.0
 20
0.0
 30
0.0
 0
VERTEX
 8
WIRE
 10
162.5600
 20
229.3620
 30
0.0
 0
VERTEX
 8
WIRE
 10
132.0800
 20
229.3620
 30
0.0
 0
SEQEND
 8
WIRE
 0
TEXT
 8
WIRETEXT
 10
134.6200
 20
230.1240
 30
0.0
 40
  1.3057
 1
BR2
 0
POLYLINE
 8
WIRE
 66
1
 10
0.0
 20
0.0
 30
0.0
 0
VERTEX
 8
WIRE
 10
162.5600
 20
224.2820
 30
0.0
 0
VERTEX
 8
WIRE
 10
106.6800
 20
224.2820
 30
0.0
 0
SEQEND
 8
WIRE
 0
TEXT
 8
WIRETEXT
 10
109.2200
 20
225.0440
 30
0.0
 40
  1.3057
 1
PWM2
 0
POLYLINE
 8
WIRE
 66
1
 10
0.0
 20
0.0
 30
0.0
 0
VERTEX
 8
WIRE
 10
162.5600
 20
226.8220
 30
0.0
 0
VERTEX
 8
WIRE
 10
119.3800
 20
226.8220
 30
0.0
 0
SEQEND
 8
WIRE
 0
TEXT
 8
WIRETEXT
 10
121.9200
 20
227.5840
 30
0.0
 40
  1.3057
 1
DIR2
 0
POLYLINE
 8
WIRE
 66
1
 10
0.0
 20
0.0
 30
0.0
 0
VERTEX
 8
WIRE
 10
231.1400
 20
239.5220
 30
0.0
 0
VERTEX
 8
WIRE
 10
220.9800
 20
239.5220
 30
0.0
 0
SEQEND
 8
WIRE
 0
POLYLINE
 8
WIRE
 66
1
 70
1
 10
0.0
 20
0.0
 30
0.0
 40
  0.5080
 41
  0.5080
 0
VERTEX
 8
WIRE
 10
220.7260
 20
239.5220
 30
0.0
 42
1.0
 0
VERTEX
 8
WIRE
 10
221.2340
 20
239.5220
 30
0.0
 42
1.0
 0
SEQEND
 8
WIRE
 0
POLYLINE
 8
WIRE
 66
1
 10
0.0
 20
0.0
 30
0.0
 0
VERTEX
 8
WIRE
 10
231.1400
 20
236.9820
 30
0.0
 0
VERTEX
 8
WIRE
 10
228.6000
 20
236.9820
 30
0.0
 0
SEQEND
 8
WIRE
 0
POLYLINE
 8
WIRE
 66
1
 70
1
 10
0.0
 20
0.0
 30
0.0
 40
  0.5080
 41
  0.5080
 0
VERTEX
 8
WIRE
 10
228.3460
 20
236.9820
 30
0.0
 42
1.0
 0
VERTEX
 8
WIRE
 10
228.8540
 20
236.9820
 30
0.0
 42
1.0
 0
SEQEND
 8
WIRE
 0
POLYLINE
 8
WIRE
 66
1
 10
0.0
 20
0.0
 30
0.0
 0
VERTEX
 8
WIRE
 10
220.9800
 20
249.6820
 30
0.0
 0
VERTEX
 8
WIRE
 10
215.9000
 20
249.6820
 30
0.0
 0
SEQEND
 8
WIRE
 0
POLYLINE
 8
WIRE
 66
1
 10
0.0
 20
0.0
 30
0.0
 0
VERTEX
 8
WIRE
 10
220.9800
 20
239.5220
 30
0.0
 0
VERTEX
 8
WIRE
 10
220.9800
 20
249.6820
 30
0.0
 0
SEQEND
 8
WIRE
 0
POLYLINE
 8
WIRE
 66
1
 10
0.0
 20
0.0
 30
0.0
 0
VERTEX
 8
WIRE
 10
220.9800
 20
239.5220
 30
0.0
 0
VERTEX
 8
WIRE
 10
205.7400
 20
239.5220
 30
0.0
 0
SEQEND
 8
WIRE
 0
POLYLINE
 8
WIRE
 66
1
 10
0.0
 20
0.0
 30
0.0
 0
VERTEX
 8
WIRE
 10
208.2800
 20
249.6820
 30
0.0
 0
VERTEX
 8
WIRE
 10
162.5600
 20
249.6820
 30
0.0
 0
SEQEND
 8
WIRE
 0
POLYLINE
 8
WIRE
 66
1
 10
0.0
 20
0.0
 30
0.0
 0
VERTEX
 8
WIRE
 10
162.5600
 20
239.5220
 30
0.0
 0
VERTEX
 8
WIRE
 10
162.5600
 20
249.6820
 30
0.0
 0
SEQEND
 8
WIRE
 0
POLYLINE
 8
WIRE
 66
1
 10
0.0
 20
0.0
 30
0.0
 0
VERTEX
 8
WIRE
 10
228.6000
 20
257.3020
 30
0.0
 0
VERTEX
 8
WIRE
 10
200.6600
 20
257.3020
 30
0.0
 0
SEQEND
 8
WIRE
 0
POLYLINE
 8
WIRE
 66
1
 10
0.0
 20
0.0
 30
0.0
 0
VERTEX
 8
WIRE
 10
228.6000
 20
236.9820
 30
0.0
 0
VERTEX
 8
WIRE
 10
228.6000
 20
257.3020
 30
0.0
 0
SEQEND
 8
WIRE
 0
POLYLINE
 8
WIRE
 66
1
 10
0.0
 20
0.0
 30
0.0
 0
VERTEX
 8
WIRE
 10
193.0400
 20
257.3020
 30
0.0
 0
VERTEX
 8
WIRE
 10
157.4800
 20
257.3020
 30
0.0
 0
SEQEND
 8
WIRE
 0
POLYLINE
 8
WIRE
 66
1
 10
0.0
 20
0.0
 30
0.0
 0
VERTEX
 8
WIRE
 10
157.4800
 20
236.9820
 30
0.0
 0
VERTEX
 8
WIRE
 10
157.4800
 20
257.3020
 30
0.0
 0
SEQEND
 8
WIRE
 0
POLYLINE
 8
WIRE
 66
1
 10
0.0
 20
0.0
 30
0.0
 0
VERTEX
 8
WIRE
 10
162.5600
 20
236.9820
 30
0.0
 0
VERTEX
 8
WIRE
 10
157.4800
 20
236.9820
 30
0.0
 0
SEQEND
 8
WIRE
 0
POLYLINE
 8
WIRE
 66
1
 10
0.0
 20
0.0
 30
0.0
 0
VERTEX
 8
WIRE
 10
162.5600
 20
234.4420
 30
0.0
 0
VERTEX
 8
WIRE
 10
154.9400
 20
234.4420
 30
0.0
 0
SEQEND
 8
WIRE
 0
POLYLINE
 8
WIRE
 66
1
 10
0.0
 20
0.0
 30
0.0
 0
VERTEX
 8
WIRE
 10
154.9400
 20
231.9020
 30
0.0
 0
VERTEX
 8
WIRE
 10
154.9400
 20
234.4420
 30
0.0
 0
SEQEND
 8
WIRE
 0
POLYLINE
 8
WIRE
 66
1
 10
0.0
 20
0.0
 30
0.0
 0
VERTEX
 8
WIRE
 10
162.5600
 20
216.6620
 30
0.0
 0
VERTEX
 8
WIRE
 10
162.5600
 20
219.2020
 30
0.0
 0
SEQEND
 8
WIRE
 0
POLYLINE
 8
WIRE
 66
1
 10
0.0
 20
0.0
 30
0.0
 0
VERTEX
 8
WIRE
 10
162.5600
 20
216.6620
 30
0.0
 0
VERTEX
 8
WIRE
 10
154.9400
 20
216.6620
 30
0.0
 0
SEQEND
 8
WIRE
 0
POLYLINE
 8
WIRE
 66
1
 10
0.0
 20
0.0
 30
0.0
 0
VERTEX
 8
WIRE
 10
134.6200
 20
297.9420
 30
0.0
 0
VERTEX
 8
WIRE
 10
124.4600
 20
297.9420
 30
0.0
 0
SEQEND
 8
WIRE
 0
TEXT
 8
WIRETEXT
 10
127.0000
 20
298.7040
 30
0.0
 40
  1.3057
 1
PWM1
 0
POLYLINE
 8
WIRE
 66
1
 10
0.0
 20
0.0
 30
0.0
 0
VERTEX
 8
WIRE
 10
134.6200
 20
295.4020
 30
0.0
 0
VERTEX
 8
WIRE
 10
124.4600
 20
295.4020
 30
0.0
 0
SEQEND
 8
WIRE
 0
TEXT
 8
WIRETEXT
 10
129.5400
 20
296.1640
 30
0.0
 40
  1.3057
 1
DIR1
 0
POLYLINE
 8
WIRE
 66
1
 10
0.0
 20
0.0
 30
0.0
 0
VERTEX
 8
WIRE
 10
134.6200
 20
292.8620
 30
0.0
 0
VERTEX
 8
WIRE
 10
124.4600
 20
292.8620
 30
0.0
 0
SEQEND
 8
WIRE
 0
TEXT
 8
WIRETEXT
 10
127.0000
 20
293.6240
 30
0.0
 40
  1.3057
 1
PWM2
 0
POLYLINE
 8
WIRE
 66
1
 10
0.0
 20
0.0
 30
0.0
 0
VERTEX
 8
WIRE
 10
134.6200
 20
290.3220
 30
0.0
 0
VERTEX
 8
WIRE
 10
124.4600
 20
290.3220
 30
0.0
 0
SEQEND
 8
WIRE
 0
TEXT
 8
WIRETEXT
 10
129.5400
 20
291.0840
 30
0.0
 40
  1.3057
 1
DIR2
 0
POLYLINE
 8
WIRE
 66
1
 10
0.0
 20
0.0
 30
0.0
 0
VERTEX
 8
WIRE
 10
134.6200
 20
287.7820
 30
0.0
 0
VERTEX
 8
WIRE
 10
124.4600
 20
287.7820
 30
0.0
 0
SEQEND
 8
WIRE
 0
TEXT
 8
WIRETEXT
 10
129.5400
 20
288.5440
 30
0.0
 40
  1.3057
 1
BR1
 0
POLYLINE
 8
WIRE
 66
1
 10
0.0
 20
0.0
 30
0.0
 0
VERTEX
 8
WIRE
 10
134.6200
 20
285.2420
 30
0.0
 0
VERTEX
 8
WIRE
 10
124.4600
 20
285.2420
 30
0.0
 0
SEQEND
 8
WIRE
 0
TEXT
 8
WIRETEXT
 10
129.5400
 20
286.0040
 30
0.0
 40
  1.3057
 1
BR2
 0
POLYLINE
 8
WIRE
 66
1
 10
0.0
 20
0.0
 30
0.0
 0
VERTEX
 8
WIRE
 10
127.0000
 20
303.0220
 30
0.0
 0
VERTEX
 8
WIRE
 10
124.4600
 20
303.0220
 30
0.0
 0
SEQEND
 8
WIRE
 0
POLYLINE
 8
WIRE
 66
1
 10
0.0
 20
0.0
 30
0.0
 0
VERTEX
 8
WIRE
 10
142.2400
 20
297.9420
 30
0.0
 0
VERTEX
 8
WIRE
 10
142.2400
 20
300.4820
 30
0.0
 0
SEQEND
 8
WIRE
 0
POLYLINE
 8
WIRE
 66
1
 10
0.0
 20
0.0
 30
0.0
 0
VERTEX
 8
WIRE
 10
142.2400
 20
300.4820
 30
0.0
 0
VERTEX
 8
WIRE
 10
124.4600
 20
300.4820
 30
0.0
 0
SEQEND
 8
WIRE
 0
POLYLINE
 8
WIRE
 66
1
 10
0.0
 20
0.0
 30
0.0
 0
VERTEX
 8
WIRE
 10
236.2200
 20
280.1620
 30
0.0
 0
VERTEX
 8
WIRE
 10
233.6800
 20
280.1620
 30
0.0
 0
SEQEND
 8
WIRE
 0
POLYLINE
 8
WIRE
 66
1
 10
0.0
 20
0.0
 30
0.0
 0
VERTEX
 8
WIRE
 10
233.6800
 20
277.6220
 30
0.0
 0
VERTEX
 8
WIRE
 10
233.6800
 20
280.1620
 30
0.0
 0
SEQEND
 8
WIRE
 0
POLYLINE
 8
WIRE
 66
1
 10
0.0
 20
0.0
 30
0.0
 0
VERTEX
 8
WIRE
 10
231.1400
 20
282.7020
 30
0.0
 0
VERTEX
 8
WIRE
 10
231.1400
 20
285.2420
 30
0.0
 0
SEQEND
 8
WIRE
 0
POLYLINE
 8
WIRE
 66
1
 10
0.0
 20
0.0
 30
0.0
 0
VERTEX
 8
WIRE
 10
236.2200
 20
282.7020
 30
0.0
 0
VERTEX
 8
WIRE
 10
231.1400
 20
282.7020
 30
0.0
 0
SEQEND
 8
WIRE
 0
TEXT
 8
PARTTEXT
 10
154.9400
 20
334.7063
 30
0.0
 40
  1.3057
 1
24v
 0
POLYLINE
 8
PARTS
 66
1
 10
0.0
 20
0.0
 30
0.0
 0
VERTEX
 8
PARTS
 10
157.4800
 20
331.9780
 30
0.0
 0
VERTEX
 8
PARTS
 10
157.4800
 20
330.9620
 30
0.0
 0
SEQEND
 8
PARTS
 0
POLYLINE
 8
PARTS
 66
1
 70
1
 10
0.0
 20
0.0
 30
0.0
 0
VERTEX
 8
PARTS
 10
158.2420
 20
332.7400
 30
0.0
 42
  0.0985
 0
VERTEX
 8
PARTS
 10
158.1840
 20
333.0316
 30
0.0
 42
  0.0985
 0
VERTEX
 8
PARTS
 10
158.0188
 20
333.2788
 30
0.0
 42
  0.0985
 0
VERTEX
 8
PARTS
 10
157.7716
 20
333.4440
 30
0.0
 42
  0.0985
 0
VERTEX
 8
PARTS
 10
157.4800
 20
333.5020
 30
0.0
 42
  0.0985
 0
VERTEX
 8
PARTS
 10
157.1884
 20
333.4440
 30
0.0
 42
  0.0985
 0
VERTEX
 8
PARTS
 10
156.9412
 20
333.2788
 30
0.0
 42
  0.0985
 0
VERTEX
 8
PARTS
 10
156.7760
 20
333.0316
 30
0.0
 42
  0.0985
 0
VERTEX
 8
PARTS
 10
156.7180
 20
332.7400
 30
0.0
 42
  0.0985
 0
VERTEX
 8
PARTS
 10
156.7760
 20
332.4484
 30
0.0
 42
  0.0985
 0
VERTEX
 8
PARTS
 10
156.9412
 20
332.2012
 30
0.0
 42
  0.0985
 0
VERTEX
 8
PARTS
 10
157.1884
 20
332.0360
 30
0.0
 42
  0.0985
 0
VERTEX
 8
PARTS
 10
157.4800
 20
331.9780
 30
0.0
 42
  0.0985
 0
VERTEX
 8
PARTS
 10
157.7716
 20
332.0360
 30
0.0
 42
  0.0985
 0
VERTEX
 8
PARTS
 10
158.0188
 20
332.2012
 30
0.0
 42
  0.0985
 0
VERTEX
 8
PARTS
 10
158.1840
 20
332.4484
 30
0.0
 42
  0.0985
 0
SEQEND
 8
PARTS
 0
POLYLINE
 8
PARTS
 66
1
 10
0.0
 20
0.0
 30
0.0
 0
VERTEX
 8
PARTS
 10
153.6700
 20
343.6620
 30
0.0
 0
VERTEX
 8
PARTS
 10
154.9400
 20
346.2020
 30
0.0
 0
SEQEND
 8
PARTS
 0
POLYLINE
 8
PARTS
 66
1
 10
0.0
 20
0.0
 30
0.0
 0
VERTEX
 8
PARTS
 10
154.9400
 20
346.2020
 30
0.0
 0
VERTEX
 8
PARTS
 10
160.0200
 20
346.2020
 30
0.0
 0
SEQEND
 8
PARTS
 0
POLYLINE
 8
PARTS
 66
1
 10
0.0
 20
0.0
 30
0.0
 0
VERTEX
 8
PARTS
 10
160.0200
 20
346.2020
 30
0.0
 0
VERTEX
 8
PARTS
 10
158.7500
 20
343.6620
 30
0.0
 0
SEQEND
 8
PARTS
 0
POLYLINE
 8
PARTS
 66
1
 10
0.0
 20
0.0
 30
0.0
 0
VERTEX
 8
PARTS
 10
156.2100
 20
343.6620
 30
0.0
 0
VERTEX
 8
PARTS
 10
157.4800
 20
346.2020
 30
0.0
 0
SEQEND
 8
PARTS
 0
POLYLINE
 8
PARTS
 66
1
 10
0.0
 20
0.0
 30
0.0
 0
VERTEX
 8
PARTS
 10
147.3200
 20
369.0620
 30
0.0
 0
VERTEX
 8
PARTS
 10
152.4000
 20
369.0620
 30
0.0
 0
SEQEND
 8
PARTS
 0
POLYLINE
 8
PARTS
 66
1
 10
0.0
 20
0.0
 30
0.0
 0
VERTEX
 8
PARTS
 10
148.0820
 20
368.3000
 30
0.0
 0
VERTEX
 8
PARTS
 10
151.6380
 20
368.3000
 30
0.0
 0
SEQEND
 8
PARTS
 0
POLYLINE
 8
PARTS
 66
1
 10
0.0
 20
0.0
 30
0.0
 0
VERTEX
 8
PARTS
 10
150.8760
 20
367.5380
 30
0.0
 0
VERTEX
 8
PARTS
 10
148.8440
 20
367.5380
 30
0.0
 0
SEQEND
 8
PARTS
 0
POLYLINE
 8
PARTS
 66
1
 10
0.0
 20
0.0
 30
0.0
 0
VERTEX
 8
PARTS
 10
149.6060
 20
366.7760
 30
0.0
 0
VERTEX
 8
PARTS
 10
150.1140
 20
366.7760
 30
0.0
 0
SEQEND
 8
PARTS
 0
TEXT
 8
PARTTEXT
 10
251.4600
 20
324.5463
 30
0.0
 40
  1.3057
 1
24v
 0
POLYLINE
 8
PARTS
 66
1
 10
0.0
 20
0.0
 30
0.0
 0
VERTEX
 8
PARTS
 10
254.0000
 20
321.8180
 30
0.0
 0
VERTEX
 8
PARTS
 10
254.0000
 20
320.8020
 30
0.0
 0
SEQEND
 8
PARTS
 0
POLYLINE
 8
PARTS
 66
1
 70
1
 10
0.0
 20
0.0
 30
0.0
 0
VERTEX
 8
PARTS
 10
254.7620
 20
322.5800
 30
0.0
 42
  0.0985
 0
VERTEX
 8
PARTS
 10
254.7040
 20
322.8716
 30
0.0
 42
  0.0985
 0
VERTEX
 8
PARTS
 10
254.5388
 20
323.1188
 30
0.0
 42
  0.0985
 0
VERTEX
 8
PARTS
 10
254.2916
 20
323.2840
 30
0.0
 42
  0.0985
 0
VERTEX
 8
PARTS
 10
254.0000
 20
323.3420
 30
0.0
 42
  0.0985
 0
VERTEX
 8
PARTS
 10
253.7084
 20
323.2840
 30
0.0
 42
  0.0985
 0
VERTEX
 8
PARTS
 10
253.4612
 20
323.1188
 30
0.0
 42
  0.0985
 0
VERTEX
 8
PARTS
 10
253.2960
 20
322.8716
 30
0.0
 42
  0.0985
 0
VERTEX
 8
PARTS
 10
253.2380
 20
322.5800
 30
0.0
 42
  0.0985
 0
VERTEX
 8
PARTS
 10
253.2960
 20
322.2884
 30
0.0
 42
  0.0985
 0
VERTEX
 8
PARTS
 10
253.4612
 20
322.0412
 30
0.0
 42
  0.0985
 0
VERTEX
 8
PARTS
 10
253.7084
 20
321.8760
 30
0.0
 42
  0.0985
 0
VERTEX
 8
PARTS
 10
254.0000
 20
321.8180
 30
0.0
 42
  0.0985
 0
VERTEX
 8
PARTS
 10
254.2916
 20
321.8760
 30
0.0
 42
  0.0985
 0
VERTEX
 8
PARTS
 10
254.5388
 20
322.0412
 30
0.0
 42
  0.0985
 0
VERTEX
 8
PARTS
 10
254.7040
 20
322.2884
 30
0.0
 42
  0.0985
 0
SEQEND
 8
PARTS
 0
POLYLINE
 8
PARTS
 66
1
 10
0.0
 20
0.0
 30
0.0
 0
VERTEX
 8
PARTS
 10
151.1300
 20
229.3620
 30
0.0
 0
VERTEX
 8
PARTS
 10
152.4000
 20
231.9020
 30
0.0
 0
SEQEND
 8
PARTS
 0
POLYLINE
 8
PARTS
 66
1
 10
0.0
 20
0.0
 30
0.0
 0
VERTEX
 8
PARTS
 10
152.4000
 20
231.9020
 30
0.0
 0
VERTEX
 8
PARTS
 10
157.4800
 20
231.9020
 30
0.0
 0
SEQEND
 8
PARTS
 0
POLYLINE
 8
PARTS
 66
1
 10
0.0
 20
0.0
 30
0.0
 0
VERTEX
 8
PARTS
 10
157.4800
 20
231.9020
 30
0.0
 0
VERTEX
 8
PARTS
 10
156.2100
 20
229.3620
 30
0.0
 0
SEQEND
 8
PARTS
 0
POLYLINE
 8
PARTS
 66
1
 10
0.0
 20
0.0
 30
0.0
 0
VERTEX
 8
PARTS
 10
153.6700
 20
229.3620
 30
0.0
 0
VERTEX
 8
PARTS
 10
154.9400
 20
231.9020
 30
0.0
 0
SEQEND
 8
PARTS
 0
POLYLINE
 8
PARTS
 66
1
 10
0.0
 20
0.0
 30
0.0
 0
VERTEX
 8
PARTS
 10
144.7800
 20
254.7620
 30
0.0
 0
VERTEX
 8
PARTS
 10
149.8600
 20
254.7620
 30
0.0
 0
SEQEND
 8
PARTS
 0
POLYLINE
 8
PARTS
 66
1
 10
0.0
 20
0.0
 30
0.0
 0
VERTEX
 8
PARTS
 10
145.5420
 20
254.0000
 30
0.0
 0
VERTEX
 8
PARTS
 10
149.0980
 20
254.0000
 30
0.0
 0
SEQEND
 8
PARTS
 0
POLYLINE
 8
PARTS
 66
1
 10
0.0
 20
0.0
 30
0.0
 0
VERTEX
 8
PARTS
 10
148.3360
 20
253.2380
 30
0.0
 0
VERTEX
 8
PARTS
 10
146.3040
 20
253.2380
 30
0.0
 0
SEQEND
 8
PARTS
 0
POLYLINE
 8
PARTS
 66
1
 10
0.0
 20
0.0
 30
0.0
 0
VERTEX
 8
PARTS
 10
147.0660
 20
252.4760
 30
0.0
 0
VERTEX
 8
PARTS
 10
147.5740
 20
252.4760
 30
0.0
 0
SEQEND
 8
PARTS
 0
TEXT
 8
PARTTEXT
 10
152.4000
 20
220.4063
 30
0.0
 40
  1.3057
 1
24v
 0
POLYLINE
 8
PARTS
 66
1
 10
0.0
 20
0.0
 30
0.0
 0
VERTEX
 8
PARTS
 10
154.9400
 20
217.6780
 30
0.0
 0
VERTEX
 8
PARTS
 10
154.9400
 20
216.6620
 30
0.0
 0
SEQEND
 8
PARTS
 0
POLYLINE
 8
PARTS
 66
1
 70
1
 10
0.0
 20
0.0
 30
0.0
 0
VERTEX
 8
PARTS
 10
155.7020
 20
218.4400
 30
0.0
 42
  0.0985
 0
VERTEX
 8
PARTS
 10
155.6440
 20
218.7316
 30
0.0
 42
  0.0985
 0
VERTEX
 8
PARTS
 10
155.4788
 20
218.9788
 30
0.0
 42
  0.0985
 0
VERTEX
 8
PARTS
 10
155.2316
 20
219.1440
 30
0.0
 42
  0.0985
 0
VERTEX
 8
PARTS
 10
154.9400
 20
219.2020
 30
0.0
 42
  0.0985
 0
VERTEX
 8
PARTS
 10
154.6484
 20
219.1440
 30
0.0
 42
  0.0985
 0
VERTEX
 8
PARTS
 10
154.4012
 20
218.9788
 30
0.0
 42
  0.0985
 0
VERTEX
 8
PARTS
 10
154.2360
 20
218.7316
 30
0.0
 42
  0.0985
 0
VERTEX
 8
PARTS
 10
154.1780
 20
218.4400
 30
0.0
 42
  0.0985
 0
VERTEX
 8
PARTS
 10
154.2360
 20
218.1484
 30
0.0
 42
  0.0985
 0
VERTEX
 8
PARTS
 10
154.4012
 20
217.9012
 30
0.0
 42
  0.0985
 0
VERTEX
 8
PARTS
 10
154.6484
 20
217.7360
 30
0.0
 42
  0.0985
 0
VERTEX
 8
PARTS
 10
154.9400
 20
217.6780
 30
0.0
 42
  0.0985
 0
VERTEX
 8
PARTS
 10
155.2316
 20
217.7360
 30
0.0
 42
  0.0985
 0
VERTEX
 8
PARTS
 10
155.4788
 20
217.9012
 30
0.0
 42
  0.0985
 0
VERTEX
 8
PARTS
 10
155.6440
 20
218.1484
 30
0.0
 42
  0.0985
 0
SEQEND
 8
PARTS
 0
POLYLINE
 8
PARTS
 66
1
 10
0.0
 20
0.0
 30
0.0
 0
VERTEX
 8
PARTS
 10
139.7000
 20
297.9420
 30
0.0
 0
VERTEX
 8
PARTS
 10
144.7800
 20
297.9420
 30
0.0
 0
SEQEND
 8
PARTS
 0
POLYLINE
 8
PARTS
 66
1
 10
0.0
 20
0.0
 30
0.0
 0
VERTEX
 8
PARTS
 10
140.4620
 20
297.1800
 30
0.0
 0
VERTEX
 8
PARTS
 10
144.0180
 20
297.1800
 30
0.0
 0
SEQEND
 8
PARTS
 0
POLYLINE
 8
PARTS
 66
1
 10
0.0
 20
0.0
 30
0.0
 0
VERTEX
 8
PARTS
 10
143.2560
 20
296.4180
 30
0.0
 0
VERTEX
 8
PARTS
 10
141.2240
 20
296.4180
 30
0.0
 0
SEQEND
 8
PARTS
 0
POLYLINE
 8
PARTS
 66
1
 10
0.0
 20
0.0
 30
0.0
 0
VERTEX
 8
PARTS
 10
141.9860
 20
295.6560
 30
0.0
 0
VERTEX
 8
PARTS
 10
142.4940
 20
295.6560
 30
0.0
 0
SEQEND
 8
PARTS
 0
TEXT
 8
PARTTEXT
 10
124.4600
 20
306.7663
 30
0.0
 40
  1.3057
 1
5v
 0
POLYLINE
 8
PARTS
 66
1
 10
0.0
 20
0.0
 30
0.0
 0
VERTEX
 8
PARTS
 10
127.0000
 20
304.0380
 30
0.0
 0
VERTEX
 8
PARTS
 10
127.0000
 20
303.0220
 30
0.0
 0
SEQEND
 8
PARTS
 0
POLYLINE
 8
PARTS
 66
1
 70
1
 10
0.0
 20
0.0
 30
0.0
 0
VERTEX
 8
PARTS
 10
127.7620
 20
304.8000
 30
0.0
 42
  0.0985
 0
VERTEX
 8
PARTS
 10
127.7040
 20
305.0916
 30
0.0
 42
  0.0985
 0
VERTEX
 8
PARTS
 10
127.5388
 20
305.3388
 30
0.0
 42
  0.0985
 0
VERTEX
 8
PARTS
 10
127.2916
 20
305.5040
 30
0.0
 42
  0.0985
 0
VERTEX
 8
PARTS
 10
127.0000
 20
305.5620
 30
0.0
 42
  0.0985
 0
VERTEX
 8
PARTS
 10
126.7084
 20
305.5040
 30
0.0
 42
  0.0985
 0
VERTEX
 8
PARTS
 10
126.4612
 20
305.3388
 30
0.0
 42
  0.0985
 0
VERTEX
 8
PARTS
 10
126.2960
 20
305.0916
 30
0.0
 42
  0.0985
 0
VERTEX
 8
PARTS
 10
126.2380
 20
304.8000
 30
0.0
 42
  0.0985
 0
VERTEX
 8
PARTS
 10
126.2960
 20
304.5084
 30
0.0
 42
  0.0985
 0
VERTEX
 8
PARTS
 10
126.4612
 20
304.2612
 30
0.0
 42
  0.0985
 0
VERTEX
 8
PARTS
 10
126.7084
 20
304.0960
 30
0.0
 42
  0.0985
 0
VERTEX
 8
PARTS
 10
127.0000
 20
304.0380
 30
0.0
 42
  0.0985
 0
VERTEX
 8
PARTS
 10
127.2916
 20
304.0960
 30
0.0
 42
  0.0985
 0
VERTEX
 8
PARTS
 10
127.5388
 20
304.2612
 30
0.0
 42
  0.0985
 0
VERTEX
 8
PARTS
 10
127.7040
 20
304.5084
 30
0.0
 42
  0.0985
 0
SEQEND
 8
PARTS
 0
POLYLINE
 8
PARTS
 66
1
 10
0.0
 20
0.0
 30
0.0
 0
VERTEX
 8
PARTS
 10
229.8700
 20
275.0820
 30
0.0
 0
VERTEX
 8
PARTS
 10
231.1400
 20
277.6220
 30
0.0
 0
SEQEND
 8
PARTS
 0
POLYLINE
 8
PARTS
 66
1
 10
0.0
 20
0.0
 30
0.0
 0
VERTEX
 8
PARTS
 10
231.1400
 20
277.6220
 30
0.0
 0
VERTEX
 8
PARTS
 10
236.2200
 20
277.6220
 30
0.0
 0
SEQEND
 8
PARTS
 0
POLYLINE
 8
PARTS
 66
1
 10
0.0
 20
0.0
 30
0.0
 0
VERTEX
 8
PARTS
 10
236.2200
 20
277.6220
 30
0.0
 0
VERTEX
 8
PARTS
 10
234.9500
 20
275.0820
 30
0.0
 0
SEQEND
 8
PARTS
 0
POLYLINE
 8
PARTS
 66
1
 10
0.0
 20
0.0
 30
0.0
 0
VERTEX
 8
PARTS
 10
232.4100
 20
275.0820
 30
0.0
 0
VERTEX
 8
PARTS
 10
233.6800
 20
277.6220
 30
0.0
 0
SEQEND
 8
PARTS
 0
POLYLINE
 8
PARTS
 66
1
 10
0.0
 20
0.0
 30
0.0
 0
VERTEX
 8
PARTS
 10
219.7100
 20
295.4020
 30
0.0
 0
VERTEX
 8
PARTS
 10
220.9800
 20
297.9420
 30
0.0
 0
SEQEND
 8
PARTS
 0
POLYLINE
 8
PARTS
 66
1
 10
0.0
 20
0.0
 30
0.0
 0
VERTEX
 8
PARTS
 10
220.9800
 20
297.9420
 30
0.0
 0
VERTEX
 8
PARTS
 10
226.0600
 20
297.9420
 30
0.0
 0
SEQEND
 8
PARTS
 0
POLYLINE
 8
PARTS
 66
1
 10
0.0
 20
0.0
 30
0.0
 0
VERTEX
 8
PARTS
 10
226.0600
 20
297.9420
 30
0.0
 0
VERTEX
 8
PARTS
 10
224.7900
 20
295.4020
 30
0.0
 0
SEQEND
 8
PARTS
 0
POLYLINE
 8
PARTS
 66
1
 10
0.0
 20
0.0
 30
0.0
 0
VERTEX
 8
PARTS
 10
222.2500
 20
295.4020
 30
0.0
 0
VERTEX
 8
PARTS
 10
223.5200
 20
297.9420
 30
0.0
 0
SEQEND
 8
PARTS
 0
TEXT
 8
PARTTEXT
 10
228.6000
 20
288.9863
 30
0.0
 40
  1.3057
 1
24v
 0
POLYLINE
 8
PARTS
 66
1
 10
0.0
 20
0.0
 30
0.0
 0
VERTEX
 8
PARTS
 10
231.1400
 20
286.2580
 30
0.0
 0
VERTEX
 8
PARTS
 10
231.1400
 20
285.2420
 30
0.0
 0
SEQEND
 8
PARTS
 0
POLYLINE
 8
PARTS
 66
1
 70
1
 10
0.0
 20
0.0
 30
0.0
 0
VERTEX
 8
PARTS
 10
231.9020
 20
287.0200
 30
0.0
 42
  0.0985
 0
VERTEX
 8
PARTS
 10
231.8440
 20
287.3116
 30
0.0
 42
  0.0985
 0
VERTEX
 8
PARTS
 10
231.6788
 20
287.5588
 30
0.0
 42
  0.0985
 0
VERTEX
 8
PARTS
 10
231.4316
 20
287.7240
 30
0.0
 42
  0.0985
 0
VERTEX
 8
PARTS
 10
231.1400
 20
287.7820
 30
0.0
 42
  0.0985
 0
VERTEX
 8
PARTS
 10
230.8484
 20
287.7240
 30
0.0
 42
  0.0985
 0
VERTEX
 8
PARTS
 10
230.6012
 20
287.5588
 30
0.0
 42
  0.0985
 0
VERTEX
 8
PARTS
 10
230.4360
 20
287.3116
 30
0.0
 42
  0.0985
 0
VERTEX
 8
PARTS
 10
230.3780
 20
287.0200
 30
0.0
 42
  0.0985
 0
VERTEX
 8
PARTS
 10
230.4360
 20
286.7284
 30
0.0
 42
  0.0985
 0
VERTEX
 8
PARTS
 10
230.6012
 20
286.4812
 30
0.0
 42
  0.0985
 0
VERTEX
 8
PARTS
 10
230.8484
 20
286.3160
 30
0.0
 42
  0.0985
 0
VERTEX
 8
PARTS
 10
231.1400
 20
286.2580
 30
0.0
 42
  0.0985
 0
VERTEX
 8
PARTS
 10
231.4316
 20
286.3160
 30
0.0
 42
  0.0985
 0
VERTEX
 8
PARTS
 10
231.6788
 20
286.4812
 30
0.0
 42
  0.0985
 0
VERTEX
 8
PARTS
 10
231.8440
 20
286.7284
 30
0.0
 42
  0.0985
 0
SEQEND
 8
PARTS
 0
ENDSEC
 0
EOF
