 0
SECTION
 2
HEADER
 9
$ACADVER
 1
AC1009
 0
ENDSEC
 0
SECTION
 2
ENTITIES
 0
POLYLINE
 8
TITLE
 66
1
 70
1
 10
0.0
 20
0.0
 30
0.0
 0
VERTEX
 8
TITLE
 10
 -2.5400
 20
  2.5400
 30
0.0
 0
VERTEX
 8
TITLE
 10
417.3220
 20
  2.5400
 30
0.0
 0
VERTEX
 8
TITLE
 10
417.3220
 20
299.4660
 30
0.0
 0
VERTEX
 8
TITLE
 10
 -2.5400
 20
299.4660
 30
0.0
 0
SEQEND
 8
TITLE
 0
POLYLINE
 8
TITLE
 66
1
 70
1
 10
0.0
 20
0.0
 30
0.0
 0
VERTEX
 8
TITLE
 10
  0.0000
 20
  5.0800
 30
0.0
 0
VERTEX
 8
TITLE
 10
414.7820
 20
  5.0800
 30
0.0
 0
VERTEX
 8
TITLE
 10
414.7820
 20
296.9260
 30
0.0
 0
VERTEX
 8
TITLE
 10
  0.0000
 20
296.9260
 30
0.0
 0
SEQEND
 8
TITLE
 0
POLYLINE
 8
TITLE
 66
1
 10
0.0
 20
0.0
 30
0.0
 0
VERTEX
 8
TITLE
 10
 86.8680
 20
  5.0800
 30
0.0
 0
VERTEX
 8
TITLE
 10
 86.8680
 20
  2.5400
 30
0.0
 0
SEQEND
 8
TITLE
 0
POLYLINE
 8
TITLE
 66
1
 10
0.0
 20
0.0
 30
0.0
 0
VERTEX
 8
TITLE
 10
 86.8680
 20
296.9260
 30
0.0
 0
VERTEX
 8
TITLE
 10
 86.8680
 20
299.4660
 30
0.0
 0
SEQEND
 8
TITLE
 0
POLYLINE
 8
TITLE
 66
1
 10
0.0
 20
0.0
 30
0.0
 0
VERTEX
 8
TITLE
 10
168.6560
 20
  5.0800
 30
0.0
 0
VERTEX
 8
TITLE
 10
168.6560
 20
  2.5400
 30
0.0
 0
SEQEND
 8
TITLE
 0
POLYLINE
 8
TITLE
 66
1
 10
0.0
 20
0.0
 30
0.0
 0
VERTEX
 8
TITLE
 10
168.6560
 20
296.9260
 30
0.0
 0
VERTEX
 8
TITLE
 10
168.6560
 20
299.4660
 30
0.0
 0
SEQEND
 8
TITLE
 0
POLYLINE
 8
TITLE
 66
1
 10
0.0
 20
0.0
 30
0.0
 0
VERTEX
 8
TITLE
 10
250.4440
 20
  5.0800
 30
0.0
 0
VERTEX
 8
TITLE
 10
250.4440
 20
  2.5400
 30
0.0
 0
SEQEND
 8
TITLE
 0
POLYLINE
 8
TITLE
 66
1
 10
0.0
 20
0.0
 30
0.0
 0
VERTEX
 8
TITLE
 10
250.4440
 20
296.9260
 30
0.0
 0
VERTEX
 8
TITLE
 10
250.4440
 20
299.4660
 30
0.0
 0
SEQEND
 8
TITLE
 0
POLYLINE
 8
TITLE
 66
1
 10
0.0
 20
0.0
 30
0.0
 0
VERTEX
 8
TITLE
 10
332.2320
 20
  5.0800
 30
0.0
 0
VERTEX
 8
TITLE
 10
332.2320
 20
  2.5400
 30
0.0
 0
SEQEND
 8
TITLE
 0
POLYLINE
 8
TITLE
 66
1
 10
0.0
 20
0.0
 30
0.0
 0
VERTEX
 8
TITLE
 10
332.2320
 20
296.9260
 30
0.0
 0
VERTEX
 8
TITLE
 10
332.2320
 20
299.4660
 30
0.0
 0
SEQEND
 8
TITLE
 0
TEXT
 8
TITLE
 10
 45.9740
 20
  3.0480
 30
0.0
 40
  1.2700
 1
5
 0
TEXT
 8
TITLE
 10
 45.9740
 20
297.4340
 30
0.0
 40
  1.2700
 1
5
 0
TEXT
 8
TITLE
 10
127.7620
 20
  3.0480
 30
0.0
 40
  1.2700
 1
4
 0
TEXT
 8
TITLE
 10
127.7620
 20
297.4340
 30
0.0
 40
  1.2700
 1
4
 0
TEXT
 8
TITLE
 10
209.5500
 20
  3.0480
 30
0.0
 40
  1.2700
 1
3
 0
TEXT
 8
TITLE
 10
209.5500
 20
297.4340
 30
0.0
 40
  1.2700
 1
3
 0
TEXT
 8
TITLE
 10
291.3380
 20
  3.0480
 30
0.0
 40
  1.2700
 1
2
 0
TEXT
 8
TITLE
 10
291.3380
 20
297.4340
 30
0.0
 40
  1.2700
 1
2
 0
TEXT
 8
TITLE
 10
373.1260
 20
  3.0480
 30
0.0
 40
  1.2700
 1
1
 0
TEXT
 8
TITLE
 10
373.1260
 20
297.4340
 30
0.0
 40
  1.2700
 1
1
 0
POLYLINE
 8
TITLE
 66
1
 10
0.0
 20
0.0
 30
0.0
 0
VERTEX
 8
TITLE
 10
 -2.5400
 20
220.2180
 30
0.0
 0
VERTEX
 8
TITLE
 10
  0.0000
 20
220.2180
 30
0.0
 0
SEQEND
 8
TITLE
 0
POLYLINE
 8
TITLE
 66
1
 10
0.0
 20
0.0
 30
0.0
 0
VERTEX
 8
TITLE
 10
414.7820
 20
220.2180
 30
0.0
 0
VERTEX
 8
TITLE
 10
417.3220
 20
220.2180
 30
0.0
 0
SEQEND
 8
TITLE
 0
SOLID
 8
TITLE
 10
  0.0000
 20
148.5900
 30
0.0
 11
 -1.2700
 21
149.0980
 31
0.0
 12
 -1.2700
 22
148.0820
 32
0.0
 13
 -1.2700
 23
148.5900
 33
0.0
 0
SOLID
 8
TITLE
 10
414.7820
 20
148.5900
 30
0.0
 11
416.0520
 21
149.0980
 31
0.0
 12
416.0520
 22
148.0820
 32
0.0
 13
416.0520
 23
148.5900
 33
0.0
 0
POLYLINE
 8
TITLE
 66
1
 10
0.0
 20
0.0
 30
0.0
 0
VERTEX
 8
TITLE
 10
 -2.5400
 20
148.5900
 30
0.0
 0
VERTEX
 8
TITLE
 10
  0.0000
 20
148.5900
 30
0.0
 0
SEQEND
 8
TITLE
 0
POLYLINE
 8
TITLE
 66
1
 10
0.0
 20
0.0
 30
0.0
 0
VERTEX
 8
TITLE
 10
414.7820
 20
148.5900
 30
0.0
 0
VERTEX
 8
TITLE
 10
417.3220
 20
148.5900
 30
0.0
 0
SEQEND
 8
TITLE
 0
SOLID
 8
TITLE
 10
  0.0000
 20
148.5900
 30
0.0
 11
 -1.2700
 21
149.0980
 31
0.0
 12
 -1.2700
 22
148.0820
 32
0.0
 13
 -1.2700
 23
148.5900
 33
0.0
 0
SOLID
 8
TITLE
 10
414.7820
 20
148.5900
 30
0.0
 11
416.0520
 21
149.0980
 31
0.0
 12
416.0520
 22
148.0820
 32
0.0
 13
416.0520
 23
148.5900
 33
0.0
 0
POLYLINE
 8
TITLE
 66
1
 10
0.0
 20
0.0
 30
0.0
 0
VERTEX
 8
TITLE
 10
 -2.5400
 20
 76.9620
 30
0.0
 0
VERTEX
 8
TITLE
 10
  0.0000
 20
 76.9620
 30
0.0
 0
SEQEND
 8
TITLE
 0
POLYLINE
 8
TITLE
 66
1
 10
0.0
 20
0.0
 30
0.0
 0
VERTEX
 8
TITLE
 10
414.7820
 20
 76.9620
 30
0.0
 0
VERTEX
 8
TITLE
 10
417.3220
 20
 76.9620
 30
0.0
 0
SEQEND
 8
TITLE
 0
SOLID
 8
TITLE
 10
  0.0000
 20
148.5900
 30
0.0
 11
 -1.2700
 21
149.0980
 31
0.0
 12
 -1.2700
 22
148.0820
 32
0.0
 13
 -1.2700
 23
148.5900
 33
0.0
 0
SOLID
 8
TITLE
 10
414.7820
 20
148.5900
 30
0.0
 11
416.0520
 21
149.0980
 31
0.0
 12
416.0520
 22
148.0820
 32
0.0
 13
416.0520
 23
148.5900
 33
0.0
 0
TEXT
 8
TITLE
 10
 -2.0320
 20
256.0320
 30
0.0
 40
  1.2700
 1
D
 0
TEXT
 8
TITLE
 10
415.2900
 20
256.0320
 30
0.0
 40
  1.2700
 1
D
 0
TEXT
 8
TITLE
 10
 -2.0320
 20
184.4040
 30
0.0
 40
  1.2700
 1
C
 0
TEXT
 8
TITLE
 10
415.2900
 20
184.4040
 30
0.0
 40
  1.2700
 1
C
 0
TEXT
 8
TITLE
 10
 -2.0320
 20
112.7760
 30
0.0
 40
  1.2700
 1
B
 0
TEXT
 8
TITLE
 10
415.2900
 20
112.7760
 30
0.0
 40
  1.2700
 1
B
 0
TEXT
 8
TITLE
 10
 -2.0320
 20
 41.1480
 30
0.0
 40
  1.2700
 1
A
 0
TEXT
 8
TITLE
 10
415.2900
 20
 41.1480
 30
0.0
 40
  1.2700
 1
A
 0
TEXT
 8
TITLE
 10
333.5020
 20
 11.3643
 30
0.0
 40
  1.3057
 1
<Doc>
 0
TEXT
 8
TITLE
 10
409.7020
 20
 11.3643
 30
0.0
 40
  1.3057
 1
<RevCode>
 0
TEXT
 8
TITLE
 10
333.5020
 20
 18.9843
 30
0.0
 40
  1.3057
 1
<Title>
 0
TEXT
 8
TITLE
 10
325.8820
 20
 11.3643
 30
0.0
 40
  1.3057
 1
A3
 0
TEXT
 8
TITLE
 10
386.8420
 20
  6.2843
 30
0.0
 40
  1.3057
 1
1
 0
TEXT
 8
TITLE
 10
402.0820
 20
  6.2843
 30
0.0
 40
  1.3057
 1
1
 0
TEXT
 8
TITLE
 10
336.5500
 20
  6.2843
 30
0.0
 40
  1.3057
 1
Wednesday, May 16, 2012
 0
TEXT
 8
PARTTEXT
 10
323.3420
 20
 21.5243
 30
0.0
 40
  1.3057
 1
Title
 0
TEXT
 8
PARTTEXT
 10
323.3420
 20
 13.9043
 30
0.0
 40
  1.3057
 1
Size
 0
TEXT
 8
PARTTEXT
 10
333.5020
 20
 13.9043
 30
0.0
 40
  1.3057
 1
Document Number
 0
TEXT
 8
PARTTEXT
 10
407.1620
 20
 13.9043
 30
0.0
 40
  1.3057
 1
Rev
 0
TEXT
 8
PARTTEXT
 10
323.3420
 20
  6.2843
 30
0.0
 40
  1.3057
 1
Date:
 0
TEXT
 8
PARTTEXT
 10
374.1420
 20
  6.2843
 30
0.0
 40
  1.3057
 1
Sheet
 0
POLYLINE
 8
TITLE
 66
1
 70
1
 10
0.0
 20
0.0
 30
0.0
 0
VERTEX
 8
TITLE
 10
323.3420
 20
 27.9400
 30
0.0
 0
VERTEX
 8
TITLE
 10
414.7820
 20
 27.9400
 30
0.0
 0
VERTEX
 8
TITLE
 10
414.7820
 20
 22.8600
 30
0.0
 0
VERTEX
 8
TITLE
 10
323.3420
 20
 22.8600
 30
0.0
 0
SEQEND
 8
TITLE
 0
POLYLINE
 8
TITLE
 66
1
 70
1
 10
0.0
 20
0.0
 30
0.0
 0
VERTEX
 8
TITLE
 10
323.3420
 20
 22.8600
 30
0.0
 0
VERTEX
 8
TITLE
 10
414.7820
 20
 22.8600
 30
0.0
 0
VERTEX
 8
TITLE
 10
414.7820
 20
 15.2400
 30
0.0
 0
VERTEX
 8
TITLE
 10
323.3420
 20
 15.2400
 30
0.0
 0
SEQEND
 8
TITLE
 0
POLYLINE
 8
TITLE
 66
1
 70
1
 10
0.0
 20
0.0
 30
0.0
 0
VERTEX
 8
TITLE
 10
323.3420
 20
 15.2400
 30
0.0
 0
VERTEX
 8
TITLE
 10
330.9620
 20
 15.2400
 30
0.0
 0
VERTEX
 8
TITLE
 10
330.9620
 20
  7.6200
 30
0.0
 0
VERTEX
 8
TITLE
 10
323.3420
 20
  7.6200
 30
0.0
 0
SEQEND
 8
TITLE
 0
POLYLINE
 8
TITLE
 66
1
 70
1
 10
0.0
 20
0.0
 30
0.0
 0
VERTEX
 8
TITLE
 10
330.9620
 20
 15.2400
 30
0.0
 0
VERTEX
 8
TITLE
 10
407.1620
 20
 15.2400
 30
0.0
 0
VERTEX
 8
TITLE
 10
407.1620
 20
  7.6200
 30
0.0
 0
VERTEX
 8
TITLE
 10
330.9620
 20
  7.6200
 30
0.0
 0
SEQEND
 8
TITLE
 0
POLYLINE
 8
TITLE
 66
1
 70
1
 10
0.0
 20
0.0
 30
0.0
 0
VERTEX
 8
TITLE
 10
407.1620
 20
 15.2400
 30
0.0
 0
VERTEX
 8
TITLE
 10
414.7820
 20
 15.2400
 30
0.0
 0
VERTEX
 8
TITLE
 10
414.7820
 20
  7.6200
 30
0.0
 0
VERTEX
 8
TITLE
 10
407.1620
 20
  7.6200
 30
0.0
 0
SEQEND
 8
TITLE
 0
POLYLINE
 8
TITLE
 66
1
 70
1
 10
0.0
 20
0.0
 30
0.0
 0
VERTEX
 8
TITLE
 10
323.3420
 20
  7.6200
 30
0.0
 0
VERTEX
 8
TITLE
 10
374.1420
 20
  7.6200
 30
0.0
 0
VERTEX
 8
TITLE
 10
374.1420
 20
  5.0800
 30
0.0
 0
VERTEX
 8
TITLE
 10
323.3420
 20
  5.0800
 30
0.0
 0
SEQEND
 8
TITLE
 0
POLYLINE
 8
TITLE
 66
1
 70
1
 10
0.0
 20
0.0
 30
0.0
 0
VERTEX
 8
TITLE
 10
374.1420
 20
  7.6200
 30
0.0
 0
VERTEX
 8
TITLE
 10
414.7820
 20
  7.6200
 30
0.0
 0
VERTEX
 8
TITLE
 10
414.7820
 20
  5.0800
 30
0.0
 0
VERTEX
 8
TITLE
 10
374.1420
 20
  5.0800
 30
0.0
 0
SEQEND
 8
TITLE
 0
TEXT
 8
PARTTEXT
 10
394.4620
 20
  6.2843
 30
0.0
 40
  1.3057
 1
of
 0
TEXT
 8
TITLE
 10
325.8820
 20
 18.9843
 30
0.0
 40
  1.3057
 1
<Doc>
 0
TEXT
 8
TITLE
 10
402.0820
 20
 18.9843
 30
0.0
 40
  1.3057
 1
<RevCode>
 0
TEXT
 8
TITLE
 10
325.8820
 20
 26.6043
 30
0.0
 40
  1.3057
 1
<Title>
 0
TEXT
 8
TITLE
 10
318.2620
 20
 18.9843
 30
0.0
 40
  1.3057
 1
A3
 0
TEXT
 8
TITLE
 10
379.2220
 20
 13.9043
 30
0.0
 40
  1.3057
 1
1
 0
TEXT
 8
TITLE
 10
394.4620
 20
 13.9043
 30
0.0
 40
  1.3057
 1
1
 0
TEXT
 8
TITLE
 10
328.9300
 20
 13.9043
 30
0.0
 40
  1.3057
 1
Wednesday, May 16, 2012
 0
TEXT
 8
PARTTEXT
 10
315.7220
 20
 29.1443
 30
0.0
 40
  1.3057
 1
Title
 0
TEXT
 8
PARTTEXT
 10
315.7220
 20
 21.5243
 30
0.0
 40
  1.3057
 1
Size
 0
TEXT
 8
PARTTEXT
 10
325.8820
 20
 21.5243
 30
0.0
 40
  1.3057
 1
Document Number
 0
TEXT
 8
PARTTEXT
 10
399.5420
 20
 21.5243
 30
0.0
 40
  1.3057
 1
Rev
 0
TEXT
 8
PARTTEXT
 10
315.7220
 20
 13.9043
 30
0.0
 40
  1.3057
 1
Date:
 0
TEXT
 8
PARTTEXT
 10
366.5220
 20
 13.9043
 30
0.0
 40
  1.3057
 1
Sheet
 0
POLYLINE
 8
TITLE
 66
1
 70
1
 10
0.0
 20
0.0
 30
0.0
 0
VERTEX
 8
TITLE
 10
315.7220
 20
 35.5600
 30
0.0
 0
VERTEX
 8
TITLE
 10
407.1620
 20
 35.5600
 30
0.0
 0
VERTEX
 8
TITLE
 10
407.1620
 20
 30.4800
 30
0.0
 0
VERTEX
 8
TITLE
 10
315.7220
 20
 30.4800
 30
0.0
 0
SEQEND
 8
TITLE
 0
POLYLINE
 8
TITLE
 66
1
 70
1
 10
0.0
 20
0.0
 30
0.0
 0
VERTEX
 8
TITLE
 10
315.7220
 20
 30.4800
 30
0.0
 0
VERTEX
 8
TITLE
 10
407.1620
 20
 30.4800
 30
0.0
 0
VERTEX
 8
TITLE
 10
407.1620
 20
 22.8600
 30
0.0
 0
VERTEX
 8
TITLE
 10
315.7220
 20
 22.8600
 30
0.0
 0
SEQEND
 8
TITLE
 0
POLYLINE
 8
TITLE
 66
1
 70
1
 10
0.0
 20
0.0
 30
0.0
 0
VERTEX
 8
TITLE
 10
315.7220
 20
 22.8600
 30
0.0
 0
VERTEX
 8
TITLE
 10
323.3420
 20
 22.8600
 30
0.0
 0
VERTEX
 8
TITLE
 10
323.3420
 20
 15.2400
 30
0.0
 0
VERTEX
 8
TITLE
 10
315.7220
 20
 15.2400
 30
0.0
 0
SEQEND
 8
TITLE
 0
POLYLINE
 8
TITLE
 66
1
 70
1
 10
0.0
 20
0.0
 30
0.0
 0
VERTEX
 8
TITLE
 10
323.3420
 20
 22.8600
 30
0.0
 0
VERTEX
 8
TITLE
 10
399.5420
 20
 22.8600
 30
0.0
 0
VERTEX
 8
TITLE
 10
399.5420
 20
 15.2400
 30
0.0
 0
VERTEX
 8
TITLE
 10
323.3420
 20
 15.2400
 30
0.0
 0
SEQEND
 8
TITLE
 0
POLYLINE
 8
TITLE
 66
1
 70
1
 10
0.0
 20
0.0
 30
0.0
 0
VERTEX
 8
TITLE
 10
399.5420
 20
 22.8600
 30
0.0
 0
VERTEX
 8
TITLE
 10
407.1620
 20
 22.8600
 30
0.0
 0
VERTEX
 8
TITLE
 10
407.1620
 20
 15.2400
 30
0.0
 0
VERTEX
 8
TITLE
 10
399.5420
 20
 15.2400
 30
0.0
 0
SEQEND
 8
TITLE
 0
POLYLINE
 8
TITLE
 66
1
 70
1
 10
0.0
 20
0.0
 30
0.0
 0
VERTEX
 8
TITLE
 10
315.7220
 20
 15.2400
 30
0.0
 0
VERTEX
 8
TITLE
 10
366.5220
 20
 15.2400
 30
0.0
 0
VERTEX
 8
TITLE
 10
366.5220
 20
 12.7000
 30
0.0
 0
VERTEX
 8
TITLE
 10
315.7220
 20
 12.7000
 30
0.0
 0
SEQEND
 8
TITLE
 0
POLYLINE
 8
TITLE
 66
1
 70
1
 10
0.0
 20
0.0
 30
0.0
 0
VERTEX
 8
TITLE
 10
366.5220
 20
 15.2400
 30
0.0
 0
VERTEX
 8
TITLE
 10
407.1620
 20
 15.2400
 30
0.0
 0
VERTEX
 8
TITLE
 10
407.1620
 20
 12.7000
 30
0.0
 0
VERTEX
 8
TITLE
 10
366.5220
 20
 12.7000
 30
0.0
 0
SEQEND
 8
TITLE
 0
TEXT
 8
PARTTEXT
 10
386.8420
 20
 13.9043
 30
0.0
 40
  1.3057
 1
of
 0
TEXT
 8
PARTTEXT
 10
264.1600
 20
233.3603
 30
0.0
 40
  1.3057
 1
R24
 0
TEXT
 8
PARTTEXT
 10
264.1600
 20
222.9463
 30
0.0
 40
  1.3057
 1
330 2W
 0
LINE
 8
PARTS
 10
261.6200
 20
228.3460
 30
0.0
 11
264.1600
 21
228.3460
 31
0.0
 0
LINE
 8
PARTS
 10
271.7800
 20
228.3460
 30
0.0
 11
269.2400
 21
228.3460
 31
0.0
 0
POLYLINE
 8
PARTS
 66
1
 10
0.0
 20
0.0
 30
0.0
 0
VERTEX
 8
PARTS
 10
268.9860
 20
228.3460
 30
0.0
 0
VERTEX
 8
PARTS
 10
268.4780
 20
227.3300
 30
0.0
 0
SEQEND
 8
PARTS
 0
POLYLINE
 8
PARTS
 66
1
 10
0.0
 20
0.0
 30
0.0
 0
VERTEX
 8
PARTS
 10
268.4780
 20
227.3300
 30
0.0
 0
VERTEX
 8
PARTS
 10
267.7160
 20
229.3620
 30
0.0
 0
SEQEND
 8
PARTS
 0
POLYLINE
 8
PARTS
 66
1
 10
0.0
 20
0.0
 30
0.0
 0
VERTEX
 8
PARTS
 10
267.7160
 20
229.3620
 30
0.0
 0
VERTEX
 8
PARTS
 10
266.9540
 20
227.3300
 30
0.0
 0
SEQEND
 8
PARTS
 0
POLYLINE
 8
PARTS
 66
1
 10
0.0
 20
0.0
 30
0.0
 0
VERTEX
 8
PARTS
 10
266.9540
 20
227.3300
 30
0.0
 0
VERTEX
 8
PARTS
 10
266.1920
 20
229.3620
 30
0.0
 0
SEQEND
 8
PARTS
 0
POLYLINE
 8
PARTS
 66
1
 10
0.0
 20
0.0
 30
0.0
 0
VERTEX
 8
PARTS
 10
266.1920
 20
229.3620
 30
0.0
 0
VERTEX
 8
PARTS
 10
265.4300
 20
227.3300
 30
0.0
 0
SEQEND
 8
PARTS
 0
POLYLINE
 8
PARTS
 66
1
 10
0.0
 20
0.0
 30
0.0
 0
VERTEX
 8
PARTS
 10
265.4300
 20
227.3300
 30
0.0
 0
VERTEX
 8
PARTS
 10
264.6680
 20
229.3620
 30
0.0
 0
SEQEND
 8
PARTS
 0
POLYLINE
 8
PARTS
 66
1
 10
0.0
 20
0.0
 30
0.0
 0
VERTEX
 8
PARTS
 10
264.6680
 20
229.3620
 30
0.0
 0
VERTEX
 8
PARTS
 10
264.1600
 20
228.3460
 30
0.0
 0
SEQEND
 8
PARTS
 0
POLYLINE
 8
PARTS
 66
1
 10
0.0
 20
0.0
 30
0.0
 0
VERTEX
 8
PARTS
 10
269.2400
 20
228.3460
 30
0.0
 0
VERTEX
 8
PARTS
 10
268.9860
 20
228.3460
 30
0.0
 0
SEQEND
 8
PARTS
 0
TEXT
 8
PARTTEXT
 10
373.3800
 20
242.2503
 30
0.0
 40
  1.3057
 1
DC1_DC1
 0
TEXT
 8
PARTTEXT
 10
373.3800
 20
227.0103
 30
0.0
 40
  1.3057
 1
CON2
 0
LINE
 8
PARTS
 10
365.7600
 20
235.9660
 30
0.0
 11
373.3800
 21
235.9660
 31
0.0
 0
TEXT
 8
PARTS
 10
370.8400
 20
236.7280
 30
0.0
 40
  1.2700
 1
1
 0
LINE
 8
PARTS
 10
365.7600
 20
233.4260
 30
0.0
 11
373.3800
 21
233.4260
 31
0.0
 0
TEXT
 8
PARTS
 10
370.8400
 20
234.1880
 30
0.0
 40
  1.2700
 1
2
 0
POLYLINE
 8
PARTS
 66
1
 70
1
 10
0.0
 20
0.0
 30
0.0
 0
VERTEX
 8
PARTS
 10
373.3800
 20
238.5060
 30
0.0
 0
VERTEX
 8
PARTS
 10
378.4600
 20
238.5060
 30
0.0
 0
VERTEX
 8
PARTS
 10
378.4600
 20
230.8860
 30
0.0
 0
VERTEX
 8
PARTS
 10
373.3800
 20
230.8860
 30
0.0
 0
SEQEND
 8
PARTS
 0
TEXT
 8
PARTTEXT
 10
303.0220
 20
168.5903
 30
0.0
 40
  1.3057
 1
D25
 0
TEXT
 8
PARTTEXT
 10
299.7200
 20
166.0503
 30
0.0
 40
  1.3057
 1
DIODE
 0
LINE
 8
PARTS
 10
312.4200
 20
162.3060
 30
0.0
 11
309.8800
 21
162.3060
 31
0.0
 0
LINE
 8
PARTS
 10
299.7200
 20
162.3060
 30
0.0
 11
302.2600
 21
162.3060
 31
0.0
 0
POLYLINE
 8
PARTS
 66
1
 10
0.0
 20
0.0
 30
0.0
 0
VERTEX
 8
PARTS
 10
304.8000
 20
164.0840
 30
0.0
 0
VERTEX
 8
PARTS
 10
304.8000
 20
160.5280
 30
0.0
 0
SEQEND
 8
PARTS
 0
POLYLINE
 8
PARTS
 66
1
 10
0.0
 20
0.0
 30
0.0
 0
VERTEX
 8
PARTS
 10
309.8800
 20
162.3060
 30
0.0
 0
VERTEX
 8
PARTS
 10
307.3400
 20
162.3060
 30
0.0
 0
SEQEND
 8
PARTS
 0
POLYLINE
 8
PARTS
 66
1
 10
0.0
 20
0.0
 30
0.0
 0
VERTEX
 8
PARTS
 10
304.8000
 20
162.3060
 30
0.0
 0
VERTEX
 8
PARTS
 10
302.2600
 20
162.3060
 30
0.0
 0
SEQEND
 8
PARTS
 0
POLYLINE
 8
PARTS
 66
1
 70
1
 10
0.0
 20
0.0
 30
0.0
 0
VERTEX
 8
PARTS
 10
304.8000
 20
162.3060
 30
0.0
 0
VERTEX
 8
PARTS
 10
304.8000
 20
162.3060
 30
0.0
 0
VERTEX
 8
PARTS
 10
307.3400
 20
160.5280
 30
0.0
 0
VERTEX
 8
PARTS
 10
307.3400
 20
164.0840
 30
0.0
 0
VERTEX
 8
PARTS
 10
304.8000
 20
162.3060
 30
0.0
 0
SEQEND
 8
PARTS
 0
TEXT
 8
PARTTEXT
 10
264.1600
 20
277.8103
 30
0.0
 40
  1.3057
 1
DC1_DC10
 0
TEXT
 8
PARTTEXT
 10
264.1600
 20
262.5703
 30
0.0
 40
  1.3057
 1
CON2
 0
LINE
 8
PARTS
 10
256.5400
 20
271.5260
 30
0.0
 11
264.1600
 21
271.5260
 31
0.0
 0
TEXT
 8
PARTS
 10
261.6200
 20
272.2880
 30
0.0
 40
  1.2700
 1
1
 0
LINE
 8
PARTS
 10
256.5400
 20
268.9860
 30
0.0
 11
264.1600
 21
268.9860
 31
0.0
 0
TEXT
 8
PARTS
 10
261.6200
 20
269.7480
 30
0.0
 40
  1.2700
 1
2
 0
POLYLINE
 8
PARTS
 66
1
 70
1
 10
0.0
 20
0.0
 30
0.0
 0
VERTEX
 8
PARTS
 10
264.1600
 20
274.0660
 30
0.0
 0
VERTEX
 8
PARTS
 10
269.2400
 20
274.0660
 30
0.0
 0
VERTEX
 8
PARTS
 10
269.2400
 20
266.4460
 30
0.0
 0
VERTEX
 8
PARTS
 10
264.1600
 20
266.4460
 30
0.0
 0
SEQEND
 8
PARTS
 0
TEXT
 8
PARTTEXT
 10
276.8600
 20
239.7103
 30
0.0
 40
  1.3057
 1
M1
 0
TEXT
 8
PARTTEXT
 10
276.8600
 20
237.1703
 30
0.0
 40
  1.3057
 1
IRF540
 0
LINE
 8
PARTS
 10
281.9400
 20
223.2660
 30
0.0
 11
281.9400
 21
225.8060
 31
0.0
 0
LINE
 8
PARTS
 10
274.3200
 20
228.3460
 30
0.0
 11
276.8600
 21
228.3460
 31
0.0
 0
LINE
 8
PARTS
 10
281.9400
 20
233.4260
 30
0.0
 11
281.9400
 21
230.8860
 31
0.0
 0
POLYLINE
 8
PARTS
 66
1
 10
0.0
 20
0.0
 30
0.0
 0
VERTEX
 8
PARTS
 10
281.9400
 20
228.3460
 30
0.0
 0
VERTEX
 8
PARTS
 10
281.9400
 20
225.8060
 30
0.0
 0
SEQEND
 8
PARTS
 0
POLYLINE
 8
PARTS
 66
1
 10
0.0
 20
0.0
 30
0.0
 0
VERTEX
 8
PARTS
 10
278.1300
 20
230.8860
 30
0.0
 0
VERTEX
 8
PARTS
 10
278.1300
 20
225.8060
 30
0.0
 0
SEQEND
 8
PARTS
 0
POLYLINE
 8
PARTS
 66
1
 10
0.0
 20
0.0
 30
0.0
 0
VERTEX
 8
PARTS
 10
279.4000
 20
225.8060
 30
0.0
 0
VERTEX
 8
PARTS
 10
281.9400
 20
225.8060
 30
0.0
 0
SEQEND
 8
PARTS
 0
POLYLINE
 8
PARTS
 66
1
 10
0.0
 20
0.0
 30
0.0
 0
VERTEX
 8
PARTS
 10
279.4000
 20
230.8860
 30
0.0
 0
VERTEX
 8
PARTS
 10
281.9400
 20
230.8860
 30
0.0
 0
SEQEND
 8
PARTS
 0
POLYLINE
 8
PARTS
 66
1
 10
0.0
 20
0.0
 30
0.0
 0
VERTEX
 8
PARTS
 10
279.4000
 20
228.3460
 30
0.0
 0
VERTEX
 8
PARTS
 10
281.9400
 20
228.3460
 30
0.0
 0
SEQEND
 8
PARTS
 0
POLYLINE
 8
PARTS
 66
1
 10
0.0
 20
0.0
 30
0.0
 0
VERTEX
 8
PARTS
 10
276.8600
 20
228.3460
 30
0.0
 0
VERTEX
 8
PARTS
 10
278.1300
 20
228.3460
 30
0.0
 0
SEQEND
 8
PARTS
 0
POLYLINE
 8
PARTS
 66
1
 10
0.0
 20
0.0
 30
0.0
 0
VERTEX
 8
PARTS
 10
279.4000
 20
231.6480
 30
0.0
 0
VERTEX
 8
PARTS
 10
279.4000
 20
230.1240
 30
0.0
 0
SEQEND
 8
PARTS
 0
POLYLINE
 8
PARTS
 66
1
 10
0.0
 20
0.0
 30
0.0
 0
VERTEX
 8
PARTS
 10
279.4000
 20
229.1080
 30
0.0
 0
VERTEX
 8
PARTS
 10
279.4000
 20
227.5840
 30
0.0
 0
SEQEND
 8
PARTS
 0
POLYLINE
 8
PARTS
 66
1
 10
0.0
 20
0.0
 30
0.0
 0
VERTEX
 8
PARTS
 10
279.4000
 20
226.5680
 30
0.0
 0
VERTEX
 8
PARTS
 10
279.4000
 20
225.0440
 30
0.0
 0
SEQEND
 8
PARTS
 0
POLYLINE
 8
PARTS
 66
1
 10
0.0
 20
0.0
 30
0.0
 0
VERTEX
 8
PARTS
 10
281.6860
 20
227.8380
 30
0.0
 0
VERTEX
 8
PARTS
 10
280.1620
 20
228.3460
 30
0.0
 0
VERTEX
 8
PARTS
 10
281.6860
 20
228.8540
 30
0.0
 0
SEQEND
 8
PARTS
 0
TEXT
 8
PARTTEXT
 10
 35.5600
 20
228.7883
 30
0.0
 40
  1.3057
 1
J1
 0
TEXT
 8
PARTTEXT
 10
 35.5600
 20
251.9023
 30
0.0
 40
  1.3057
 1
CON6
 0
LINE
 8
PARTS
 10
 48.2600
 20
246.1260
 30
0.0
 11
 40.6400
 21
246.1260
 31
0.0
 0
TEXT
 8
PARTS
 10
 42.1640
 20
246.8880
 30
0.0
 40
  1.2700
 1
1
 0
LINE
 8
PARTS
 10
 48.2600
 20
243.5860
 30
0.0
 11
 40.6400
 21
243.5860
 31
0.0
 0
TEXT
 8
PARTS
 10
 42.1640
 20
244.3480
 30
0.0
 40
  1.2700
 1
2
 0
LINE
 8
PARTS
 10
 48.2600
 20
241.0460
 30
0.0
 11
 40.6400
 21
241.0460
 31
0.0
 0
TEXT
 8
PARTS
 10
 42.1640
 20
241.8080
 30
0.0
 40
  1.2700
 1
3
 0
LINE
 8
PARTS
 10
 48.2600
 20
238.5060
 30
0.0
 11
 40.6400
 21
238.5060
 31
0.0
 0
TEXT
 8
PARTS
 10
 42.1640
 20
239.2680
 30
0.0
 40
  1.2700
 1
4
 0
LINE
 8
PARTS
 10
 48.2600
 20
235.9660
 30
0.0
 11
 40.6400
 21
235.9660
 31
0.0
 0
TEXT
 8
PARTS
 10
 42.1640
 20
236.7280
 30
0.0
 40
  1.2700
 1
5
 0
LINE
 8
PARTS
 10
 48.2600
 20
233.4260
 30
0.0
 11
 40.6400
 21
233.4260
 31
0.0
 0
TEXT
 8
PARTS
 10
 42.1640
 20
234.1880
 30
0.0
 40
  1.2700
 1
6
 0
POLYLINE
 8
PARTS
 66
1
 70
1
 10
0.0
 20
0.0
 30
0.0
 0
VERTEX
 8
PARTS
 10
 40.6400
 20
248.6660
 30
0.0
 0
VERTEX
 8
PARTS
 10
 35.5600
 20
248.6660
 30
0.0
 0
VERTEX
 8
PARTS
 10
 35.5600
 20
230.8860
 30
0.0
 0
VERTEX
 8
PARTS
 10
 40.6400
 20
230.8860
 30
0.0
 0
SEQEND
 8
PARTS
 0
TEXT
 8
PARTTEXT
 10
116.8400
 20
240.9803
 30
0.0
 40
  1.3057
 1
R56
 0
TEXT
 8
PARTTEXT
 10
116.8400
 20
230.5663
 30
0.0
 40
  1.3057
 1
330 2W
 0
LINE
 8
PARTS
 10
114.3000
 20
235.9660
 30
0.0
 11
116.8400
 21
235.9660
 31
0.0
 0
LINE
 8
PARTS
 10
124.4600
 20
235.9660
 30
0.0
 11
121.9200
 21
235.9660
 31
0.0
 0
POLYLINE
 8
PARTS
 66
1
 10
0.0
 20
0.0
 30
0.0
 0
VERTEX
 8
PARTS
 10
121.6660
 20
235.9660
 30
0.0
 0
VERTEX
 8
PARTS
 10
121.1580
 20
234.9500
 30
0.0
 0
SEQEND
 8
PARTS
 0
POLYLINE
 8
PARTS
 66
1
 10
0.0
 20
0.0
 30
0.0
 0
VERTEX
 8
PARTS
 10
121.1580
 20
234.9500
 30
0.0
 0
VERTEX
 8
PARTS
 10
120.3960
 20
236.9820
 30
0.0
 0
SEQEND
 8
PARTS
 0
POLYLINE
 8
PARTS
 66
1
 10
0.0
 20
0.0
 30
0.0
 0
VERTEX
 8
PARTS
 10
120.3960
 20
236.9820
 30
0.0
 0
VERTEX
 8
PARTS
 10
119.6340
 20
234.9500
 30
0.0
 0
SEQEND
 8
PARTS
 0
POLYLINE
 8
PARTS
 66
1
 10
0.0
 20
0.0
 30
0.0
 0
VERTEX
 8
PARTS
 10
119.6340
 20
234.9500
 30
0.0
 0
VERTEX
 8
PARTS
 10
118.8720
 20
236.9820
 30
0.0
 0
SEQEND
 8
PARTS
 0
POLYLINE
 8
PARTS
 66
1
 10
0.0
 20
0.0
 30
0.0
 0
VERTEX
 8
PARTS
 10
118.8720
 20
236.9820
 30
0.0
 0
VERTEX
 8
PARTS
 10
118.1100
 20
234.9500
 30
0.0
 0
SEQEND
 8
PARTS
 0
POLYLINE
 8
PARTS
 66
1
 10
0.0
 20
0.0
 30
0.0
 0
VERTEX
 8
PARTS
 10
118.1100
 20
234.9500
 30
0.0
 0
VERTEX
 8
PARTS
 10
117.3480
 20
236.9820
 30
0.0
 0
SEQEND
 8
PARTS
 0
POLYLINE
 8
PARTS
 66
1
 10
0.0
 20
0.0
 30
0.0
 0
VERTEX
 8
PARTS
 10
117.3480
 20
236.9820
 30
0.0
 0
VERTEX
 8
PARTS
 10
116.8400
 20
235.9660
 30
0.0
 0
SEQEND
 8
PARTS
 0
POLYLINE
 8
PARTS
 66
1
 10
0.0
 20
0.0
 30
0.0
 0
VERTEX
 8
PARTS
 10
121.9200
 20
235.9660
 30
0.0
 0
VERTEX
 8
PARTS
 10
121.6660
 20
235.9660
 30
0.0
 0
SEQEND
 8
PARTS
 0
TEXT
 8
PARTTEXT
 10
298.7040
 20
150.8103
 30
0.0
 40
  1.3057
 1
D29
 0
TEXT
 8
PARTTEXT
 10
298.7040
 20
147.7623
 30
0.0
 40
  1.3057
 1
LED
 0
LINE
 8
PARTS
 10
294.6400
 20
139.4460
 30
0.0
 11
294.6400
 21
141.9860
 31
0.0
 0
LINE
 8
PARTS
 10
294.6400
 20
154.6860
 30
0.0
 11
294.6400
 21
152.1460
 31
0.0
 0
POLYLINE
 8
PARTS
 66
1
 10
0.0
 20
0.0
 30
0.0
 0
VERTEX
 8
PARTS
 10
292.8620
 20
147.0660
 30
0.0
 0
VERTEX
 8
PARTS
 10
296.4180
 20
147.0660
 30
0.0
 0
SEQEND
 8
PARTS
 0
POLYLINE
 8
PARTS
 66
1
 10
0.0
 20
0.0
 30
0.0
 0
VERTEX
 8
PARTS
 10
294.6400
 20
141.9860
 30
0.0
 0
VERTEX
 8
PARTS
 10
294.6400
 20
144.5260
 30
0.0
 0
SEQEND
 8
PARTS
 0
POLYLINE
 8
PARTS
 66
1
 10
0.0
 20
0.0
 30
0.0
 0
VERTEX
 8
PARTS
 10
294.6400
 20
147.0660
 30
0.0
 0
VERTEX
 8
PARTS
 10
294.6400
 20
152.1460
 30
0.0
 0
SEQEND
 8
PARTS
 0
POLYLINE
 8
PARTS
 66
1
 70
1
 10
0.0
 20
0.0
 30
0.0
 0
VERTEX
 8
PARTS
 10
294.6400
 20
147.0660
 30
0.0
 0
VERTEX
 8
PARTS
 10
294.6400
 20
147.0660
 30
0.0
 0
VERTEX
 8
PARTS
 10
296.4180
 20
144.5260
 30
0.0
 0
VERTEX
 8
PARTS
 10
292.8620
 20
144.5260
 30
0.0
 0
VERTEX
 8
PARTS
 10
294.6400
 20
147.0660
 30
0.0
 0
SEQEND
 8
PARTS
 0
POLYLINE
 8
PARTS
 66
1
 70
1
 10
0.0
 20
0.0
 30
0.0
 0
VERTEX
 8
PARTS
 10
292.6080
 20
150.1140
 30
0.0
 0
VERTEX
 8
PARTS
 10
292.6080
 20
150.1140
 30
0.0
 0
VERTEX
 8
PARTS
 10
292.1000
 20
151.1300
 30
0.0
 0
VERTEX
 8
PARTS
 10
293.1160
 20
150.6220
 30
0.0
 0
VERTEX
 8
PARTS
 10
292.6080
 20
150.1140
 30
0.0
 0
SEQEND
 8
PARTS
 0
POLYLINE
 8
PARTS
 66
1
 70
1
 10
0.0
 20
0.0
 30
0.0
 0
VERTEX
 8
PARTS
 10
292.6080
 20
148.5900
 30
0.0
 0
VERTEX
 8
PARTS
 10
292.6080
 20
148.5900
 30
0.0
 0
VERTEX
 8
PARTS
 10
292.1000
 20
149.6060
 30
0.0
 0
VERTEX
 8
PARTS
 10
293.1160
 20
149.0980
 30
0.0
 0
VERTEX
 8
PARTS
 10
292.6080
 20
148.5900
 30
0.0
 0
SEQEND
 8
PARTS
 0
POLYLINE
 8
PARTS
 66
1
 10
0.0
 20
0.0
 30
0.0
 0
VERTEX
 8
PARTS
 10
292.3540
 20
149.3520
 30
0.0
 0
VERTEX
 8
PARTS
 10
293.8780
 20
147.8280
 30
0.0
 0
SEQEND
 8
PARTS
 0
POLYLINE
 8
PARTS
 66
1
 10
0.0
 20
0.0
 30
0.0
 0
VERTEX
 8
PARTS
 10
292.3540
 20
150.8760
 30
0.0
 0
VERTEX
 8
PARTS
 10
293.8780
 20
149.3520
 30
0.0
 0
SEQEND
 8
PARTS
 0
TEXT
 8
PARTTEXT
 10
261.6200
 20
154.6203
 30
0.0
 40
  1.3057
 1
R25
 0
TEXT
 8
PARTTEXT
 10
261.6200
 20
144.2063
 30
0.0
 40
  1.3057
 1
330 2W
 0
LINE
 8
PARTS
 10
259.0800
 20
149.6060
 30
0.0
 11
261.6200
 21
149.6060
 31
0.0
 0
LINE
 8
PARTS
 10
269.2400
 20
149.6060
 30
0.0
 11
266.7000
 21
149.6060
 31
0.0
 0
POLYLINE
 8
PARTS
 66
1
 10
0.0
 20
0.0
 30
0.0
 0
VERTEX
 8
PARTS
 10
266.4460
 20
149.6060
 30
0.0
 0
VERTEX
 8
PARTS
 10
265.9380
 20
148.5900
 30
0.0
 0
SEQEND
 8
PARTS
 0
POLYLINE
 8
PARTS
 66
1
 10
0.0
 20
0.0
 30
0.0
 0
VERTEX
 8
PARTS
 10
265.9380
 20
148.5900
 30
0.0
 0
VERTEX
 8
PARTS
 10
265.1760
 20
150.6220
 30
0.0
 0
SEQEND
 8
PARTS
 0
POLYLINE
 8
PARTS
 66
1
 10
0.0
 20
0.0
 30
0.0
 0
VERTEX
 8
PARTS
 10
265.1760
 20
150.6220
 30
0.0
 0
VERTEX
 8
PARTS
 10
264.4140
 20
148.5900
 30
0.0
 0
SEQEND
 8
PARTS
 0
POLYLINE
 8
PARTS
 66
1
 10
0.0
 20
0.0
 30
0.0
 0
VERTEX
 8
PARTS
 10
264.4140
 20
148.5900
 30
0.0
 0
VERTEX
 8
PARTS
 10
263.6520
 20
150.6220
 30
0.0
 0
SEQEND
 8
PARTS
 0
POLYLINE
 8
PARTS
 66
1
 10
0.0
 20
0.0
 30
0.0
 0
VERTEX
 8
PARTS
 10
263.6520
 20
150.6220
 30
0.0
 0
VERTEX
 8
PARTS
 10
262.8900
 20
148.5900
 30
0.0
 0
SEQEND
 8
PARTS
 0
POLYLINE
 8
PARTS
 66
1
 10
0.0
 20
0.0
 30
0.0
 0
VERTEX
 8
PARTS
 10
262.8900
 20
148.5900
 30
0.0
 0
VERTEX
 8
PARTS
 10
262.1280
 20
150.6220
 30
0.0
 0
SEQEND
 8
PARTS
 0
POLYLINE
 8
PARTS
 66
1
 10
0.0
 20
0.0
 30
0.0
 0
VERTEX
 8
PARTS
 10
262.1280
 20
150.6220
 30
0.0
 0
VERTEX
 8
PARTS
 10
261.6200
 20
149.6060
 30
0.0
 0
SEQEND
 8
PARTS
 0
POLYLINE
 8
PARTS
 66
1
 10
0.0
 20
0.0
 30
0.0
 0
VERTEX
 8
PARTS
 10
266.7000
 20
149.6060
 30
0.0
 0
VERTEX
 8
PARTS
 10
266.4460
 20
149.6060
 30
0.0
 0
SEQEND
 8
PARTS
 0
TEXT
 8
PARTTEXT
 10
298.7040
 20
232.0903
 30
0.0
 40
  1.3057
 1
D28
 0
TEXT
 8
PARTTEXT
 10
298.7040
 20
229.0423
 30
0.0
 40
  1.3057
 1
LED
 0
LINE
 8
PARTS
 10
294.6400
 20
220.7260
 30
0.0
 11
294.6400
 21
223.2660
 31
0.0
 0
LINE
 8
PARTS
 10
294.6400
 20
235.9660
 30
0.0
 11
294.6400
 21
233.4260
 31
0.0
 0
POLYLINE
 8
PARTS
 66
1
 10
0.0
 20
0.0
 30
0.0
 0
VERTEX
 8
PARTS
 10
292.8620
 20
228.3460
 30
0.0
 0
VERTEX
 8
PARTS
 10
296.4180
 20
228.3460
 30
0.0
 0
SEQEND
 8
PARTS
 0
POLYLINE
 8
PARTS
 66
1
 10
0.0
 20
0.0
 30
0.0
 0
VERTEX
 8
PARTS
 10
294.6400
 20
223.2660
 30
0.0
 0
VERTEX
 8
PARTS
 10
294.6400
 20
225.8060
 30
0.0
 0
SEQEND
 8
PARTS
 0
POLYLINE
 8
PARTS
 66
1
 10
0.0
 20
0.0
 30
0.0
 0
VERTEX
 8
PARTS
 10
294.6400
 20
228.3460
 30
0.0
 0
VERTEX
 8
PARTS
 10
294.6400
 20
233.4260
 30
0.0
 0
SEQEND
 8
PARTS
 0
POLYLINE
 8
PARTS
 66
1
 70
1
 10
0.0
 20
0.0
 30
0.0
 0
VERTEX
 8
PARTS
 10
294.6400
 20
228.3460
 30
0.0
 0
VERTEX
 8
PARTS
 10
294.6400
 20
228.3460
 30
0.0
 0
VERTEX
 8
PARTS
 10
296.4180
 20
225.8060
 30
0.0
 0
VERTEX
 8
PARTS
 10
292.8620
 20
225.8060
 30
0.0
 0
VERTEX
 8
PARTS
 10
294.6400
 20
228.3460
 30
0.0
 0
SEQEND
 8
PARTS
 0
POLYLINE
 8
PARTS
 66
1
 70
1
 10
0.0
 20
0.0
 30
0.0
 0
VERTEX
 8
PARTS
 10
292.6080
 20
231.3940
 30
0.0
 0
VERTEX
 8
PARTS
 10
292.6080
 20
231.3940
 30
0.0
 0
VERTEX
 8
PARTS
 10
292.1000
 20
232.4100
 30
0.0
 0
VERTEX
 8
PARTS
 10
293.1160
 20
231.9020
 30
0.0
 0
VERTEX
 8
PARTS
 10
292.6080
 20
231.3940
 30
0.0
 0
SEQEND
 8
PARTS
 0
POLYLINE
 8
PARTS
 66
1
 70
1
 10
0.0
 20
0.0
 30
0.0
 0
VERTEX
 8
PARTS
 10
292.6080
 20
229.8700
 30
0.0
 0
VERTEX
 8
PARTS
 10
292.6080
 20
229.8700
 30
0.0
 0
VERTEX
 8
PARTS
 10
292.1000
 20
230.8860
 30
0.0
 0
VERTEX
 8
PARTS
 10
293.1160
 20
230.3780
 30
0.0
 0
VERTEX
 8
PARTS
 10
292.6080
 20
229.8700
 30
0.0
 0
SEQEND
 8
PARTS
 0
POLYLINE
 8
PARTS
 66
1
 10
0.0
 20
0.0
 30
0.0
 0
VERTEX
 8
PARTS
 10
292.3540
 20
230.6320
 30
0.0
 0
VERTEX
 8
PARTS
 10
293.8780
 20
229.1080
 30
0.0
 0
SEQEND
 8
PARTS
 0
POLYLINE
 8
PARTS
 66
1
 10
0.0
 20
0.0
 30
0.0
 0
VERTEX
 8
PARTS
 10
292.3540
 20
232.1560
 30
0.0
 0
VERTEX
 8
PARTS
 10
293.8780
 20
230.6320
 30
0.0
 0
SEQEND
 8
PARTS
 0
TEXT
 8
PARTTEXT
 10
165.1000
 20
162.2403
 30
0.0
 40
  1.3057
 1
R85
 0
TEXT
 8
PARTTEXT
 10
165.1000
 20
151.8263
 30
0.0
 40
  1.3057
 1
330 2W
 0
LINE
 8
PARTS
 10
162.5600
 20
157.2260
 30
0.0
 11
165.1000
 21
157.2260
 31
0.0
 0
LINE
 8
PARTS
 10
172.7200
 20
157.2260
 30
0.0
 11
170.1800
 21
157.2260
 31
0.0
 0
POLYLINE
 8
PARTS
 66
1
 10
0.0
 20
0.0
 30
0.0
 0
VERTEX
 8
PARTS
 10
169.9260
 20
157.2260
 30
0.0
 0
VERTEX
 8
PARTS
 10
169.4180
 20
156.2100
 30
0.0
 0
SEQEND
 8
PARTS
 0
POLYLINE
 8
PARTS
 66
1
 10
0.0
 20
0.0
 30
0.0
 0
VERTEX
 8
PARTS
 10
169.4180
 20
156.2100
 30
0.0
 0
VERTEX
 8
PARTS
 10
168.6560
 20
158.2420
 30
0.0
 0
SEQEND
 8
PARTS
 0
POLYLINE
 8
PARTS
 66
1
 10
0.0
 20
0.0
 30
0.0
 0
VERTEX
 8
PARTS
 10
168.6560
 20
158.2420
 30
0.0
 0
VERTEX
 8
PARTS
 10
167.8940
 20
156.2100
 30
0.0
 0
SEQEND
 8
PARTS
 0
POLYLINE
 8
PARTS
 66
1
 10
0.0
 20
0.0
 30
0.0
 0
VERTEX
 8
PARTS
 10
167.8940
 20
156.2100
 30
0.0
 0
VERTEX
 8
PARTS
 10
167.1320
 20
158.2420
 30
0.0
 0
SEQEND
 8
PARTS
 0
POLYLINE
 8
PARTS
 66
1
 10
0.0
 20
0.0
 30
0.0
 0
VERTEX
 8
PARTS
 10
167.1320
 20
158.2420
 30
0.0
 0
VERTEX
 8
PARTS
 10
166.3700
 20
156.2100
 30
0.0
 0
SEQEND
 8
PARTS
 0
POLYLINE
 8
PARTS
 66
1
 10
0.0
 20
0.0
 30
0.0
 0
VERTEX
 8
PARTS
 10
166.3700
 20
156.2100
 30
0.0
 0
VERTEX
 8
PARTS
 10
165.6080
 20
158.2420
 30
0.0
 0
SEQEND
 8
PARTS
 0
POLYLINE
 8
PARTS
 66
1
 10
0.0
 20
0.0
 30
0.0
 0
VERTEX
 8
PARTS
 10
165.6080
 20
158.2420
 30
0.0
 0
VERTEX
 8
PARTS
 10
165.1000
 20
157.2260
 30
0.0
 0
SEQEND
 8
PARTS
 0
POLYLINE
 8
PARTS
 66
1
 10
0.0
 20
0.0
 30
0.0
 0
VERTEX
 8
PARTS
 10
170.1800
 20
157.2260
 30
0.0
 0
VERTEX
 8
PARTS
 10
169.9260
 20
157.2260
 30
0.0
 0
SEQEND
 8
PARTS
 0
TEXT
 8
PARTTEXT
 10
236.2200
 20
239.7103
 30
0.0
 40
  1.3057
 1
D21
 0
TEXT
 8
PARTTEXT
 10
236.2200
 20
237.1703
 30
0.0
 40
  1.3057
 1
DIODE
 0
LINE
 8
PARTS
 10
231.1400
 20
233.4260
 30
0.0
 11
233.6800
 21
233.4260
 31
0.0
 0
LINE
 8
PARTS
 10
243.8400
 20
233.4260
 30
0.0
 11
241.3000
 21
233.4260
 31
0.0
 0
POLYLINE
 8
PARTS
 66
1
 10
0.0
 20
0.0
 30
0.0
 0
VERTEX
 8
PARTS
 10
238.7600
 20
235.2040
 30
0.0
 0
VERTEX
 8
PARTS
 10
238.7600
 20
231.6480
 30
0.0
 0
SEQEND
 8
PARTS
 0
POLYLINE
 8
PARTS
 66
1
 10
0.0
 20
0.0
 30
0.0
 0
VERTEX
 8
PARTS
 10
233.6800
 20
233.4260
 30
0.0
 0
VERTEX
 8
PARTS
 10
236.2200
 20
233.4260
 30
0.0
 0
SEQEND
 8
PARTS
 0
POLYLINE
 8
PARTS
 66
1
 10
0.0
 20
0.0
 30
0.0
 0
VERTEX
 8
PARTS
 10
238.7600
 20
233.4260
 30
0.0
 0
VERTEX
 8
PARTS
 10
241.3000
 20
233.4260
 30
0.0
 0
SEQEND
 8
PARTS
 0
POLYLINE
 8
PARTS
 66
1
 70
1
 10
0.0
 20
0.0
 30
0.0
 0
VERTEX
 8
PARTS
 10
238.7600
 20
233.4260
 30
0.0
 0
VERTEX
 8
PARTS
 10
238.7600
 20
233.4260
 30
0.0
 0
VERTEX
 8
PARTS
 10
236.2200
 20
231.6480
 30
0.0
 0
VERTEX
 8
PARTS
 10
236.2200
 20
235.2040
 30
0.0
 0
VERTEX
 8
PARTS
 10
238.7600
 20
233.4260
 30
0.0
 0
SEQEND
 8
PARTS
 0
TEXT
 8
PARTTEXT
 10
248.9200
 20
224.4703
 30
0.0
 40
  1.3057
 1
Q8
 0
TEXT
 8
PARTTEXT
 10
248.9200
 20
221.9303
 30
0.0
 40
  1.3057
 1
a1015
 0
LINE
 8
PARTS
 10
243.8400
 20
223.2660
 30
0.0
 11
246.3800
 21
223.2660
 31
0.0
 0
LINE
 8
PARTS
 10
248.9200
 20
218.1860
 30
0.0
 11
248.9200
 21
220.7260
 31
0.0
 0
LINE
 8
PARTS
 10
248.9200
 20
228.3460
 30
0.0
 11
248.9200
 21
225.8060
 31
0.0
 0
POLYLINE
 8
PARTS
 66
1
 10
0.0
 20
0.0
 30
0.0
 0
VERTEX
 8
PARTS
 10
248.9200
 20
220.7260
 30
0.0
 0
VERTEX
 8
PARTS
 10
246.3800
 20
221.9960
 30
0.0
 0
SEQEND
 8
PARTS
 0
POLYLINE
 8
PARTS
 66
1
 10
0.0
 20
0.0
 30
0.0
 0
VERTEX
 8
PARTS
 10
246.3800
 20
224.5360
 30
0.0
 0
VERTEX
 8
PARTS
 10
248.9200
 20
225.8060
 30
0.0
 0
SEQEND
 8
PARTS
 0
POLYLINE
 8
PARTS
 66
1
 10
0.0
 20
0.0
 30
0.0
 0
VERTEX
 8
PARTS
 10
248.6660
 20
225.0440
 30
0.0
 0
VERTEX
 8
PARTS
 10
246.8880
 20
224.7900
 30
0.0
 0
VERTEX
 8
PARTS
 10
248.1580
 20
226.0600
 30
0.0
 0
SEQEND
 8
PARTS
 0
POLYLINE
 8
PARTS
 66
1
 10
0.0
 20
0.0
 30
0.0
 0
VERTEX
 8
PARTS
 10
246.3800
 20
220.7260
 30
0.0
 0
VERTEX
 8
PARTS
 10
246.3800
 20
225.8060
 30
0.0
 0
SEQEND
 8
PARTS
 0
TEXT
 8
PARTTEXT
 10
111.5060
 20
199.0703
 30
0.0
 40
  1.3057
 1
pc819
 0
LINE
 8
PARTS
 10
 99.0600
 20
202.9460
 30
0.0
 11
 99.0600
 21
200.4060
 31
0.0
 0
TEXT
 8
PARTS
 10
 98.2980
 20
201.9300
 30
0.0
 40
  1.2700
 50
 90.0000
 1
1
 0
LINE
 8
PARTS
 10
 99.0600
 20
192.7860
 30
0.0
 11
 99.0600
 21
195.3260
 31
0.0
 0
TEXT
 8
PARTS
 10
 98.2980
 20
192.2780
 30
0.0
 40
  1.2700
 50
 90.0000
 1
2
 0
TEXT
 8
PARTS
 10
110.7440
 20
201.1680
 30
0.0
 40
  1.2700
 1
4
 0
LINE
 8
PARTS
 10
109.2200
 20
202.9460
 30
0.0
 11
109.2200
 21
200.4060
 31
0.0
 0
TEXT
 8
PARTS
 10
108.4580
 20
201.9300
 30
0.0
 40
  1.2700
 50
 90.0000
 1
4
 0
TEXT
 8
PARTS
 10
110.7440
 20
196.0880
 30
0.0
 40
  1.2700
 1
3
 0
LINE
 8
PARTS
 10
109.2200
 20
192.7860
 30
0.0
 11
109.2200
 21
195.3260
 31
0.0
 0
TEXT
 8
PARTS
 10
108.4580
 20
192.2780
 30
0.0
 40
  1.2700
 50
 90.0000
 1
3
 0
POLYLINE
 8
PARTS
 66
1
 70
1
 10
0.0
 20
0.0
 30
0.0
 0
VERTEX
 8
PARTS
 10
 99.0600
 20
196.5960
 30
0.0
 0
VERTEX
 8
PARTS
 10
 96.5200
 20
199.1360
 30
0.0
 0
VERTEX
 8
PARTS
 10
101.6000
 20
199.1360
 30
0.0
 0
VERTEX
 8
PARTS
 10
 99.0600
 20
196.5960
 30
0.0
 0
SEQEND
 8
PARTS
 0
POLYLINE
 8
PARTS
 66
1
 10
0.0
 20
0.0
 30
0.0
 0
VERTEX
 8
PARTS
 10
106.6800
 20
200.4060
 30
0.0
 0
VERTEX
 8
PARTS
 10
106.6800
 20
195.3260
 30
0.0
 0
SEQEND
 8
PARTS
 0
POLYLINE
 8
PARTS
 66
1
 10
0.0
 20
0.0
 30
0.0
 0
VERTEX
 8
PARTS
 10
109.2200
 20
195.3260
 30
0.0
 0
VERTEX
 8
PARTS
 10
106.6800
 20
197.1040
 30
0.0
 0
SEQEND
 8
PARTS
 0
POLYLINE
 8
PARTS
 66
1
 10
0.0
 20
0.0
 30
0.0
 0
VERTEX
 8
PARTS
 10
106.6800
 20
198.6280
 30
0.0
 0
VERTEX
 8
PARTS
 10
109.2200
 20
200.4060
 30
0.0
 0
SEQEND
 8
PARTS
 0
POLYLINE
 8
PARTS
 66
1
 10
0.0
 20
0.0
 30
0.0
 0
VERTEX
 8
PARTS
 10
 99.0600
 20
195.3260
 30
0.0
 0
VERTEX
 8
PARTS
 10
 99.0600
 20
196.5960
 30
0.0
 0
SEQEND
 8
PARTS
 0
POLYLINE
 8
PARTS
 66
1
 10
0.0
 20
0.0
 30
0.0
 0
VERTEX
 8
PARTS
 10
101.6000
 20
196.5960
 30
0.0
 0
VERTEX
 8
PARTS
 10
 96.5200
 20
196.5960
 30
0.0
 0
SEQEND
 8
PARTS
 0
POLYLINE
 8
PARTS
 66
1
 10
0.0
 20
0.0
 30
0.0
 0
VERTEX
 8
PARTS
 10
 99.0600
 20
200.4060
 30
0.0
 0
VERTEX
 8
PARTS
 10
 99.0600
 20
199.1360
 30
0.0
 0
SEQEND
 8
PARTS
 0
POLYLINE
 8
PARTS
 66
1
 70
1
 10
0.0
 20
0.0
 30
0.0
 0
VERTEX
 8
PARTS
 10
109.2200
 20
195.3260
 30
0.0
 0
VERTEX
 8
PARTS
 10
108.2040
 20
196.5960
 30
0.0
 0
VERTEX
 8
PARTS
 10
107.6960
 20
195.8340
 30
0.0
 0
VERTEX
 8
PARTS
 10
109.2200
 20
195.3260
 30
0.0
 0
SEQEND
 8
PARTS
 0
POLYLINE
 8
PARTS
 66
1
 10
0.0
 20
0.0
 30
0.0
 0
VERTEX
 8
PARTS
 10
104.1400
 20
196.5960
 30
0.0
 0
VERTEX
 8
PARTS
 10
103.1240
 20
197.6120
 30
0.0
 0
SEQEND
 8
PARTS
 0
POLYLINE
 8
PARTS
 66
1
 10
0.0
 20
0.0
 30
0.0
 0
VERTEX
 8
PARTS
 10
104.1400
 20
197.3580
 30
0.0
 0
VERTEX
 8
PARTS
 10
104.1400
 20
196.5960
 30
0.0
 0
SEQEND
 8
PARTS
 0
POLYLINE
 8
PARTS
 66
1
 10
0.0
 20
0.0
 30
0.0
 0
VERTEX
 8
PARTS
 10
105.1560
 20
196.3420
 30
0.0
 0
VERTEX
 8
PARTS
 10
104.1400
 20
197.3580
 30
0.0
 0
SEQEND
 8
PARTS
 0
POLYLINE
 8
PARTS
 66
1
 10
0.0
 20
0.0
 30
0.0
 0
VERTEX
 8
PARTS
 10
104.1400
 20
198.3740
 30
0.0
 0
VERTEX
 8
PARTS
 10
103.1240
 20
199.3900
 30
0.0
 0
SEQEND
 8
PARTS
 0
POLYLINE
 8
PARTS
 66
1
 10
0.0
 20
0.0
 30
0.0
 0
VERTEX
 8
PARTS
 10
104.1400
 20
199.1360
 30
0.0
 0
VERTEX
 8
PARTS
 10
104.1400
 20
198.3740
 30
0.0
 0
SEQEND
 8
PARTS
 0
POLYLINE
 8
PARTS
 66
1
 10
0.0
 20
0.0
 30
0.0
 0
VERTEX
 8
PARTS
 10
105.1560
 20
198.1200
 30
0.0
 0
VERTEX
 8
PARTS
 10
104.1400
 20
199.1360
 30
0.0
 0
SEQEND
 8
PARTS
 0
POLYLINE
 8
PARTS
 66
1
 70
1
 10
0.0
 20
0.0
 30
0.0
 0
VERTEX
 8
PARTS
 10
105.6640
 20
195.8340
 30
0.0
 0
VERTEX
 8
PARTS
 10
104.9020
 20
197.1040
 30
0.0
 0
VERTEX
 8
PARTS
 10
104.3940
 20
196.5960
 30
0.0
 0
VERTEX
 8
PARTS
 10
105.6640
 20
195.8340
 30
0.0
 0
SEQEND
 8
PARTS
 0
POLYLINE
 8
PARTS
 66
1
 70
1
 10
0.0
 20
0.0
 30
0.0
 0
VERTEX
 8
PARTS
 10
105.6640
 20
197.6120
 30
0.0
 0
VERTEX
 8
PARTS
 10
104.9020
 20
198.8820
 30
0.0
 0
VERTEX
 8
PARTS
 10
104.3940
 20
198.3740
 30
0.0
 0
VERTEX
 8
PARTS
 10
105.6640
 20
197.6120
 30
0.0
 0
SEQEND
 8
PARTS
 0
TEXT
 8
PARTTEXT
 10
298.7040
 20
130.4903
 30
0.0
 40
  1.3057
 1
R88
 0
TEXT
 8
PARTTEXT
 10
298.7040
 20
127.4423
 30
0.0
 40
  1.3057
 1
2.2k
 0
LINE
 8
PARTS
 10
294.6400
 20
134.3660
 30
0.0
 11
294.6400
 21
131.8260
 31
0.0
 0
LINE
 8
PARTS
 10
294.6400
 20
121.6660
 30
0.0
 11
294.6400
 21
124.2060
 31
0.0
 0
POLYLINE
 8
PARTS
 66
1
 10
0.0
 20
0.0
 30
0.0
 0
VERTEX
 8
PARTS
 10
294.6400
 20
131.8260
 30
0.0
 0
VERTEX
 8
PARTS
 10
295.4020
 20
131.0640
 30
0.0
 0
SEQEND
 8
PARTS
 0
POLYLINE
 8
PARTS
 66
1
 10
0.0
 20
0.0
 30
0.0
 0
VERTEX
 8
PARTS
 10
295.4020
 20
131.0640
 30
0.0
 0
VERTEX
 8
PARTS
 10
293.8780
 20
129.5400
 30
0.0
 0
SEQEND
 8
PARTS
 0
POLYLINE
 8
PARTS
 66
1
 10
0.0
 20
0.0
 30
0.0
 0
VERTEX
 8
PARTS
 10
293.8780
 20
129.5400
 30
0.0
 0
VERTEX
 8
PARTS
 10
295.4020
 20
128.0160
 30
0.0
 0
SEQEND
 8
PARTS
 0
POLYLINE
 8
PARTS
 66
1
 10
0.0
 20
0.0
 30
0.0
 0
VERTEX
 8
PARTS
 10
295.4020
 20
128.0160
 30
0.0
 0
VERTEX
 8
PARTS
 10
293.8780
 20
126.4920
 30
0.0
 0
SEQEND
 8
PARTS
 0
POLYLINE
 8
PARTS
 66
1
 10
0.0
 20
0.0
 30
0.0
 0
VERTEX
 8
PARTS
 10
293.8780
 20
126.4920
 30
0.0
 0
VERTEX
 8
PARTS
 10
295.4020
 20
124.9680
 30
0.0
 0
SEQEND
 8
PARTS
 0
POLYLINE
 8
PARTS
 66
1
 10
0.0
 20
0.0
 30
0.0
 0
VERTEX
 8
PARTS
 10
295.4020
 20
124.9680
 30
0.0
 0
VERTEX
 8
PARTS
 10
294.6400
 20
124.2060
 30
0.0
 0
SEQEND
 8
PARTS
 0
TEXT
 8
PARTTEXT
 10
311.4040
 20
150.8103
 30
0.0
 40
  1.3057
 1
D27
 0
TEXT
 8
PARTTEXT
 10
311.4040
 20
147.7623
 30
0.0
 40
  1.3057
 1
5a
 0
LINE
 8
PARTS
 10
307.3400
 20
154.6860
 30
0.0
 11
307.3400
 21
152.1460
 31
0.0
 0
LINE
 8
PARTS
 10
307.3400
 20
141.9860
 30
0.0
 11
307.3400
 21
144.5260
 31
0.0
 0
POLYLINE
 8
PARTS
 66
1
 10
0.0
 20
0.0
 30
0.0
 0
VERTEX
 8
PARTS
 10
305.5620
 20
147.0660
 30
0.0
 0
VERTEX
 8
PARTS
 10
309.1180
 20
147.0660
 30
0.0
 0
SEQEND
 8
PARTS
 0
POLYLINE
 8
PARTS
 66
1
 10
0.0
 20
0.0
 30
0.0
 0
VERTEX
 8
PARTS
 10
307.3400
 20
152.1460
 30
0.0
 0
VERTEX
 8
PARTS
 10
307.3400
 20
149.6060
 30
0.0
 0
SEQEND
 8
PARTS
 0
POLYLINE
 8
PARTS
 66
1
 10
0.0
 20
0.0
 30
0.0
 0
VERTEX
 8
PARTS
 10
307.3400
 20
147.0660
 30
0.0
 0
VERTEX
 8
PARTS
 10
307.3400
 20
144.5260
 30
0.0
 0
SEQEND
 8
PARTS
 0
POLYLINE
 8
PARTS
 66
1
 70
1
 10
0.0
 20
0.0
 30
0.0
 0
VERTEX
 8
PARTS
 10
307.3400
 20
147.0660
 30
0.0
 0
VERTEX
 8
PARTS
 10
307.3400
 20
147.0660
 30
0.0
 0
VERTEX
 8
PARTS
 10
309.1180
 20
149.6060
 30
0.0
 0
VERTEX
 8
PARTS
 10
305.5620
 20
149.6060
 30
0.0
 0
VERTEX
 8
PARTS
 10
307.3400
 20
147.0660
 30
0.0
 0
SEQEND
 8
PARTS
 0
TEXT
 8
PARTTEXT
 10
198.1200
 20
228.2803
 30
0.0
 40
  1.3057
 1
R47
 0
TEXT
 8
PARTTEXT
 10
198.1200
 20
217.8663
 30
0.0
 40
  1.3057
 1
10k
 0
LINE
 8
PARTS
 10
195.5800
 20
223.2660
 30
0.0
 11
198.1200
 21
223.2660
 31
0.0
 0
LINE
 8
PARTS
 10
205.7400
 20
223.2660
 30
0.0
 11
203.2000
 21
223.2660
 31
0.0
 0
POLYLINE
 8
PARTS
 66
1
 10
0.0
 20
0.0
 30
0.0
 0
VERTEX
 8
PARTS
 10
202.9460
 20
223.2660
 30
0.0
 0
VERTEX
 8
PARTS
 10
202.4380
 20
222.2500
 30
0.0
 0
SEQEND
 8
PARTS
 0
POLYLINE
 8
PARTS
 66
1
 10
0.0
 20
0.0
 30
0.0
 0
VERTEX
 8
PARTS
 10
202.4380
 20
222.2500
 30
0.0
 0
VERTEX
 8
PARTS
 10
201.6760
 20
224.2820
 30
0.0
 0
SEQEND
 8
PARTS
 0
POLYLINE
 8
PARTS
 66
1
 10
0.0
 20
0.0
 30
0.0
 0
VERTEX
 8
PARTS
 10
201.6760
 20
224.2820
 30
0.0
 0
VERTEX
 8
PARTS
 10
200.9140
 20
222.2500
 30
0.0
 0
SEQEND
 8
PARTS
 0
POLYLINE
 8
PARTS
 66
1
 10
0.0
 20
0.0
 30
0.0
 0
VERTEX
 8
PARTS
 10
200.9140
 20
222.2500
 30
0.0
 0
VERTEX
 8
PARTS
 10
200.1520
 20
224.2820
 30
0.0
 0
SEQEND
 8
PARTS
 0
POLYLINE
 8
PARTS
 66
1
 10
0.0
 20
0.0
 30
0.0
 0
VERTEX
 8
PARTS
 10
200.1520
 20
224.2820
 30
0.0
 0
VERTEX
 8
PARTS
 10
199.3900
 20
222.2500
 30
0.0
 0
SEQEND
 8
PARTS
 0
POLYLINE
 8
PARTS
 66
1
 10
0.0
 20
0.0
 30
0.0
 0
VERTEX
 8
PARTS
 10
199.3900
 20
222.2500
 30
0.0
 0
VERTEX
 8
PARTS
 10
198.6280
 20
224.2820
 30
0.0
 0
SEQEND
 8
PARTS
 0
POLYLINE
 8
PARTS
 66
1
 10
0.0
 20
0.0
 30
0.0
 0
VERTEX
 8
PARTS
 10
198.6280
 20
224.2820
 30
0.0
 0
VERTEX
 8
PARTS
 10
198.1200
 20
223.2660
 30
0.0
 0
SEQEND
 8
PARTS
 0
POLYLINE
 8
PARTS
 66
1
 10
0.0
 20
0.0
 30
0.0
 0
VERTEX
 8
PARTS
 10
203.2000
 20
223.2660
 30
0.0
 0
VERTEX
 8
PARTS
 10
202.9460
 20
223.2660
 30
0.0
 0
SEQEND
 8
PARTS
 0
TEXT
 8
PARTTEXT
 10
 68.5800
 20
251.1403
 30
0.0
 40
  1.3057
 1
R71
 0
TEXT
 8
PARTTEXT
 10
 68.5800
 20
240.7263
 30
0.0
 40
  1.3057
 1
330 2W
 0
LINE
 8
PARTS
 10
 66.0400
 20
246.1260
 30
0.0
 11
 68.5800
 21
246.1260
 31
0.0
 0
LINE
 8
PARTS
 10
 76.2000
 20
246.1260
 30
0.0
 11
 73.6600
 21
246.1260
 31
0.0
 0
POLYLINE
 8
PARTS
 66
1
 10
0.0
 20
0.0
 30
0.0
 0
VERTEX
 8
PARTS
 10
 73.4060
 20
246.1260
 30
0.0
 0
VERTEX
 8
PARTS
 10
 72.8980
 20
245.1100
 30
0.0
 0
SEQEND
 8
PARTS
 0
POLYLINE
 8
PARTS
 66
1
 10
0.0
 20
0.0
 30
0.0
 0
VERTEX
 8
PARTS
 10
 72.8980
 20
245.1100
 30
0.0
 0
VERTEX
 8
PARTS
 10
 72.1360
 20
247.1420
 30
0.0
 0
SEQEND
 8
PARTS
 0
POLYLINE
 8
PARTS
 66
1
 10
0.0
 20
0.0
 30
0.0
 0
VERTEX
 8
PARTS
 10
 72.1360
 20
247.1420
 30
0.0
 0
VERTEX
 8
PARTS
 10
 71.3740
 20
245.1100
 30
0.0
 0
SEQEND
 8
PARTS
 0
POLYLINE
 8
PARTS
 66
1
 10
0.0
 20
0.0
 30
0.0
 0
VERTEX
 8
PARTS
 10
 71.3740
 20
245.1100
 30
0.0
 0
VERTEX
 8
PARTS
 10
 70.6120
 20
247.1420
 30
0.0
 0
SEQEND
 8
PARTS
 0
POLYLINE
 8
PARTS
 66
1
 10
0.0
 20
0.0
 30
0.0
 0
VERTEX
 8
PARTS
 10
 70.6120
 20
247.1420
 30
0.0
 0
VERTEX
 8
PARTS
 10
 69.8500
 20
245.1100
 30
0.0
 0
SEQEND
 8
PARTS
 0
POLYLINE
 8
PARTS
 66
1
 10
0.0
 20
0.0
 30
0.0
 0
VERTEX
 8
PARTS
 10
 69.8500
 20
245.1100
 30
0.0
 0
VERTEX
 8
PARTS
 10
 69.0880
 20
247.1420
 30
0.0
 0
SEQEND
 8
PARTS
 0
POLYLINE
 8
PARTS
 66
1
 10
0.0
 20
0.0
 30
0.0
 0
VERTEX
 8
PARTS
 10
 69.0880
 20
247.1420
 30
0.0
 0
VERTEX
 8
PARTS
 10
 68.5800
 20
246.1260
 30
0.0
 0
SEQEND
 8
PARTS
 0
POLYLINE
 8
PARTS
 66
1
 10
0.0
 20
0.0
 30
0.0
 0
VERTEX
 8
PARTS
 10
 73.6600
 20
246.1260
 30
0.0
 0
VERTEX
 8
PARTS
 10
 73.4060
 20
246.1260
 30
0.0
 0
SEQEND
 8
PARTS
 0
TEXT
 8
PARTTEXT
 10
302.2600
 20
263.8403
 30
0.0
 40
  1.3057
 1
D30
 0
TEXT
 8
PARTTEXT
 10
302.2600
 20
253.4263
 30
0.0
 40
  1.3057
 1
LED
 0
LINE
 8
PARTS
 10
299.7200
 20
258.8260
 30
0.0
 11
302.2600
 21
258.8260
 31
0.0
 0
LINE
 8
PARTS
 10
314.9600
 20
258.8260
 30
0.0
 11
312.4200
 21
258.8260
 31
0.0
 0
POLYLINE
 8
PARTS
 66
1
 10
0.0
 20
0.0
 30
0.0
 0
VERTEX
 8
PARTS
 10
307.3400
 20
260.6040
 30
0.0
 0
VERTEX
 8
PARTS
 10
307.3400
 20
257.0480
 30
0.0
 0
SEQEND
 8
PARTS
 0
POLYLINE
 8
PARTS
 66
1
 10
0.0
 20
0.0
 30
0.0
 0
VERTEX
 8
PARTS
 10
302.2600
 20
258.8260
 30
0.0
 0
VERTEX
 8
PARTS
 10
304.8000
 20
258.8260
 30
0.0
 0
SEQEND
 8
PARTS
 0
POLYLINE
 8
PARTS
 66
1
 10
0.0
 20
0.0
 30
0.0
 0
VERTEX
 8
PARTS
 10
307.3400
 20
258.8260
 30
0.0
 0
VERTEX
 8
PARTS
 10
312.4200
 20
258.8260
 30
0.0
 0
SEQEND
 8
PARTS
 0
POLYLINE
 8
PARTS
 66
1
 70
1
 10
0.0
 20
0.0
 30
0.0
 0
VERTEX
 8
PARTS
 10
307.3400
 20
258.8260
 30
0.0
 0
VERTEX
 8
PARTS
 10
307.3400
 20
258.8260
 30
0.0
 0
VERTEX
 8
PARTS
 10
304.8000
 20
257.0480
 30
0.0
 0
VERTEX
 8
PARTS
 10
304.8000
 20
260.6040
 30
0.0
 0
VERTEX
 8
PARTS
 10
307.3400
 20
258.8260
 30
0.0
 0
SEQEND
 8
PARTS
 0
POLYLINE
 8
PARTS
 66
1
 70
1
 10
0.0
 20
0.0
 30
0.0
 0
VERTEX
 8
PARTS
 10
310.3880
 20
260.8580
 30
0.0
 0
VERTEX
 8
PARTS
 10
310.3880
 20
260.8580
 30
0.0
 0
VERTEX
 8
PARTS
 10
311.4040
 20
261.3660
 30
0.0
 0
VERTEX
 8
PARTS
 10
310.8960
 20
260.3500
 30
0.0
 0
VERTEX
 8
PARTS
 10
310.3880
 20
260.8580
 30
0.0
 0
SEQEND
 8
PARTS
 0
POLYLINE
 8
PARTS
 66
1
 70
1
 10
0.0
 20
0.0
 30
0.0
 0
VERTEX
 8
PARTS
 10
308.8640
 20
260.8580
 30
0.0
 0
VERTEX
 8
PARTS
 10
308.8640
 20
260.8580
 30
0.0
 0
VERTEX
 8
PARTS
 10
309.8800
 20
261.3660
 30
0.0
 0
VERTEX
 8
PARTS
 10
309.3720
 20
260.3500
 30
0.0
 0
VERTEX
 8
PARTS
 10
308.8640
 20
260.8580
 30
0.0
 0
SEQEND
 8
PARTS
 0
POLYLINE
 8
PARTS
 66
1
 10
0.0
 20
0.0
 30
0.0
 0
VERTEX
 8
PARTS
 10
309.6260
 20
261.1120
 30
0.0
 0
VERTEX
 8
PARTS
 10
308.1020
 20
259.5880
 30
0.0
 0
SEQEND
 8
PARTS
 0
POLYLINE
 8
PARTS
 66
1
 10
0.0
 20
0.0
 30
0.0
 0
VERTEX
 8
PARTS
 10
311.1500
 20
261.1120
 30
0.0
 0
VERTEX
 8
PARTS
 10
309.6260
 20
259.5880
 30
0.0
 0
SEQEND
 8
PARTS
 0
TEXT
 8
PARTTEXT
 10
137.1600
 20
239.7103
 30
0.0
 40
  1.3057
 1
Q23
 0
TEXT
 8
PARTTEXT
 10
137.1600
 20
237.1703
 30
0.0
 40
  1.3057
 1
c1815
 0
LINE
 8
PARTS
 10
132.0800
 20
235.9660
 30
0.0
 11
134.6200
 21
235.9660
 31
0.0
 0
LINE
 8
PARTS
 10
137.1600
 20
241.0460
 30
0.0
 11
137.1600
 21
238.5060
 31
0.0
 0
LINE
 8
PARTS
 10
137.1600
 20
230.8860
 30
0.0
 11
137.1600
 21
233.4260
 31
0.0
 0
POLYLINE
 8
PARTS
 66
1
 10
0.0
 20
0.0
 30
0.0
 0
VERTEX
 8
PARTS
 10
137.1600
 20
238.5060
 30
0.0
 0
VERTEX
 8
PARTS
 10
134.6200
 20
237.2360
 30
0.0
 0
SEQEND
 8
PARTS
 0
POLYLINE
 8
PARTS
 66
1
 10
0.0
 20
0.0
 30
0.0
 0
VERTEX
 8
PARTS
 10
137.1600
 20
233.4260
 30
0.0
 0
VERTEX
 8
PARTS
 10
134.6200
 20
234.6960
 30
0.0
 0
SEQEND
 8
PARTS
 0
POLYLINE
 8
PARTS
 66
1
 10
0.0
 20
0.0
 30
0.0
 0
VERTEX
 8
PARTS
 10
134.8740
 20
233.9340
 30
0.0
 0
VERTEX
 8
PARTS
 10
136.6520
 20
233.6800
 30
0.0
 0
VERTEX
 8
PARTS
 10
135.3820
 20
234.9500
 30
0.0
 0
SEQEND
 8
PARTS
 0
POLYLINE
 8
PARTS
 66
1
 10
0.0
 20
0.0
 30
0.0
 0
VERTEX
 8
PARTS
 10
134.6200
 20
238.5060
 30
0.0
 0
VERTEX
 8
PARTS
 10
134.6200
 20
233.4260
 30
0.0
 0
SEQEND
 8
PARTS
 0
TEXT
 8
PARTTEXT
 10
361.9500
 20
150.8103
 30
0.0
 40
  1.3057
 1
C9
 0
TEXT
 8
PARTTEXT
 10
363.2200
 20
148.2703
 30
0.0
 40
  1.3057
 1
104
 0
LINE
 8
PARTS
 10
358.1400
 20
147.0660
 30
0.0
 11
358.1400
 21
149.6060
 31
0.0
 0
LINE
 8
PARTS
 10
358.1400
 20
154.6860
 30
0.0
 11
358.1400
 21
152.1460
 31
0.0
 0
POLYLINE
 8
PARTS
 66
1
 10
0.0
 20
0.0
 30
0.0
 0
VERTEX
 8
PARTS
 10
356.8700
 20
150.3680
 30
0.0
 0
VERTEX
 8
PARTS
 10
359.4100
 20
150.3680
 30
0.0
 0
SEQEND
 8
PARTS
 0
POLYLINE
 8
PARTS
 66
1
 10
0.0
 20
0.0
 30
0.0
 0
VERTEX
 8
PARTS
 10
356.8700
 20
151.3840
 30
0.0
 0
VERTEX
 8
PARTS
 10
359.4100
 20
151.3840
 30
0.0
 0
SEQEND
 8
PARTS
 0
POLYLINE
 8
PARTS
 66
1
 10
0.0
 20
0.0
 30
0.0
 0
VERTEX
 8
PARTS
 10
358.1400
 20
151.3840
 30
0.0
 0
VERTEX
 8
PARTS
 10
358.1400
 20
152.1460
 30
0.0
 0
SEQEND
 8
PARTS
 0
POLYLINE
 8
PARTS
 66
1
 10
0.0
 20
0.0
 30
0.0
 0
VERTEX
 8
PARTS
 10
358.1400
 20
149.6060
 30
0.0
 0
VERTEX
 8
PARTS
 10
358.1400
 20
150.3680
 30
0.0
 0
SEQEND
 8
PARTS
 0
TEXT
 8
PARTTEXT
 10
213.3600
 20
152.0803
 30
0.0
 40
  1.3057
 1
R33
 0
TEXT
 8
PARTTEXT
 10
213.3600
 20
141.6663
 30
0.0
 40
  1.3057
 1
330 2W
 0
LINE
 8
PARTS
 10
210.8200
 20
147.0660
 30
0.0
 11
213.3600
 21
147.0660
 31
0.0
 0
LINE
 8
PARTS
 10
220.9800
 20
147.0660
 30
0.0
 11
218.4400
 21
147.0660
 31
0.0
 0
POLYLINE
 8
PARTS
 66
1
 10
0.0
 20
0.0
 30
0.0
 0
VERTEX
 8
PARTS
 10
218.1860
 20
147.0660
 30
0.0
 0
VERTEX
 8
PARTS
 10
217.6780
 20
146.0500
 30
0.0
 0
SEQEND
 8
PARTS
 0
POLYLINE
 8
PARTS
 66
1
 10
0.0
 20
0.0
 30
0.0
 0
VERTEX
 8
PARTS
 10
217.6780
 20
146.0500
 30
0.0
 0
VERTEX
 8
PARTS
 10
216.9160
 20
148.0820
 30
0.0
 0
SEQEND
 8
PARTS
 0
POLYLINE
 8
PARTS
 66
1
 10
0.0
 20
0.0
 30
0.0
 0
VERTEX
 8
PARTS
 10
216.9160
 20
148.0820
 30
0.0
 0
VERTEX
 8
PARTS
 10
216.1540
 20
146.0500
 30
0.0
 0
SEQEND
 8
PARTS
 0
POLYLINE
 8
PARTS
 66
1
 10
0.0
 20
0.0
 30
0.0
 0
VERTEX
 8
PARTS
 10
216.1540
 20
146.0500
 30
0.0
 0
VERTEX
 8
PARTS
 10
215.3920
 20
148.0820
 30
0.0
 0
SEQEND
 8
PARTS
 0
POLYLINE
 8
PARTS
 66
1
 10
0.0
 20
0.0
 30
0.0
 0
VERTEX
 8
PARTS
 10
215.3920
 20
148.0820
 30
0.0
 0
VERTEX
 8
PARTS
 10
214.6300
 20
146.0500
 30
0.0
 0
SEQEND
 8
PARTS
 0
POLYLINE
 8
PARTS
 66
1
 10
0.0
 20
0.0
 30
0.0
 0
VERTEX
 8
PARTS
 10
214.6300
 20
146.0500
 30
0.0
 0
VERTEX
 8
PARTS
 10
213.8680
 20
148.0820
 30
0.0
 0
SEQEND
 8
PARTS
 0
POLYLINE
 8
PARTS
 66
1
 10
0.0
 20
0.0
 30
0.0
 0
VERTEX
 8
PARTS
 10
213.8680
 20
148.0820
 30
0.0
 0
VERTEX
 8
PARTS
 10
213.3600
 20
147.0660
 30
0.0
 0
SEQEND
 8
PARTS
 0
POLYLINE
 8
PARTS
 66
1
 10
0.0
 20
0.0
 30
0.0
 0
VERTEX
 8
PARTS
 10
218.4400
 20
147.0660
 30
0.0
 0
VERTEX
 8
PARTS
 10
218.1860
 20
147.0660
 30
0.0
 0
SEQEND
 8
PARTS
 0
TEXT
 8
PARTTEXT
 10
116.8400
 20
197.8003
 30
0.0
 40
  1.3057
 1
R58
 0
TEXT
 8
PARTTEXT
 10
116.8400
 20
187.3863
 30
0.0
 40
  1.3057
 1
330 2W
 0
LINE
 8
PARTS
 10
114.3000
 20
192.7860
 30
0.0
 11
116.8400
 21
192.7860
 31
0.0
 0
LINE
 8
PARTS
 10
124.4600
 20
192.7860
 30
0.0
 11
121.9200
 21
192.7860
 31
0.0
 0
POLYLINE
 8
PARTS
 66
1
 10
0.0
 20
0.0
 30
0.0
 0
VERTEX
 8
PARTS
 10
121.6660
 20
192.7860
 30
0.0
 0
VERTEX
 8
PARTS
 10
121.1580
 20
191.7700
 30
0.0
 0
SEQEND
 8
PARTS
 0
POLYLINE
 8
PARTS
 66
1
 10
0.0
 20
0.0
 30
0.0
 0
VERTEX
 8
PARTS
 10
121.1580
 20
191.7700
 30
0.0
 0
VERTEX
 8
PARTS
 10
120.3960
 20
193.8020
 30
0.0
 0
SEQEND
 8
PARTS
 0
POLYLINE
 8
PARTS
 66
1
 10
0.0
 20
0.0
 30
0.0
 0
VERTEX
 8
PARTS
 10
120.3960
 20
193.8020
 30
0.0
 0
VERTEX
 8
PARTS
 10
119.6340
 20
191.7700
 30
0.0
 0
SEQEND
 8
PARTS
 0
POLYLINE
 8
PARTS
 66
1
 10
0.0
 20
0.0
 30
0.0
 0
VERTEX
 8
PARTS
 10
119.6340
 20
191.7700
 30
0.0
 0
VERTEX
 8
PARTS
 10
118.8720
 20
193.8020
 30
0.0
 0
SEQEND
 8
PARTS
 0
POLYLINE
 8
PARTS
 66
1
 10
0.0
 20
0.0
 30
0.0
 0
VERTEX
 8
PARTS
 10
118.8720
 20
193.8020
 30
0.0
 0
VERTEX
 8
PARTS
 10
118.1100
 20
191.7700
 30
0.0
 0
SEQEND
 8
PARTS
 0
POLYLINE
 8
PARTS
 66
1
 10
0.0
 20
0.0
 30
0.0
 0
VERTEX
 8
PARTS
 10
118.1100
 20
191.7700
 30
0.0
 0
VERTEX
 8
PARTS
 10
117.3480
 20
193.8020
 30
0.0
 0
SEQEND
 8
PARTS
 0
POLYLINE
 8
PARTS
 66
1
 10
0.0
 20
0.0
 30
0.0
 0
VERTEX
 8
PARTS
 10
117.3480
 20
193.8020
 30
0.0
 0
VERTEX
 8
PARTS
 10
116.8400
 20
192.7860
 30
0.0
 0
SEQEND
 8
PARTS
 0
POLYLINE
 8
PARTS
 66
1
 10
0.0
 20
0.0
 30
0.0
 0
VERTEX
 8
PARTS
 10
121.9200
 20
192.7860
 30
0.0
 0
VERTEX
 8
PARTS
 10
121.6660
 20
192.7860
 30
0.0
 0
SEQEND
 8
PARTS
 0
TEXT
 8
PARTTEXT
 10
236.2200
 20
160.9703
 30
0.0
 40
  1.3057
 1
D24
 0
TEXT
 8
PARTTEXT
 10
236.2200
 20
158.4303
 30
0.0
 40
  1.3057
 1
DIODE
 0
LINE
 8
PARTS
 10
231.1400
 20
154.6860
 30
0.0
 11
233.6800
 21
154.6860
 31
0.0
 0
LINE
 8
PARTS
 10
243.8400
 20
154.6860
 30
0.0
 11
241.3000
 21
154.6860
 31
0.0
 0
POLYLINE
 8
PARTS
 66
1
 10
0.0
 20
0.0
 30
0.0
 0
VERTEX
 8
PARTS
 10
238.7600
 20
156.4640
 30
0.0
 0
VERTEX
 8
PARTS
 10
238.7600
 20
152.9080
 30
0.0
 0
SEQEND
 8
PARTS
 0
POLYLINE
 8
PARTS
 66
1
 10
0.0
 20
0.0
 30
0.0
 0
VERTEX
 8
PARTS
 10
233.6800
 20
154.6860
 30
0.0
 0
VERTEX
 8
PARTS
 10
236.2200
 20
154.6860
 30
0.0
 0
SEQEND
 8
PARTS
 0
POLYLINE
 8
PARTS
 66
1
 10
0.0
 20
0.0
 30
0.0
 0
VERTEX
 8
PARTS
 10
238.7600
 20
154.6860
 30
0.0
 0
VERTEX
 8
PARTS
 10
241.3000
 20
154.6860
 30
0.0
 0
SEQEND
 8
PARTS
 0
POLYLINE
 8
PARTS
 66
1
 70
1
 10
0.0
 20
0.0
 30
0.0
 0
VERTEX
 8
PARTS
 10
238.7600
 20
154.6860
 30
0.0
 0
VERTEX
 8
PARTS
 10
238.7600
 20
154.6860
 30
0.0
 0
VERTEX
 8
PARTS
 10
236.2200
 20
152.9080
 30
0.0
 0
VERTEX
 8
PARTS
 10
236.2200
 20
156.4640
 30
0.0
 0
VERTEX
 8
PARTS
 10
238.7600
 20
154.6860
 30
0.0
 0
SEQEND
 8
PARTS
 0
TEXT
 8
PARTTEXT
 10
137.1600
 20
196.5303
 30
0.0
 40
  1.3057
 1
Q24
 0
TEXT
 8
PARTTEXT
 10
137.1600
 20
193.9903
 30
0.0
 40
  1.3057
 1
c1815
 0
LINE
 8
PARTS
 10
132.0800
 20
192.7860
 30
0.0
 11
134.6200
 21
192.7860
 31
0.0
 0
LINE
 8
PARTS
 10
137.1600
 20
197.8660
 30
0.0
 11
137.1600
 21
195.3260
 31
0.0
 0
LINE
 8
PARTS
 10
137.1600
 20
187.7060
 30
0.0
 11
137.1600
 21
190.2460
 31
0.0
 0
POLYLINE
 8
PARTS
 66
1
 10
0.0
 20
0.0
 30
0.0
 0
VERTEX
 8
PARTS
 10
137.1600
 20
195.3260
 30
0.0
 0
VERTEX
 8
PARTS
 10
134.6200
 20
194.0560
 30
0.0
 0
SEQEND
 8
PARTS
 0
POLYLINE
 8
PARTS
 66
1
 10
0.0
 20
0.0
 30
0.0
 0
VERTEX
 8
PARTS
 10
137.1600
 20
190.2460
 30
0.0
 0
VERTEX
 8
PARTS
 10
134.6200
 20
191.5160
 30
0.0
 0
SEQEND
 8
PARTS
 0
POLYLINE
 8
PARTS
 66
1
 10
0.0
 20
0.0
 30
0.0
 0
VERTEX
 8
PARTS
 10
134.8740
 20
190.7540
 30
0.0
 0
VERTEX
 8
PARTS
 10
136.6520
 20
190.5000
 30
0.0
 0
VERTEX
 8
PARTS
 10
135.3820
 20
191.7700
 30
0.0
 0
SEQEND
 8
PARTS
 0
POLYLINE
 8
PARTS
 66
1
 10
0.0
 20
0.0
 30
0.0
 0
VERTEX
 8
PARTS
 10
134.6200
 20
195.3260
 30
0.0
 0
VERTEX
 8
PARTS
 10
134.6200
 20
190.2460
 30
0.0
 0
SEQEND
 8
PARTS
 0
TEXT
 8
PARTTEXT
 10
284.4800
 20
263.8403
 30
0.0
 40
  1.3057
 1
R89
 0
TEXT
 8
PARTTEXT
 10
284.4800
 20
253.4263
 30
0.0
 40
  1.3057
 1
2.2k
 0
LINE
 8
PARTS
 10
294.6400
 20
258.8260
 30
0.0
 11
292.1000
 21
258.8260
 31
0.0
 0
LINE
 8
PARTS
 10
281.9400
 20
258.8260
 30
0.0
 11
284.4800
 21
258.8260
 31
0.0
 0
POLYLINE
 8
PARTS
 66
1
 10
0.0
 20
0.0
 30
0.0
 0
VERTEX
 8
PARTS
 10
292.1000
 20
258.8260
 30
0.0
 0
VERTEX
 8
PARTS
 10
291.3380
 20
258.0640
 30
0.0
 0
SEQEND
 8
PARTS
 0
POLYLINE
 8
PARTS
 66
1
 10
0.0
 20
0.0
 30
0.0
 0
VERTEX
 8
PARTS
 10
291.3380
 20
258.0640
 30
0.0
 0
VERTEX
 8
PARTS
 10
289.8140
 20
259.5880
 30
0.0
 0
SEQEND
 8
PARTS
 0
POLYLINE
 8
PARTS
 66
1
 10
0.0
 20
0.0
 30
0.0
 0
VERTEX
 8
PARTS
 10
289.8140
 20
259.5880
 30
0.0
 0
VERTEX
 8
PARTS
 10
288.2900
 20
258.0640
 30
0.0
 0
SEQEND
 8
PARTS
 0
POLYLINE
 8
PARTS
 66
1
 10
0.0
 20
0.0
 30
0.0
 0
VERTEX
 8
PARTS
 10
288.2900
 20
258.0640
 30
0.0
 0
VERTEX
 8
PARTS
 10
286.7660
 20
259.5880
 30
0.0
 0
SEQEND
 8
PARTS
 0
POLYLINE
 8
PARTS
 66
1
 10
0.0
 20
0.0
 30
0.0
 0
VERTEX
 8
PARTS
 10
286.7660
 20
259.5880
 30
0.0
 0
VERTEX
 8
PARTS
 10
285.2420
 20
258.0640
 30
0.0
 0
SEQEND
 8
PARTS
 0
POLYLINE
 8
PARTS
 66
1
 10
0.0
 20
0.0
 30
0.0
 0
VERTEX
 8
PARTS
 10
285.2420
 20
258.0640
 30
0.0
 0
VERTEX
 8
PARTS
 10
284.4800
 20
258.8260
 30
0.0
 0
SEQEND
 8
PARTS
 0
TEXT
 8
PARTTEXT
 10
373.3800
 20
160.9703
 30
0.0
 40
  1.3057
 1
DC1_DC3
 0
TEXT
 8
PARTTEXT
 10
373.3800
 20
145.7303
 30
0.0
 40
  1.3057
 1
CON2
 0
LINE
 8
PARTS
 10
365.7600
 20
154.6860
 30
0.0
 11
373.3800
 21
154.6860
 31
0.0
 0
TEXT
 8
PARTS
 10
370.8400
 20
155.4480
 30
0.0
 40
  1.2700
 1
1
 0
LINE
 8
PARTS
 10
365.7600
 20
152.1460
 30
0.0
 11
373.3800
 21
152.1460
 31
0.0
 0
TEXT
 8
PARTS
 10
370.8400
 20
152.9080
 30
0.0
 40
  1.2700
 1
2
 0
POLYLINE
 8
PARTS
 66
1
 70
1
 10
0.0
 20
0.0
 30
0.0
 0
VERTEX
 8
PARTS
 10
373.3800
 20
157.2260
 30
0.0
 0
VERTEX
 8
PARTS
 10
378.4600
 20
157.2260
 30
0.0
 0
VERTEX
 8
PARTS
 10
378.4600
 20
149.6060
 30
0.0
 0
VERTEX
 8
PARTS
 10
373.3800
 20
149.6060
 30
0.0
 0
SEQEND
 8
PARTS
 0
TEXT
 8
PARTTEXT
 10
311.4040
 20
232.0903
 30
0.0
 40
  1.3057
 1
D26
 0
TEXT
 8
PARTTEXT
 10
311.4040
 20
229.0423
 30
0.0
 40
  1.3057
 1
5a
 0
LINE
 8
PARTS
 10
307.3400
 20
235.9660
 30
0.0
 11
307.3400
 21
233.4260
 31
0.0
 0
LINE
 8
PARTS
 10
307.3400
 20
223.2660
 30
0.0
 11
307.3400
 21
225.8060
 31
0.0
 0
POLYLINE
 8
PARTS
 66
1
 10
0.0
 20
0.0
 30
0.0
 0
VERTEX
 8
PARTS
 10
305.5620
 20
228.3460
 30
0.0
 0
VERTEX
 8
PARTS
 10
309.1180
 20
228.3460
 30
0.0
 0
SEQEND
 8
PARTS
 0
POLYLINE
 8
PARTS
 66
1
 10
0.0
 20
0.0
 30
0.0
 0
VERTEX
 8
PARTS
 10
307.3400
 20
233.4260
 30
0.0
 0
VERTEX
 8
PARTS
 10
307.3400
 20
230.8860
 30
0.0
 0
SEQEND
 8
PARTS
 0
POLYLINE
 8
PARTS
 66
1
 10
0.0
 20
0.0
 30
0.0
 0
VERTEX
 8
PARTS
 10
307.3400
 20
228.3460
 30
0.0
 0
VERTEX
 8
PARTS
 10
307.3400
 20
225.8060
 30
0.0
 0
SEQEND
 8
PARTS
 0
POLYLINE
 8
PARTS
 66
1
 70
1
 10
0.0
 20
0.0
 30
0.0
 0
VERTEX
 8
PARTS
 10
307.3400
 20
228.3460
 30
0.0
 0
VERTEX
 8
PARTS
 10
307.3400
 20
228.3460
 30
0.0
 0
VERTEX
 8
PARTS
 10
309.1180
 20
230.8860
 30
0.0
 0
VERTEX
 8
PARTS
 10
305.5620
 20
230.8860
 30
0.0
 0
VERTEX
 8
PARTS
 10
307.3400
 20
228.3460
 30
0.0
 0
SEQEND
 8
PARTS
 0
TEXT
 8
PARTTEXT
 10
303.0220
 20
249.8703
 30
0.0
 40
  1.3057
 1
D23
 0
TEXT
 8
PARTTEXT
 10
299.7200
 20
247.3303
 30
0.0
 40
  1.3057
 1
DIODE
 0
LINE
 8
PARTS
 10
312.4200
 20
243.5860
 30
0.0
 11
309.8800
 21
243.5860
 31
0.0
 0
LINE
 8
PARTS
 10
299.7200
 20
243.5860
 30
0.0
 11
302.2600
 21
243.5860
 31
0.0
 0
POLYLINE
 8
PARTS
 66
1
 10
0.0
 20
0.0
 30
0.0
 0
VERTEX
 8
PARTS
 10
304.8000
 20
245.3640
 30
0.0
 0
VERTEX
 8
PARTS
 10
304.8000
 20
241.8080
 30
0.0
 0
SEQEND
 8
PARTS
 0
POLYLINE
 8
PARTS
 66
1
 10
0.0
 20
0.0
 30
0.0
 0
VERTEX
 8
PARTS
 10
309.8800
 20
243.5860
 30
0.0
 0
VERTEX
 8
PARTS
 10
307.3400
 20
243.5860
 30
0.0
 0
SEQEND
 8
PARTS
 0
POLYLINE
 8
PARTS
 66
1
 10
0.0
 20
0.0
 30
0.0
 0
VERTEX
 8
PARTS
 10
304.8000
 20
243.5860
 30
0.0
 0
VERTEX
 8
PARTS
 10
302.2600
 20
243.5860
 30
0.0
 0
SEQEND
 8
PARTS
 0
POLYLINE
 8
PARTS
 66
1
 70
1
 10
0.0
 20
0.0
 30
0.0
 0
VERTEX
 8
PARTS
 10
304.8000
 20
243.5860
 30
0.0
 0
VERTEX
 8
PARTS
 10
304.8000
 20
243.5860
 30
0.0
 0
VERTEX
 8
PARTS
 10
307.3400
 20
241.8080
 30
0.0
 0
VERTEX
 8
PARTS
 10
307.3400
 20
245.3640
 30
0.0
 0
VERTEX
 8
PARTS
 10
304.8000
 20
243.5860
 30
0.0
 0
SEQEND
 8
PARTS
 0
TEXT
 8
PARTTEXT
 10
198.1200
 20
149.5403
 30
0.0
 40
  1.3057
 1
R46
 0
TEXT
 8
PARTTEXT
 10
198.1200
 20
139.1263
 30
0.0
 40
  1.3057
 1
10k
 0
LINE
 8
PARTS
 10
195.5800
 20
144.5260
 30
0.0
 11
198.1200
 21
144.5260
 31
0.0
 0
LINE
 8
PARTS
 10
205.7400
 20
144.5260
 30
0.0
 11
203.2000
 21
144.5260
 31
0.0
 0
POLYLINE
 8
PARTS
 66
1
 10
0.0
 20
0.0
 30
0.0
 0
VERTEX
 8
PARTS
 10
202.9460
 20
144.5260
 30
0.0
 0
VERTEX
 8
PARTS
 10
202.4380
 20
143.5100
 30
0.0
 0
SEQEND
 8
PARTS
 0
POLYLINE
 8
PARTS
 66
1
 10
0.0
 20
0.0
 30
0.0
 0
VERTEX
 8
PARTS
 10
202.4380
 20
143.5100
 30
0.0
 0
VERTEX
 8
PARTS
 10
201.6760
 20
145.5420
 30
0.0
 0
SEQEND
 8
PARTS
 0
POLYLINE
 8
PARTS
 66
1
 10
0.0
 20
0.0
 30
0.0
 0
VERTEX
 8
PARTS
 10
201.6760
 20
145.5420
 30
0.0
 0
VERTEX
 8
PARTS
 10
200.9140
 20
143.5100
 30
0.0
 0
SEQEND
 8
PARTS
 0
POLYLINE
 8
PARTS
 66
1
 10
0.0
 20
0.0
 30
0.0
 0
VERTEX
 8
PARTS
 10
200.9140
 20
143.5100
 30
0.0
 0
VERTEX
 8
PARTS
 10
200.1520
 20
145.5420
 30
0.0
 0
SEQEND
 8
PARTS
 0
POLYLINE
 8
PARTS
 66
1
 10
0.0
 20
0.0
 30
0.0
 0
VERTEX
 8
PARTS
 10
200.1520
 20
145.5420
 30
0.0
 0
VERTEX
 8
PARTS
 10
199.3900
 20
143.5100
 30
0.0
 0
SEQEND
 8
PARTS
 0
POLYLINE
 8
PARTS
 66
1
 10
0.0
 20
0.0
 30
0.0
 0
VERTEX
 8
PARTS
 10
199.3900
 20
143.5100
 30
0.0
 0
VERTEX
 8
PARTS
 10
198.6280
 20
145.5420
 30
0.0
 0
SEQEND
 8
PARTS
 0
POLYLINE
 8
PARTS
 66
1
 10
0.0
 20
0.0
 30
0.0
 0
VERTEX
 8
PARTS
 10
198.6280
 20
145.5420
 30
0.0
 0
VERTEX
 8
PARTS
 10
198.1200
 20
144.5260
 30
0.0
 0
SEQEND
 8
PARTS
 0
POLYLINE
 8
PARTS
 66
1
 10
0.0
 20
0.0
 30
0.0
 0
VERTEX
 8
PARTS
 10
203.2000
 20
144.5260
 30
0.0
 0
VERTEX
 8
PARTS
 10
202.9460
 20
144.5260
 30
0.0
 0
SEQEND
 8
PARTS
 0
TEXT
 8
PARTTEXT
 10
248.9200
 20
145.7303
 30
0.0
 40
  1.3057
 1
Q10
 0
TEXT
 8
PARTTEXT
 10
248.9200
 20
143.1903
 30
0.0
 40
  1.3057
 1
a1015
 0
LINE
 8
PARTS
 10
243.8400
 20
144.5260
 30
0.0
 11
246.3800
 21
144.5260
 31
0.0
 0
LINE
 8
PARTS
 10
248.9200
 20
139.4460
 30
0.0
 11
248.9200
 21
141.9860
 31
0.0
 0
LINE
 8
PARTS
 10
248.9200
 20
149.6060
 30
0.0
 11
248.9200
 21
147.0660
 31
0.0
 0
POLYLINE
 8
PARTS
 66
1
 10
0.0
 20
0.0
 30
0.0
 0
VERTEX
 8
PARTS
 10
248.9200
 20
141.9860
 30
0.0
 0
VERTEX
 8
PARTS
 10
246.3800
 20
143.2560
 30
0.0
 0
SEQEND
 8
PARTS
 0
POLYLINE
 8
PARTS
 66
1
 10
0.0
 20
0.0
 30
0.0
 0
VERTEX
 8
PARTS
 10
246.3800
 20
145.7960
 30
0.0
 0
VERTEX
 8
PARTS
 10
248.9200
 20
147.0660
 30
0.0
 0
SEQEND
 8
PARTS
 0
POLYLINE
 8
PARTS
 66
1
 10
0.0
 20
0.0
 30
0.0
 0
VERTEX
 8
PARTS
 10
248.6660
 20
146.3040
 30
0.0
 0
VERTEX
 8
PARTS
 10
246.8880
 20
146.0500
 30
0.0
 0
VERTEX
 8
PARTS
 10
248.1580
 20
147.3200
 30
0.0
 0
SEQEND
 8
PARTS
 0
POLYLINE
 8
PARTS
 66
1
 10
0.0
 20
0.0
 30
0.0
 0
VERTEX
 8
PARTS
 10
246.3800
 20
141.9860
 30
0.0
 0
VERTEX
 8
PARTS
 10
246.3800
 20
147.0660
 30
0.0
 0
SEQEND
 8
PARTS
 0
TEXT
 8
PARTTEXT
 10
101.6000
 20
238.4403
 30
0.0
 40
  1.3057
 1
R55
 0
TEXT
 8
PARTTEXT
 10
101.6000
 20
228.0263
 30
0.0
 40
  1.3057
 1
10k
 0
LINE
 8
PARTS
 10
 99.0600
 20
233.4260
 30
0.0
 11
101.6000
 21
233.4260
 31
0.0
 0
LINE
 8
PARTS
 10
109.2200
 20
233.4260
 30
0.0
 11
106.6800
 21
233.4260
 31
0.0
 0
POLYLINE
 8
PARTS
 66
1
 10
0.0
 20
0.0
 30
0.0
 0
VERTEX
 8
PARTS
 10
106.4260
 20
233.4260
 30
0.0
 0
VERTEX
 8
PARTS
 10
105.9180
 20
232.4100
 30
0.0
 0
SEQEND
 8
PARTS
 0
POLYLINE
 8
PARTS
 66
1
 10
0.0
 20
0.0
 30
0.0
 0
VERTEX
 8
PARTS
 10
105.9180
 20
232.4100
 30
0.0
 0
VERTEX
 8
PARTS
 10
105.1560
 20
234.4420
 30
0.0
 0
SEQEND
 8
PARTS
 0
POLYLINE
 8
PARTS
 66
1
 10
0.0
 20
0.0
 30
0.0
 0
VERTEX
 8
PARTS
 10
105.1560
 20
234.4420
 30
0.0
 0
VERTEX
 8
PARTS
 10
104.3940
 20
232.4100
 30
0.0
 0
SEQEND
 8
PARTS
 0
POLYLINE
 8
PARTS
 66
1
 10
0.0
 20
0.0
 30
0.0
 0
VERTEX
 8
PARTS
 10
104.3940
 20
232.4100
 30
0.0
 0
VERTEX
 8
PARTS
 10
103.6320
 20
234.4420
 30
0.0
 0
SEQEND
 8
PARTS
 0
POLYLINE
 8
PARTS
 66
1
 10
0.0
 20
0.0
 30
0.0
 0
VERTEX
 8
PARTS
 10
103.6320
 20
234.4420
 30
0.0
 0
VERTEX
 8
PARTS
 10
102.8700
 20
232.4100
 30
0.0
 0
SEQEND
 8
PARTS
 0
POLYLINE
 8
PARTS
 66
1
 10
0.0
 20
0.0
 30
0.0
 0
VERTEX
 8
PARTS
 10
102.8700
 20
232.4100
 30
0.0
 0
VERTEX
 8
PARTS
 10
102.1080
 20
234.4420
 30
0.0
 0
SEQEND
 8
PARTS
 0
POLYLINE
 8
PARTS
 66
1
 10
0.0
 20
0.0
 30
0.0
 0
VERTEX
 8
PARTS
 10
102.1080
 20
234.4420
 30
0.0
 0
VERTEX
 8
PARTS
 10
101.6000
 20
233.4260
 30
0.0
 0
SEQEND
 8
PARTS
 0
POLYLINE
 8
PARTS
 66
1
 10
0.0
 20
0.0
 30
0.0
 0
VERTEX
 8
PARTS
 10
106.6800
 20
233.4260
 30
0.0
 0
VERTEX
 8
PARTS
 10
106.4260
 20
233.4260
 30
0.0
 0
SEQEND
 8
PARTS
 0
TEXT
 8
PARTTEXT
 10
233.6800
 20
277.8103
 30
0.0
 40
  1.3057
 1
DC1_DC8
 0
TEXT
 8
PARTTEXT
 10
233.6800
 20
262.5703
 30
0.0
 40
  1.3057
 1
CON2
 0
LINE
 8
PARTS
 10
226.0600
 20
271.5260
 30
0.0
 11
233.6800
 21
271.5260
 31
0.0
 0
TEXT
 8
PARTS
 10
231.1400
 20
272.2880
 30
0.0
 40
  1.2700
 1
1
 0
LINE
 8
PARTS
 10
226.0600
 20
268.9860
 30
0.0
 11
233.6800
 21
268.9860
 31
0.0
 0
TEXT
 8
PARTS
 10
231.1400
 20
269.7480
 30
0.0
 40
  1.2700
 1
2
 0
POLYLINE
 8
PARTS
 66
1
 70
1
 10
0.0
 20
0.0
 30
0.0
 0
VERTEX
 8
PARTS
 10
233.6800
 20
274.0660
 30
0.0
 0
VERTEX
 8
PARTS
 10
238.7600
 20
274.0660
 30
0.0
 0
VERTEX
 8
PARTS
 10
238.7600
 20
266.4460
 30
0.0
 0
VERTEX
 8
PARTS
 10
233.6800
 20
266.4460
 30
0.0
 0
SEQEND
 8
PARTS
 0
TEXT
 8
PARTTEXT
 10
248.9200
 20
158.4303
 30
0.0
 40
  1.3057
 1
Q9
 0
TEXT
 8
PARTTEXT
 10
248.9200
 20
155.8903
 30
0.0
 40
  1.3057
 1
c1815
 0
LINE
 8
PARTS
 10
243.8400
 20
154.6860
 30
0.0
 11
246.3800
 21
154.6860
 31
0.0
 0
LINE
 8
PARTS
 10
248.9200
 20
159.7660
 30
0.0
 11
248.9200
 21
157.2260
 31
0.0
 0
LINE
 8
PARTS
 10
248.9200
 20
149.6060
 30
0.0
 11
248.9200
 21
152.1460
 31
0.0
 0
POLYLINE
 8
PARTS
 66
1
 10
0.0
 20
0.0
 30
0.0
 0
VERTEX
 8
PARTS
 10
248.9200
 20
157.2260
 30
0.0
 0
VERTEX
 8
PARTS
 10
246.3800
 20
155.9560
 30
0.0
 0
SEQEND
 8
PARTS
 0
POLYLINE
 8
PARTS
 66
1
 10
0.0
 20
0.0
 30
0.0
 0
VERTEX
 8
PARTS
 10
248.9200
 20
152.1460
 30
0.0
 0
VERTEX
 8
PARTS
 10
246.3800
 20
153.4160
 30
0.0
 0
SEQEND
 8
PARTS
 0
POLYLINE
 8
PARTS
 66
1
 10
0.0
 20
0.0
 30
0.0
 0
VERTEX
 8
PARTS
 10
246.6340
 20
152.6540
 30
0.0
 0
VERTEX
 8
PARTS
 10
248.4120
 20
152.4000
 30
0.0
 0
VERTEX
 8
PARTS
 10
247.1420
 20
153.6700
 30
0.0
 0
SEQEND
 8
PARTS
 0
POLYLINE
 8
PARTS
 66
1
 10
0.0
 20
0.0
 30
0.0
 0
VERTEX
 8
PARTS
 10
246.3800
 20
157.2260
 30
0.0
 0
VERTEX
 8
PARTS
 10
246.3800
 20
152.1460
 30
0.0
 0
SEQEND
 8
PARTS
 0
TEXT
 8
PARTTEXT
 10
298.7040
 20
211.7703
 30
0.0
 40
  1.3057
 1
R87
 0
TEXT
 8
PARTTEXT
 10
298.7040
 20
208.7223
 30
0.0
 40
  1.3057
 1
2.2k
 0
LINE
 8
PARTS
 10
294.6400
 20
215.6460
 30
0.0
 11
294.6400
 21
213.1060
 31
0.0
 0
LINE
 8
PARTS
 10
294.6400
 20
202.9460
 30
0.0
 11
294.6400
 21
205.4860
 31
0.0
 0
POLYLINE
 8
PARTS
 66
1
 10
0.0
 20
0.0
 30
0.0
 0
VERTEX
 8
PARTS
 10
294.6400
 20
213.1060
 30
0.0
 0
VERTEX
 8
PARTS
 10
295.4020
 20
212.3440
 30
0.0
 0
SEQEND
 8
PARTS
 0
POLYLINE
 8
PARTS
 66
1
 10
0.0
 20
0.0
 30
0.0
 0
VERTEX
 8
PARTS
 10
295.4020
 20
212.3440
 30
0.0
 0
VERTEX
 8
PARTS
 10
293.8780
 20
210.8200
 30
0.0
 0
SEQEND
 8
PARTS
 0
POLYLINE
 8
PARTS
 66
1
 10
0.0
 20
0.0
 30
0.0
 0
VERTEX
 8
PARTS
 10
293.8780
 20
210.8200
 30
0.0
 0
VERTEX
 8
PARTS
 10
295.4020
 20
209.2960
 30
0.0
 0
SEQEND
 8
PARTS
 0
POLYLINE
 8
PARTS
 66
1
 10
0.0
 20
0.0
 30
0.0
 0
VERTEX
 8
PARTS
 10
295.4020
 20
209.2960
 30
0.0
 0
VERTEX
 8
PARTS
 10
293.8780
 20
207.7720
 30
0.0
 0
SEQEND
 8
PARTS
 0
POLYLINE
 8
PARTS
 66
1
 10
0.0
 20
0.0
 30
0.0
 0
VERTEX
 8
PARTS
 10
293.8780
 20
207.7720
 30
0.0
 0
VERTEX
 8
PARTS
 10
295.4020
 20
206.2480
 30
0.0
 0
SEQEND
 8
PARTS
 0
POLYLINE
 8
PARTS
 66
1
 10
0.0
 20
0.0
 30
0.0
 0
VERTEX
 8
PARTS
 10
295.4020
 20
206.2480
 30
0.0
 0
VERTEX
 8
PARTS
 10
294.6400
 20
205.4860
 30
0.0
 0
SEQEND
 8
PARTS
 0
TEXT
 8
PARTTEXT
 10
 68.5800
 20
207.9603
 30
0.0
 40
  1.3057
 1
R72
 0
TEXT
 8
PARTTEXT
 10
 68.5800
 20
197.5463
 30
0.0
 40
  1.3057
 1
330 2W
 0
LINE
 8
PARTS
 10
 66.0400
 20
202.9460
 30
0.0
 11
 68.5800
 21
202.9460
 31
0.0
 0
LINE
 8
PARTS
 10
 76.2000
 20
202.9460
 30
0.0
 11
 73.6600
 21
202.9460
 31
0.0
 0
POLYLINE
 8
PARTS
 66
1
 10
0.0
 20
0.0
 30
0.0
 0
VERTEX
 8
PARTS
 10
 73.4060
 20
202.9460
 30
0.0
 0
VERTEX
 8
PARTS
 10
 72.8980
 20
201.9300
 30
0.0
 0
SEQEND
 8
PARTS
 0
POLYLINE
 8
PARTS
 66
1
 10
0.0
 20
0.0
 30
0.0
 0
VERTEX
 8
PARTS
 10
 72.8980
 20
201.9300
 30
0.0
 0
VERTEX
 8
PARTS
 10
 72.1360
 20
203.9620
 30
0.0
 0
SEQEND
 8
PARTS
 0
POLYLINE
 8
PARTS
 66
1
 10
0.0
 20
0.0
 30
0.0
 0
VERTEX
 8
PARTS
 10
 72.1360
 20
203.9620
 30
0.0
 0
VERTEX
 8
PARTS
 10
 71.3740
 20
201.9300
 30
0.0
 0
SEQEND
 8
PARTS
 0
POLYLINE
 8
PARTS
 66
1
 10
0.0
 20
0.0
 30
0.0
 0
VERTEX
 8
PARTS
 10
 71.3740
 20
201.9300
 30
0.0
 0
VERTEX
 8
PARTS
 10
 70.6120
 20
203.9620
 30
0.0
 0
SEQEND
 8
PARTS
 0
POLYLINE
 8
PARTS
 66
1
 10
0.0
 20
0.0
 30
0.0
 0
VERTEX
 8
PARTS
 10
 70.6120
 20
203.9620
 30
0.0
 0
VERTEX
 8
PARTS
 10
 69.8500
 20
201.9300
 30
0.0
 0
SEQEND
 8
PARTS
 0
POLYLINE
 8
PARTS
 66
1
 10
0.0
 20
0.0
 30
0.0
 0
VERTEX
 8
PARTS
 10
 69.8500
 20
201.9300
 30
0.0
 0
VERTEX
 8
PARTS
 10
 69.0880
 20
203.9620
 30
0.0
 0
SEQEND
 8
PARTS
 0
POLYLINE
 8
PARTS
 66
1
 10
0.0
 20
0.0
 30
0.0
 0
VERTEX
 8
PARTS
 10
 69.0880
 20
203.9620
 30
0.0
 0
VERTEX
 8
PARTS
 10
 68.5800
 20
202.9460
 30
0.0
 0
SEQEND
 8
PARTS
 0
POLYLINE
 8
PARTS
 66
1
 10
0.0
 20
0.0
 30
0.0
 0
VERTEX
 8
PARTS
 10
 73.6600
 20
202.9460
 30
0.0
 0
VERTEX
 8
PARTS
 10
 73.4060
 20
202.9460
 30
0.0
 0
SEQEND
 8
PARTS
 0
TEXT
 8
PARTTEXT
 10
323.5960
 20
167.3203
 30
0.0
 40
  1.3057
 1
LS10
 0
CIRCLE
 8
PARTS
 10
321.8180
 20
147.0660
 30
0.0
 40
  0.7620
 0
LINE
 8
PARTS
 10
314.9600
 20
147.0660
 30
0.0
 11
321.0560
 21
147.0660
 31
0.0
 0
TEXT
 8
PARTS
 10
320.0400
 20
147.8280
 30
0.0
 40
  1.2700
 1
4
 0
LINE
 8
PARTS
 10
335.2800
 20
144.5260
 30
0.0
 11
327.6600
 21
144.5260
 31
0.0
 0
TEXT
 8
PARTS
 10
329.1840
 20
145.2880
 30
0.0
 40
  1.2700
 1
6
 0
LINE
 8
PARTS
 10
335.2800
 20
149.6060
 30
0.0
 11
327.6600
 21
149.6060
 31
0.0
 0
TEXT
 8
PARTS
 10
329.1840
 20
150.3680
 30
0.0
 40
  1.2700
 1
8
 0
CIRCLE
 8
PARTS
 10
321.8180
 20
154.6860
 30
0.0
 40
  0.7620
 0
LINE
 8
PARTS
 10
314.9600
 20
154.6860
 30
0.0
 11
321.0560
 21
154.6860
 31
0.0
 0
TEXT
 8
PARTS
 10
319.0240
 20
155.4480
 30
0.0
 40
  1.2700
 1
13
 0
LINE
 8
PARTS
 10
335.2800
 20
152.1460
 30
0.0
 11
327.6600
 21
152.1460
 31
0.0
 0
TEXT
 8
PARTS
 10
329.1840
 20
152.9080
 30
0.0
 40
  1.2700
 1
11
 0
LINE
 8
PARTS
 10
335.2800
 20
157.2260
 30
0.0
 11
327.6600
 21
157.2260
 31
0.0
 0
TEXT
 8
PARTS
 10
329.1840
 20
157.9880
 30
0.0
 40
  1.2700
 1
9
 0
LINE
 8
PARTS
 10
314.9600
 20
159.7660
 30
0.0
 11
322.5800
 21
159.7660
 31
0.0
 0
TEXT
 8
PARTS
 10
320.0400
 20
160.5280
 30
0.0
 40
  1.2700
 1
1
 0
LINE
 8
PARTS
 10
314.9600
 20
162.3060
 30
0.0
 11
322.5800
 21
162.3060
 31
0.0
 0
TEXT
 8
PARTS
 10
319.0240
 20
163.0680
 30
0.0
 40
  1.2700
 1
16
 0
POLYLINE
 8
PARTS
 66
1
 70
1
 10
0.0
 20
0.0
 30
0.0
 0
VERTEX
 8
PARTS
 10
326.3900
 20
147.8280
 30
0.0
 0
VERTEX
 8
PARTS
 10
327.4060
 20
148.8440
 30
0.0
 0
VERTEX
 8
PARTS
 10
325.3740
 20
148.8440
 30
0.0
 0
VERTEX
 8
PARTS
 10
326.3900
 20
147.8280
 30
0.0
 0
SEQEND
 8
PARTS
 0
POLYLINE
 8
PARTS
 66
1
 70
1
 10
0.0
 20
0.0
 30
0.0
 0
VERTEX
 8
PARTS
 10
326.3900
 20
147.0660
 30
0.0
 0
VERTEX
 8
PARTS
 10
327.4060
 20
146.0500
 30
0.0
 0
VERTEX
 8
PARTS
 10
325.3740
 20
146.0500
 30
0.0
 0
VERTEX
 8
PARTS
 10
326.3900
 20
147.0660
 30
0.0
 0
SEQEND
 8
PARTS
 0
POLYLINE
 8
PARTS
 66
1
 10
0.0
 20
0.0
 30
0.0
 0
VERTEX
 8
PARTS
 10
322.5800
 20
147.0660
 30
0.0
 0
VERTEX
 8
PARTS
 10
327.6600
 20
147.0660
 30
0.0
 0
SEQEND
 8
PARTS
 0
POLYLINE
 8
PARTS
 66
1
 10
0.0
 20
0.0
 30
0.0
 0
VERTEX
 8
PARTS
 10
326.3900
 20
146.0500
 30
0.0
 0
VERTEX
 8
PARTS
 10
326.3900
 20
144.5260
 30
0.0
 0
SEQEND
 8
PARTS
 0
POLYLINE
 8
PARTS
 66
1
 10
0.0
 20
0.0
 30
0.0
 0
VERTEX
 8
PARTS
 10
326.3900
 20
144.5260
 30
0.0
 0
VERTEX
 8
PARTS
 10
327.6600
 20
144.5260
 30
0.0
 0
SEQEND
 8
PARTS
 0
POLYLINE
 8
PARTS
 66
1
 10
0.0
 20
0.0
 30
0.0
 0
VERTEX
 8
PARTS
 10
326.3900
 20
148.8440
 30
0.0
 0
VERTEX
 8
PARTS
 10
326.3900
 20
149.6060
 30
0.0
 0
SEQEND
 8
PARTS
 0
POLYLINE
 8
PARTS
 66
1
 10
0.0
 20
0.0
 30
0.0
 0
VERTEX
 8
PARTS
 10
326.3900
 20
149.6060
 30
0.0
 0
VERTEX
 8
PARTS
 10
327.6600
 20
149.6060
 30
0.0
 0
SEQEND
 8
PARTS
 0
POLYLINE
 8
PARTS
 66
1
 10
0.0
 20
0.0
 30
0.0
 0
VERTEX
 8
PARTS
 10
323.8500
 20
158.4960
 30
0.0
 0
VERTEX
 8
PARTS
 10
323.8500
 20
163.5760
 30
0.0
 0
SEQEND
 8
PARTS
 0
POLYLINE
 8
PARTS
 66
1
 10
0.0
 20
0.0
 30
0.0
 0
VERTEX
 8
PARTS
 10
323.8500
 20
163.5760
 30
0.0
 0
VERTEX
 8
PARTS
 10
325.1200
 20
163.5760
 30
0.0
 0
SEQEND
 8
PARTS
 0
POLYLINE
 8
PARTS
 66
1
 10
0.0
 20
0.0
 30
0.0
 0
VERTEX
 8
PARTS
 10
325.1200
 20
163.5760
 30
0.0
 0
VERTEX
 8
PARTS
 10
325.1200
 20
158.4960
 30
0.0
 0
SEQEND
 8
PARTS
 0
POLYLINE
 8
PARTS
 66
1
 10
0.0
 20
0.0
 30
0.0
 0
VERTEX
 8
PARTS
 10
325.1200
 20
158.4960
 30
0.0
 0
VERTEX
 8
PARTS
 10
323.8500
 20
158.4960
 30
0.0
 0
SEQEND
 8
PARTS
 0
POLYLINE
 8
PARTS
 66
1
 10
0.0
 20
0.0
 30
0.0
 0
VERTEX
 8
PARTS
 10
322.5800
 20
159.7660
 30
0.0
 0
VERTEX
 8
PARTS
 10
325.6280
 20
159.7660
 30
0.0
 0
SEQEND
 8
PARTS
 0
POLYLINE
 8
PARTS
 66
1
 10
0.0
 20
0.0
 30
0.0
 0
VERTEX
 8
PARTS
 10
325.6280
 20
160.7820
 30
0.0
 0
VERTEX
 8
PARTS
 10
325.1200
 20
160.7820
 30
0.0
 0
SEQEND
 8
PARTS
 0
POLYLINE
 8
PARTS
 66
1
 10
0.0
 20
0.0
 30
0.0
 0
VERTEX
 8
PARTS
 10
323.8500
 20
160.7820
 30
0.0
 0
VERTEX
 8
PARTS
 10
323.3420
 20
160.7820
 30
0.0
 0
SEQEND
 8
PARTS
 0
POLYLINE
 8
PARTS
 66
1
 10
0.0
 20
0.0
 30
0.0
 0
VERTEX
 8
PARTS
 10
323.3420
 20
161.7980
 30
0.0
 0
VERTEX
 8
PARTS
 10
325.6280
 20
161.7980
 30
0.0
 0
SEQEND
 8
PARTS
 0
POLYLINE
 8
PARTS
 66
1
 10
0.0
 20
0.0
 30
0.0
 0
VERTEX
 8
PARTS
 10
325.6280
 20
162.8140
 30
0.0
 0
VERTEX
 8
PARTS
 10
325.1200
 20
162.8140
 30
0.0
 0
SEQEND
 8
PARTS
 0
POLYLINE
 8
PARTS
 66
1
 10
0.0
 20
0.0
 30
0.0
 0
VERTEX
 8
PARTS
 10
323.5960
 20
162.8140
 30
0.0
 0
VERTEX
 8
PARTS
 10
323.8500
 20
162.8140
 30
0.0
 0
SEQEND
 8
PARTS
 0
POLYLINE
 8
PARTS
 66
1
 10
0.0
 20
0.0
 30
0.0
 0
VERTEX
 8
PARTS
 10
325.6280
 20
159.7660
 30
0.0
 42
  0.4142
 0
VERTEX
 8
PARTS
 10
326.1360
 20
160.2740
 30
0.0
 0
SEQEND
 8
PARTS
 0
POLYLINE
 8
PARTS
 66
1
 10
0.0
 20
0.0
 30
0.0
 0
VERTEX
 8
PARTS
 10
326.1360
 20
160.2740
 30
0.0
 42
  0.4142
 0
VERTEX
 8
PARTS
 10
325.6280
 20
160.7820
 30
0.0
 0
SEQEND
 8
PARTS
 0
POLYLINE
 8
PARTS
 66
1
 10
0.0
 20
0.0
 30
0.0
 0
VERTEX
 8
PARTS
 10
322.8340
 20
161.2900
 30
0.0
 42
  0.4142
 0
VERTEX
 8
PARTS
 10
323.3420
 20
160.7820
 30
0.0
 0
SEQEND
 8
PARTS
 0
POLYLINE
 8
PARTS
 66
1
 10
0.0
 20
0.0
 30
0.0
 0
VERTEX
 8
PARTS
 10
323.3420
 20
161.7980
 30
0.0
 42
  0.4142
 0
VERTEX
 8
PARTS
 10
322.8340
 20
161.2900
 30
0.0
 0
SEQEND
 8
PARTS
 0
POLYLINE
 8
PARTS
 66
1
 10
0.0
 20
0.0
 30
0.0
 0
VERTEX
 8
PARTS
 10
325.6280
 20
161.7980
 30
0.0
 42
  0.4142
 0
VERTEX
 8
PARTS
 10
326.1360
 20
162.3060
 30
0.0
 0
SEQEND
 8
PARTS
 0
POLYLINE
 8
PARTS
 66
1
 10
0.0
 20
0.0
 30
0.0
 0
VERTEX
 8
PARTS
 10
326.1360
 20
162.3060
 30
0.0
 42
  0.4142
 0
VERTEX
 8
PARTS
 10
325.6280
 20
162.8140
 30
0.0
 0
SEQEND
 8
PARTS
 0
POLYLINE
 8
PARTS
 66
1
 10
0.0
 20
0.0
 30
0.0
 0
VERTEX
 8
PARTS
 10
322.5800
 20
162.3060
 30
0.0
 42
  0.2841
 0
VERTEX
 8
PARTS
 10
323.0880
 20
162.5600
 30
0.0
 0
SEQEND
 8
PARTS
 0
POLYLINE
 8
PARTS
 66
1
 10
0.0
 20
0.0
 30
0.0
 0
VERTEX
 8
PARTS
 10
323.5960
 20
162.8140
 30
0.0
 42
  0.2841
 0
VERTEX
 8
PARTS
 10
323.0880
 20
162.5600
 30
0.0
 0
SEQEND
 8
PARTS
 0
POLYLINE
 8
PARTS
 66
1
 70
1
 10
0.0
 20
0.0
 30
0.0
 0
VERTEX
 8
PARTS
 10
326.3900
 20
154.6860
 30
0.0
 0
VERTEX
 8
PARTS
 10
327.4060
 20
153.6700
 30
0.0
 0
VERTEX
 8
PARTS
 10
325.3740
 20
153.6700
 30
0.0
 0
VERTEX
 8
PARTS
 10
326.3900
 20
154.6860
 30
0.0
 0
SEQEND
 8
PARTS
 0
POLYLINE
 8
PARTS
 66
1
 70
1
 10
0.0
 20
0.0
 30
0.0
 0
VERTEX
 8
PARTS
 10
326.3900
 20
155.4480
 30
0.0
 0
VERTEX
 8
PARTS
 10
327.4060
 20
156.4640
 30
0.0
 0
VERTEX
 8
PARTS
 10
325.3740
 20
156.4640
 30
0.0
 0
VERTEX
 8
PARTS
 10
326.3900
 20
155.4480
 30
0.0
 0
SEQEND
 8
PARTS
 0
POLYLINE
 8
PARTS
 66
1
 10
0.0
 20
0.0
 30
0.0
 0
VERTEX
 8
PARTS
 10
326.3900
 20
157.2260
 30
0.0
 0
VERTEX
 8
PARTS
 10
327.6600
 20
157.2260
 30
0.0
 0
SEQEND
 8
PARTS
 0
POLYLINE
 8
PARTS
 66
1
 10
0.0
 20
0.0
 30
0.0
 0
VERTEX
 8
PARTS
 10
326.3900
 20
156.4640
 30
0.0
 0
VERTEX
 8
PARTS
 10
326.3900
 20
157.2260
 30
0.0
 0
SEQEND
 8
PARTS
 0
POLYLINE
 8
PARTS
 66
1
 10
0.0
 20
0.0
 30
0.0
 0
VERTEX
 8
PARTS
 10
326.3900
 20
152.1460
 30
0.0
 0
VERTEX
 8
PARTS
 10
327.6600
 20
152.1460
 30
0.0
 0
SEQEND
 8
PARTS
 0
POLYLINE
 8
PARTS
 66
1
 10
0.0
 20
0.0
 30
0.0
 0
VERTEX
 8
PARTS
 10
326.3900
 20
153.6700
 30
0.0
 0
VERTEX
 8
PARTS
 10
326.3900
 20
152.1460
 30
0.0
 0
SEQEND
 8
PARTS
 0
POLYLINE
 8
PARTS
 66
1
 10
0.0
 20
0.0
 30
0.0
 0
VERTEX
 8
PARTS
 10
322.5800
 20
154.6860
 30
0.0
 0
VERTEX
 8
PARTS
 10
327.6600
 20
154.6860
 30
0.0
 0
SEQEND
 8
PARTS
 0
POLYLINE
 8
PARTS
 66
1
 10
0.0
 20
0.0
 30
0.0
 0
VERTEX
 8
PARTS
 10
323.8500
 20
147.0660
 30
0.0
 0
VERTEX
 8
PARTS
 10
323.8500
 20
154.6860
 30
0.0
 0
SEQEND
 8
PARTS
 0
TEXT
 8
PARTTEXT
 10
165.1000
 20
240.9803
 30
0.0
 40
  1.3057
 1
R86
 0
TEXT
 8
PARTTEXT
 10
165.1000
 20
230.5663
 30
0.0
 40
  1.3057
 1
330 2W
 0
LINE
 8
PARTS
 10
162.5600
 20
235.9660
 30
0.0
 11
165.1000
 21
235.9660
 31
0.0
 0
LINE
 8
PARTS
 10
172.7200
 20
235.9660
 30
0.0
 11
170.1800
 21
235.9660
 31
0.0
 0
POLYLINE
 8
PARTS
 66
1
 10
0.0
 20
0.0
 30
0.0
 0
VERTEX
 8
PARTS
 10
169.9260
 20
235.9660
 30
0.0
 0
VERTEX
 8
PARTS
 10
169.4180
 20
234.9500
 30
0.0
 0
SEQEND
 8
PARTS
 0
POLYLINE
 8
PARTS
 66
1
 10
0.0
 20
0.0
 30
0.0
 0
VERTEX
 8
PARTS
 10
169.4180
 20
234.9500
 30
0.0
 0
VERTEX
 8
PARTS
 10
168.6560
 20
236.9820
 30
0.0
 0
SEQEND
 8
PARTS
 0
POLYLINE
 8
PARTS
 66
1
 10
0.0
 20
0.0
 30
0.0
 0
VERTEX
 8
PARTS
 10
168.6560
 20
236.9820
 30
0.0
 0
VERTEX
 8
PARTS
 10
167.8940
 20
234.9500
 30
0.0
 0
SEQEND
 8
PARTS
 0
POLYLINE
 8
PARTS
 66
1
 10
0.0
 20
0.0
 30
0.0
 0
VERTEX
 8
PARTS
 10
167.8940
 20
234.9500
 30
0.0
 0
VERTEX
 8
PARTS
 10
167.1320
 20
236.9820
 30
0.0
 0
SEQEND
 8
PARTS
 0
POLYLINE
 8
PARTS
 66
1
 10
0.0
 20
0.0
 30
0.0
 0
VERTEX
 8
PARTS
 10
167.1320
 20
236.9820
 30
0.0
 0
VERTEX
 8
PARTS
 10
166.3700
 20
234.9500
 30
0.0
 0
SEQEND
 8
PARTS
 0
POLYLINE
 8
PARTS
 66
1
 10
0.0
 20
0.0
 30
0.0
 0
VERTEX
 8
PARTS
 10
166.3700
 20
234.9500
 30
0.0
 0
VERTEX
 8
PARTS
 10
165.6080
 20
236.9820
 30
0.0
 0
SEQEND
 8
PARTS
 0
POLYLINE
 8
PARTS
 66
1
 10
0.0
 20
0.0
 30
0.0
 0
VERTEX
 8
PARTS
 10
165.6080
 20
236.9820
 30
0.0
 0
VERTEX
 8
PARTS
 10
165.1000
 20
235.9660
 30
0.0
 0
SEQEND
 8
PARTS
 0
POLYLINE
 8
PARTS
 66
1
 10
0.0
 20
0.0
 30
0.0
 0
VERTEX
 8
PARTS
 10
170.1800
 20
235.9660
 30
0.0
 0
VERTEX
 8
PARTS
 10
169.9260
 20
235.9660
 30
0.0
 0
SEQEND
 8
PARTS
 0
TEXT
 8
PARTTEXT
 10
205.7400
 20
232.0903
 30
0.0
 40
  1.3057
 1
pc818
 0
LINE
 8
PARTS
 10
195.5800
 20
235.9660
 30
0.0
 11
195.5800
 21
233.4260
 31
0.0
 0
TEXT
 8
PARTS
 10
194.8180
 20
234.9500
 30
0.0
 40
  1.2700
 50
 90.0000
 1
1
 0
LINE
 8
PARTS
 10
195.5800
 20
225.8060
 30
0.0
 11
195.5800
 21
228.3460
 31
0.0
 0
TEXT
 8
PARTS
 10
194.8180
 20
225.2980
 30
0.0
 40
  1.2700
 50
 90.0000
 1
2
 0
TEXT
 8
PARTS
 10
207.2640
 20
234.1880
 30
0.0
 40
  1.2700
 1
4
 0
LINE
 8
PARTS
 10
205.7400
 20
235.9660
 30
0.0
 11
205.7400
 21
233.4260
 31
0.0
 0
TEXT
 8
PARTS
 10
204.9780
 20
234.9500
 30
0.0
 40
  1.2700
 50
 90.0000
 1
4
 0
TEXT
 8
PARTS
 10
207.2640
 20
229.1080
 30
0.0
 40
  1.2700
 1
3
 0
LINE
 8
PARTS
 10
205.7400
 20
225.8060
 30
0.0
 11
205.7400
 21
228.3460
 31
0.0
 0
TEXT
 8
PARTS
 10
204.9780
 20
225.2980
 30
0.0
 40
  1.2700
 50
 90.0000
 1
3
 0
POLYLINE
 8
PARTS
 66
1
 70
1
 10
0.0
 20
0.0
 30
0.0
 0
VERTEX
 8
PARTS
 10
195.5800
 20
229.6160
 30
0.0
 0
VERTEX
 8
PARTS
 10
193.0400
 20
232.1560
 30
0.0
 0
VERTEX
 8
PARTS
 10
198.1200
 20
232.1560
 30
0.0
 0
VERTEX
 8
PARTS
 10
195.5800
 20
229.6160
 30
0.0
 0
SEQEND
 8
PARTS
 0
POLYLINE
 8
PARTS
 66
1
 10
0.0
 20
0.0
 30
0.0
 0
VERTEX
 8
PARTS
 10
203.2000
 20
233.4260
 30
0.0
 0
VERTEX
 8
PARTS
 10
203.2000
 20
228.3460
 30
0.0
 0
SEQEND
 8
PARTS
 0
POLYLINE
 8
PARTS
 66
1
 10
0.0
 20
0.0
 30
0.0
 0
VERTEX
 8
PARTS
 10
205.7400
 20
228.3460
 30
0.0
 0
VERTEX
 8
PARTS
 10
203.2000
 20
230.1240
 30
0.0
 0
SEQEND
 8
PARTS
 0
POLYLINE
 8
PARTS
 66
1
 10
0.0
 20
0.0
 30
0.0
 0
VERTEX
 8
PARTS
 10
203.2000
 20
231.6480
 30
0.0
 0
VERTEX
 8
PARTS
 10
205.7400
 20
233.4260
 30
0.0
 0
SEQEND
 8
PARTS
 0
POLYLINE
 8
PARTS
 66
1
 10
0.0
 20
0.0
 30
0.0
 0
VERTEX
 8
PARTS
 10
195.5800
 20
228.3460
 30
0.0
 0
VERTEX
 8
PARTS
 10
195.5800
 20
229.6160
 30
0.0
 0
SEQEND
 8
PARTS
 0
POLYLINE
 8
PARTS
 66
1
 10
0.0
 20
0.0
 30
0.0
 0
VERTEX
 8
PARTS
 10
198.1200
 20
229.6160
 30
0.0
 0
VERTEX
 8
PARTS
 10
193.0400
 20
229.6160
 30
0.0
 0
SEQEND
 8
PARTS
 0
POLYLINE
 8
PARTS
 66
1
 10
0.0
 20
0.0
 30
0.0
 0
VERTEX
 8
PARTS
 10
195.5800
 20
233.4260
 30
0.0
 0
VERTEX
 8
PARTS
 10
195.5800
 20
232.1560
 30
0.0
 0
SEQEND
 8
PARTS
 0
POLYLINE
 8
PARTS
 66
1
 70
1
 10
0.0
 20
0.0
 30
0.0
 0
VERTEX
 8
PARTS
 10
205.7400
 20
228.3460
 30
0.0
 0
VERTEX
 8
PARTS
 10
204.7240
 20
229.6160
 30
0.0
 0
VERTEX
 8
PARTS
 10
204.2160
 20
228.8540
 30
0.0
 0
VERTEX
 8
PARTS
 10
205.7400
 20
228.3460
 30
0.0
 0
SEQEND
 8
PARTS
 0
POLYLINE
 8
PARTS
 66
1
 10
0.0
 20
0.0
 30
0.0
 0
VERTEX
 8
PARTS
 10
200.6600
 20
229.6160
 30
0.0
 0
VERTEX
 8
PARTS
 10
199.6440
 20
230.6320
 30
0.0
 0
SEQEND
 8
PARTS
 0
POLYLINE
 8
PARTS
 66
1
 10
0.0
 20
0.0
 30
0.0
 0
VERTEX
 8
PARTS
 10
200.6600
 20
230.3780
 30
0.0
 0
VERTEX
 8
PARTS
 10
200.6600
 20
229.6160
 30
0.0
 0
SEQEND
 8
PARTS
 0
POLYLINE
 8
PARTS
 66
1
 10
0.0
 20
0.0
 30
0.0
 0
VERTEX
 8
PARTS
 10
201.6760
 20
229.3620
 30
0.0
 0
VERTEX
 8
PARTS
 10
200.6600
 20
230.3780
 30
0.0
 0
SEQEND
 8
PARTS
 0
POLYLINE
 8
PARTS
 66
1
 10
0.0
 20
0.0
 30
0.0
 0
VERTEX
 8
PARTS
 10
200.6600
 20
231.3940
 30
0.0
 0
VERTEX
 8
PARTS
 10
199.6440
 20
232.4100
 30
0.0
 0
SEQEND
 8
PARTS
 0
POLYLINE
 8
PARTS
 66
1
 10
0.0
 20
0.0
 30
0.0
 0
VERTEX
 8
PARTS
 10
200.6600
 20
232.1560
 30
0.0
 0
VERTEX
 8
PARTS
 10
200.6600
 20
231.3940
 30
0.0
 0
SEQEND
 8
PARTS
 0
POLYLINE
 8
PARTS
 66
1
 10
0.0
 20
0.0
 30
0.0
 0
VERTEX
 8
PARTS
 10
201.6760
 20
231.1400
 30
0.0
 0
VERTEX
 8
PARTS
 10
200.6600
 20
232.1560
 30
0.0
 0
SEQEND
 8
PARTS
 0
POLYLINE
 8
PARTS
 66
1
 70
1
 10
0.0
 20
0.0
 30
0.0
 0
VERTEX
 8
PARTS
 10
202.1840
 20
228.8540
 30
0.0
 0
VERTEX
 8
PARTS
 10
201.4220
 20
230.1240
 30
0.0
 0
VERTEX
 8
PARTS
 10
200.9140
 20
229.6160
 30
0.0
 0
VERTEX
 8
PARTS
 10
202.1840
 20
228.8540
 30
0.0
 0
SEQEND
 8
PARTS
 0
POLYLINE
 8
PARTS
 66
1
 70
1
 10
0.0
 20
0.0
 30
0.0
 0
VERTEX
 8
PARTS
 10
202.1840
 20
230.6320
 30
0.0
 0
VERTEX
 8
PARTS
 10
201.4220
 20
231.9020
 30
0.0
 0
VERTEX
 8
PARTS
 10
200.9140
 20
231.3940
 30
0.0
 0
VERTEX
 8
PARTS
 10
202.1840
 20
230.6320
 30
0.0
 0
SEQEND
 8
PARTS
 0
TEXT
 8
PARTTEXT
 10
302.2600
 20
182.5603
 30
0.0
 40
  1.3057
 1
D31
 0
TEXT
 8
PARTTEXT
 10
302.2600
 20
172.1463
 30
0.0
 40
  1.3057
 1
LED
 0
LINE
 8
PARTS
 10
299.7200
 20
177.5460
 30
0.0
 11
302.2600
 21
177.5460
 31
0.0
 0
LINE
 8
PARTS
 10
314.9600
 20
177.5460
 30
0.0
 11
312.4200
 21
177.5460
 31
0.0
 0
POLYLINE
 8
PARTS
 66
1
 10
0.0
 20
0.0
 30
0.0
 0
VERTEX
 8
PARTS
 10
307.3400
 20
179.3240
 30
0.0
 0
VERTEX
 8
PARTS
 10
307.3400
 20
175.7680
 30
0.0
 0
SEQEND
 8
PARTS
 0
POLYLINE
 8
PARTS
 66
1
 10
0.0
 20
0.0
 30
0.0
 0
VERTEX
 8
PARTS
 10
302.2600
 20
177.5460
 30
0.0
 0
VERTEX
 8
PARTS
 10
304.8000
 20
177.5460
 30
0.0
 0
SEQEND
 8
PARTS
 0
POLYLINE
 8
PARTS
 66
1
 10
0.0
 20
0.0
 30
0.0
 0
VERTEX
 8
PARTS
 10
307.3400
 20
177.5460
 30
0.0
 0
VERTEX
 8
PARTS
 10
312.4200
 20
177.5460
 30
0.0
 0
SEQEND
 8
PARTS
 0
POLYLINE
 8
PARTS
 66
1
 70
1
 10
0.0
 20
0.0
 30
0.0
 0
VERTEX
 8
PARTS
 10
307.3400
 20
177.5460
 30
0.0
 0
VERTEX
 8
PARTS
 10
307.3400
 20
177.5460
 30
0.0
 0
VERTEX
 8
PARTS
 10
304.8000
 20
175.7680
 30
0.0
 0
VERTEX
 8
PARTS
 10
304.8000
 20
179.3240
 30
0.0
 0
VERTEX
 8
PARTS
 10
307.3400
 20
177.5460
 30
0.0
 0
SEQEND
 8
PARTS
 0
POLYLINE
 8
PARTS
 66
1
 70
1
 10
0.0
 20
0.0
 30
0.0
 0
VERTEX
 8
PARTS
 10
310.3880
 20
179.5780
 30
0.0
 0
VERTEX
 8
PARTS
 10
310.3880
 20
179.5780
 30
0.0
 0
VERTEX
 8
PARTS
 10
311.4040
 20
180.0860
 30
0.0
 0
VERTEX
 8
PARTS
 10
310.8960
 20
179.0700
 30
0.0
 0
VERTEX
 8
PARTS
 10
310.3880
 20
179.5780
 30
0.0
 0
SEQEND
 8
PARTS
 0
POLYLINE
 8
PARTS
 66
1
 70
1
 10
0.0
 20
0.0
 30
0.0
 0
VERTEX
 8
PARTS
 10
308.8640
 20
179.5780
 30
0.0
 0
VERTEX
 8
PARTS
 10
308.8640
 20
179.5780
 30
0.0
 0
VERTEX
 8
PARTS
 10
309.8800
 20
180.0860
 30
0.0
 0
VERTEX
 8
PARTS
 10
309.3720
 20
179.0700
 30
0.0
 0
VERTEX
 8
PARTS
 10
308.8640
 20
179.5780
 30
0.0
 0
SEQEND
 8
PARTS
 0
POLYLINE
 8
PARTS
 66
1
 10
0.0
 20
0.0
 30
0.0
 0
VERTEX
 8
PARTS
 10
309.6260
 20
179.8320
 30
0.0
 0
VERTEX
 8
PARTS
 10
308.1020
 20
178.3080
 30
0.0
 0
SEQEND
 8
PARTS
 0
POLYLINE
 8
PARTS
 66
1
 10
0.0
 20
0.0
 30
0.0
 0
VERTEX
 8
PARTS
 10
311.1500
 20
179.8320
 30
0.0
 0
VERTEX
 8
PARTS
 10
309.6260
 20
178.3080
 30
0.0
 0
SEQEND
 8
PARTS
 0
TEXT
 8
PARTTEXT
 10
276.8600
 20
160.9703
 30
0.0
 40
  1.3057
 1
M2DC2
 0
TEXT
 8
PARTTEXT
 10
276.8600
 20
158.4303
 30
0.0
 40
  1.3057
 1
IRF540
 0
LINE
 8
PARTS
 10
281.9400
 20
144.5260
 30
0.0
 11
281.9400
 21
147.0660
 31
0.0
 0
LINE
 8
PARTS
 10
274.3200
 20
149.6060
 30
0.0
 11
276.8600
 21
149.6060
 31
0.0
 0
LINE
 8
PARTS
 10
281.9400
 20
154.6860
 30
0.0
 11
281.9400
 21
152.1460
 31
0.0
 0
POLYLINE
 8
PARTS
 66
1
 10
0.0
 20
0.0
 30
0.0
 0
VERTEX
 8
PARTS
 10
281.9400
 20
149.6060
 30
0.0
 0
VERTEX
 8
PARTS
 10
281.9400
 20
147.0660
 30
0.0
 0
SEQEND
 8
PARTS
 0
POLYLINE
 8
PARTS
 66
1
 10
0.0
 20
0.0
 30
0.0
 0
VERTEX
 8
PARTS
 10
278.1300
 20
152.1460
 30
0.0
 0
VERTEX
 8
PARTS
 10
278.1300
 20
147.0660
 30
0.0
 0
SEQEND
 8
PARTS
 0
POLYLINE
 8
PARTS
 66
1
 10
0.0
 20
0.0
 30
0.0
 0
VERTEX
 8
PARTS
 10
279.4000
 20
147.0660
 30
0.0
 0
VERTEX
 8
PARTS
 10
281.9400
 20
147.0660
 30
0.0
 0
SEQEND
 8
PARTS
 0
POLYLINE
 8
PARTS
 66
1
 10
0.0
 20
0.0
 30
0.0
 0
VERTEX
 8
PARTS
 10
279.4000
 20
152.1460
 30
0.0
 0
VERTEX
 8
PARTS
 10
281.9400
 20
152.1460
 30
0.0
 0
SEQEND
 8
PARTS
 0
POLYLINE
 8
PARTS
 66
1
 10
0.0
 20
0.0
 30
0.0
 0
VERTEX
 8
PARTS
 10
279.4000
 20
149.6060
 30
0.0
 0
VERTEX
 8
PARTS
 10
281.9400
 20
149.6060
 30
0.0
 0
SEQEND
 8
PARTS
 0
POLYLINE
 8
PARTS
 66
1
 10
0.0
 20
0.0
 30
0.0
 0
VERTEX
 8
PARTS
 10
276.8600
 20
149.6060
 30
0.0
 0
VERTEX
 8
PARTS
 10
278.1300
 20
149.6060
 30
0.0
 0
SEQEND
 8
PARTS
 0
POLYLINE
 8
PARTS
 66
1
 10
0.0
 20
0.0
 30
0.0
 0
VERTEX
 8
PARTS
 10
279.4000
 20
152.9080
 30
0.0
 0
VERTEX
 8
PARTS
 10
279.4000
 20
151.3840
 30
0.0
 0
SEQEND
 8
PARTS
 0
POLYLINE
 8
PARTS
 66
1
 10
0.0
 20
0.0
 30
0.0
 0
VERTEX
 8
PARTS
 10
279.4000
 20
150.3680
 30
0.0
 0
VERTEX
 8
PARTS
 10
279.4000
 20
148.8440
 30
0.0
 0
SEQEND
 8
PARTS
 0
POLYLINE
 8
PARTS
 66
1
 10
0.0
 20
0.0
 30
0.0
 0
VERTEX
 8
PARTS
 10
279.4000
 20
147.8280
 30
0.0
 0
VERTEX
 8
PARTS
 10
279.4000
 20
146.3040
 30
0.0
 0
SEQEND
 8
PARTS
 0
POLYLINE
 8
PARTS
 66
1
 10
0.0
 20
0.0
 30
0.0
 0
VERTEX
 8
PARTS
 10
281.6860
 20
149.0980
 30
0.0
 0
VERTEX
 8
PARTS
 10
280.1620
 20
149.6060
 30
0.0
 0
VERTEX
 8
PARTS
 10
281.6860
 20
150.1140
 30
0.0
 0
SEQEND
 8
PARTS
 0
TEXT
 8
PARTTEXT
 10
208.0260
 20
153.3503
 30
0.0
 40
  1.3057
 1
pc817
 0
LINE
 8
PARTS
 10
195.5800
 20
157.2260
 30
0.0
 11
195.5800
 21
154.6860
 31
0.0
 0
TEXT
 8
PARTS
 10
194.8180
 20
156.2100
 30
0.0
 40
  1.2700
 50
 90.0000
 1
1
 0
LINE
 8
PARTS
 10
195.5800
 20
147.0660
 30
0.0
 11
195.5800
 21
149.6060
 31
0.0
 0
TEXT
 8
PARTS
 10
194.8180
 20
146.5580
 30
0.0
 40
  1.2700
 50
 90.0000
 1
2
 0
TEXT
 8
PARTS
 10
207.2640
 20
155.4480
 30
0.0
 40
  1.2700
 1
4
 0
LINE
 8
PARTS
 10
205.7400
 20
157.2260
 30
0.0
 11
205.7400
 21
154.6860
 31
0.0
 0
TEXT
 8
PARTS
 10
204.9780
 20
156.2100
 30
0.0
 40
  1.2700
 50
 90.0000
 1
4
 0
TEXT
 8
PARTS
 10
207.2640
 20
150.3680
 30
0.0
 40
  1.2700
 1
3
 0
LINE
 8
PARTS
 10
205.7400
 20
147.0660
 30
0.0
 11
205.7400
 21
149.6060
 31
0.0
 0
TEXT
 8
PARTS
 10
204.9780
 20
146.5580
 30
0.0
 40
  1.2700
 50
 90.0000
 1
3
 0
POLYLINE
 8
PARTS
 66
1
 70
1
 10
0.0
 20
0.0
 30
0.0
 0
VERTEX
 8
PARTS
 10
195.5800
 20
150.8760
 30
0.0
 0
VERTEX
 8
PARTS
 10
193.0400
 20
153.4160
 30
0.0
 0
VERTEX
 8
PARTS
 10
198.1200
 20
153.4160
 30
0.0
 0
VERTEX
 8
PARTS
 10
195.5800
 20
150.8760
 30
0.0
 0
SEQEND
 8
PARTS
 0
POLYLINE
 8
PARTS
 66
1
 10
0.0
 20
0.0
 30
0.0
 0
VERTEX
 8
PARTS
 10
203.2000
 20
154.6860
 30
0.0
 0
VERTEX
 8
PARTS
 10
203.2000
 20
149.6060
 30
0.0
 0
SEQEND
 8
PARTS
 0
POLYLINE
 8
PARTS
 66
1
 10
0.0
 20
0.0
 30
0.0
 0
VERTEX
 8
PARTS
 10
205.7400
 20
149.6060
 30
0.0
 0
VERTEX
 8
PARTS
 10
203.2000
 20
151.3840
 30
0.0
 0
SEQEND
 8
PARTS
 0
POLYLINE
 8
PARTS
 66
1
 10
0.0
 20
0.0
 30
0.0
 0
VERTEX
 8
PARTS
 10
203.2000
 20
152.9080
 30
0.0
 0
VERTEX
 8
PARTS
 10
205.7400
 20
154.6860
 30
0.0
 0
SEQEND
 8
PARTS
 0
POLYLINE
 8
PARTS
 66
1
 10
0.0
 20
0.0
 30
0.0
 0
VERTEX
 8
PARTS
 10
195.5800
 20
149.6060
 30
0.0
 0
VERTEX
 8
PARTS
 10
195.5800
 20
150.8760
 30
0.0
 0
SEQEND
 8
PARTS
 0
POLYLINE
 8
PARTS
 66
1
 10
0.0
 20
0.0
 30
0.0
 0
VERTEX
 8
PARTS
 10
198.1200
 20
150.8760
 30
0.0
 0
VERTEX
 8
PARTS
 10
193.0400
 20
150.8760
 30
0.0
 0
SEQEND
 8
PARTS
 0
POLYLINE
 8
PARTS
 66
1
 10
0.0
 20
0.0
 30
0.0
 0
VERTEX
 8
PARTS
 10
195.5800
 20
154.6860
 30
0.0
 0
VERTEX
 8
PARTS
 10
195.5800
 20
153.4160
 30
0.0
 0
SEQEND
 8
PARTS
 0
POLYLINE
 8
PARTS
 66
1
 70
1
 10
0.0
 20
0.0
 30
0.0
 0
VERTEX
 8
PARTS
 10
205.7400
 20
149.6060
 30
0.0
 0
VERTEX
 8
PARTS
 10
204.7240
 20
150.8760
 30
0.0
 0
VERTEX
 8
PARTS
 10
204.2160
 20
150.1140
 30
0.0
 0
VERTEX
 8
PARTS
 10
205.7400
 20
149.6060
 30
0.0
 0
SEQEND
 8
PARTS
 0
POLYLINE
 8
PARTS
 66
1
 10
0.0
 20
0.0
 30
0.0
 0
VERTEX
 8
PARTS
 10
200.6600
 20
150.8760
 30
0.0
 0
VERTEX
 8
PARTS
 10
199.6440
 20
151.8920
 30
0.0
 0
SEQEND
 8
PARTS
 0
POLYLINE
 8
PARTS
 66
1
 10
0.0
 20
0.0
 30
0.0
 0
VERTEX
 8
PARTS
 10
200.6600
 20
151.6380
 30
0.0
 0
VERTEX
 8
PARTS
 10
200.6600
 20
150.8760
 30
0.0
 0
SEQEND
 8
PARTS
 0
POLYLINE
 8
PARTS
 66
1
 10
0.0
 20
0.0
 30
0.0
 0
VERTEX
 8
PARTS
 10
201.6760
 20
150.6220
 30
0.0
 0
VERTEX
 8
PARTS
 10
200.6600
 20
151.6380
 30
0.0
 0
SEQEND
 8
PARTS
 0
POLYLINE
 8
PARTS
 66
1
 10
0.0
 20
0.0
 30
0.0
 0
VERTEX
 8
PARTS
 10
200.6600
 20
152.6540
 30
0.0
 0
VERTEX
 8
PARTS
 10
199.6440
 20
153.6700
 30
0.0
 0
SEQEND
 8
PARTS
 0
POLYLINE
 8
PARTS
 66
1
 10
0.0
 20
0.0
 30
0.0
 0
VERTEX
 8
PARTS
 10
200.6600
 20
153.4160
 30
0.0
 0
VERTEX
 8
PARTS
 10
200.6600
 20
152.6540
 30
0.0
 0
SEQEND
 8
PARTS
 0
POLYLINE
 8
PARTS
 66
1
 10
0.0
 20
0.0
 30
0.0
 0
VERTEX
 8
PARTS
 10
201.6760
 20
152.4000
 30
0.0
 0
VERTEX
 8
PARTS
 10
200.6600
 20
153.4160
 30
0.0
 0
SEQEND
 8
PARTS
 0
POLYLINE
 8
PARTS
 66
1
 70
1
 10
0.0
 20
0.0
 30
0.0
 0
VERTEX
 8
PARTS
 10
202.1840
 20
150.1140
 30
0.0
 0
VERTEX
 8
PARTS
 10
201.4220
 20
151.3840
 30
0.0
 0
VERTEX
 8
PARTS
 10
200.9140
 20
150.8760
 30
0.0
 0
VERTEX
 8
PARTS
 10
202.1840
 20
150.1140
 30
0.0
 0
SEQEND
 8
PARTS
 0
POLYLINE
 8
PARTS
 66
1
 70
1
 10
0.0
 20
0.0
 30
0.0
 0
VERTEX
 8
PARTS
 10
202.1840
 20
151.8920
 30
0.0
 0
VERTEX
 8
PARTS
 10
201.4220
 20
153.1620
 30
0.0
 0
VERTEX
 8
PARTS
 10
200.9140
 20
152.6540
 30
0.0
 0
VERTEX
 8
PARTS
 10
202.1840
 20
151.8920
 30
0.0
 0
SEQEND
 8
PARTS
 0
TEXT
 8
PARTTEXT
 10
213.3600
 20
230.8203
 30
0.0
 40
  1.3057
 1
R32
 0
TEXT
 8
PARTTEXT
 10
213.3600
 20
220.4063
 30
0.0
 40
  1.3057
 1
330 2W
 0
LINE
 8
PARTS
 10
210.8200
 20
225.8060
 30
0.0
 11
213.3600
 21
225.8060
 31
0.0
 0
LINE
 8
PARTS
 10
220.9800
 20
225.8060
 30
0.0
 11
218.4400
 21
225.8060
 31
0.0
 0
POLYLINE
 8
PARTS
 66
1
 10
0.0
 20
0.0
 30
0.0
 0
VERTEX
 8
PARTS
 10
218.1860
 20
225.8060
 30
0.0
 0
VERTEX
 8
PARTS
 10
217.6780
 20
224.7900
 30
0.0
 0
SEQEND
 8
PARTS
 0
POLYLINE
 8
PARTS
 66
1
 10
0.0
 20
0.0
 30
0.0
 0
VERTEX
 8
PARTS
 10
217.6780
 20
224.7900
 30
0.0
 0
VERTEX
 8
PARTS
 10
216.9160
 20
226.8220
 30
0.0
 0
SEQEND
 8
PARTS
 0
POLYLINE
 8
PARTS
 66
1
 10
0.0
 20
0.0
 30
0.0
 0
VERTEX
 8
PARTS
 10
216.9160
 20
226.8220
 30
0.0
 0
VERTEX
 8
PARTS
 10
216.1540
 20
224.7900
 30
0.0
 0
SEQEND
 8
PARTS
 0
POLYLINE
 8
PARTS
 66
1
 10
0.0
 20
0.0
 30
0.0
 0
VERTEX
 8
PARTS
 10
216.1540
 20
224.7900
 30
0.0
 0
VERTEX
 8
PARTS
 10
215.3920
 20
226.8220
 30
0.0
 0
SEQEND
 8
PARTS
 0
POLYLINE
 8
PARTS
 66
1
 10
0.0
 20
0.0
 30
0.0
 0
VERTEX
 8
PARTS
 10
215.3920
 20
226.8220
 30
0.0
 0
VERTEX
 8
PARTS
 10
214.6300
 20
224.7900
 30
0.0
 0
SEQEND
 8
PARTS
 0
POLYLINE
 8
PARTS
 66
1
 10
0.0
 20
0.0
 30
0.0
 0
VERTEX
 8
PARTS
 10
214.6300
 20
224.7900
 30
0.0
 0
VERTEX
 8
PARTS
 10
213.8680
 20
226.8220
 30
0.0
 0
SEQEND
 8
PARTS
 0
POLYLINE
 8
PARTS
 66
1
 10
0.0
 20
0.0
 30
0.0
 0
VERTEX
 8
PARTS
 10
213.8680
 20
226.8220
 30
0.0
 0
VERTEX
 8
PARTS
 10
213.3600
 20
225.8060
 30
0.0
 0
SEQEND
 8
PARTS
 0
POLYLINE
 8
PARTS
 66
1
 10
0.0
 20
0.0
 30
0.0
 0
VERTEX
 8
PARTS
 10
218.4400
 20
225.8060
 30
0.0
 0
VERTEX
 8
PARTS
 10
218.1860
 20
225.8060
 30
0.0
 0
SEQEND
 8
PARTS
 0
TEXT
 8
PARTTEXT
 10
361.9500
 20
232.0903
 30
0.0
 40
  1.3057
 1
C8
 0
TEXT
 8
PARTTEXT
 10
363.2200
 20
229.5503
 30
0.0
 40
  1.3057
 1
104
 0
LINE
 8
PARTS
 10
358.1400
 20
228.3460
 30
0.0
 11
358.1400
 21
230.8860
 31
0.0
 0
LINE
 8
PARTS
 10
358.1400
 20
235.9660
 30
0.0
 11
358.1400
 21
233.4260
 31
0.0
 0
POLYLINE
 8
PARTS
 66
1
 10
0.0
 20
0.0
 30
0.0
 0
VERTEX
 8
PARTS
 10
356.8700
 20
231.6480
 30
0.0
 0
VERTEX
 8
PARTS
 10
359.4100
 20
231.6480
 30
0.0
 0
SEQEND
 8
PARTS
 0
POLYLINE
 8
PARTS
 66
1
 10
0.0
 20
0.0
 30
0.0
 0
VERTEX
 8
PARTS
 10
356.8700
 20
232.6640
 30
0.0
 0
VERTEX
 8
PARTS
 10
359.4100
 20
232.6640
 30
0.0
 0
SEQEND
 8
PARTS
 0
POLYLINE
 8
PARTS
 66
1
 10
0.0
 20
0.0
 30
0.0
 0
VERTEX
 8
PARTS
 10
358.1400
 20
232.6640
 30
0.0
 0
VERTEX
 8
PARTS
 10
358.1400
 20
233.4260
 30
0.0
 0
SEQEND
 8
PARTS
 0
POLYLINE
 8
PARTS
 66
1
 10
0.0
 20
0.0
 30
0.0
 0
VERTEX
 8
PARTS
 10
358.1400
 20
230.8860
 30
0.0
 0
VERTEX
 8
PARTS
 10
358.1400
 20
231.6480
 30
0.0
 0
SEQEND
 8
PARTS
 0
TEXT
 8
PARTTEXT
 10
248.9200
 20
237.1703
 30
0.0
 40
  1.3057
 1
Q7
 0
TEXT
 8
PARTTEXT
 10
248.9200
 20
234.6303
 30
0.0
 40
  1.3057
 1
c1815
 0
LINE
 8
PARTS
 10
243.8400
 20
233.4260
 30
0.0
 11
246.3800
 21
233.4260
 31
0.0
 0
LINE
 8
PARTS
 10
248.9200
 20
238.5060
 30
0.0
 11
248.9200
 21
235.9660
 31
0.0
 0
LINE
 8
PARTS
 10
248.9200
 20
228.3460
 30
0.0
 11
248.9200
 21
230.8860
 31
0.0
 0
POLYLINE
 8
PARTS
 66
1
 10
0.0
 20
0.0
 30
0.0
 0
VERTEX
 8
PARTS
 10
248.9200
 20
235.9660
 30
0.0
 0
VERTEX
 8
PARTS
 10
246.3800
 20
234.6960
 30
0.0
 0
SEQEND
 8
PARTS
 0
POLYLINE
 8
PARTS
 66
1
 10
0.0
 20
0.0
 30
0.0
 0
VERTEX
 8
PARTS
 10
248.9200
 20
230.8860
 30
0.0
 0
VERTEX
 8
PARTS
 10
246.3800
 20
232.1560
 30
0.0
 0
SEQEND
 8
PARTS
 0
POLYLINE
 8
PARTS
 66
1
 10
0.0
 20
0.0
 30
0.0
 0
VERTEX
 8
PARTS
 10
246.6340
 20
231.3940
 30
0.0
 0
VERTEX
 8
PARTS
 10
248.4120
 20
231.1400
 30
0.0
 0
VERTEX
 8
PARTS
 10
247.1420
 20
232.4100
 30
0.0
 0
SEQEND
 8
PARTS
 0
POLYLINE
 8
PARTS
 66
1
 10
0.0
 20
0.0
 30
0.0
 0
VERTEX
 8
PARTS
 10
246.3800
 20
235.9660
 30
0.0
 0
VERTEX
 8
PARTS
 10
246.3800
 20
230.8860
 30
0.0
 0
SEQEND
 8
PARTS
 0
TEXT
 8
PARTTEXT
 10
323.5960
 20
248.6003
 30
0.0
 40
  1.3057
 1
LS9
 0
CIRCLE
 8
PARTS
 10
321.8180
 20
228.3460
 30
0.0
 40
  0.7620
 0
LINE
 8
PARTS
 10
314.9600
 20
228.3460
 30
0.0
 11
321.0560
 21
228.3460
 31
0.0
 0
TEXT
 8
PARTS
 10
320.0400
 20
229.1080
 30
0.0
 40
  1.2700
 1
4
 0
LINE
 8
PARTS
 10
335.2800
 20
225.8060
 30
0.0
 11
327.6600
 21
225.8060
 31
0.0
 0
TEXT
 8
PARTS
 10
329.1840
 20
226.5680
 30
0.0
 40
  1.2700
 1
6
 0
LINE
 8
PARTS
 10
335.2800
 20
230.8860
 30
0.0
 11
327.6600
 21
230.8860
 31
0.0
 0
TEXT
 8
PARTS
 10
329.1840
 20
231.6480
 30
0.0
 40
  1.2700
 1
8
 0
CIRCLE
 8
PARTS
 10
321.8180
 20
235.9660
 30
0.0
 40
  0.7620
 0
LINE
 8
PARTS
 10
314.9600
 20
235.9660
 30
0.0
 11
321.0560
 21
235.9660
 31
0.0
 0
TEXT
 8
PARTS
 10
319.0240
 20
236.7280
 30
0.0
 40
  1.2700
 1
13
 0
LINE
 8
PARTS
 10
335.2800
 20
233.4260
 30
0.0
 11
327.6600
 21
233.4260
 31
0.0
 0
TEXT
 8
PARTS
 10
329.1840
 20
234.1880
 30
0.0
 40
  1.2700
 1
11
 0
LINE
 8
PARTS
 10
335.2800
 20
238.5060
 30
0.0
 11
327.6600
 21
238.5060
 31
0.0
 0
TEXT
 8
PARTS
 10
329.1840
 20
239.2680
 30
0.0
 40
  1.2700
 1
9
 0
LINE
 8
PARTS
 10
314.9600
 20
241.0460
 30
0.0
 11
322.5800
 21
241.0460
 31
0.0
 0
TEXT
 8
PARTS
 10
320.0400
 20
241.8080
 30
0.0
 40
  1.2700
 1
1
 0
LINE
 8
PARTS
 10
314.9600
 20
243.5860
 30
0.0
 11
322.5800
 21
243.5860
 31
0.0
 0
TEXT
 8
PARTS
 10
319.0240
 20
244.3480
 30
0.0
 40
  1.2700
 1
16
 0
POLYLINE
 8
PARTS
 66
1
 70
1
 10
0.0
 20
0.0
 30
0.0
 0
VERTEX
 8
PARTS
 10
326.3900
 20
229.1080
 30
0.0
 0
VERTEX
 8
PARTS
 10
327.4060
 20
230.1240
 30
0.0
 0
VERTEX
 8
PARTS
 10
325.3740
 20
230.1240
 30
0.0
 0
VERTEX
 8
PARTS
 10
326.3900
 20
229.1080
 30
0.0
 0
SEQEND
 8
PARTS
 0
POLYLINE
 8
PARTS
 66
1
 70
1
 10
0.0
 20
0.0
 30
0.0
 0
VERTEX
 8
PARTS
 10
326.3900
 20
228.3460
 30
0.0
 0
VERTEX
 8
PARTS
 10
327.4060
 20
227.3300
 30
0.0
 0
VERTEX
 8
PARTS
 10
325.3740
 20
227.3300
 30
0.0
 0
VERTEX
 8
PARTS
 10
326.3900
 20
228.3460
 30
0.0
 0
SEQEND
 8
PARTS
 0
POLYLINE
 8
PARTS
 66
1
 10
0.0
 20
0.0
 30
0.0
 0
VERTEX
 8
PARTS
 10
322.5800
 20
228.3460
 30
0.0
 0
VERTEX
 8
PARTS
 10
327.6600
 20
228.3460
 30
0.0
 0
SEQEND
 8
PARTS
 0
POLYLINE
 8
PARTS
 66
1
 10
0.0
 20
0.0
 30
0.0
 0
VERTEX
 8
PARTS
 10
326.3900
 20
227.3300
 30
0.0
 0
VERTEX
 8
PARTS
 10
326.3900
 20
225.8060
 30
0.0
 0
SEQEND
 8
PARTS
 0
POLYLINE
 8
PARTS
 66
1
 10
0.0
 20
0.0
 30
0.0
 0
VERTEX
 8
PARTS
 10
326.3900
 20
225.8060
 30
0.0
 0
VERTEX
 8
PARTS
 10
327.6600
 20
225.8060
 30
0.0
 0
SEQEND
 8
PARTS
 0
POLYLINE
 8
PARTS
 66
1
 10
0.0
 20
0.0
 30
0.0
 0
VERTEX
 8
PARTS
 10
326.3900
 20
230.1240
 30
0.0
 0
VERTEX
 8
PARTS
 10
326.3900
 20
230.8860
 30
0.0
 0
SEQEND
 8
PARTS
 0
POLYLINE
 8
PARTS
 66
1
 10
0.0
 20
0.0
 30
0.0
 0
VERTEX
 8
PARTS
 10
326.3900
 20
230.8860
 30
0.0
 0
VERTEX
 8
PARTS
 10
327.6600
 20
230.8860
 30
0.0
 0
SEQEND
 8
PARTS
 0
POLYLINE
 8
PARTS
 66
1
 10
0.0
 20
0.0
 30
0.0
 0
VERTEX
 8
PARTS
 10
323.8500
 20
239.7760
 30
0.0
 0
VERTEX
 8
PARTS
 10
323.8500
 20
244.8560
 30
0.0
 0
SEQEND
 8
PARTS
 0
POLYLINE
 8
PARTS
 66
1
 10
0.0
 20
0.0
 30
0.0
 0
VERTEX
 8
PARTS
 10
323.8500
 20
244.8560
 30
0.0
 0
VERTEX
 8
PARTS
 10
325.1200
 20
244.8560
 30
0.0
 0
SEQEND
 8
PARTS
 0
POLYLINE
 8
PARTS
 66
1
 10
0.0
 20
0.0
 30
0.0
 0
VERTEX
 8
PARTS
 10
325.1200
 20
244.8560
 30
0.0
 0
VERTEX
 8
PARTS
 10
325.1200
 20
239.7760
 30
0.0
 0
SEQEND
 8
PARTS
 0
POLYLINE
 8
PARTS
 66
1
 10
0.0
 20
0.0
 30
0.0
 0
VERTEX
 8
PARTS
 10
325.1200
 20
239.7760
 30
0.0
 0
VERTEX
 8
PARTS
 10
323.8500
 20
239.7760
 30
0.0
 0
SEQEND
 8
PARTS
 0
POLYLINE
 8
PARTS
 66
1
 10
0.0
 20
0.0
 30
0.0
 0
VERTEX
 8
PARTS
 10
322.5800
 20
241.0460
 30
0.0
 0
VERTEX
 8
PARTS
 10
325.6280
 20
241.0460
 30
0.0
 0
SEQEND
 8
PARTS
 0
POLYLINE
 8
PARTS
 66
1
 10
0.0
 20
0.0
 30
0.0
 0
VERTEX
 8
PARTS
 10
325.6280
 20
242.0620
 30
0.0
 0
VERTEX
 8
PARTS
 10
325.1200
 20
242.0620
 30
0.0
 0
SEQEND
 8
PARTS
 0
POLYLINE
 8
PARTS
 66
1
 10
0.0
 20
0.0
 30
0.0
 0
VERTEX
 8
PARTS
 10
323.8500
 20
242.0620
 30
0.0
 0
VERTEX
 8
PARTS
 10
323.3420
 20
242.0620
 30
0.0
 0
SEQEND
 8
PARTS
 0
POLYLINE
 8
PARTS
 66
1
 10
0.0
 20
0.0
 30
0.0
 0
VERTEX
 8
PARTS
 10
323.3420
 20
243.0780
 30
0.0
 0
VERTEX
 8
PARTS
 10
325.6280
 20
243.0780
 30
0.0
 0
SEQEND
 8
PARTS
 0
POLYLINE
 8
PARTS
 66
1
 10
0.0
 20
0.0
 30
0.0
 0
VERTEX
 8
PARTS
 10
325.6280
 20
244.0940
 30
0.0
 0
VERTEX
 8
PARTS
 10
325.1200
 20
244.0940
 30
0.0
 0
SEQEND
 8
PARTS
 0
POLYLINE
 8
PARTS
 66
1
 10
0.0
 20
0.0
 30
0.0
 0
VERTEX
 8
PARTS
 10
323.5960
 20
244.0940
 30
0.0
 0
VERTEX
 8
PARTS
 10
323.8500
 20
244.0940
 30
0.0
 0
SEQEND
 8
PARTS
 0
POLYLINE
 8
PARTS
 66
1
 10
0.0
 20
0.0
 30
0.0
 0
VERTEX
 8
PARTS
 10
325.6280
 20
241.0460
 30
0.0
 42
  0.4142
 0
VERTEX
 8
PARTS
 10
326.1360
 20
241.5540
 30
0.0
 0
SEQEND
 8
PARTS
 0
POLYLINE
 8
PARTS
 66
1
 10
0.0
 20
0.0
 30
0.0
 0
VERTEX
 8
PARTS
 10
326.1360
 20
241.5540
 30
0.0
 42
  0.4142
 0
VERTEX
 8
PARTS
 10
325.6280
 20
242.0620
 30
0.0
 0
SEQEND
 8
PARTS
 0
POLYLINE
 8
PARTS
 66
1
 10
0.0
 20
0.0
 30
0.0
 0
VERTEX
 8
PARTS
 10
322.8340
 20
242.5700
 30
0.0
 42
  0.4142
 0
VERTEX
 8
PARTS
 10
323.3420
 20
242.0620
 30
0.0
 0
SEQEND
 8
PARTS
 0
POLYLINE
 8
PARTS
 66
1
 10
0.0
 20
0.0
 30
0.0
 0
VERTEX
 8
PARTS
 10
323.3420
 20
243.0780
 30
0.0
 42
  0.4142
 0
VERTEX
 8
PARTS
 10
322.8340
 20
242.5700
 30
0.0
 0
SEQEND
 8
PARTS
 0
POLYLINE
 8
PARTS
 66
1
 10
0.0
 20
0.0
 30
0.0
 0
VERTEX
 8
PARTS
 10
325.6280
 20
243.0780
 30
0.0
 42
  0.4142
 0
VERTEX
 8
PARTS
 10
326.1360
 20
243.5860
 30
0.0
 0
SEQEND
 8
PARTS
 0
POLYLINE
 8
PARTS
 66
1
 10
0.0
 20
0.0
 30
0.0
 0
VERTEX
 8
PARTS
 10
326.1360
 20
243.5860
 30
0.0
 42
  0.4142
 0
VERTEX
 8
PARTS
 10
325.6280
 20
244.0940
 30
0.0
 0
SEQEND
 8
PARTS
 0
POLYLINE
 8
PARTS
 66
1
 10
0.0
 20
0.0
 30
0.0
 0
VERTEX
 8
PARTS
 10
322.5800
 20
243.5860
 30
0.0
 42
  0.2841
 0
VERTEX
 8
PARTS
 10
323.0880
 20
243.8400
 30
0.0
 0
SEQEND
 8
PARTS
 0
POLYLINE
 8
PARTS
 66
1
 10
0.0
 20
0.0
 30
0.0
 0
VERTEX
 8
PARTS
 10
323.5960
 20
244.0940
 30
0.0
 42
  0.2841
 0
VERTEX
 8
PARTS
 10
323.0880
 20
243.8400
 30
0.0
 0
SEQEND
 8
PARTS
 0
POLYLINE
 8
PARTS
 66
1
 70
1
 10
0.0
 20
0.0
 30
0.0
 0
VERTEX
 8
PARTS
 10
326.3900
 20
235.9660
 30
0.0
 0
VERTEX
 8
PARTS
 10
327.4060
 20
234.9500
 30
0.0
 0
VERTEX
 8
PARTS
 10
325.3740
 20
234.9500
 30
0.0
 0
VERTEX
 8
PARTS
 10
326.3900
 20
235.9660
 30
0.0
 0
SEQEND
 8
PARTS
 0
POLYLINE
 8
PARTS
 66
1
 70
1
 10
0.0
 20
0.0
 30
0.0
 0
VERTEX
 8
PARTS
 10
326.3900
 20
236.7280
 30
0.0
 0
VERTEX
 8
PARTS
 10
327.4060
 20
237.7440
 30
0.0
 0
VERTEX
 8
PARTS
 10
325.3740
 20
237.7440
 30
0.0
 0
VERTEX
 8
PARTS
 10
326.3900
 20
236.7280
 30
0.0
 0
SEQEND
 8
PARTS
 0
POLYLINE
 8
PARTS
 66
1
 10
0.0
 20
0.0
 30
0.0
 0
VERTEX
 8
PARTS
 10
326.3900
 20
238.5060
 30
0.0
 0
VERTEX
 8
PARTS
 10
327.6600
 20
238.5060
 30
0.0
 0
SEQEND
 8
PARTS
 0
POLYLINE
 8
PARTS
 66
1
 10
0.0
 20
0.0
 30
0.0
 0
VERTEX
 8
PARTS
 10
326.3900
 20
237.7440
 30
0.0
 0
VERTEX
 8
PARTS
 10
326.3900
 20
238.5060
 30
0.0
 0
SEQEND
 8
PARTS
 0
POLYLINE
 8
PARTS
 66
1
 10
0.0
 20
0.0
 30
0.0
 0
VERTEX
 8
PARTS
 10
326.3900
 20
233.4260
 30
0.0
 0
VERTEX
 8
PARTS
 10
327.6600
 20
233.4260
 30
0.0
 0
SEQEND
 8
PARTS
 0
POLYLINE
 8
PARTS
 66
1
 10
0.0
 20
0.0
 30
0.0
 0
VERTEX
 8
PARTS
 10
326.3900
 20
234.9500
 30
0.0
 0
VERTEX
 8
PARTS
 10
326.3900
 20
233.4260
 30
0.0
 0
SEQEND
 8
PARTS
 0
POLYLINE
 8
PARTS
 66
1
 10
0.0
 20
0.0
 30
0.0
 0
VERTEX
 8
PARTS
 10
322.5800
 20
235.9660
 30
0.0
 0
VERTEX
 8
PARTS
 10
327.6600
 20
235.9660
 30
0.0
 0
SEQEND
 8
PARTS
 0
POLYLINE
 8
PARTS
 66
1
 10
0.0
 20
0.0
 30
0.0
 0
VERTEX
 8
PARTS
 10
323.8500
 20
228.3460
 30
0.0
 0
VERTEX
 8
PARTS
 10
323.8500
 20
235.9660
 30
0.0
 0
SEQEND
 8
PARTS
 0
TEXT
 8
PARTTEXT
 10
284.4800
 20
182.5603
 30
0.0
 40
  1.3057
 1
R90
 0
TEXT
 8
PARTTEXT
 10
284.4800
 20
172.1463
 30
0.0
 40
  1.3057
 1
2.2k
 0
LINE
 8
PARTS
 10
294.6400
 20
177.5460
 30
0.0
 11
292.1000
 21
177.5460
 31
0.0
 0
LINE
 8
PARTS
 10
281.9400
 20
177.5460
 30
0.0
 11
284.4800
 21
177.5460
 31
0.0
 0
POLYLINE
 8
PARTS
 66
1
 10
0.0
 20
0.0
 30
0.0
 0
VERTEX
 8
PARTS
 10
292.1000
 20
177.5460
 30
0.0
 0
VERTEX
 8
PARTS
 10
291.3380
 20
176.7840
 30
0.0
 0
SEQEND
 8
PARTS
 0
POLYLINE
 8
PARTS
 66
1
 10
0.0
 20
0.0
 30
0.0
 0
VERTEX
 8
PARTS
 10
291.3380
 20
176.7840
 30
0.0
 0
VERTEX
 8
PARTS
 10
289.8140
 20
178.3080
 30
0.0
 0
SEQEND
 8
PARTS
 0
POLYLINE
 8
PARTS
 66
1
 10
0.0
 20
0.0
 30
0.0
 0
VERTEX
 8
PARTS
 10
289.8140
 20
178.3080
 30
0.0
 0
VERTEX
 8
PARTS
 10
288.2900
 20
176.7840
 30
0.0
 0
SEQEND
 8
PARTS
 0
POLYLINE
 8
PARTS
 66
1
 10
0.0
 20
0.0
 30
0.0
 0
VERTEX
 8
PARTS
 10
288.2900
 20
176.7840
 30
0.0
 0
VERTEX
 8
PARTS
 10
286.7660
 20
178.3080
 30
0.0
 0
SEQEND
 8
PARTS
 0
POLYLINE
 8
PARTS
 66
1
 10
0.0
 20
0.0
 30
0.0
 0
VERTEX
 8
PARTS
 10
286.7660
 20
178.3080
 30
0.0
 0
VERTEX
 8
PARTS
 10
285.2420
 20
176.7840
 30
0.0
 0
SEQEND
 8
PARTS
 0
POLYLINE
 8
PARTS
 66
1
 10
0.0
 20
0.0
 30
0.0
 0
VERTEX
 8
PARTS
 10
285.2420
 20
176.7840
 30
0.0
 0
VERTEX
 8
PARTS
 10
284.4800
 20
177.5460
 30
0.0
 0
SEQEND
 8
PARTS
 0
TEXT
 8
PARTTEXT
 10
101.6000
 20
195.2603
 30
0.0
 40
  1.3057
 1
R57
 0
TEXT
 8
PARTTEXT
 10
101.6000
 20
184.8463
 30
0.0
 40
  1.3057
 1
10k
 0
LINE
 8
PARTS
 10
 99.0600
 20
190.2460
 30
0.0
 11
101.6000
 21
190.2460
 31
0.0
 0
LINE
 8
PARTS
 10
109.2200
 20
190.2460
 30
0.0
 11
106.6800
 21
190.2460
 31
0.0
 0
POLYLINE
 8
PARTS
 66
1
 10
0.0
 20
0.0
 30
0.0
 0
VERTEX
 8
PARTS
 10
106.4260
 20
190.2460
 30
0.0
 0
VERTEX
 8
PARTS
 10
105.9180
 20
189.2300
 30
0.0
 0
SEQEND
 8
PARTS
 0
POLYLINE
 8
PARTS
 66
1
 10
0.0
 20
0.0
 30
0.0
 0
VERTEX
 8
PARTS
 10
105.9180
 20
189.2300
 30
0.0
 0
VERTEX
 8
PARTS
 10
105.1560
 20
191.2620
 30
0.0
 0
SEQEND
 8
PARTS
 0
POLYLINE
 8
PARTS
 66
1
 10
0.0
 20
0.0
 30
0.0
 0
VERTEX
 8
PARTS
 10
105.1560
 20
191.2620
 30
0.0
 0
VERTEX
 8
PARTS
 10
104.3940
 20
189.2300
 30
0.0
 0
SEQEND
 8
PARTS
 0
POLYLINE
 8
PARTS
 66
1
 10
0.0
 20
0.0
 30
0.0
 0
VERTEX
 8
PARTS
 10
104.3940
 20
189.2300
 30
0.0
 0
VERTEX
 8
PARTS
 10
103.6320
 20
191.2620
 30
0.0
 0
SEQEND
 8
PARTS
 0
POLYLINE
 8
PARTS
 66
1
 10
0.0
 20
0.0
 30
0.0
 0
VERTEX
 8
PARTS
 10
103.6320
 20
191.2620
 30
0.0
 0
VERTEX
 8
PARTS
 10
102.8700
 20
189.2300
 30
0.0
 0
SEQEND
 8
PARTS
 0
POLYLINE
 8
PARTS
 66
1
 10
0.0
 20
0.0
 30
0.0
 0
VERTEX
 8
PARTS
 10
102.8700
 20
189.2300
 30
0.0
 0
VERTEX
 8
PARTS
 10
102.1080
 20
191.2620
 30
0.0
 0
SEQEND
 8
PARTS
 0
POLYLINE
 8
PARTS
 66
1
 10
0.0
 20
0.0
 30
0.0
 0
VERTEX
 8
PARTS
 10
102.1080
 20
191.2620
 30
0.0
 0
VERTEX
 8
PARTS
 10
101.6000
 20
190.2460
 30
0.0
 0
SEQEND
 8
PARTS
 0
POLYLINE
 8
PARTS
 66
1
 10
0.0
 20
0.0
 30
0.0
 0
VERTEX
 8
PARTS
 10
106.6800
 20
190.2460
 30
0.0
 0
VERTEX
 8
PARTS
 10
106.4260
 20
190.2460
 30
0.0
 0
SEQEND
 8
PARTS
 0
TEXT
 8
PARTTEXT
 10
111.5060
 20
242.2503
 30
0.0
 40
  1.3057
 1
pc820
 0
LINE
 8
PARTS
 10
 99.0600
 20
246.1260
 30
0.0
 11
 99.0600
 21
243.5860
 31
0.0
 0
TEXT
 8
PARTS
 10
 98.2980
 20
245.1100
 30
0.0
 40
  1.2700
 50
 90.0000
 1
1
 0
LINE
 8
PARTS
 10
 99.0600
 20
235.9660
 30
0.0
 11
 99.0600
 21
238.5060
 31
0.0
 0
TEXT
 8
PARTS
 10
 98.2980
 20
235.4580
 30
0.0
 40
  1.2700
 50
 90.0000
 1
2
 0
TEXT
 8
PARTS
 10
110.7440
 20
244.3480
 30
0.0
 40
  1.2700
 1
4
 0
LINE
 8
PARTS
 10
109.2200
 20
246.1260
 30
0.0
 11
109.2200
 21
243.5860
 31
0.0
 0
TEXT
 8
PARTS
 10
108.4580
 20
245.1100
 30
0.0
 40
  1.2700
 50
 90.0000
 1
4
 0
TEXT
 8
PARTS
 10
110.7440
 20
239.2680
 30
0.0
 40
  1.2700
 1
3
 0
LINE
 8
PARTS
 10
109.2200
 20
235.9660
 30
0.0
 11
109.2200
 21
238.5060
 31
0.0
 0
TEXT
 8
PARTS
 10
108.4580
 20
235.4580
 30
0.0
 40
  1.2700
 50
 90.0000
 1
3
 0
POLYLINE
 8
PARTS
 66
1
 70
1
 10
0.0
 20
0.0
 30
0.0
 0
VERTEX
 8
PARTS
 10
 99.0600
 20
239.7760
 30
0.0
 0
VERTEX
 8
PARTS
 10
 96.5200
 20
242.3160
 30
0.0
 0
VERTEX
 8
PARTS
 10
101.6000
 20
242.3160
 30
0.0
 0
VERTEX
 8
PARTS
 10
 99.0600
 20
239.7760
 30
0.0
 0
SEQEND
 8
PARTS
 0
POLYLINE
 8
PARTS
 66
1
 10
0.0
 20
0.0
 30
0.0
 0
VERTEX
 8
PARTS
 10
106.6800
 20
243.5860
 30
0.0
 0
VERTEX
 8
PARTS
 10
106.6800
 20
238.5060
 30
0.0
 0
SEQEND
 8
PARTS
 0
POLYLINE
 8
PARTS
 66
1
 10
0.0
 20
0.0
 30
0.0
 0
VERTEX
 8
PARTS
 10
109.2200
 20
238.5060
 30
0.0
 0
VERTEX
 8
PARTS
 10
106.6800
 20
240.2840
 30
0.0
 0
SEQEND
 8
PARTS
 0
POLYLINE
 8
PARTS
 66
1
 10
0.0
 20
0.0
 30
0.0
 0
VERTEX
 8
PARTS
 10
106.6800
 20
241.8080
 30
0.0
 0
VERTEX
 8
PARTS
 10
109.2200
 20
243.5860
 30
0.0
 0
SEQEND
 8
PARTS
 0
POLYLINE
 8
PARTS
 66
1
 10
0.0
 20
0.0
 30
0.0
 0
VERTEX
 8
PARTS
 10
 99.0600
 20
238.5060
 30
0.0
 0
VERTEX
 8
PARTS
 10
 99.0600
 20
239.7760
 30
0.0
 0
SEQEND
 8
PARTS
 0
POLYLINE
 8
PARTS
 66
1
 10
0.0
 20
0.0
 30
0.0
 0
VERTEX
 8
PARTS
 10
101.6000
 20
239.7760
 30
0.0
 0
VERTEX
 8
PARTS
 10
 96.5200
 20
239.7760
 30
0.0
 0
SEQEND
 8
PARTS
 0
POLYLINE
 8
PARTS
 66
1
 10
0.0
 20
0.0
 30
0.0
 0
VERTEX
 8
PARTS
 10
 99.0600
 20
243.5860
 30
0.0
 0
VERTEX
 8
PARTS
 10
 99.0600
 20
242.3160
 30
0.0
 0
SEQEND
 8
PARTS
 0
POLYLINE
 8
PARTS
 66
1
 70
1
 10
0.0
 20
0.0
 30
0.0
 0
VERTEX
 8
PARTS
 10
109.2200
 20
238.5060
 30
0.0
 0
VERTEX
 8
PARTS
 10
108.2040
 20
239.7760
 30
0.0
 0
VERTEX
 8
PARTS
 10
107.6960
 20
239.0140
 30
0.0
 0
VERTEX
 8
PARTS
 10
109.2200
 20
238.5060
 30
0.0
 0
SEQEND
 8
PARTS
 0
POLYLINE
 8
PARTS
 66
1
 10
0.0
 20
0.0
 30
0.0
 0
VERTEX
 8
PARTS
 10
104.1400
 20
239.7760
 30
0.0
 0
VERTEX
 8
PARTS
 10
103.1240
 20
240.7920
 30
0.0
 0
SEQEND
 8
PARTS
 0
POLYLINE
 8
PARTS
 66
1
 10
0.0
 20
0.0
 30
0.0
 0
VERTEX
 8
PARTS
 10
104.1400
 20
240.5380
 30
0.0
 0
VERTEX
 8
PARTS
 10
104.1400
 20
239.7760
 30
0.0
 0
SEQEND
 8
PARTS
 0
POLYLINE
 8
PARTS
 66
1
 10
0.0
 20
0.0
 30
0.0
 0
VERTEX
 8
PARTS
 10
105.1560
 20
239.5220
 30
0.0
 0
VERTEX
 8
PARTS
 10
104.1400
 20
240.5380
 30
0.0
 0
SEQEND
 8
PARTS
 0
POLYLINE
 8
PARTS
 66
1
 10
0.0
 20
0.0
 30
0.0
 0
VERTEX
 8
PARTS
 10
104.1400
 20
241.5540
 30
0.0
 0
VERTEX
 8
PARTS
 10
103.1240
 20
242.5700
 30
0.0
 0
SEQEND
 8
PARTS
 0
POLYLINE
 8
PARTS
 66
1
 10
0.0
 20
0.0
 30
0.0
 0
VERTEX
 8
PARTS
 10
104.1400
 20
242.3160
 30
0.0
 0
VERTEX
 8
PARTS
 10
104.1400
 20
241.5540
 30
0.0
 0
SEQEND
 8
PARTS
 0
POLYLINE
 8
PARTS
 66
1
 10
0.0
 20
0.0
 30
0.0
 0
VERTEX
 8
PARTS
 10
105.1560
 20
241.3000
 30
0.0
 0
VERTEX
 8
PARTS
 10
104.1400
 20
242.3160
 30
0.0
 0
SEQEND
 8
PARTS
 0
POLYLINE
 8
PARTS
 66
1
 70
1
 10
0.0
 20
0.0
 30
0.0
 0
VERTEX
 8
PARTS
 10
105.6640
 20
239.0140
 30
0.0
 0
VERTEX
 8
PARTS
 10
104.9020
 20
240.2840
 30
0.0
 0
VERTEX
 8
PARTS
 10
104.3940
 20
239.7760
 30
0.0
 0
VERTEX
 8
PARTS
 10
105.6640
 20
239.0140
 30
0.0
 0
SEQEND
 8
PARTS
 0
POLYLINE
 8
PARTS
 66
1
 70
1
 10
0.0
 20
0.0
 30
0.0
 0
VERTEX
 8
PARTS
 10
105.6640
 20
240.7920
 30
0.0
 0
VERTEX
 8
PARTS
 10
104.9020
 20
242.0620
 30
0.0
 0
VERTEX
 8
PARTS
 10
104.3940
 20
241.5540
 30
0.0
 0
VERTEX
 8
PARTS
 10
105.6640
 20
240.7920
 30
0.0
 0
SEQEND
 8
PARTS
 0
POLYLINE
 8
WIRE
 66
1
 10
0.0
 20
0.0
 30
0.0
 0
VERTEX
 8
WIRE
 10
195.5800
 20
157.2260
 30
0.0
 0
VERTEX
 8
WIRE
 10
172.7200
 20
157.2260
 30
0.0
 0
SEQEND
 8
WIRE
 0
POLYLINE
 8
WIRE
 66
1
 10
0.0
 20
0.0
 30
0.0
 0
VERTEX
 8
WIRE
 10
335.2800
 20
238.5060
 30
0.0
 0
VERTEX
 8
WIRE
 10
342.9000
 20
238.5060
 30
0.0
 0
SEQEND
 8
WIRE
 0
POLYLINE
 8
WIRE
 66
1
 10
0.0
 20
0.0
 30
0.0
 0
VERTEX
 8
WIRE
 10
342.9000
 20
238.5060
 30
0.0
 0
VERTEX
 8
WIRE
 10
342.9000
 20
225.8060
 30
0.0
 0
SEQEND
 8
WIRE
 0
POLYLINE
 8
WIRE
 66
1
 10
0.0
 20
0.0
 30
0.0
 0
VERTEX
 8
WIRE
 10
342.9000
 20
225.8060
 30
0.0
 0
VERTEX
 8
WIRE
 10
358.1400
 20
225.8060
 30
0.0
 0
SEQEND
 8
WIRE
 0
POLYLINE
 8
WIRE
 66
1
 10
0.0
 20
0.0
 30
0.0
 0
VERTEX
 8
WIRE
 10
172.7200
 20
235.9660
 30
0.0
 0
VERTEX
 8
WIRE
 10
195.5800
 20
235.9660
 30
0.0
 0
SEQEND
 8
WIRE
 0
POLYLINE
 8
WIRE
 66
1
 10
0.0
 20
0.0
 30
0.0
 0
VERTEX
 8
WIRE
 10
335.2800
 20
230.8860
 30
0.0
 0
VERTEX
 8
WIRE
 10
337.8200
 20
230.8860
 30
0.0
 0
SEQEND
 8
WIRE
 0
POLYLINE
 8
WIRE
 66
1
 10
0.0
 20
0.0
 30
0.0
 0
VERTEX
 8
WIRE
 10
337.8200
 20
230.8860
 30
0.0
 0
VERTEX
 8
WIRE
 10
337.8200
 20
233.4260
 30
0.0
 0
SEQEND
 8
WIRE
 0
POLYLINE
 8
WIRE
 66
1
 70
1
 10
0.0
 20
0.0
 30
0.0
 40
  0.5080
 41
  0.5080
 0
VERTEX
 8
WIRE
 10
337.5660
 20
233.4260
 30
0.0
 42
1.0
 0
VERTEX
 8
WIRE
 10
338.0740
 20
233.4260
 30
0.0
 42
1.0
 0
SEQEND
 8
WIRE
 0
POLYLINE
 8
WIRE
 66
1
 10
0.0
 20
0.0
 30
0.0
 0
VERTEX
 8
WIRE
 10
337.8200
 20
233.4260
 30
0.0
 0
VERTEX
 8
WIRE
 10
347.9800
 20
233.4260
 30
0.0
 0
SEQEND
 8
WIRE
 0
POLYLINE
 8
WIRE
 66
1
 10
0.0
 20
0.0
 30
0.0
 0
VERTEX
 8
WIRE
 10
342.9000
 20
157.2260
 30
0.0
 0
VERTEX
 8
WIRE
 10
335.2800
 20
157.2260
 30
0.0
 0
SEQEND
 8
WIRE
 0
POLYLINE
 8
WIRE
 66
1
 10
0.0
 20
0.0
 30
0.0
 0
VERTEX
 8
WIRE
 10
342.9000
 20
144.5260
 30
0.0
 0
VERTEX
 8
WIRE
 10
342.9000
 20
157.2260
 30
0.0
 0
SEQEND
 8
WIRE
 0
POLYLINE
 8
WIRE
 66
1
 70
1
 10
0.0
 20
0.0
 30
0.0
 40
  0.5080
 41
  0.5080
 0
VERTEX
 8
WIRE
 10
342.6460
 20
144.5260
 30
0.0
 42
1.0
 0
VERTEX
 8
WIRE
 10
343.1540
 20
144.5260
 30
0.0
 42
1.0
 0
SEQEND
 8
WIRE
 0
POLYLINE
 8
WIRE
 66
1
 10
0.0
 20
0.0
 30
0.0
 0
VERTEX
 8
WIRE
 10
358.1400
 20
144.5260
 30
0.0
 0
VERTEX
 8
WIRE
 10
342.9000
 20
144.5260
 30
0.0
 0
SEQEND
 8
WIRE
 0
POLYLINE
 8
WIRE
 66
1
 10
0.0
 20
0.0
 30
0.0
 0
VERTEX
 8
WIRE
 10
337.8200
 20
149.6060
 30
0.0
 0
VERTEX
 8
WIRE
 10
335.2800
 20
149.6060
 30
0.0
 0
SEQEND
 8
WIRE
 0
POLYLINE
 8
WIRE
 66
1
 10
0.0
 20
0.0
 30
0.0
 0
VERTEX
 8
WIRE
 10
337.8200
 20
149.6060
 30
0.0
 0
VERTEX
 8
WIRE
 10
337.8200
 20
152.1460
 30
0.0
 0
SEQEND
 8
WIRE
 0
POLYLINE
 8
WIRE
 66
1
 70
1
 10
0.0
 20
0.0
 30
0.0
 40
  0.5080
 41
  0.5080
 0
VERTEX
 8
WIRE
 10
337.5660
 20
152.1460
 30
0.0
 42
1.0
 0
VERTEX
 8
WIRE
 10
338.0740
 20
152.1460
 30
0.0
 42
1.0
 0
SEQEND
 8
WIRE
 0
POLYLINE
 8
WIRE
 66
1
 10
0.0
 20
0.0
 30
0.0
 0
VERTEX
 8
WIRE
 10
347.9800
 20
152.1460
 30
0.0
 0
VERTEX
 8
WIRE
 10
337.8200
 20
152.1460
 30
0.0
 0
SEQEND
 8
WIRE
 0
POLYLINE
 8
WIRE
 66
1
 10
0.0
 20
0.0
 30
0.0
 0
VERTEX
 8
WIRE
 10
314.9600
 20
159.7660
 30
0.0
 0
VERTEX
 8
WIRE
 10
299.7200
 20
159.7660
 30
0.0
 0
SEQEND
 8
WIRE
 0
POLYLINE
 8
WIRE
 66
1
 10
0.0
 20
0.0
 30
0.0
 0
VERTEX
 8
WIRE
 10
314.9600
 20
187.7060
 30
0.0
 0
VERTEX
 8
WIRE
 10
307.3400
 20
187.7060
 30
0.0
 0
SEQEND
 8
WIRE
 0
TEXT
 8
WIRETEXT
 10
307.3400
 20
188.4680
 30
0.0
 40
  1.3057
 1
ROLE2
 0
POLYLINE
 8
WIRE
 66
1
 10
0.0
 20
0.0
 30
0.0
 0
VERTEX
 8
WIRE
 10
271.7800
 20
162.3060
 30
0.0
 0
VERTEX
 8
WIRE
 10
271.7800
 20
164.8460
 30
0.0
 0
SEQEND
 8
WIRE
 0
POLYLINE
 8
WIRE
 66
1
 10
0.0
 20
0.0
 30
0.0
 0
VERTEX
 8
WIRE
 10
299.7200
 20
159.7660
 30
0.0
 0
VERTEX
 8
WIRE
 10
299.7200
 20
162.3060
 30
0.0
 0
SEQEND
 8
WIRE
 0
POLYLINE
 8
WIRE
 66
1
 70
1
 10
0.0
 20
0.0
 30
0.0
 40
  0.5080
 41
  0.5080
 0
VERTEX
 8
WIRE
 10
299.4660
 20
162.3060
 30
0.0
 42
1.0
 0
VERTEX
 8
WIRE
 10
299.9740
 20
162.3060
 30
0.0
 42
1.0
 0
SEQEND
 8
WIRE
 0
POLYLINE
 8
WIRE
 66
1
 10
0.0
 20
0.0
 30
0.0
 0
VERTEX
 8
WIRE
 10
314.9600
 20
162.3060
 30
0.0
 0
VERTEX
 8
WIRE
 10
314.9600
 20
177.5460
 30
0.0
 0
SEQEND
 8
WIRE
 0
POLYLINE
 8
WIRE
 66
1
 70
1
 10
0.0
 20
0.0
 30
0.0
 40
  0.5080
 41
  0.5080
 0
VERTEX
 8
WIRE
 10
314.7060
 20
162.3060
 30
0.0
 42
1.0
 0
VERTEX
 8
WIRE
 10
315.2140
 20
162.3060
 30
0.0
 42
1.0
 0
SEQEND
 8
WIRE
 0
POLYLINE
 8
WIRE
 66
1
 70
1
 10
0.0
 20
0.0
 30
0.0
 40
  0.5080
 41
  0.5080
 0
VERTEX
 8
WIRE
 10
314.7060
 20
177.5460
 30
0.0
 42
1.0
 0
VERTEX
 8
WIRE
 10
315.2140
 20
177.5460
 30
0.0
 42
1.0
 0
SEQEND
 8
WIRE
 0
POLYLINE
 8
WIRE
 66
1
 10
0.0
 20
0.0
 30
0.0
 0
VERTEX
 8
WIRE
 10
365.7600
 20
147.0660
 30
0.0
 0
VERTEX
 8
WIRE
 10
365.7600
 20
152.1460
 30
0.0
 0
SEQEND
 8
WIRE
 0
POLYLINE
 8
WIRE
 66
1
 10
0.0
 20
0.0
 30
0.0
 0
VERTEX
 8
WIRE
 10
365.7600
 20
154.6860
 30
0.0
 0
VERTEX
 8
WIRE
 10
358.1400
 20
154.6860
 30
0.0
 0
SEQEND
 8
WIRE
 0
POLYLINE
 8
WIRE
 66
1
 70
1
 10
0.0
 20
0.0
 30
0.0
 40
  0.5080
 41
  0.5080
 0
VERTEX
 8
WIRE
 10
357.8860
 20
154.6860
 30
0.0
 42
1.0
 0
VERTEX
 8
WIRE
 10
358.3940
 20
154.6860
 30
0.0
 42
1.0
 0
SEQEND
 8
WIRE
 0
POLYLINE
 8
WIRE
 66
1
 10
0.0
 20
0.0
 30
0.0
 0
VERTEX
 8
WIRE
 10
365.7600
 20
147.0660
 30
0.0
 0
VERTEX
 8
WIRE
 10
358.1400
 20
147.0660
 30
0.0
 0
SEQEND
 8
WIRE
 0
POLYLINE
 8
WIRE
 66
1
 10
0.0
 20
0.0
 30
0.0
 0
VERTEX
 8
WIRE
 10
314.9600
 20
154.6860
 30
0.0
 0
VERTEX
 8
WIRE
 10
307.3400
 20
154.6860
 30
0.0
 0
SEQEND
 8
WIRE
 0
POLYLINE
 8
WIRE
 66
1
 70
1
 10
0.0
 20
0.0
 30
0.0
 40
  0.5080
 41
  0.5080
 0
VERTEX
 8
WIRE
 10
307.0860
 20
154.6860
 30
0.0
 42
1.0
 0
VERTEX
 8
WIRE
 10
307.5940
 20
154.6860
 30
0.0
 42
1.0
 0
SEQEND
 8
WIRE
 0
POLYLINE
 8
WIRE
 66
1
 10
0.0
 20
0.0
 30
0.0
 0
VERTEX
 8
WIRE
 10
314.9600
 20
147.0660
 30
0.0
 0
VERTEX
 8
WIRE
 10
314.9600
 20
141.9860
 30
0.0
 0
SEQEND
 8
WIRE
 0
POLYLINE
 8
WIRE
 66
1
 10
0.0
 20
0.0
 30
0.0
 0
VERTEX
 8
WIRE
 10
314.9600
 20
162.3060
 30
0.0
 0
VERTEX
 8
WIRE
 10
312.4200
 20
162.3060
 30
0.0
 0
SEQEND
 8
WIRE
 0
POLYLINE
 8
WIRE
 66
1
 10
0.0
 20
0.0
 30
0.0
 0
VERTEX
 8
WIRE
 10
358.1400
 20
144.5260
 30
0.0
 0
VERTEX
 8
WIRE
 10
358.1400
 20
147.0660
 30
0.0
 0
SEQEND
 8
WIRE
 0
POLYLINE
 8
WIRE
 66
1
 70
1
 10
0.0
 20
0.0
 30
0.0
 40
  0.5080
 41
  0.5080
 0
VERTEX
 8
WIRE
 10
357.8860
 20
147.0660
 30
0.0
 42
1.0
 0
VERTEX
 8
WIRE
 10
358.3940
 20
147.0660
 30
0.0
 42
1.0
 0
SEQEND
 8
WIRE
 0
POLYLINE
 8
WIRE
 66
1
 10
0.0
 20
0.0
 30
0.0
 0
VERTEX
 8
WIRE
 10
337.8200
 20
152.1460
 30
0.0
 0
VERTEX
 8
WIRE
 10
335.2800
 20
152.1460
 30
0.0
 0
SEQEND
 8
WIRE
 0
POLYLINE
 8
WIRE
 66
1
 10
0.0
 20
0.0
 30
0.0
 0
VERTEX
 8
WIRE
 10
347.9800
 20
152.1460
 30
0.0
 0
VERTEX
 8
WIRE
 10
347.9800
 20
154.6860
 30
0.0
 0
SEQEND
 8
WIRE
 0
POLYLINE
 8
WIRE
 66
1
 10
0.0
 20
0.0
 30
0.0
 0
VERTEX
 8
WIRE
 10
231.1400
 20
225.8060
 30
0.0
 0
VERTEX
 8
WIRE
 10
220.9800
 20
225.8060
 30
0.0
 0
SEQEND
 8
WIRE
 0
POLYLINE
 8
WIRE
 66
1
 70
1
 10
0.0
 20
0.0
 30
0.0
 40
  0.5080
 41
  0.5080
 0
VERTEX
 8
WIRE
 10
230.8860
 20
225.8060
 30
0.0
 42
1.0
 0
VERTEX
 8
WIRE
 10
231.3940
 20
225.8060
 30
0.0
 42
1.0
 0
SEQEND
 8
WIRE
 0
POLYLINE
 8
WIRE
 66
1
 10
0.0
 20
0.0
 30
0.0
 0
VERTEX
 8
WIRE
 10
231.1400
 20
147.0660
 30
0.0
 0
VERTEX
 8
WIRE
 10
220.9800
 20
147.0660
 30
0.0
 0
SEQEND
 8
WIRE
 0
POLYLINE
 8
WIRE
 66
1
 10
0.0
 20
0.0
 30
0.0
 0
VERTEX
 8
WIRE
 10
314.9600
 20
241.0460
 30
0.0
 0
VERTEX
 8
WIRE
 10
299.7200
 20
241.0460
 30
0.0
 0
SEQEND
 8
WIRE
 0
POLYLINE
 8
WIRE
 66
1
 10
0.0
 20
0.0
 30
0.0
 0
VERTEX
 8
WIRE
 10
124.4600
 20
235.9660
 30
0.0
 0
VERTEX
 8
WIRE
 10
132.0800
 20
235.9660
 30
0.0
 0
SEQEND
 8
WIRE
 0
POLYLINE
 8
WIRE
 66
1
 10
0.0
 20
0.0
 30
0.0
 0
VERTEX
 8
WIRE
 10
314.9600
 20
268.9860
 30
0.0
 0
VERTEX
 8
WIRE
 10
307.3400
 20
268.9860
 30
0.0
 0
SEQEND
 8
WIRE
 0
TEXT
 8
WIRETEXT
 10
307.3400
 20
269.7480
 30
0.0
 40
  1.3057
 1
ROLE1
 0
POLYLINE
 8
WIRE
 66
1
 10
0.0
 20
0.0
 30
0.0
 0
VERTEX
 8
WIRE
 10
231.1400
 20
225.8060
 30
0.0
 0
VERTEX
 8
WIRE
 10
231.1400
 20
233.4260
 30
0.0
 0
SEQEND
 8
WIRE
 0
POLYLINE
 8
WIRE
 66
1
 10
0.0
 20
0.0
 30
0.0
 0
VERTEX
 8
WIRE
 10
231.1400
 20
147.0660
 30
0.0
 0
VERTEX
 8
WIRE
 10
231.1400
 20
154.6860
 30
0.0
 0
SEQEND
 8
WIRE
 0
POLYLINE
 8
WIRE
 66
1
 10
0.0
 20
0.0
 30
0.0
 0
VERTEX
 8
WIRE
 10
266.7000
 20
243.5860
 30
0.0
 0
VERTEX
 8
WIRE
 10
266.7000
 20
246.1260
 30
0.0
 0
SEQEND
 8
WIRE
 0
POLYLINE
 8
WIRE
 66
1
 10
0.0
 20
0.0
 30
0.0
 0
VERTEX
 8
WIRE
 10
299.7200
 20
241.0460
 30
0.0
 0
VERTEX
 8
WIRE
 10
299.7200
 20
243.5860
 30
0.0
 0
SEQEND
 8
WIRE
 0
POLYLINE
 8
WIRE
 66
1
 70
1
 10
0.0
 20
0.0
 30
0.0
 40
  0.5080
 41
  0.5080
 0
VERTEX
 8
WIRE
 10
299.4660
 20
243.5860
 30
0.0
 42
1.0
 0
VERTEX
 8
WIRE
 10
299.9740
 20
243.5860
 30
0.0
 42
1.0
 0
SEQEND
 8
WIRE
 0
POLYLINE
 8
WIRE
 66
1
 10
0.0
 20
0.0
 30
0.0
 0
VERTEX
 8
WIRE
 10
314.9600
 20
243.5860
 30
0.0
 0
VERTEX
 8
WIRE
 10
314.9600
 20
258.8260
 30
0.0
 0
SEQEND
 8
WIRE
 0
POLYLINE
 8
WIRE
 66
1
 70
1
 10
0.0
 20
0.0
 30
0.0
 40
  0.5080
 41
  0.5080
 0
VERTEX
 8
WIRE
 10
314.7060
 20
243.5860
 30
0.0
 42
1.0
 0
VERTEX
 8
WIRE
 10
315.2140
 20
243.5860
 30
0.0
 42
1.0
 0
SEQEND
 8
WIRE
 0
POLYLINE
 8
WIRE
 66
1
 70
1
 10
0.0
 20
0.0
 30
0.0
 40
  0.5080
 41
  0.5080
 0
VERTEX
 8
WIRE
 10
314.7060
 20
258.8260
 30
0.0
 42
1.0
 0
VERTEX
 8
WIRE
 10
315.2140
 20
258.8260
 30
0.0
 42
1.0
 0
SEQEND
 8
WIRE
 0
POLYLINE
 8
WIRE
 66
1
 10
0.0
 20
0.0
 30
0.0
 0
VERTEX
 8
WIRE
 10
365.7600
 20
228.3460
 30
0.0
 0
VERTEX
 8
WIRE
 10
365.7600
 20
233.4260
 30
0.0
 0
SEQEND
 8
WIRE
 0
POLYLINE
 8
WIRE
 66
1
 10
0.0
 20
0.0
 30
0.0
 0
VERTEX
 8
WIRE
 10
137.1600
 20
230.8860
 30
0.0
 0
VERTEX
 8
WIRE
 10
137.1600
 20
228.3460
 30
0.0
 0
SEQEND
 8
WIRE
 0
POLYLINE
 8
WIRE
 66
1
 10
0.0
 20
0.0
 30
0.0
 0
VERTEX
 8
WIRE
 10
208.2800
 20
144.5260
 30
0.0
 0
VERTEX
 8
WIRE
 10
205.7400
 20
144.5260
 30
0.0
 0
SEQEND
 8
WIRE
 0
POLYLINE
 8
WIRE
 66
1
 70
1
 10
0.0
 20
0.0
 30
0.0
 40
  0.5080
 41
  0.5080
 0
VERTEX
 8
WIRE
 10
205.4860
 20
144.5260
 30
0.0
 42
1.0
 0
VERTEX
 8
WIRE
 10
205.9940
 20
144.5260
 30
0.0
 42
1.0
 0
SEQEND
 8
WIRE
 0
POLYLINE
 8
WIRE
 66
1
 10
0.0
 20
0.0
 30
0.0
 0
VERTEX
 8
WIRE
 10
205.7400
 20
157.2260
 30
0.0
 0
VERTEX
 8
WIRE
 10
205.7400
 20
162.3060
 30
0.0
 0
SEQEND
 8
WIRE
 0
POLYLINE
 8
WIRE
 66
1
 10
0.0
 20
0.0
 30
0.0
 0
VERTEX
 8
WIRE
 10
195.5800
 20
141.9860
 30
0.0
 0
VERTEX
 8
WIRE
 10
195.5800
 20
144.5260
 30
0.0
 0
SEQEND
 8
WIRE
 0
POLYLINE
 8
WIRE
 66
1
 70
1
 10
0.0
 20
0.0
 30
0.0
 40
  0.5080
 41
  0.5080
 0
VERTEX
 8
WIRE
 10
195.3260
 20
144.5260
 30
0.0
 42
1.0
 0
VERTEX
 8
WIRE
 10
195.8340
 20
144.5260
 30
0.0
 42
1.0
 0
SEQEND
 8
WIRE
 0
POLYLINE
 8
WIRE
 66
1
 10
0.0
 20
0.0
 30
0.0
 0
VERTEX
 8
WIRE
 10
205.7400
 20
144.5260
 30
0.0
 0
VERTEX
 8
WIRE
 10
205.7400
 20
147.0660
 30
0.0
 0
SEQEND
 8
WIRE
 0
POLYLINE
 8
WIRE
 66
1
 10
0.0
 20
0.0
 30
0.0
 0
VERTEX
 8
WIRE
 10
208.2800
 20
144.5260
 30
0.0
 0
VERTEX
 8
WIRE
 10
208.2800
 20
147.0660
 30
0.0
 0
SEQEND
 8
WIRE
 0
POLYLINE
 8
WIRE
 66
1
 10
0.0
 20
0.0
 30
0.0
 0
VERTEX
 8
WIRE
 10
210.8200
 20
147.0660
 30
0.0
 0
VERTEX
 8
WIRE
 10
208.2800
 20
147.0660
 30
0.0
 0
SEQEND
 8
WIRE
 0
POLYLINE
 8
WIRE
 66
1
 10
0.0
 20
0.0
 30
0.0
 0
VERTEX
 8
WIRE
 10
195.5800
 20
144.5260
 30
0.0
 0
VERTEX
 8
WIRE
 10
195.5800
 20
147.0660
 30
0.0
 0
SEQEND
 8
WIRE
 0
POLYLINE
 8
WIRE
 66
1
 10
0.0
 20
0.0
 30
0.0
 0
VERTEX
 8
WIRE
 10
144.7800
 20
241.0460
 30
0.0
 0
VERTEX
 8
WIRE
 10
137.1600
 20
241.0460
 30
0.0
 0
SEQEND
 8
WIRE
 0
TEXT
 8
WIRETEXT
 10
137.1600
 20
241.8080
 30
0.0
 40
  1.3057
 1
ROLE1
 0
POLYLINE
 8
WIRE
 66
1
 10
0.0
 20
0.0
 30
0.0
 0
VERTEX
 8
WIRE
 10
208.2800
 20
223.2660
 30
0.0
 0
VERTEX
 8
WIRE
 10
205.7400
 20
223.2660
 30
0.0
 0
SEQEND
 8
WIRE
 0
POLYLINE
 8
WIRE
 66
1
 10
0.0
 20
0.0
 30
0.0
 0
VERTEX
 8
WIRE
 10
205.7400
 20
235.9660
 30
0.0
 0
VERTEX
 8
WIRE
 10
205.7400
 20
241.0460
 30
0.0
 0
SEQEND
 8
WIRE
 0
POLYLINE
 8
WIRE
 66
1
 10
0.0
 20
0.0
 30
0.0
 0
VERTEX
 8
WIRE
 10
195.5800
 20
220.7260
 30
0.0
 0
VERTEX
 8
WIRE
 10
195.5800
 20
223.2660
 30
0.0
 0
SEQEND
 8
WIRE
 0
POLYLINE
 8
WIRE
 66
1
 70
1
 10
0.0
 20
0.0
 30
0.0
 40
  0.5080
 41
  0.5080
 0
VERTEX
 8
WIRE
 10
195.3260
 20
223.2660
 30
0.0
 42
1.0
 0
VERTEX
 8
WIRE
 10
195.8340
 20
223.2660
 30
0.0
 42
1.0
 0
SEQEND
 8
WIRE
 0
POLYLINE
 8
WIRE
 66
1
 10
0.0
 20
0.0
 30
0.0
 0
VERTEX
 8
WIRE
 10
 76.2000
 20
246.1260
 30
0.0
 0
VERTEX
 8
WIRE
 10
 99.0600
 20
246.1260
 30
0.0
 0
SEQEND
 8
WIRE
 0
POLYLINE
 8
WIRE
 66
1
 10
0.0
 20
0.0
 30
0.0
 0
VERTEX
 8
WIRE
 10
205.7400
 20
223.2660
 30
0.0
 0
VERTEX
 8
WIRE
 10
205.7400
 20
225.8060
 30
0.0
 0
SEQEND
 8
WIRE
 0
POLYLINE
 8
WIRE
 66
1
 70
1
 10
0.0
 20
0.0
 30
0.0
 40
  0.5080
 41
  0.5080
 0
VERTEX
 8
WIRE
 10
205.4860
 20
223.2660
 30
0.0
 42
1.0
 0
VERTEX
 8
WIRE
 10
205.9940
 20
223.2660
 30
0.0
 42
1.0
 0
SEQEND
 8
WIRE
 0
POLYLINE
 8
WIRE
 66
1
 10
0.0
 20
0.0
 30
0.0
 0
VERTEX
 8
WIRE
 10
208.2800
 20
223.2660
 30
0.0
 0
VERTEX
 8
WIRE
 10
208.2800
 20
225.8060
 30
0.0
 0
SEQEND
 8
WIRE
 0
POLYLINE
 8
WIRE
 66
1
 10
0.0
 20
0.0
 30
0.0
 0
VERTEX
 8
WIRE
 10
210.8200
 20
225.8060
 30
0.0
 0
VERTEX
 8
WIRE
 10
208.2800
 20
225.8060
 30
0.0
 0
SEQEND
 8
WIRE
 0
POLYLINE
 8
WIRE
 66
1
 10
0.0
 20
0.0
 30
0.0
 0
VERTEX
 8
WIRE
 10
195.5800
 20
223.2660
 30
0.0
 0
VERTEX
 8
WIRE
 10
195.5800
 20
225.8060
 30
0.0
 0
SEQEND
 8
WIRE
 0
POLYLINE
 8
WIRE
 66
1
 10
0.0
 20
0.0
 30
0.0
 0
VERTEX
 8
WIRE
 10
365.7600
 20
235.9660
 30
0.0
 0
VERTEX
 8
WIRE
 10
358.1400
 20
235.9660
 30
0.0
 0
SEQEND
 8
WIRE
 0
POLYLINE
 8
WIRE
 66
1
 10
0.0
 20
0.0
 30
0.0
 0
VERTEX
 8
WIRE
 10
365.7600
 20
228.3460
 30
0.0
 0
VERTEX
 8
WIRE
 10
358.1400
 20
228.3460
 30
0.0
 0
SEQEND
 8
WIRE
 0
POLYLINE
 8
WIRE
 66
1
 10
0.0
 20
0.0
 30
0.0
 0
VERTEX
 8
WIRE
 10
243.8400
 20
223.2660
 30
0.0
 0
VERTEX
 8
WIRE
 10
231.1400
 20
223.2660
 30
0.0
 0
SEQEND
 8
WIRE
 0
POLYLINE
 8
WIRE
 66
1
 10
0.0
 20
0.0
 30
0.0
 0
VERTEX
 8
WIRE
 10
231.1400
 20
223.2660
 30
0.0
 0
VERTEX
 8
WIRE
 10
231.1400
 20
225.8060
 30
0.0
 0
SEQEND
 8
WIRE
 0
POLYLINE
 8
WIRE
 66
1
 10
0.0
 20
0.0
 30
0.0
 0
VERTEX
 8
WIRE
 10
243.8400
 20
144.5260
 30
0.0
 0
VERTEX
 8
WIRE
 10
231.1400
 20
144.5260
 30
0.0
 0
SEQEND
 8
WIRE
 0
POLYLINE
 8
WIRE
 66
1
 10
0.0
 20
0.0
 30
0.0
 0
VERTEX
 8
WIRE
 10
231.1400
 20
144.5260
 30
0.0
 0
VERTEX
 8
WIRE
 10
231.1400
 20
147.0660
 30
0.0
 0
SEQEND
 8
WIRE
 0
POLYLINE
 8
WIRE
 66
1
 70
1
 10
0.0
 20
0.0
 30
0.0
 40
  0.5080
 41
  0.5080
 0
VERTEX
 8
WIRE
 10
230.8860
 20
147.0660
 30
0.0
 42
1.0
 0
VERTEX
 8
WIRE
 10
231.3940
 20
147.0660
 30
0.0
 42
1.0
 0
SEQEND
 8
WIRE
 0
POLYLINE
 8
WIRE
 66
1
 10
0.0
 20
0.0
 30
0.0
 0
VERTEX
 8
WIRE
 10
274.3200
 20
228.3460
 30
0.0
 0
VERTEX
 8
WIRE
 10
271.7800
 20
228.3460
 30
0.0
 0
SEQEND
 8
WIRE
 0
POLYLINE
 8
WIRE
 66
1
 10
0.0
 20
0.0
 30
0.0
 0
VERTEX
 8
WIRE
 10
261.6200
 20
228.3460
 30
0.0
 0
VERTEX
 8
WIRE
 10
248.9200
 20
228.3460
 30
0.0
 0
SEQEND
 8
WIRE
 0
POLYLINE
 8
WIRE
 66
1
 70
1
 10
0.0
 20
0.0
 30
0.0
 40
  0.5080
 41
  0.5080
 0
VERTEX
 8
WIRE
 10
248.6660
 20
228.3460
 30
0.0
 42
1.0
 0
VERTEX
 8
WIRE
 10
249.1740
 20
228.3460
 30
0.0
 42
1.0
 0
SEQEND
 8
WIRE
 0
POLYLINE
 8
WIRE
 66
1
 10
0.0
 20
0.0
 30
0.0
 0
VERTEX
 8
WIRE
 10
274.3200
 20
149.6060
 30
0.0
 0
VERTEX
 8
WIRE
 10
269.2400
 20
149.6060
 30
0.0
 0
SEQEND
 8
WIRE
 0
POLYLINE
 8
WIRE
 66
1
 10
0.0
 20
0.0
 30
0.0
 0
VERTEX
 8
WIRE
 10
259.0800
 20
149.6060
 30
0.0
 0
VERTEX
 8
WIRE
 10
248.9200
 20
149.6060
 30
0.0
 0
SEQEND
 8
WIRE
 0
POLYLINE
 8
WIRE
 66
1
 70
1
 10
0.0
 20
0.0
 30
0.0
 40
  0.5080
 41
  0.5080
 0
VERTEX
 8
WIRE
 10
248.6660
 20
149.6060
 30
0.0
 42
1.0
 0
VERTEX
 8
WIRE
 10
249.1740
 20
149.6060
 30
0.0
 42
1.0
 0
SEQEND
 8
WIRE
 0
POLYLINE
 8
WIRE
 66
1
 10
0.0
 20
0.0
 30
0.0
 0
VERTEX
 8
WIRE
 10
281.9400
 20
136.9060
 30
0.0
 0
VERTEX
 8
WIRE
 10
281.9400
 20
144.5260
 30
0.0
 0
SEQEND
 8
WIRE
 0
POLYLINE
 8
WIRE
 66
1
 10
0.0
 20
0.0
 30
0.0
 0
VERTEX
 8
WIRE
 10
 76.2000
 20
202.9460
 30
0.0
 0
VERTEX
 8
WIRE
 10
 99.0600
 20
202.9460
 30
0.0
 0
SEQEND
 8
WIRE
 0
POLYLINE
 8
WIRE
 66
1
 10
0.0
 20
0.0
 30
0.0
 0
VERTEX
 8
WIRE
 10
281.9400
 20
215.6460
 30
0.0
 0
VERTEX
 8
WIRE
 10
281.9400
 20
223.2660
 30
0.0
 0
SEQEND
 8
WIRE
 0
POLYLINE
 8
WIRE
 66
1
 10
0.0
 20
0.0
 30
0.0
 0
VERTEX
 8
WIRE
 10
124.4600
 20
192.7860
 30
0.0
 0
VERTEX
 8
WIRE
 10
132.0800
 20
192.7860
 30
0.0
 0
SEQEND
 8
WIRE
 0
POLYLINE
 8
WIRE
 66
1
 10
0.0
 20
0.0
 30
0.0
 0
VERTEX
 8
WIRE
 10
137.1600
 20
187.7060
 30
0.0
 0
VERTEX
 8
WIRE
 10
137.1600
 20
185.1660
 30
0.0
 0
SEQEND
 8
WIRE
 0
POLYLINE
 8
WIRE
 66
1
 10
0.0
 20
0.0
 30
0.0
 0
VERTEX
 8
WIRE
 10
144.7800
 20
197.8660
 30
0.0
 0
VERTEX
 8
WIRE
 10
137.1600
 20
197.8660
 30
0.0
 0
SEQEND
 8
WIRE
 0
TEXT
 8
WIRETEXT
 10
137.1600
 20
198.6280
 30
0.0
 40
  1.3057
 1
ROLE2
 0
POLYLINE
 8
WIRE
 66
1
 10
0.0
 20
0.0
 30
0.0
 0
VERTEX
 8
WIRE
 10
111.7600
 20
190.2460
 30
0.0
 0
VERTEX
 8
WIRE
 10
109.2200
 20
190.2460
 30
0.0
 0
SEQEND
 8
WIRE
 0
POLYLINE
 8
WIRE
 66
1
 10
0.0
 20
0.0
 30
0.0
 0
VERTEX
 8
WIRE
 10
109.2200
 20
202.9460
 30
0.0
 0
VERTEX
 8
WIRE
 10
109.2200
 20
208.0260
 30
0.0
 0
SEQEND
 8
WIRE
 0
POLYLINE
 8
WIRE
 66
1
 10
0.0
 20
0.0
 30
0.0
 0
VERTEX
 8
WIRE
 10
 99.0600
 20
187.7060
 30
0.0
 0
VERTEX
 8
WIRE
 10
 99.0600
 20
190.2460
 30
0.0
 0
SEQEND
 8
WIRE
 0
POLYLINE
 8
WIRE
 66
1
 70
1
 10
0.0
 20
0.0
 30
0.0
 40
  0.5080
 41
  0.5080
 0
VERTEX
 8
WIRE
 10
 98.8060
 20
190.2460
 30
0.0
 42
1.0
 0
VERTEX
 8
WIRE
 10
 99.3140
 20
190.2460
 30
0.0
 42
1.0
 0
SEQEND
 8
WIRE
 0
POLYLINE
 8
WIRE
 66
1
 10
0.0
 20
0.0
 30
0.0
 0
VERTEX
 8
WIRE
 10
109.2200
 20
190.2460
 30
0.0
 0
VERTEX
 8
WIRE
 10
109.2200
 20
192.7860
 30
0.0
 0
SEQEND
 8
WIRE
 0
POLYLINE
 8
WIRE
 66
1
 70
1
 10
0.0
 20
0.0
 30
0.0
 40
  0.5080
 41
  0.5080
 0
VERTEX
 8
WIRE
 10
108.9660
 20
190.2460
 30
0.0
 42
1.0
 0
VERTEX
 8
WIRE
 10
109.4740
 20
190.2460
 30
0.0
 42
1.0
 0
SEQEND
 8
WIRE
 0
POLYLINE
 8
WIRE
 66
1
 10
0.0
 20
0.0
 30
0.0
 0
VERTEX
 8
WIRE
 10
111.7600
 20
190.2460
 30
0.0
 0
VERTEX
 8
WIRE
 10
111.7600
 20
192.7860
 30
0.0
 0
SEQEND
 8
WIRE
 0
POLYLINE
 8
WIRE
 66
1
 10
0.0
 20
0.0
 30
0.0
 0
VERTEX
 8
WIRE
 10
114.3000
 20
192.7860
 30
0.0
 0
VERTEX
 8
WIRE
 10
111.7600
 20
192.7860
 30
0.0
 0
SEQEND
 8
WIRE
 0
POLYLINE
 8
WIRE
 66
1
 10
0.0
 20
0.0
 30
0.0
 0
VERTEX
 8
WIRE
 10
 99.0600
 20
190.2460
 30
0.0
 0
VERTEX
 8
WIRE
 10
 99.0600
 20
192.7860
 30
0.0
 0
SEQEND
 8
WIRE
 0
POLYLINE
 8
WIRE
 66
1
 10
0.0
 20
0.0
 30
0.0
 0
VERTEX
 8
WIRE
 10
281.9400
 20
233.4260
 30
0.0
 0
VERTEX
 8
WIRE
 10
281.9400
 20
235.9660
 30
0.0
 0
SEQEND
 8
WIRE
 0
POLYLINE
 8
WIRE
 66
1
 10
0.0
 20
0.0
 30
0.0
 0
VERTEX
 8
WIRE
 10
281.9400
 20
235.9660
 30
0.0
 0
VERTEX
 8
WIRE
 10
294.6400
 20
235.9660
 30
0.0
 0
SEQEND
 8
WIRE
 0
POLYLINE
 8
WIRE
 66
1
 70
1
 10
0.0
 20
0.0
 30
0.0
 40
  0.5080
 41
  0.5080
 0
VERTEX
 8
WIRE
 10
294.3860
 20
235.9660
 30
0.0
 42
1.0
 0
VERTEX
 8
WIRE
 10
294.8940
 20
235.9660
 30
0.0
 42
1.0
 0
SEQEND
 8
WIRE
 0
POLYLINE
 8
WIRE
 66
1
 10
0.0
 20
0.0
 30
0.0
 0
VERTEX
 8
WIRE
 10
314.9600
 20
228.3460
 30
0.0
 0
VERTEX
 8
WIRE
 10
314.9600
 20
223.2660
 30
0.0
 0
SEQEND
 8
WIRE
 0
POLYLINE
 8
WIRE
 66
1
 70
1
 10
0.0
 20
0.0
 30
0.0
 40
  0.5080
 41
  0.5080
 0
VERTEX
 8
WIRE
 10
314.7060
 20
223.2660
 30
0.0
 42
1.0
 0
VERTEX
 8
WIRE
 10
315.2140
 20
223.2660
 30
0.0
 42
1.0
 0
SEQEND
 8
WIRE
 0
POLYLINE
 8
WIRE
 66
1
 10
0.0
 20
0.0
 30
0.0
 0
VERTEX
 8
WIRE
 10
314.9600
 20
243.5860
 30
0.0
 0
VERTEX
 8
WIRE
 10
312.4200
 20
243.5860
 30
0.0
 0
SEQEND
 8
WIRE
 0
POLYLINE
 8
WIRE
 66
1
 10
0.0
 20
0.0
 30
0.0
 0
VERTEX
 8
WIRE
 10
335.2800
 20
225.8060
 30
0.0
 0
VERTEX
 8
WIRE
 10
342.9000
 20
225.8060
 30
0.0
 0
SEQEND
 8
WIRE
 0
POLYLINE
 8
WIRE
 66
1
 70
1
 10
0.0
 20
0.0
 30
0.0
 40
  0.5080
 41
  0.5080
 0
VERTEX
 8
WIRE
 10
342.6460
 20
225.8060
 30
0.0
 42
1.0
 0
VERTEX
 8
WIRE
 10
343.1540
 20
225.8060
 30
0.0
 42
1.0
 0
SEQEND
 8
WIRE
 0
POLYLINE
 8
WIRE
 66
1
 10
0.0
 20
0.0
 30
0.0
 0
VERTEX
 8
WIRE
 10
358.1400
 20
225.8060
 30
0.0
 0
VERTEX
 8
WIRE
 10
358.1400
 20
228.3460
 30
0.0
 0
SEQEND
 8
WIRE
 0
POLYLINE
 8
WIRE
 66
1
 70
1
 10
0.0
 20
0.0
 30
0.0
 40
  0.5080
 41
  0.5080
 0
VERTEX
 8
WIRE
 10
357.8860
 20
228.3460
 30
0.0
 42
1.0
 0
VERTEX
 8
WIRE
 10
358.3940
 20
228.3460
 30
0.0
 42
1.0
 0
SEQEND
 8
WIRE
 0
POLYLINE
 8
WIRE
 66
1
 10
0.0
 20
0.0
 30
0.0
 0
VERTEX
 8
WIRE
 10
335.2800
 20
233.4260
 30
0.0
 0
VERTEX
 8
WIRE
 10
337.8200
 20
233.4260
 30
0.0
 0
SEQEND
 8
WIRE
 0
POLYLINE
 8
WIRE
 66
1
 10
0.0
 20
0.0
 30
0.0
 0
VERTEX
 8
WIRE
 10
111.7600
 20
233.4260
 30
0.0
 0
VERTEX
 8
WIRE
 10
109.2200
 20
233.4260
 30
0.0
 0
SEQEND
 8
WIRE
 0
POLYLINE
 8
WIRE
 66
1
 10
0.0
 20
0.0
 30
0.0
 0
VERTEX
 8
WIRE
 10
109.2200
 20
246.1260
 30
0.0
 0
VERTEX
 8
WIRE
 10
109.2200
 20
251.2060
 30
0.0
 0
SEQEND
 8
WIRE
 0
POLYLINE
 8
WIRE
 66
1
 10
0.0
 20
0.0
 30
0.0
 0
VERTEX
 8
WIRE
 10
 99.0600
 20
230.8860
 30
0.0
 0
VERTEX
 8
WIRE
 10
 99.0600
 20
233.4260
 30
0.0
 0
SEQEND
 8
WIRE
 0
POLYLINE
 8
WIRE
 66
1
 70
1
 10
0.0
 20
0.0
 30
0.0
 40
  0.5080
 41
  0.5080
 0
VERTEX
 8
WIRE
 10
 98.8060
 20
233.4260
 30
0.0
 42
1.0
 0
VERTEX
 8
WIRE
 10
 99.3140
 20
233.4260
 30
0.0
 42
1.0
 0
SEQEND
 8
WIRE
 0
POLYLINE
 8
WIRE
 66
1
 10
0.0
 20
0.0
 30
0.0
 0
VERTEX
 8
WIRE
 10
109.2200
 20
233.4260
 30
0.0
 0
VERTEX
 8
WIRE
 10
109.2200
 20
235.9660
 30
0.0
 0
SEQEND
 8
WIRE
 0
POLYLINE
 8
WIRE
 66
1
 70
1
 10
0.0
 20
0.0
 30
0.0
 40
  0.5080
 41
  0.5080
 0
VERTEX
 8
WIRE
 10
108.9660
 20
233.4260
 30
0.0
 42
1.0
 0
VERTEX
 8
WIRE
 10
109.4740
 20
233.4260
 30
0.0
 42
1.0
 0
SEQEND
 8
WIRE
 0
POLYLINE
 8
WIRE
 66
1
 10
0.0
 20
0.0
 30
0.0
 0
VERTEX
 8
WIRE
 10
111.7600
 20
233.4260
 30
0.0
 0
VERTEX
 8
WIRE
 10
111.7600
 20
235.9660
 30
0.0
 0
SEQEND
 8
WIRE
 0
POLYLINE
 8
WIRE
 66
1
 10
0.0
 20
0.0
 30
0.0
 0
VERTEX
 8
WIRE
 10
114.3000
 20
235.9660
 30
0.0
 0
VERTEX
 8
WIRE
 10
111.7600
 20
235.9660
 30
0.0
 0
SEQEND
 8
WIRE
 0
POLYLINE
 8
WIRE
 66
1
 10
0.0
 20
0.0
 30
0.0
 0
VERTEX
 8
WIRE
 10
 99.0600
 20
233.4260
 30
0.0
 0
VERTEX
 8
WIRE
 10
 99.0600
 20
235.9660
 30
0.0
 0
SEQEND
 8
WIRE
 0
POLYLINE
 8
WIRE
 66
1
 10
0.0
 20
0.0
 30
0.0
 0
VERTEX
 8
WIRE
 10
254.0000
 20
271.5260
 30
0.0
 0
VERTEX
 8
WIRE
 10
254.0000
 20
276.6060
 30
0.0
 0
SEQEND
 8
WIRE
 0
POLYLINE
 8
WIRE
 66
1
 10
0.0
 20
0.0
 30
0.0
 0
VERTEX
 8
WIRE
 10
256.5400
 20
271.5260
 30
0.0
 0
VERTEX
 8
WIRE
 10
254.0000
 20
271.5260
 30
0.0
 0
SEQEND
 8
WIRE
 0
POLYLINE
 8
WIRE
 66
1
 10
0.0
 20
0.0
 30
0.0
 0
VERTEX
 8
WIRE
 10
347.9800
 20
233.4260
 30
0.0
 0
VERTEX
 8
WIRE
 10
347.9800
 20
235.9660
 30
0.0
 0
SEQEND
 8
WIRE
 0
POLYLINE
 8
WIRE
 66
1
 10
0.0
 20
0.0
 30
0.0
 0
VERTEX
 8
WIRE
 10
347.9800
 20
235.9660
 30
0.0
 0
VERTEX
 8
WIRE
 10
358.1400
 20
235.9660
 30
0.0
 0
SEQEND
 8
WIRE
 0
POLYLINE
 8
WIRE
 66
1
 70
1
 10
0.0
 20
0.0
 30
0.0
 40
  0.5080
 41
  0.5080
 0
VERTEX
 8
WIRE
 10
357.8860
 20
235.9660
 30
0.0
 42
1.0
 0
VERTEX
 8
WIRE
 10
358.3940
 20
235.9660
 30
0.0
 42
1.0
 0
SEQEND
 8
WIRE
 0
POLYLINE
 8
WIRE
 66
1
 10
0.0
 20
0.0
 30
0.0
 0
VERTEX
 8
WIRE
 10
256.5400
 20
268.9860
 30
0.0
 0
VERTEX
 8
WIRE
 10
256.5400
 20
263.9060
 30
0.0
 0
SEQEND
 8
WIRE
 0
POLYLINE
 8
WIRE
 66
1
 10
0.0
 20
0.0
 30
0.0
 0
VERTEX
 8
WIRE
 10
 81.2800
 20
233.4260
 30
0.0
 0
VERTEX
 8
WIRE
 10
 81.2800
 20
220.7260
 30
0.0
 0
SEQEND
 8
WIRE
 0
POLYLINE
 8
WIRE
 66
1
 10
0.0
 20
0.0
 30
0.0
 0
VERTEX
 8
WIRE
 10
 81.2800
 20
220.7260
 30
0.0
 0
VERTEX
 8
WIRE
 10
162.5600
 20
220.7260
 30
0.0
 0
SEQEND
 8
WIRE
 0
POLYLINE
 8
WIRE
 66
1
 10
0.0
 20
0.0
 30
0.0
 0
VERTEX
 8
WIRE
 10
162.5600
 20
220.7260
 30
0.0
 0
VERTEX
 8
WIRE
 10
162.5600
 20
235.9660
 30
0.0
 0
SEQEND
 8
WIRE
 0
POLYLINE
 8
WIRE
 66
1
 10
0.0
 20
0.0
 30
0.0
 0
VERTEX
 8
WIRE
 10
162.5600
 20
175.0060
 30
0.0
 0
VERTEX
 8
WIRE
 10
162.5600
 20
157.2260
 30
0.0
 0
SEQEND
 8
WIRE
 0
POLYLINE
 8
WIRE
 66
1
 10
0.0
 20
0.0
 30
0.0
 0
VERTEX
 8
WIRE
 10
 66.0400
 20
233.4260
 30
0.0
 0
VERTEX
 8
WIRE
 10
 81.2800
 20
233.4260
 30
0.0
 0
SEQEND
 8
WIRE
 0
POLYLINE
 8
WIRE
 66
1
 10
0.0
 20
0.0
 30
0.0
 0
VERTEX
 8
WIRE
 10
 60.9600
 20
243.5860
 30
0.0
 0
VERTEX
 8
WIRE
 10
 60.9600
 20
175.0060
 30
0.0
 0
SEQEND
 8
WIRE
 0
POLYLINE
 8
WIRE
 66
1
 10
0.0
 20
0.0
 30
0.0
 0
VERTEX
 8
WIRE
 10
 60.9600
 20
175.0060
 30
0.0
 0
VERTEX
 8
WIRE
 10
162.5600
 20
175.0060
 30
0.0
 0
SEQEND
 8
WIRE
 0
POLYLINE
 8
WIRE
 66
1
 10
0.0
 20
0.0
 30
0.0
 0
VERTEX
 8
WIRE
 10
 63.5000
 20
202.9460
 30
0.0
 0
VERTEX
 8
WIRE
 10
 66.0400
 20
202.9460
 30
0.0
 0
SEQEND
 8
WIRE
 0
POLYLINE
 8
WIRE
 66
1
 10
0.0
 20
0.0
 30
0.0
 0
VERTEX
 8
WIRE
 10
342.9000
 20
144.5260
 30
0.0
 0
VERTEX
 8
WIRE
 10
335.2800
 20
144.5260
 30
0.0
 0
SEQEND
 8
WIRE
 0
POLYLINE
 8
WIRE
 66
1
 10
0.0
 20
0.0
 30
0.0
 0
VERTEX
 8
WIRE
 10
358.1400
 20
154.6860
 30
0.0
 0
VERTEX
 8
WIRE
 10
347.9800
 20
154.6860
 30
0.0
 0
SEQEND
 8
WIRE
 0
POLYLINE
 8
WIRE
 66
1
 10
0.0
 20
0.0
 30
0.0
 0
VERTEX
 8
WIRE
 10
307.3400
 20
235.9660
 30
0.0
 0
VERTEX
 8
WIRE
 10
314.9600
 20
235.9660
 30
0.0
 0
SEQEND
 8
WIRE
 0
POLYLINE
 8
WIRE
 66
1
 10
0.0
 20
0.0
 30
0.0
 0
VERTEX
 8
WIRE
 10
307.3400
 20
223.2660
 30
0.0
 0
VERTEX
 8
WIRE
 10
314.9600
 20
223.2660
 30
0.0
 0
SEQEND
 8
WIRE
 0
POLYLINE
 8
WIRE
 66
1
 10
0.0
 20
0.0
 30
0.0
 0
VERTEX
 8
WIRE
 10
314.9600
 20
223.2660
 30
0.0
 0
VERTEX
 8
WIRE
 10
314.9600
 20
202.9460
 30
0.0
 0
SEQEND
 8
WIRE
 0
POLYLINE
 8
WIRE
 66
1
 10
0.0
 20
0.0
 30
0.0
 0
VERTEX
 8
WIRE
 10
307.3400
 20
141.9860
 30
0.0
 0
VERTEX
 8
WIRE
 10
314.9600
 20
141.9860
 30
0.0
 0
SEQEND
 8
WIRE
 0
POLYLINE
 8
WIRE
 66
1
 70
1
 10
0.0
 20
0.0
 30
0.0
 40
  0.5080
 41
  0.5080
 0
VERTEX
 8
WIRE
 10
314.7060
 20
141.9860
 30
0.0
 42
1.0
 0
VERTEX
 8
WIRE
 10
315.2140
 20
141.9860
 30
0.0
 42
1.0
 0
SEQEND
 8
WIRE
 0
POLYLINE
 8
WIRE
 66
1
 10
0.0
 20
0.0
 30
0.0
 0
VERTEX
 8
WIRE
 10
314.9600
 20
141.9860
 30
0.0
 0
VERTEX
 8
WIRE
 10
314.9600
 20
121.6660
 30
0.0
 0
SEQEND
 8
WIRE
 0
POLYLINE
 8
WIRE
 66
1
 10
0.0
 20
0.0
 30
0.0
 0
VERTEX
 8
WIRE
 10
307.3400
 20
154.6860
 30
0.0
 0
VERTEX
 8
WIRE
 10
294.6400
 20
154.6860
 30
0.0
 0
SEQEND
 8
WIRE
 0
POLYLINE
 8
WIRE
 66
1
 70
1
 10
0.0
 20
0.0
 30
0.0
 40
  0.5080
 41
  0.5080
 0
VERTEX
 8
WIRE
 10
294.3860
 20
154.6860
 30
0.0
 42
1.0
 0
VERTEX
 8
WIRE
 10
294.8940
 20
154.6860
 30
0.0
 42
1.0
 0
SEQEND
 8
WIRE
 0
POLYLINE
 8
WIRE
 66
1
 10
0.0
 20
0.0
 30
0.0
 0
VERTEX
 8
WIRE
 10
294.6400
 20
215.6460
 30
0.0
 0
VERTEX
 8
WIRE
 10
294.6400
 20
220.7260
 30
0.0
 0
SEQEND
 8
WIRE
 0
POLYLINE
 8
WIRE
 66
1
 10
0.0
 20
0.0
 30
0.0
 0
VERTEX
 8
WIRE
 10
294.6400
 20
235.9660
 30
0.0
 0
VERTEX
 8
WIRE
 10
307.3400
 20
235.9660
 30
0.0
 0
SEQEND
 8
WIRE
 0
POLYLINE
 8
WIRE
 66
1
 70
1
 10
0.0
 20
0.0
 30
0.0
 40
  0.5080
 41
  0.5080
 0
VERTEX
 8
WIRE
 10
307.0860
 20
235.9660
 30
0.0
 42
1.0
 0
VERTEX
 8
WIRE
 10
307.5940
 20
235.9660
 30
0.0
 42
1.0
 0
SEQEND
 8
WIRE
 0
POLYLINE
 8
WIRE
 66
1
 10
0.0
 20
0.0
 30
0.0
 0
VERTEX
 8
WIRE
 10
294.6400
 20
202.9460
 30
0.0
 0
VERTEX
 8
WIRE
 10
314.9600
 20
202.9460
 30
0.0
 0
SEQEND
 8
WIRE
 0
POLYLINE
 8
WIRE
 66
1
 70
1
 10
0.0
 20
0.0
 30
0.0
 40
  0.5080
 41
  0.5080
 0
VERTEX
 8
WIRE
 10
314.7060
 20
202.9460
 30
0.0
 42
1.0
 0
VERTEX
 8
WIRE
 10
315.2140
 20
202.9460
 30
0.0
 42
1.0
 0
SEQEND
 8
WIRE
 0
POLYLINE
 8
WIRE
 66
1
 10
0.0
 20
0.0
 30
0.0
 0
VERTEX
 8
WIRE
 10
314.9600
 20
202.9460
 30
0.0
 0
VERTEX
 8
WIRE
 10
314.9600
 20
197.8660
 30
0.0
 0
SEQEND
 8
WIRE
 0
POLYLINE
 8
WIRE
 66
1
 10
0.0
 20
0.0
 30
0.0
 0
VERTEX
 8
WIRE
 10
294.6400
 20
134.3660
 30
0.0
 0
VERTEX
 8
WIRE
 10
294.6400
 20
139.4460
 30
0.0
 0
SEQEND
 8
WIRE
 0
POLYLINE
 8
WIRE
 66
1
 10
0.0
 20
0.0
 30
0.0
 0
VERTEX
 8
WIRE
 10
294.6400
 20
154.6860
 30
0.0
 0
VERTEX
 8
WIRE
 10
281.9400
 20
154.6860
 30
0.0
 0
SEQEND
 8
WIRE
 0
POLYLINE
 8
WIRE
 66
1
 10
0.0
 20
0.0
 30
0.0
 0
VERTEX
 8
WIRE
 10
294.6400
 20
121.6660
 30
0.0
 0
VERTEX
 8
WIRE
 10
314.9600
 20
121.6660
 30
0.0
 0
SEQEND
 8
WIRE
 0
POLYLINE
 8
WIRE
 66
1
 70
1
 10
0.0
 20
0.0
 30
0.0
 40
  0.5080
 41
  0.5080
 0
VERTEX
 8
WIRE
 10
314.7060
 20
121.6660
 30
0.0
 42
1.0
 0
VERTEX
 8
WIRE
 10
315.2140
 20
121.6660
 30
0.0
 42
1.0
 0
SEQEND
 8
WIRE
 0
POLYLINE
 8
WIRE
 66
1
 10
0.0
 20
0.0
 30
0.0
 0
VERTEX
 8
WIRE
 10
314.9600
 20
121.6660
 30
0.0
 0
VERTEX
 8
WIRE
 10
314.9600
 20
116.5860
 30
0.0
 0
SEQEND
 8
WIRE
 0
POLYLINE
 8
WIRE
 66
1
 10
0.0
 20
0.0
 30
0.0
 0
VERTEX
 8
WIRE
 10
266.7000
 20
243.5860
 30
0.0
 0
VERTEX
 8
WIRE
 10
281.9400
 20
243.5860
 30
0.0
 0
SEQEND
 8
WIRE
 0
POLYLINE
 8
WIRE
 66
1
 70
1
 10
0.0
 20
0.0
 30
0.0
 40
  0.5080
 41
  0.5080
 0
VERTEX
 8
WIRE
 10
281.6860
 20
243.5860
 30
0.0
 42
1.0
 0
VERTEX
 8
WIRE
 10
282.1940
 20
243.5860
 30
0.0
 42
1.0
 0
SEQEND
 8
WIRE
 0
POLYLINE
 8
WIRE
 66
1
 10
0.0
 20
0.0
 30
0.0
 0
VERTEX
 8
WIRE
 10
299.7200
 20
258.8260
 30
0.0
 0
VERTEX
 8
WIRE
 10
294.6400
 20
258.8260
 30
0.0
 0
SEQEND
 8
WIRE
 0
POLYLINE
 8
WIRE
 66
1
 10
0.0
 20
0.0
 30
0.0
 0
VERTEX
 8
WIRE
 10
314.9600
 20
258.8260
 30
0.0
 0
VERTEX
 8
WIRE
 10
314.9600
 20
268.9860
 30
0.0
 0
SEQEND
 8
WIRE
 0
POLYLINE
 8
WIRE
 66
1
 10
0.0
 20
0.0
 30
0.0
 0
VERTEX
 8
WIRE
 10
281.9400
 20
258.8260
 30
0.0
 0
VERTEX
 8
WIRE
 10
281.9400
 20
243.5860
 30
0.0
 0
SEQEND
 8
WIRE
 0
POLYLINE
 8
WIRE
 66
1
 10
0.0
 20
0.0
 30
0.0
 0
VERTEX
 8
WIRE
 10
281.9400
 20
243.5860
 30
0.0
 0
VERTEX
 8
WIRE
 10
299.7200
 20
243.5860
 30
0.0
 0
SEQEND
 8
WIRE
 0
POLYLINE
 8
WIRE
 66
1
 10
0.0
 20
0.0
 30
0.0
 0
VERTEX
 8
WIRE
 10
271.7800
 20
162.3060
 30
0.0
 0
VERTEX
 8
WIRE
 10
281.9400
 20
162.3060
 30
0.0
 0
SEQEND
 8
WIRE
 0
POLYLINE
 8
WIRE
 66
1
 10
0.0
 20
0.0
 30
0.0
 0
VERTEX
 8
WIRE
 10
299.7200
 20
177.5460
 30
0.0
 0
VERTEX
 8
WIRE
 10
294.6400
 20
177.5460
 30
0.0
 0
SEQEND
 8
WIRE
 0
POLYLINE
 8
WIRE
 66
1
 10
0.0
 20
0.0
 30
0.0
 0
VERTEX
 8
WIRE
 10
314.9600
 20
177.5460
 30
0.0
 0
VERTEX
 8
WIRE
 10
314.9600
 20
187.7060
 30
0.0
 0
SEQEND
 8
WIRE
 0
POLYLINE
 8
WIRE
 66
1
 10
0.0
 20
0.0
 30
0.0
 0
VERTEX
 8
WIRE
 10
281.9400
 20
177.5460
 30
0.0
 0
VERTEX
 8
WIRE
 10
281.9400
 20
162.3060
 30
0.0
 0
SEQEND
 8
WIRE
 0
POLYLINE
 8
WIRE
 66
1
 70
1
 10
0.0
 20
0.0
 30
0.0
 40
  0.5080
 41
  0.5080
 0
VERTEX
 8
WIRE
 10
281.6860
 20
162.3060
 30
0.0
 42
1.0
 0
VERTEX
 8
WIRE
 10
282.1940
 20
162.3060
 30
0.0
 42
1.0
 0
SEQEND
 8
WIRE
 0
POLYLINE
 8
WIRE
 66
1
 10
0.0
 20
0.0
 30
0.0
 0
VERTEX
 8
WIRE
 10
281.9400
 20
162.3060
 30
0.0
 0
VERTEX
 8
WIRE
 10
299.7200
 20
162.3060
 30
0.0
 0
SEQEND
 8
WIRE
 0
POLYLINE
 8
WIRE
 66
1
 10
0.0
 20
0.0
 30
0.0
 0
VERTEX
 8
WIRE
 10
223.5200
 20
271.5260
 30
0.0
 0
VERTEX
 8
WIRE
 10
223.5200
 20
276.6060
 30
0.0
 0
SEQEND
 8
WIRE
 0
POLYLINE
 8
WIRE
 66
1
 10
0.0
 20
0.0
 30
0.0
 0
VERTEX
 8
WIRE
 10
226.0600
 20
271.5260
 30
0.0
 0
VERTEX
 8
WIRE
 10
223.5200
 20
271.5260
 30
0.0
 0
SEQEND
 8
WIRE
 0
POLYLINE
 8
WIRE
 66
1
 10
0.0
 20
0.0
 30
0.0
 0
VERTEX
 8
WIRE
 10
226.0600
 20
268.9860
 30
0.0
 0
VERTEX
 8
WIRE
 10
226.0600
 20
263.9060
 30
0.0
 0
SEQEND
 8
WIRE
 0
POLYLINE
 8
WIRE
 66
1
 10
0.0
 20
0.0
 30
0.0
 0
VERTEX
 8
WIRE
 10
 48.2600
 20
235.9660
 30
0.0
 0
VERTEX
 8
WIRE
 10
 55.8800
 20
235.9660
 30
0.0
 0
SEQEND
 8
WIRE
 0
POLYLINE
 8
WIRE
 66
1
 10
0.0
 20
0.0
 30
0.0
 0
VERTEX
 8
WIRE
 10
 55.8800
 20
235.9660
 30
0.0
 0
VERTEX
 8
WIRE
 10
 55.8800
 20
202.9460
 30
0.0
 0
SEQEND
 8
WIRE
 0
POLYLINE
 8
WIRE
 66
1
 10
0.0
 20
0.0
 30
0.0
 0
VERTEX
 8
WIRE
 10
 48.2600
 20
233.4260
 30
0.0
 0
VERTEX
 8
WIRE
 10
 48.2600
 20
215.6460
 30
0.0
 0
SEQEND
 8
WIRE
 0
POLYLINE
 8
WIRE
 66
1
 10
0.0
 20
0.0
 30
0.0
 0
VERTEX
 8
WIRE
 10
 48.2600
 20
215.6460
 30
0.0
 0
VERTEX
 8
WIRE
 10
 43.1800
 20
215.6460
 30
0.0
 0
SEQEND
 8
WIRE
 0
POLYLINE
 8
WIRE
 66
1
 10
0.0
 20
0.0
 30
0.0
 0
VERTEX
 8
WIRE
 10
 63.5000
 20
246.1260
 30
0.0
 0
VERTEX
 8
WIRE
 10
 63.5000
 20
202.9460
 30
0.0
 0
SEQEND
 8
WIRE
 0
POLYLINE
 8
WIRE
 66
1
 10
0.0
 20
0.0
 30
0.0
 0
VERTEX
 8
WIRE
 10
 48.2600
 20
243.5860
 30
0.0
 0
VERTEX
 8
WIRE
 10
 60.9600
 20
243.5860
 30
0.0
 0
SEQEND
 8
WIRE
 0
POLYLINE
 8
WIRE
 66
1
 10
0.0
 20
0.0
 30
0.0
 0
VERTEX
 8
WIRE
 10
 48.2600
 20
241.0460
 30
0.0
 0
VERTEX
 8
WIRE
 10
 66.0400
 20
241.0460
 30
0.0
 0
SEQEND
 8
WIRE
 0
POLYLINE
 8
WIRE
 66
1
 10
0.0
 20
0.0
 30
0.0
 0
VERTEX
 8
WIRE
 10
 66.0400
 20
241.0460
 30
0.0
 0
VERTEX
 8
WIRE
 10
 66.0400
 20
233.4260
 30
0.0
 0
SEQEND
 8
WIRE
 0
POLYLINE
 8
WIRE
 66
1
 10
0.0
 20
0.0
 30
0.0
 0
VERTEX
 8
WIRE
 10
 48.2600
 20
246.1260
 30
0.0
 0
VERTEX
 8
WIRE
 10
 63.5000
 20
246.1260
 30
0.0
 0
SEQEND
 8
WIRE
 0
POLYLINE
 8
WIRE
 66
1
 10
0.0
 20
0.0
 30
0.0
 0
VERTEX
 8
WIRE
 10
 48.2600
 20
238.5060
 30
0.0
 0
VERTEX
 8
WIRE
 10
 53.3400
 20
238.5060
 30
0.0
 0
SEQEND
 8
WIRE
 0
POLYLINE
 8
WIRE
 66
1
 10
0.0
 20
0.0
 30
0.0
 0
VERTEX
 8
WIRE
 10
 53.3400
 20
238.5060
 30
0.0
 0
VERTEX
 8
WIRE
 10
 53.3400
 20
251.2060
 30
0.0
 0
SEQEND
 8
WIRE
 0
POLYLINE
 8
WIRE
 66
1
 10
0.0
 20
0.0
 30
0.0
 0
VERTEX
 8
WIRE
 10
 53.3400
 20
251.2060
 30
0.0
 0
VERTEX
 8
WIRE
 10
 66.0400
 20
251.2060
 30
0.0
 0
SEQEND
 8
WIRE
 0
POLYLINE
 8
WIRE
 66
1
 10
0.0
 20
0.0
 30
0.0
 0
VERTEX
 8
WIRE
 10
 66.0400
 20
251.2060
 30
0.0
 0
VERTEX
 8
WIRE
 10
 66.0400
 20
246.1260
 30
0.0
 0
SEQEND
 8
WIRE
 0
POLYLINE
 8
PARTS
 66
1
 10
0.0
 20
0.0
 30
0.0
 0
VERTEX
 8
PARTS
 10
 95.2500
 20
228.3460
 30
0.0
 0
VERTEX
 8
PARTS
 10
 96.5200
 20
230.8860
 30
0.0
 0
SEQEND
 8
PARTS
 0
POLYLINE
 8
PARTS
 66
1
 10
0.0
 20
0.0
 30
0.0
 0
VERTEX
 8
PARTS
 10
 96.5200
 20
230.8860
 30
0.0
 0
VERTEX
 8
PARTS
 10
101.6000
 20
230.8860
 30
0.0
 0
SEQEND
 8
PARTS
 0
POLYLINE
 8
PARTS
 66
1
 10
0.0
 20
0.0
 30
0.0
 0
VERTEX
 8
PARTS
 10
101.6000
 20
230.8860
 30
0.0
 0
VERTEX
 8
PARTS
 10
100.3300
 20
228.3460
 30
0.0
 0
SEQEND
 8
PARTS
 0
POLYLINE
 8
PARTS
 66
1
 10
0.0
 20
0.0
 30
0.0
 0
VERTEX
 8
PARTS
 10
 97.7900
 20
228.3460
 30
0.0
 0
VERTEX
 8
PARTS
 10
 99.0600
 20
230.8860
 30
0.0
 0
SEQEND
 8
PARTS
 0
POLYLINE
 8
PARTS
 66
1
 10
0.0
 20
0.0
 30
0.0
 0
VERTEX
 8
PARTS
 10
 95.2500
 20
185.1660
 30
0.0
 0
VERTEX
 8
PARTS
 10
 96.5200
 20
187.7060
 30
0.0
 0
SEQEND
 8
PARTS
 0
POLYLINE
 8
PARTS
 66
1
 10
0.0
 20
0.0
 30
0.0
 0
VERTEX
 8
PARTS
 10
 96.5200
 20
187.7060
 30
0.0
 0
VERTEX
 8
PARTS
 10
101.6000
 20
187.7060
 30
0.0
 0
SEQEND
 8
PARTS
 0
POLYLINE
 8
PARTS
 66
1
 10
0.0
 20
0.0
 30
0.0
 0
VERTEX
 8
PARTS
 10
101.6000
 20
187.7060
 30
0.0
 0
VERTEX
 8
PARTS
 10
100.3300
 20
185.1660
 30
0.0
 0
SEQEND
 8
PARTS
 0
POLYLINE
 8
PARTS
 66
1
 10
0.0
 20
0.0
 30
0.0
 0
VERTEX
 8
PARTS
 10
 97.7900
 20
185.1660
 30
0.0
 0
VERTEX
 8
PARTS
 10
 99.0600
 20
187.7060
 30
0.0
 0
SEQEND
 8
PARTS
 0
POLYLINE
 8
PARTS
 66
1
 10
0.0
 20
0.0
 30
0.0
 0
VERTEX
 8
PARTS
 10
191.7700
 20
218.1860
 30
0.0
 0
VERTEX
 8
PARTS
 10
193.0400
 20
220.7260
 30
0.0
 0
SEQEND
 8
PARTS
 0
POLYLINE
 8
PARTS
 66
1
 10
0.0
 20
0.0
 30
0.0
 0
VERTEX
 8
PARTS
 10
193.0400
 20
220.7260
 30
0.0
 0
VERTEX
 8
PARTS
 10
198.1200
 20
220.7260
 30
0.0
 0
SEQEND
 8
PARTS
 0
POLYLINE
 8
PARTS
 66
1
 10
0.0
 20
0.0
 30
0.0
 0
VERTEX
 8
PARTS
 10
198.1200
 20
220.7260
 30
0.0
 0
VERTEX
 8
PARTS
 10
196.8500
 20
218.1860
 30
0.0
 0
SEQEND
 8
PARTS
 0
POLYLINE
 8
PARTS
 66
1
 10
0.0
 20
0.0
 30
0.0
 0
VERTEX
 8
PARTS
 10
194.3100
 20
218.1860
 30
0.0
 0
VERTEX
 8
PARTS
 10
195.5800
 20
220.7260
 30
0.0
 0
SEQEND
 8
PARTS
 0
POLYLINE
 8
PARTS
 66
1
 10
0.0
 20
0.0
 30
0.0
 0
VERTEX
 8
PARTS
 10
191.7700
 20
139.4460
 30
0.0
 0
VERTEX
 8
PARTS
 10
193.0400
 20
141.9860
 30
0.0
 0
SEQEND
 8
PARTS
 0
POLYLINE
 8
PARTS
 66
1
 10
0.0
 20
0.0
 30
0.0
 0
VERTEX
 8
PARTS
 10
193.0400
 20
141.9860
 30
0.0
 0
VERTEX
 8
PARTS
 10
198.1200
 20
141.9860
 30
0.0
 0
SEQEND
 8
PARTS
 0
POLYLINE
 8
PARTS
 66
1
 10
0.0
 20
0.0
 30
0.0
 0
VERTEX
 8
PARTS
 10
198.1200
 20
141.9860
 30
0.0
 0
VERTEX
 8
PARTS
 10
196.8500
 20
139.4460
 30
0.0
 0
SEQEND
 8
PARTS
 0
POLYLINE
 8
PARTS
 66
1
 10
0.0
 20
0.0
 30
0.0
 0
VERTEX
 8
PARTS
 10
194.3100
 20
139.4460
 30
0.0
 0
VERTEX
 8
PARTS
 10
195.5800
 20
141.9860
 30
0.0
 0
SEQEND
 8
PARTS
 0
TEXT
 8
PARTTEXT
 10
264.6680
 20
250.3783
 30
0.0
 40
  1.3057
 1
12V
 0
POLYLINE
 8
PARTS
 66
1
 10
0.0
 20
0.0
 30
0.0
 0
VERTEX
 8
PARTS
 10
266.7000
 20
247.1420
 30
0.0
 0
VERTEX
 8
PARTS
 10
266.7000
 20
246.1260
 30
0.0
 0
SEQEND
 8
PARTS
 0
POLYLINE
 8
PARTS
 66
1
 70
1
 10
0.0
 20
0.0
 30
0.0
 0
VERTEX
 8
PARTS
 10
267.4620
 20
247.9040
 30
0.0
 42
  0.0985
 0
VERTEX
 8
PARTS
 10
267.4040
 20
248.1956
 30
0.0
 42
  0.0985
 0
VERTEX
 8
PARTS
 10
267.2388
 20
248.4428
 30
0.0
 42
  0.0985
 0
VERTEX
 8
PARTS
 10
266.9916
 20
248.6080
 30
0.0
 42
  0.0985
 0
VERTEX
 8
PARTS
 10
266.7000
 20
248.6660
 30
0.0
 42
  0.0985
 0
VERTEX
 8
PARTS
 10
266.4084
 20
248.6080
 30
0.0
 42
  0.0985
 0
VERTEX
 8
PARTS
 10
266.1612
 20
248.4428
 30
0.0
 42
  0.0985
 0
VERTEX
 8
PARTS
 10
265.9960
 20
248.1956
 30
0.0
 42
  0.0985
 0
VERTEX
 8
PARTS
 10
265.9380
 20
247.9040
 30
0.0
 42
  0.0985
 0
VERTEX
 8
PARTS
 10
265.9960
 20
247.6124
 30
0.0
 42
  0.0985
 0
VERTEX
 8
PARTS
 10
266.1612
 20
247.3652
 30
0.0
 42
  0.0985
 0
VERTEX
 8
PARTS
 10
266.4084
 20
247.2000
 30
0.0
 42
  0.0985
 0
VERTEX
 8
PARTS
 10
266.7000
 20
247.1420
 30
0.0
 42
  0.0985
 0
VERTEX
 8
PARTS
 10
266.9916
 20
247.2000
 30
0.0
 42
  0.0985
 0
VERTEX
 8
PARTS
 10
267.2388
 20
247.3652
 30
0.0
 42
  0.0985
 0
VERTEX
 8
PARTS
 10
267.4040
 20
247.6124
 30
0.0
 42
  0.0985
 0
SEQEND
 8
PARTS
 0
TEXT
 8
PARTTEXT
 10
269.7480
 20
169.0983
 30
0.0
 40
  1.3057
 1
12V
 0
POLYLINE
 8
PARTS
 66
1
 10
0.0
 20
0.0
 30
0.0
 0
VERTEX
 8
PARTS
 10
271.7800
 20
165.8620
 30
0.0
 0
VERTEX
 8
PARTS
 10
271.7800
 20
164.8460
 30
0.0
 0
SEQEND
 8
PARTS
 0
POLYLINE
 8
PARTS
 66
1
 70
1
 10
0.0
 20
0.0
 30
0.0
 0
VERTEX
 8
PARTS
 10
272.5420
 20
166.6240
 30
0.0
 42
  0.0985
 0
VERTEX
 8
PARTS
 10
272.4840
 20
166.9156
 30
0.0
 42
  0.0985
 0
VERTEX
 8
PARTS
 10
272.3188
 20
167.1628
 30
0.0
 42
  0.0985
 0
VERTEX
 8
PARTS
 10
272.0716
 20
167.3280
 30
0.0
 42
  0.0985
 0
VERTEX
 8
PARTS
 10
271.7800
 20
167.3860
 30
0.0
 42
  0.0985
 0
VERTEX
 8
PARTS
 10
271.4884
 20
167.3280
 30
0.0
 42
  0.0985
 0
VERTEX
 8
PARTS
 10
271.2412
 20
167.1628
 30
0.0
 42
  0.0985
 0
VERTEX
 8
PARTS
 10
271.0760
 20
166.9156
 30
0.0
 42
  0.0985
 0
VERTEX
 8
PARTS
 10
271.0180
 20
166.6240
 30
0.0
 42
  0.0985
 0
VERTEX
 8
PARTS
 10
271.0760
 20
166.3324
 30
0.0
 42
  0.0985
 0
VERTEX
 8
PARTS
 10
271.2412
 20
166.0852
 30
0.0
 42
  0.0985
 0
VERTEX
 8
PARTS
 10
271.4884
 20
165.9200
 30
0.0
 42
  0.0985
 0
VERTEX
 8
PARTS
 10
271.7800
 20
165.8620
 30
0.0
 42
  0.0985
 0
VERTEX
 8
PARTS
 10
272.0716
 20
165.9200
 30
0.0
 42
  0.0985
 0
VERTEX
 8
PARTS
 10
272.3188
 20
166.0852
 30
0.0
 42
  0.0985
 0
VERTEX
 8
PARTS
 10
272.4840
 20
166.3324
 30
0.0
 42
  0.0985
 0
SEQEND
 8
PARTS
 0
TEXT
 8
PARTTEXT
 10
308.3560
 20
116.7743
 30
0.0
 40
  1.3057
 1
24v
 0
POLYLINE
 8
PARTS
 66
1
 10
0.0
 20
0.0
 30
0.0
 0
VERTEX
 8
PARTS
 10
313.9440
 20
116.5860
 30
0.0
 0
VERTEX
 8
PARTS
 10
314.9600
 20
116.5860
 30
0.0
 0
SEQEND
 8
PARTS
 0
POLYLINE
 8
PARTS
 66
1
 70
1
 10
0.0
 20
0.0
 30
0.0
 0
VERTEX
 8
PARTS
 10
313.9440
 20
116.5860
 30
0.0
 42
  0.0985
 0
VERTEX
 8
PARTS
 10
313.8860
 20
116.8776
 30
0.0
 42
  0.0985
 0
VERTEX
 8
PARTS
 10
313.7208
 20
117.1248
 30
0.0
 42
  0.0985
 0
VERTEX
 8
PARTS
 10
313.4736
 20
117.2900
 30
0.0
 42
  0.0985
 0
VERTEX
 8
PARTS
 10
313.1820
 20
117.3480
 30
0.0
 42
  0.0985
 0
VERTEX
 8
PARTS
 10
312.8904
 20
117.2900
 30
0.0
 42
  0.0985
 0
VERTEX
 8
PARTS
 10
312.6432
 20
117.1248
 30
0.0
 42
  0.0985
 0
VERTEX
 8
PARTS
 10
312.4780
 20
116.8776
 30
0.0
 42
  0.0985
 0
VERTEX
 8
PARTS
 10
312.4200
 20
116.5860
 30
0.0
 42
  0.0985
 0
VERTEX
 8
PARTS
 10
312.4780
 20
116.2944
 30
0.0
 42
  0.0985
 0
VERTEX
 8
PARTS
 10
312.6432
 20
116.0472
 30
0.0
 42
  0.0985
 0
VERTEX
 8
PARTS
 10
312.8904
 20
115.8820
 30
0.0
 42
  0.0985
 0
VERTEX
 8
PARTS
 10
313.1820
 20
115.8240
 30
0.0
 42
  0.0985
 0
VERTEX
 8
PARTS
 10
313.4736
 20
115.8820
 30
0.0
 42
  0.0985
 0
VERTEX
 8
PARTS
 10
313.7208
 20
116.0472
 30
0.0
 42
  0.0985
 0
VERTEX
 8
PARTS
 10
313.8860
 20
116.2944
 30
0.0
 42
  0.0985
 0
SEQEND
 8
PARTS
 0
POLYLINE
 8
PARTS
 66
1
 10
0.0
 20
0.0
 30
0.0
 0
VERTEX
 8
PARTS
 10
245.1100
 20
215.6460
 30
0.0
 0
VERTEX
 8
PARTS
 10
246.3800
 20
218.1860
 30
0.0
 0
SEQEND
 8
PARTS
 0
POLYLINE
 8
PARTS
 66
1
 10
0.0
 20
0.0
 30
0.0
 0
VERTEX
 8
PARTS
 10
246.3800
 20
218.1860
 30
0.0
 0
VERTEX
 8
PARTS
 10
251.4600
 20
218.1860
 30
0.0
 0
SEQEND
 8
PARTS
 0
POLYLINE
 8
PARTS
 66
1
 10
0.0
 20
0.0
 30
0.0
 0
VERTEX
 8
PARTS
 10
251.4600
 20
218.1860
 30
0.0
 0
VERTEX
 8
PARTS
 10
250.1900
 20
215.6460
 30
0.0
 0
SEQEND
 8
PARTS
 0
POLYLINE
 8
PARTS
 66
1
 10
0.0
 20
0.0
 30
0.0
 0
VERTEX
 8
PARTS
 10
247.6500
 20
215.6460
 30
0.0
 0
VERTEX
 8
PARTS
 10
248.9200
 20
218.1860
 30
0.0
 0
SEQEND
 8
PARTS
 0
POLYLINE
 8
PARTS
 66
1
 10
0.0
 20
0.0
 30
0.0
 0
VERTEX
 8
PARTS
 10
278.1300
 20
213.1060
 30
0.0
 0
VERTEX
 8
PARTS
 10
279.4000
 20
215.6460
 30
0.0
 0
SEQEND
 8
PARTS
 0
POLYLINE
 8
PARTS
 66
1
 10
0.0
 20
0.0
 30
0.0
 0
VERTEX
 8
PARTS
 10
279.4000
 20
215.6460
 30
0.0
 0
VERTEX
 8
PARTS
 10
284.4800
 20
215.6460
 30
0.0
 0
SEQEND
 8
PARTS
 0
POLYLINE
 8
PARTS
 66
1
 10
0.0
 20
0.0
 30
0.0
 0
VERTEX
 8
PARTS
 10
284.4800
 20
215.6460
 30
0.0
 0
VERTEX
 8
PARTS
 10
283.2100
 20
213.1060
 30
0.0
 0
SEQEND
 8
PARTS
 0
POLYLINE
 8
PARTS
 66
1
 10
0.0
 20
0.0
 30
0.0
 0
VERTEX
 8
PARTS
 10
280.6700
 20
213.1060
 30
0.0
 0
VERTEX
 8
PARTS
 10
281.9400
 20
215.6460
 30
0.0
 0
SEQEND
 8
PARTS
 0
POLYLINE
 8
PARTS
 66
1
 10
0.0
 20
0.0
 30
0.0
 0
VERTEX
 8
PARTS
 10
245.1100
 20
136.9060
 30
0.0
 0
VERTEX
 8
PARTS
 10
246.3800
 20
139.4460
 30
0.0
 0
SEQEND
 8
PARTS
 0
POLYLINE
 8
PARTS
 66
1
 10
0.0
 20
0.0
 30
0.0
 0
VERTEX
 8
PARTS
 10
246.3800
 20
139.4460
 30
0.0
 0
VERTEX
 8
PARTS
 10
251.4600
 20
139.4460
 30
0.0
 0
SEQEND
 8
PARTS
 0
POLYLINE
 8
PARTS
 66
1
 10
0.0
 20
0.0
 30
0.0
 0
VERTEX
 8
PARTS
 10
251.4600
 20
139.4460
 30
0.0
 0
VERTEX
 8
PARTS
 10
250.1900
 20
136.9060
 30
0.0
 0
SEQEND
 8
PARTS
 0
POLYLINE
 8
PARTS
 66
1
 10
0.0
 20
0.0
 30
0.0
 0
VERTEX
 8
PARTS
 10
247.6500
 20
136.9060
 30
0.0
 0
VERTEX
 8
PARTS
 10
248.9200
 20
139.4460
 30
0.0
 0
SEQEND
 8
PARTS
 0
POLYLINE
 8
PARTS
 66
1
 10
0.0
 20
0.0
 30
0.0
 0
VERTEX
 8
PARTS
 10
278.1300
 20
134.3660
 30
0.0
 0
VERTEX
 8
PARTS
 10
279.4000
 20
136.9060
 30
0.0
 0
SEQEND
 8
PARTS
 0
POLYLINE
 8
PARTS
 66
1
 10
0.0
 20
0.0
 30
0.0
 0
VERTEX
 8
PARTS
 10
279.4000
 20
136.9060
 30
0.0
 0
VERTEX
 8
PARTS
 10
284.4800
 20
136.9060
 30
0.0
 0
SEQEND
 8
PARTS
 0
POLYLINE
 8
PARTS
 66
1
 10
0.0
 20
0.0
 30
0.0
 0
VERTEX
 8
PARTS
 10
284.4800
 20
136.9060
 30
0.0
 0
VERTEX
 8
PARTS
 10
283.2100
 20
134.3660
 30
0.0
 0
SEQEND
 8
PARTS
 0
POLYLINE
 8
PARTS
 66
1
 10
0.0
 20
0.0
 30
0.0
 0
VERTEX
 8
PARTS
 10
280.6700
 20
134.3660
 30
0.0
 0
VERTEX
 8
PARTS
 10
281.9400
 20
136.9060
 30
0.0
 0
SEQEND
 8
PARTS
 0
TEXT
 8
PARTTEXT
 10
246.8880
 20
164.0183
 30
0.0
 40
  1.3057
 1
12V
 0
POLYLINE
 8
PARTS
 66
1
 10
0.0
 20
0.0
 30
0.0
 0
VERTEX
 8
PARTS
 10
248.9200
 20
160.7820
 30
0.0
 0
VERTEX
 8
PARTS
 10
248.9200
 20
159.7660
 30
0.0
 0
SEQEND
 8
PARTS
 0
POLYLINE
 8
PARTS
 66
1
 70
1
 10
0.0
 20
0.0
 30
0.0
 0
VERTEX
 8
PARTS
 10
249.6820
 20
161.5440
 30
0.0
 42
  0.0985
 0
VERTEX
 8
PARTS
 10
249.6240
 20
161.8356
 30
0.0
 42
  0.0985
 0
VERTEX
 8
PARTS
 10
249.4588
 20
162.0828
 30
0.0
 42
  0.0985
 0
VERTEX
 8
PARTS
 10
249.2116
 20
162.2480
 30
0.0
 42
  0.0985
 0
VERTEX
 8
PARTS
 10
248.9200
 20
162.3060
 30
0.0
 42
  0.0985
 0
VERTEX
 8
PARTS
 10
248.6284
 20
162.2480
 30
0.0
 42
  0.0985
 0
VERTEX
 8
PARTS
 10
248.3812
 20
162.0828
 30
0.0
 42
  0.0985
 0
VERTEX
 8
PARTS
 10
248.2160
 20
161.8356
 30
0.0
 42
  0.0985
 0
VERTEX
 8
PARTS
 10
248.1580
 20
161.5440
 30
0.0
 42
  0.0985
 0
VERTEX
 8
PARTS
 10
248.2160
 20
161.2524
 30
0.0
 42
  0.0985
 0
VERTEX
 8
PARTS
 10
248.3812
 20
161.0052
 30
0.0
 42
  0.0985
 0
VERTEX
 8
PARTS
 10
248.6284
 20
160.8400
 30
0.0
 42
  0.0985
 0
VERTEX
 8
PARTS
 10
248.9200
 20
160.7820
 30
0.0
 42
  0.0985
 0
VERTEX
 8
PARTS
 10
249.2116
 20
160.8400
 30
0.0
 42
  0.0985
 0
VERTEX
 8
PARTS
 10
249.4588
 20
161.0052
 30
0.0
 42
  0.0985
 0
VERTEX
 8
PARTS
 10
249.6240
 20
161.2524
 30
0.0
 42
  0.0985
 0
SEQEND
 8
PARTS
 0
POLYLINE
 8
PARTS
 66
1
 10
0.0
 20
0.0
 30
0.0
 0
VERTEX
 8
PARTS
 10
133.3500
 20
225.8060
 30
0.0
 0
VERTEX
 8
PARTS
 10
134.6200
 20
228.3460
 30
0.0
 0
SEQEND
 8
PARTS
 0
POLYLINE
 8
PARTS
 66
1
 10
0.0
 20
0.0
 30
0.0
 0
VERTEX
 8
PARTS
 10
134.6200
 20
228.3460
 30
0.0
 0
VERTEX
 8
PARTS
 10
139.7000
 20
228.3460
 30
0.0
 0
SEQEND
 8
PARTS
 0
POLYLINE
 8
PARTS
 66
1
 10
0.0
 20
0.0
 30
0.0
 0
VERTEX
 8
PARTS
 10
139.7000
 20
228.3460
 30
0.0
 0
VERTEX
 8
PARTS
 10
138.4300
 20
225.8060
 30
0.0
 0
SEQEND
 8
PARTS
 0
POLYLINE
 8
PARTS
 66
1
 10
0.0
 20
0.0
 30
0.0
 0
VERTEX
 8
PARTS
 10
135.8900
 20
225.8060
 30
0.0
 0
VERTEX
 8
PARTS
 10
137.1600
 20
228.3460
 30
0.0
 0
SEQEND
 8
PARTS
 0
TEXT
 8
PARTTEXT
 10
203.7080
 20
166.5583
 30
0.0
 40
  1.3057
 1
12V
 0
POLYLINE
 8
PARTS
 66
1
 10
0.0
 20
0.0
 30
0.0
 0
VERTEX
 8
PARTS
 10
205.7400
 20
163.3220
 30
0.0
 0
VERTEX
 8
PARTS
 10
205.7400
 20
162.3060
 30
0.0
 0
SEQEND
 8
PARTS
 0
POLYLINE
 8
PARTS
 66
1
 70
1
 10
0.0
 20
0.0
 30
0.0
 0
VERTEX
 8
PARTS
 10
206.5020
 20
164.0840
 30
0.0
 42
  0.0985
 0
VERTEX
 8
PARTS
 10
206.4440
 20
164.3756
 30
0.0
 42
  0.0985
 0
VERTEX
 8
PARTS
 10
206.2788
 20
164.6228
 30
0.0
 42
  0.0985
 0
VERTEX
 8
PARTS
 10
206.0316
 20
164.7880
 30
0.0
 42
  0.0985
 0
VERTEX
 8
PARTS
 10
205.7400
 20
164.8460
 30
0.0
 42
  0.0985
 0
VERTEX
 8
PARTS
 10
205.4484
 20
164.7880
 30
0.0
 42
  0.0985
 0
VERTEX
 8
PARTS
 10
205.2012
 20
164.6228
 30
0.0
 42
  0.0985
 0
VERTEX
 8
PARTS
 10
205.0360
 20
164.3756
 30
0.0
 42
  0.0985
 0
VERTEX
 8
PARTS
 10
204.9780
 20
164.0840
 30
0.0
 42
  0.0985
 0
VERTEX
 8
PARTS
 10
205.0360
 20
163.7924
 30
0.0
 42
  0.0985
 0
VERTEX
 8
PARTS
 10
205.2012
 20
163.5452
 30
0.0
 42
  0.0985
 0
VERTEX
 8
PARTS
 10
205.4484
 20
163.3800
 30
0.0
 42
  0.0985
 0
VERTEX
 8
PARTS
 10
205.7400
 20
163.3220
 30
0.0
 42
  0.0985
 0
VERTEX
 8
PARTS
 10
206.0316
 20
163.3800
 30
0.0
 42
  0.0985
 0
VERTEX
 8
PARTS
 10
206.2788
 20
163.5452
 30
0.0
 42
  0.0985
 0
VERTEX
 8
PARTS
 10
206.4440
 20
163.7924
 30
0.0
 42
  0.0985
 0
SEQEND
 8
PARTS
 0
TEXT
 8
PARTTEXT
 10
203.7080
 20
245.2983
 30
0.0
 40
  1.3057
 1
12V
 0
POLYLINE
 8
PARTS
 66
1
 10
0.0
 20
0.0
 30
0.0
 0
VERTEX
 8
PARTS
 10
205.7400
 20
242.0620
 30
0.0
 0
VERTEX
 8
PARTS
 10
205.7400
 20
241.0460
 30
0.0
 0
SEQEND
 8
PARTS
 0
POLYLINE
 8
PARTS
 66
1
 70
1
 10
0.0
 20
0.0
 30
0.0
 0
VERTEX
 8
PARTS
 10
206.5020
 20
242.8240
 30
0.0
 42
  0.0985
 0
VERTEX
 8
PARTS
 10
206.4440
 20
243.1156
 30
0.0
 42
  0.0985
 0
VERTEX
 8
PARTS
 10
206.2788
 20
243.3628
 30
0.0
 42
  0.0985
 0
VERTEX
 8
PARTS
 10
206.0316
 20
243.5280
 30
0.0
 42
  0.0985
 0
VERTEX
 8
PARTS
 10
205.7400
 20
243.5860
 30
0.0
 42
  0.0985
 0
VERTEX
 8
PARTS
 10
205.4484
 20
243.5280
 30
0.0
 42
  0.0985
 0
VERTEX
 8
PARTS
 10
205.2012
 20
243.3628
 30
0.0
 42
  0.0985
 0
VERTEX
 8
PARTS
 10
205.0360
 20
243.1156
 30
0.0
 42
  0.0985
 0
VERTEX
 8
PARTS
 10
204.9780
 20
242.8240
 30
0.0
 42
  0.0985
 0
VERTEX
 8
PARTS
 10
205.0360
 20
242.5324
 30
0.0
 42
  0.0985
 0
VERTEX
 8
PARTS
 10
205.2012
 20
242.2852
 30
0.0
 42
  0.0985
 0
VERTEX
 8
PARTS
 10
205.4484
 20
242.1200
 30
0.0
 42
  0.0985
 0
VERTEX
 8
PARTS
 10
205.7400
 20
242.0620
 30
0.0
 42
  0.0985
 0
VERTEX
 8
PARTS
 10
206.0316
 20
242.1200
 30
0.0
 42
  0.0985
 0
VERTEX
 8
PARTS
 10
206.2788
 20
242.2852
 30
0.0
 42
  0.0985
 0
VERTEX
 8
PARTS
 10
206.4440
 20
242.5324
 30
0.0
 42
  0.0985
 0
SEQEND
 8
PARTS
 0
TEXT
 8
PARTTEXT
 10
246.8880
 20
242.7583
 30
0.0
 40
  1.3057
 1
12V
 0
POLYLINE
 8
PARTS
 66
1
 10
0.0
 20
0.0
 30
0.0
 0
VERTEX
 8
PARTS
 10
248.9200
 20
239.5220
 30
0.0
 0
VERTEX
 8
PARTS
 10
248.9200
 20
238.5060
 30
0.0
 0
SEQEND
 8
PARTS
 0
POLYLINE
 8
PARTS
 66
1
 70
1
 10
0.0
 20
0.0
 30
0.0
 0
VERTEX
 8
PARTS
 10
249.6820
 20
240.2840
 30
0.0
 42
  0.0985
 0
VERTEX
 8
PARTS
 10
249.6240
 20
240.5756
 30
0.0
 42
  0.0985
 0
VERTEX
 8
PARTS
 10
249.4588
 20
240.8228
 30
0.0
 42
  0.0985
 0
VERTEX
 8
PARTS
 10
249.2116
 20
240.9880
 30
0.0
 42
  0.0985
 0
VERTEX
 8
PARTS
 10
248.9200
 20
241.0460
 30
0.0
 42
  0.0985
 0
VERTEX
 8
PARTS
 10
248.6284
 20
240.9880
 30
0.0
 42
  0.0985
 0
VERTEX
 8
PARTS
 10
248.3812
 20
240.8228
 30
0.0
 42
  0.0985
 0
VERTEX
 8
PARTS
 10
248.2160
 20
240.5756
 30
0.0
 42
  0.0985
 0
VERTEX
 8
PARTS
 10
248.1580
 20
240.2840
 30
0.0
 42
  0.0985
 0
VERTEX
 8
PARTS
 10
248.2160
 20
239.9924
 30
0.0
 42
  0.0985
 0
VERTEX
 8
PARTS
 10
248.3812
 20
239.7452
 30
0.0
 42
  0.0985
 0
VERTEX
 8
PARTS
 10
248.6284
 20
239.5800
 30
0.0
 42
  0.0985
 0
VERTEX
 8
PARTS
 10
248.9200
 20
239.5220
 30
0.0
 42
  0.0985
 0
VERTEX
 8
PARTS
 10
249.2116
 20
239.5800
 30
0.0
 42
  0.0985
 0
VERTEX
 8
PARTS
 10
249.4588
 20
239.7452
 30
0.0
 42
  0.0985
 0
VERTEX
 8
PARTS
 10
249.6240
 20
239.9924
 30
0.0
 42
  0.0985
 0
SEQEND
 8
PARTS
 0
POLYLINE
 8
PARTS
 66
1
 10
0.0
 20
0.0
 30
0.0
 0
VERTEX
 8
PARTS
 10
133.3500
 20
182.6260
 30
0.0
 0
VERTEX
 8
PARTS
 10
134.6200
 20
185.1660
 30
0.0
 0
SEQEND
 8
PARTS
 0
POLYLINE
 8
PARTS
 66
1
 10
0.0
 20
0.0
 30
0.0
 0
VERTEX
 8
PARTS
 10
134.6200
 20
185.1660
 30
0.0
 0
VERTEX
 8
PARTS
 10
139.7000
 20
185.1660
 30
0.0
 0
SEQEND
 8
PARTS
 0
POLYLINE
 8
PARTS
 66
1
 10
0.0
 20
0.0
 30
0.0
 0
VERTEX
 8
PARTS
 10
139.7000
 20
185.1660
 30
0.0
 0
VERTEX
 8
PARTS
 10
138.4300
 20
182.6260
 30
0.0
 0
SEQEND
 8
PARTS
 0
POLYLINE
 8
PARTS
 66
1
 10
0.0
 20
0.0
 30
0.0
 0
VERTEX
 8
PARTS
 10
135.8900
 20
182.6260
 30
0.0
 0
VERTEX
 8
PARTS
 10
137.1600
 20
185.1660
 30
0.0
 0
SEQEND
 8
PARTS
 0
TEXT
 8
PARTTEXT
 10
107.1880
 20
212.2783
 30
0.0
 40
  1.3057
 1
12V
 0
POLYLINE
 8
PARTS
 66
1
 10
0.0
 20
0.0
 30
0.0
 0
VERTEX
 8
PARTS
 10
109.2200
 20
209.0420
 30
0.0
 0
VERTEX
 8
PARTS
 10
109.2200
 20
208.0260
 30
0.0
 0
SEQEND
 8
PARTS
 0
POLYLINE
 8
PARTS
 66
1
 70
1
 10
0.0
 20
0.0
 30
0.0
 0
VERTEX
 8
PARTS
 10
109.9820
 20
209.8040
 30
0.0
 42
  0.0985
 0
VERTEX
 8
PARTS
 10
109.9240
 20
210.0956
 30
0.0
 42
  0.0985
 0
VERTEX
 8
PARTS
 10
109.7588
 20
210.3428
 30
0.0
 42
  0.0985
 0
VERTEX
 8
PARTS
 10
109.5116
 20
210.5080
 30
0.0
 42
  0.0985
 0
VERTEX
 8
PARTS
 10
109.2200
 20
210.5660
 30
0.0
 42
  0.0985
 0
VERTEX
 8
PARTS
 10
108.9284
 20
210.5080
 30
0.0
 42
  0.0985
 0
VERTEX
 8
PARTS
 10
108.6812
 20
210.3428
 30
0.0
 42
  0.0985
 0
VERTEX
 8
PARTS
 10
108.5160
 20
210.0956
 30
0.0
 42
  0.0985
 0
VERTEX
 8
PARTS
 10
108.4580
 20
209.8040
 30
0.0
 42
  0.0985
 0
VERTEX
 8
PARTS
 10
108.5160
 20
209.5124
 30
0.0
 42
  0.0985
 0
VERTEX
 8
PARTS
 10
108.6812
 20
209.2652
 30
0.0
 42
  0.0985
 0
VERTEX
 8
PARTS
 10
108.9284
 20
209.1000
 30
0.0
 42
  0.0985
 0
VERTEX
 8
PARTS
 10
109.2200
 20
209.0420
 30
0.0
 42
  0.0985
 0
VERTEX
 8
PARTS
 10
109.5116
 20
209.1000
 30
0.0
 42
  0.0985
 0
VERTEX
 8
PARTS
 10
109.7588
 20
209.2652
 30
0.0
 42
  0.0985
 0
VERTEX
 8
PARTS
 10
109.9240
 20
209.5124
 30
0.0
 42
  0.0985
 0
SEQEND
 8
PARTS
 0
TEXT
 8
PARTTEXT
 10
308.3560
 20
198.0543
 30
0.0
 40
  1.3057
 1
24v
 0
POLYLINE
 8
PARTS
 66
1
 10
0.0
 20
0.0
 30
0.0
 0
VERTEX
 8
PARTS
 10
313.9440
 20
197.8660
 30
0.0
 0
VERTEX
 8
PARTS
 10
314.9600
 20
197.8660
 30
0.0
 0
SEQEND
 8
PARTS
 0
POLYLINE
 8
PARTS
 66
1
 70
1
 10
0.0
 20
0.0
 30
0.0
 0
VERTEX
 8
PARTS
 10
313.9440
 20
197.8660
 30
0.0
 42
  0.0985
 0
VERTEX
 8
PARTS
 10
313.8860
 20
198.1576
 30
0.0
 42
  0.0985
 0
VERTEX
 8
PARTS
 10
313.7208
 20
198.4048
 30
0.0
 42
  0.0985
 0
VERTEX
 8
PARTS
 10
313.4736
 20
198.5700
 30
0.0
 42
  0.0985
 0
VERTEX
 8
PARTS
 10
313.1820
 20
198.6280
 30
0.0
 42
  0.0985
 0
VERTEX
 8
PARTS
 10
312.8904
 20
198.5700
 30
0.0
 42
  0.0985
 0
VERTEX
 8
PARTS
 10
312.6432
 20
198.4048
 30
0.0
 42
  0.0985
 0
VERTEX
 8
PARTS
 10
312.4780
 20
198.1576
 30
0.0
 42
  0.0985
 0
VERTEX
 8
PARTS
 10
312.4200
 20
197.8660
 30
0.0
 42
  0.0985
 0
VERTEX
 8
PARTS
 10
312.4780
 20
197.5744
 30
0.0
 42
  0.0985
 0
VERTEX
 8
PARTS
 10
312.6432
 20
197.3272
 30
0.0
 42
  0.0985
 0
VERTEX
 8
PARTS
 10
312.8904
 20
197.1620
 30
0.0
 42
  0.0985
 0
VERTEX
 8
PARTS
 10
313.1820
 20
197.1040
 30
0.0
 42
  0.0985
 0
VERTEX
 8
PARTS
 10
313.4736
 20
197.1620
 30
0.0
 42
  0.0985
 0
VERTEX
 8
PARTS
 10
313.7208
 20
197.3272
 30
0.0
 42
  0.0985
 0
VERTEX
 8
PARTS
 10
313.8860
 20
197.5744
 30
0.0
 42
  0.0985
 0
SEQEND
 8
PARTS
 0
TEXT
 8
PARTTEXT
 10
107.1880
 20
255.4583
 30
0.0
 40
  1.3057
 1
12V
 0
POLYLINE
 8
PARTS
 66
1
 10
0.0
 20
0.0
 30
0.0
 0
VERTEX
 8
PARTS
 10
109.2200
 20
252.2220
 30
0.0
 0
VERTEX
 8
PARTS
 10
109.2200
 20
251.2060
 30
0.0
 0
SEQEND
 8
PARTS
 0
POLYLINE
 8
PARTS
 66
1
 70
1
 10
0.0
 20
0.0
 30
0.0
 0
VERTEX
 8
PARTS
 10
109.9820
 20
252.9840
 30
0.0
 42
  0.0985
 0
VERTEX
 8
PARTS
 10
109.9240
 20
253.2756
 30
0.0
 42
  0.0985
 0
VERTEX
 8
PARTS
 10
109.7588
 20
253.5228
 30
0.0
 42
  0.0985
 0
VERTEX
 8
PARTS
 10
109.5116
 20
253.6880
 30
0.0
 42
  0.0985
 0
VERTEX
 8
PARTS
 10
109.2200
 20
253.7460
 30
0.0
 42
  0.0985
 0
VERTEX
 8
PARTS
 10
108.9284
 20
253.6880
 30
0.0
 42
  0.0985
 0
VERTEX
 8
PARTS
 10
108.6812
 20
253.5228
 30
0.0
 42
  0.0985
 0
VERTEX
 8
PARTS
 10
108.5160
 20
253.2756
 30
0.0
 42
  0.0985
 0
VERTEX
 8
PARTS
 10
108.4580
 20
252.9840
 30
0.0
 42
  0.0985
 0
VERTEX
 8
PARTS
 10
108.5160
 20
252.6924
 30
0.0
 42
  0.0985
 0
VERTEX
 8
PARTS
 10
108.6812
 20
252.4452
 30
0.0
 42
  0.0985
 0
VERTEX
 8
PARTS
 10
108.9284
 20
252.2800
 30
0.0
 42
  0.0985
 0
VERTEX
 8
PARTS
 10
109.2200
 20
252.2220
 30
0.0
 42
  0.0985
 0
VERTEX
 8
PARTS
 10
109.5116
 20
252.2800
 30
0.0
 42
  0.0985
 0
VERTEX
 8
PARTS
 10
109.7588
 20
252.4452
 30
0.0
 42
  0.0985
 0
VERTEX
 8
PARTS
 10
109.9240
 20
252.6924
 30
0.0
 42
  0.0985
 0
SEQEND
 8
PARTS
 0
POLYLINE
 8
PARTS
 66
1
 10
0.0
 20
0.0
 30
0.0
 0
VERTEX
 8
PARTS
 10
252.7300
 20
261.3660
 30
0.0
 0
VERTEX
 8
PARTS
 10
254.0000
 20
263.9060
 30
0.0
 0
SEQEND
 8
PARTS
 0
POLYLINE
 8
PARTS
 66
1
 10
0.0
 20
0.0
 30
0.0
 0
VERTEX
 8
PARTS
 10
254.0000
 20
263.9060
 30
0.0
 0
VERTEX
 8
PARTS
 10
259.0800
 20
263.9060
 30
0.0
 0
SEQEND
 8
PARTS
 0
POLYLINE
 8
PARTS
 66
1
 10
0.0
 20
0.0
 30
0.0
 0
VERTEX
 8
PARTS
 10
259.0800
 20
263.9060
 30
0.0
 0
VERTEX
 8
PARTS
 10
257.8100
 20
261.3660
 30
0.0
 0
SEQEND
 8
PARTS
 0
POLYLINE
 8
PARTS
 66
1
 10
0.0
 20
0.0
 30
0.0
 0
VERTEX
 8
PARTS
 10
255.2700
 20
261.3660
 30
0.0
 0
VERTEX
 8
PARTS
 10
256.5400
 20
263.9060
 30
0.0
 0
SEQEND
 8
PARTS
 0
TEXT
 8
PARTTEXT
 10
251.9680
 20
280.8583
 30
0.0
 40
  1.3057
 1
24v
 0
POLYLINE
 8
PARTS
 66
1
 10
0.0
 20
0.0
 30
0.0
 0
VERTEX
 8
PARTS
 10
254.0000
 20
277.6220
 30
0.0
 0
VERTEX
 8
PARTS
 10
254.0000
 20
276.6060
 30
0.0
 0
SEQEND
 8
PARTS
 0
POLYLINE
 8
PARTS
 66
1
 70
1
 10
0.0
 20
0.0
 30
0.0
 0
VERTEX
 8
PARTS
 10
254.7620
 20
278.3840
 30
0.0
 42
  0.0985
 0
VERTEX
 8
PARTS
 10
254.7040
 20
278.6756
 30
0.0
 42
  0.0985
 0
VERTEX
 8
PARTS
 10
254.5388
 20
278.9228
 30
0.0
 42
  0.0985
 0
VERTEX
 8
PARTS
 10
254.2916
 20
279.0880
 30
0.0
 42
  0.0985
 0
VERTEX
 8
PARTS
 10
254.0000
 20
279.1460
 30
0.0
 42
  0.0985
 0
VERTEX
 8
PARTS
 10
253.7084
 20
279.0880
 30
0.0
 42
  0.0985
 0
VERTEX
 8
PARTS
 10
253.4612
 20
278.9228
 30
0.0
 42
  0.0985
 0
VERTEX
 8
PARTS
 10
253.2960
 20
278.6756
 30
0.0
 42
  0.0985
 0
VERTEX
 8
PARTS
 10
253.2380
 20
278.3840
 30
0.0
 42
  0.0985
 0
VERTEX
 8
PARTS
 10
253.2960
 20
278.0924
 30
0.0
 42
  0.0985
 0
VERTEX
 8
PARTS
 10
253.4612
 20
277.8452
 30
0.0
 42
  0.0985
 0
VERTEX
 8
PARTS
 10
253.7084
 20
277.6800
 30
0.0
 42
  0.0985
 0
VERTEX
 8
PARTS
 10
254.0000
 20
277.6220
 30
0.0
 42
  0.0985
 0
VERTEX
 8
PARTS
 10
254.2916
 20
277.6800
 30
0.0
 42
  0.0985
 0
VERTEX
 8
PARTS
 10
254.5388
 20
277.8452
 30
0.0
 42
  0.0985
 0
VERTEX
 8
PARTS
 10
254.7040
 20
278.0924
 30
0.0
 42
  0.0985
 0
SEQEND
 8
PARTS
 0
POLYLINE
 8
PARTS
 66
1
 10
0.0
 20
0.0
 30
0.0
 0
VERTEX
 8
PARTS
 10
222.2500
 20
261.3660
 30
0.0
 0
VERTEX
 8
PARTS
 10
223.5200
 20
263.9060
 30
0.0
 0
SEQEND
 8
PARTS
 0
POLYLINE
 8
PARTS
 66
1
 10
0.0
 20
0.0
 30
0.0
 0
VERTEX
 8
PARTS
 10
223.5200
 20
263.9060
 30
0.0
 0
VERTEX
 8
PARTS
 10
228.6000
 20
263.9060
 30
0.0
 0
SEQEND
 8
PARTS
 0
POLYLINE
 8
PARTS
 66
1
 10
0.0
 20
0.0
 30
0.0
 0
VERTEX
 8
PARTS
 10
228.6000
 20
263.9060
 30
0.0
 0
VERTEX
 8
PARTS
 10
227.3300
 20
261.3660
 30
0.0
 0
SEQEND
 8
PARTS
 0
POLYLINE
 8
PARTS
 66
1
 10
0.0
 20
0.0
 30
0.0
 0
VERTEX
 8
PARTS
 10
224.7900
 20
261.3660
 30
0.0
 0
VERTEX
 8
PARTS
 10
226.0600
 20
263.9060
 30
0.0
 0
SEQEND
 8
PARTS
 0
TEXT
 8
PARTTEXT
 10
221.4880
 20
280.8583
 30
0.0
 40
  1.3057
 1
12V
 0
POLYLINE
 8
PARTS
 66
1
 10
0.0
 20
0.0
 30
0.0
 0
VERTEX
 8
PARTS
 10
223.5200
 20
277.6220
 30
0.0
 0
VERTEX
 8
PARTS
 10
223.5200
 20
276.6060
 30
0.0
 0
SEQEND
 8
PARTS
 0
POLYLINE
 8
PARTS
 66
1
 70
1
 10
0.0
 20
0.0
 30
0.0
 0
VERTEX
 8
PARTS
 10
224.2820
 20
278.3840
 30
0.0
 42
  0.0985
 0
VERTEX
 8
PARTS
 10
224.2240
 20
278.6756
 30
0.0
 42
  0.0985
 0
VERTEX
 8
PARTS
 10
224.0588
 20
278.9228
 30
0.0
 42
  0.0985
 0
VERTEX
 8
PARTS
 10
223.8116
 20
279.0880
 30
0.0
 42
  0.0985
 0
VERTEX
 8
PARTS
 10
223.5200
 20
279.1460
 30
0.0
 42
  0.0985
 0
VERTEX
 8
PARTS
 10
223.2284
 20
279.0880
 30
0.0
 42
  0.0985
 0
VERTEX
 8
PARTS
 10
222.9812
 20
278.9228
 30
0.0
 42
  0.0985
 0
VERTEX
 8
PARTS
 10
222.8160
 20
278.6756
 30
0.0
 42
  0.0985
 0
VERTEX
 8
PARTS
 10
222.7580
 20
278.3840
 30
0.0
 42
  0.0985
 0
VERTEX
 8
PARTS
 10
222.8160
 20
278.0924
 30
0.0
 42
  0.0985
 0
VERTEX
 8
PARTS
 10
222.9812
 20
277.8452
 30
0.0
 42
  0.0985
 0
VERTEX
 8
PARTS
 10
223.2284
 20
277.6800
 30
0.0
 42
  0.0985
 0
VERTEX
 8
PARTS
 10
223.5200
 20
277.6220
 30
0.0
 42
  0.0985
 0
VERTEX
 8
PARTS
 10
223.8116
 20
277.6800
 30
0.0
 42
  0.0985
 0
VERTEX
 8
PARTS
 10
224.0588
 20
277.8452
 30
0.0
 42
  0.0985
 0
VERTEX
 8
PARTS
 10
224.2240
 20
278.0924
 30
0.0
 42
  0.0985
 0
SEQEND
 8
PARTS
 0
POLYLINE
 8
PARTS
 66
1
 10
0.0
 20
0.0
 30
0.0
 0
VERTEX
 8
PARTS
 10
 52.0700
 20
200.4060
 30
0.0
 0
VERTEX
 8
PARTS
 10
 53.3400
 20
202.9460
 30
0.0
 0
SEQEND
 8
PARTS
 0
POLYLINE
 8
PARTS
 66
1
 10
0.0
 20
0.0
 30
0.0
 0
VERTEX
 8
PARTS
 10
 53.3400
 20
202.9460
 30
0.0
 0
VERTEX
 8
PARTS
 10
 58.4200
 20
202.9460
 30
0.0
 0
SEQEND
 8
PARTS
 0
POLYLINE
 8
PARTS
 66
1
 10
0.0
 20
0.0
 30
0.0
 0
VERTEX
 8
PARTS
 10
 58.4200
 20
202.9460
 30
0.0
 0
VERTEX
 8
PARTS
 10
 57.1500
 20
200.4060
 30
0.0
 0
SEQEND
 8
PARTS
 0
POLYLINE
 8
PARTS
 66
1
 10
0.0
 20
0.0
 30
0.0
 0
VERTEX
 8
PARTS
 10
 54.6100
 20
200.4060
 30
0.0
 0
VERTEX
 8
PARTS
 10
 55.8800
 20
202.9460
 30
0.0
 0
SEQEND
 8
PARTS
 0
TEXT
 8
PARTTEXT
 10
 41.1480
 20
219.8983
 30
0.0
 40
  1.3057
 1
12V
 0
POLYLINE
 8
PARTS
 66
1
 10
0.0
 20
0.0
 30
0.0
 0
VERTEX
 8
PARTS
 10
 43.1800
 20
216.6620
 30
0.0
 0
VERTEX
 8
PARTS
 10
 43.1800
 20
215.6460
 30
0.0
 0
SEQEND
 8
PARTS
 0
POLYLINE
 8
PARTS
 66
1
 70
1
 10
0.0
 20
0.0
 30
0.0
 0
VERTEX
 8
PARTS
 10
 43.9420
 20
217.4240
 30
0.0
 42
  0.0985
 0
VERTEX
 8
PARTS
 10
 43.8840
 20
217.7156
 30
0.0
 42
  0.0985
 0
VERTEX
 8
PARTS
 10
 43.7188
 20
217.9628
 30
0.0
 42
  0.0985
 0
VERTEX
 8
PARTS
 10
 43.4716
 20
218.1280
 30
0.0
 42
  0.0985
 0
VERTEX
 8
PARTS
 10
 43.1800
 20
218.1860
 30
0.0
 42
  0.0985
 0
VERTEX
 8
PARTS
 10
 42.8884
 20
218.1280
 30
0.0
 42
  0.0985
 0
VERTEX
 8
PARTS
 10
 42.6412
 20
217.9628
 30
0.0
 42
  0.0985
 0
VERTEX
 8
PARTS
 10
 42.4760
 20
217.7156
 30
0.0
 42
  0.0985
 0
VERTEX
 8
PARTS
 10
 42.4180
 20
217.4240
 30
0.0
 42
  0.0985
 0
VERTEX
 8
PARTS
 10
 42.4760
 20
217.1324
 30
0.0
 42
  0.0985
 0
VERTEX
 8
PARTS
 10
 42.6412
 20
216.8852
 30
0.0
 42
  0.0985
 0
VERTEX
 8
PARTS
 10
 42.8884
 20
216.7200
 30
0.0
 42
  0.0985
 0
VERTEX
 8
PARTS
 10
 43.1800
 20
216.6620
 30
0.0
 42
  0.0985
 0
VERTEX
 8
PARTS
 10
 43.4716
 20
216.7200
 30
0.0
 42
  0.0985
 0
VERTEX
 8
PARTS
 10
 43.7188
 20
216.8852
 30
0.0
 42
  0.0985
 0
VERTEX
 8
PARTS
 10
 43.8840
 20
217.1324
 30
0.0
 42
  0.0985
 0
SEQEND
 8
PARTS
 0
ENDSEC
 0
EOF
